<?xml version="1.0" encoding="UTF-8"?><svg id="_レイヤー_2" xmlns="http://www.w3.org/2000/svg" viewBox="0 0 1000 208"><defs><style>.cls-1{fill:#fff;}.cls-2{fill:#39b54a;}.cls-3{fill:#007816;}.cls-4{fill:#00b33e;}</style></defs><g id="_内容_共通_"><rect class="cls-3" x="0" y="8" width="1000" height="200" rx="20" ry="20"/><rect class="cls-2" x="0" width="1000" height="200" rx="20" ry="20"/><rect class="cls-1" x="19.37" y="16.77" width="966.18" height="41.99" rx="8.46" ry="8.46"/><path class="cls-4" d="m247.14,25.63h4.55v4.15c.61-.06,2.54-.29,5.07-.87l.09,4.53c-2.59.41-3.09.46-5.16.7v1.77c1.72-.46,3.38-.75,5.16-.75,6.15,0,8.54,4.06,8.54,7.95,0,3.1-1.69,7.43-7.75,7.43-1.28,0-2.1-.2-2.74-.35l-.15-4.73c.52.2,1.28.52,2.51.52,3.26,0,3.44-2.26,3.44-3.05,0-1.51-.84-3.57-4.55-3.57-2.01,0-3.53.52-4.46.81v4.64c0,1.83-.06,2.67-.35,3.51-.84,2.55-3.32,2.7-3.99,2.7-2.68,0-6.85-1.97-6.85-5.77,0-4.32,4.75-6.88,6.65-7.72v-2.99c-2.94.12-3.32.15-5.54.15l-.06-4.58c.96.06,1.66.09,2.91.09.35,0,1.54,0,2.68-.06v-4.5Zm.12,16.48c-.47.29-2.74,1.65-2.74,3.07,0,.81,1.11,1.62,2.04,1.62.7,0,.7-.58.7-1.6v-3.1Zm13.14-14.76c3.15,1.94,5.19,4.03,6.53,5.54l-3.24,3.1c-1.69-2.21-3.41-3.86-6.06-5.57l2.77-3.08Z"/><path class="cls-4" d="m299.45,28.56h-10v.96h11.48v6.32h-4.31v-3.83h-7.17v4.82h-3.88v-4.82h-7.05v3.83h-4.14v-6.32h11.19v-.96h-9.73v-3.08h23.61v3.08Zm2.36,18.1c-.41,5.08-2.01,5.34-3.82,5.34h-9.65c-2.33,0-3.06-.93-3.06-2.29v-1.8h-9.65v-10.44h23.84v8.61l2.33.58Zm-17.2-13.78v1.42h-5.13v-1.42h5.13Zm0,2.32v1.45h-5.13v-1.45h5.13Zm.67,8.53h-5.39v1.51h5.39v-1.51Zm0-3.63h-5.33v1.42h5.33v-1.42Zm9.82,0h-5.62v1.42h5.62v-1.42Zm0,3.63h-5.62v1.51h5.62v-1.51Zm1.08,5.34c.7,0,1.08-.03,1.4-1.16h-8.1v.49c0,.44.15.67.58.67h6.12Zm-.5-16.19v1.42h-5.28v-1.42h5.28Zm0,2.32v1.45h-5.28v-1.45h5.28Z"/><path class="cls-4" d="m320.25,29.72v3.25h-11.45v-3.25h11.45Zm-.9-4.29v3.13h-9.76v-3.13h9.76Zm0,8.67v3.16h-9.76v-3.16h9.76Zm0,4.38v3.16h-9.76v-3.16h9.76Zm0,4.35v8.93h-9.76v-8.93h9.76Zm-3.53,3.05h-2.24v2.73h2.24v-2.73Zm4.37-19.84c1.69,0,9.56-.03,14.16-1.45l1.54,3.95c-1.4.35-2.01.46-5.36.87v2.84h5.83v3.97h-5.83v3.05h4.78v12.42h-13.87v-12.42h4.9v-3.05h-6v-3.97h6v-2.47c-2.27.17-3.41.2-5.3.23l-.84-3.97Zm10.96,17.08h-5.51v4.61h5.51v-4.61Z"/><path class="cls-4" d="m369.09,27.2l.38,4.64c-2.1.03-4.98.12-8.07,1.86-1.49.81-5.01,3.13-5.01,6.99,0,4.73,5.83,5.71,8.69,5.92l-2.19,4.58c-7.17-.84-11.37-4.61-11.37-10.09s3.53-7.8,5.3-9.02l-12.18,1.57-.35-4.84c1.28-.03,3.91-.06,5.33-.17l19.47-1.42Zm-5.27,7.92c1.19,1.42,2.13,2.99,3.32,5.42l-2.56,1.48c-.99-2.26-1.78-3.66-3.21-5.51l2.45-1.39Zm3.99-2.12c1.6,1.89,2.68,3.89,3.41,5.34l-2.59,1.42c-1.11-2.35-1.81-3.57-3.29-5.45l2.48-1.31Z"/><path class="cls-4" d="m391.7,47.01c3.21-.99,7.69-3.02,7.69-8.62,0-1.39-.23-6.06-5.71-7.17-.44,3.05-1.2,8.27-3.32,13.2-1.17,2.67-2.62,4.84-5.19,4.84-3.29,0-6.56-4.06-6.56-9.6,0-7.34,5.54-12.79,13.35-12.79,7.2,0,12.24,4.61,12.24,11.57,0,9.14-7.99,11.81-9.71,12.39l-2.8-3.83Zm-8.57-7.19c0,2.64.99,4.52,1.87,4.52.7,0,1.43-2.03,1.78-3.02,1.49-4.26,2.04-8.18,2.27-9.83-4.02,1.28-5.92,4.7-5.92,8.32Z"/><path class="cls-4" d="m419.7,25.63h4.55v4.15c.61-.06,2.54-.29,5.07-.87l.09,4.53c-2.59.41-3.09.46-5.16.7v1.77c1.72-.46,3.38-.75,5.16-.75,6.15,0,8.54,4.06,8.54,7.95,0,3.1-1.69,7.43-7.75,7.43-1.28,0-2.1-.2-2.74-.35l-.15-4.73c.52.2,1.28.52,2.51.52,3.26,0,3.44-2.26,3.44-3.05,0-1.51-.84-3.57-4.55-3.57-2.01,0-3.53.52-4.46.81v4.64c0,1.83-.06,2.67-.35,3.51-.84,2.55-3.32,2.7-3.99,2.7-2.68,0-6.85-1.97-6.85-5.77,0-4.32,4.75-6.88,6.65-7.72v-2.99c-2.94.12-3.32.15-5.54.15l-.06-4.58c.96.06,1.66.09,2.91.09.35,0,1.54,0,2.68-.06v-4.5Zm.12,16.48c-.47.29-2.74,1.65-2.74,3.07,0,.81,1.11,1.62,2.04,1.62.7,0,.7-.58.7-1.6v-3.1Zm13.14-14.76c3.15,1.94,5.19,4.03,6.53,5.54l-3.24,3.1c-1.69-2.21-3.41-3.86-6.06-5.57l2.77-3.08Z"/><path class="cls-4" d="m447.2,25.72h11.98v12.1h-7.64v14.5h-4.34v-26.6Zm4.37,3.42v1.45h3.38v-1.45h-3.38Zm0,4v1.51h3.38v-1.51h-3.38Zm14.78,14.71h1.75c.73,0,.82-.17.82-.84v-9.2h-7.78v-12.1h12.12v23.5c0,2.96-1.87,3.1-2.88,3.1h-5.45l-.44-2.64h-10.43v-10.18h12.3v8.35Zm-8.28-4.81v2.93h4.26v-2.93h-4.26Zm7.32-13.89v1.45h3.53v-1.45h-3.53Zm0,4v1.51h3.53v-1.51h-3.53Z"/><path class="cls-4" d="m488.37,28.39c-.23,1.48-.76,4.5-.76,7.95,0,5.19,1.25,8.5,2.36,8.5s2.33-3.65,2.74-5.13l3.79,2.52c-2.24,6.7-4.66,8.01-6.76,8.01-2.83,0-6.94-3.25-6.94-14.1,0-2.93.29-5.63.85-8.5l4.72.75Zm14.63,17.64c.23-6.38-1.69-11.37-4.31-14.36l3.85-2.32c5.39,5.66,5.36,13.14,5.33,15.29l-4.87,1.39Z"/><path class="cls-4" d="m541.87,36.57c-1.19-.52-2.24-1.02-4.49-2.32v2.41h-14.98v-2.47c-1.4.81-2.48,1.42-4.63,2.38l-2.13-4.47c5.1-1.62,9.33-4.35,11.86-7.43h4.78c4.11,4.7,10,6.79,11.86,7.43l-2.27,4.47Zm-.7,2v13.17h-22.65v-13.17h22.65Zm-4.58,4h-13.52v5.22h13.52v-5.22Zm-1.63-9.89c-1.63-1.16-3.06-2.29-5.13-4.55-1.17,1.36-2.27,2.52-5.1,4.55h10.23Z"/><path class="cls-4" d="m564.28,45.85c3.96-.23,8.36-2.12,8.36-6.76,0-3.71-3-4.41-4.4-4.41-2.8,0-5.19,1.65-6.64,3.02-.06,3.66-.03,5.25.06,13.34h-4.46l.03-8.35c-.85,1.22-1.54,2.2-2.77,4.21l-3.35-3.16c.29-.38,3.67-4.81,3.73-4.87.67-.9,1.75-2.32,2.42-3.22v-.93c-.93.14-2.59.38-4.55.52l-.44-4.61c2.42-.03,3.47-.12,5.01-.26l.03-4.5h4.49c0,.73-.15,6.38-.15,6.79,1.69-1.13,3.96-2.29,6.94-2.29,4.28,0,8.8,2.67,8.8,8.85,0,7.16-5.74,10.38-11.48,11.05l-1.63-4.41Z"/><path class="cls-4" d="m602.57,25.98l4.63.03.09,5.69c.99-.09,3.82-.41,4.37-.49l.38,4.58c-1.98.06-3.12.12-4.75.23-.12,6.44-.73,8.41-7.87,8.33l-1.17-4.23c.47.03.99.06,1.78.06,2.54,0,2.71-.17,2.74-3.77l-7.43.61v4.09c0,4.38.03,5.37,5.27,5.37,3.06,0,6.56-.32,8.66-.52l-.52,4.58c-1.34.12-4.11.32-7.52.32-5.89,0-10.43-.64-10.46-7.77l-.03-5.69c-2.07.2-2.94.29-4.37.49l-.38-4.58c1.72-.03,2.36-.06,4.72-.23l-.03-6.38h4.66v6l7.4-.61-.17-6.09Z"/><path class="cls-4" d="m627.39,26.79c-1.08,4.79-1.66,9.05-1.66,13.95,0,4.26.5,7.14.93,9.25l-4.46.67c-.79-3.31-.99-6.7-.99-10.09,0-6.5.99-11.86,1.43-14.33l4.75.55Zm8.57-.64h4.61l.09,4.76c1.89-.17,2.83-.32,4.31-.55v4.61c-2.51.29-3,.35-4.23.44l.15,5.98c1.81.78,3.35,1.54,5.36,2.99l-1.78,4.23c-1.31-1.07-2.36-1.71-3.61-2.38-.09,1.02-.41,4.7-5.92,4.7-3.15,0-6.73-1.48-6.73-5.42,0-2.52,1.72-5.37,6.35-5.37.47,0,.5,0,1.72.12l-.09-4.58c-1.95.06-4.58.06-7.72-.12l.03-4.58c3.12.2,4.9.26,7.58.2l-.12-5.02Zm-1.43,17.93c-1.28,0-2.24.52-2.24,1.45,0,.99,1.22,1.45,2.19,1.45,1.95,0,1.95-1.22,1.92-2.58-.35-.12-.96-.32-1.87-.32Z"/><path class="cls-4" d="m662.06,40.05c-.93.58-3.09,1.94-3.09,3.19,0,1.89,5.51,2.03,7.64,2.03,3.53,0,6.7-.41,10.14-1.19l.26,4.99c-3.26.64-6.64.87-10,.87s-12.85,0-12.85-6.24c0-2.06,1.14-4,4.84-6.53l3.06,2.87Zm12.24-6.67c-3.47-.67-6.73-.99-10.26-.99s-6.03.32-7.26.46l.2-4.82c1.17-.15,3.47-.38,6.91-.38,5.13,0,8.77.61,10.73.93l-.32,4.79Z"/><path class="cls-4" d="m689.89,45.91c2.36.49,4.6.75,6.91.75,1.87,0,7.84-.15,7.84-3.68,0-2.7-3.61-2.7-4.23-2.7-2.24,0-5.77.81-9.12,3.42l-3.47-1.68c1.66-3.39,2.68-6.79,2.97-7.77-1.69,0-2.74-.03-5.1-.15l-.06-4.53c2.01.17,4.31.29,6.35.29.35-1.48.55-2.32.93-4.41l4.63.7c-.23.93-.58,2.38-.93,3.6,5.07-.29,8.66-.96,11.25-1.48l.5,4.44c-6.47,1.1-10.26,1.31-13,1.45-.03.15-.55,1.86-1.11,3.45,2.16-.93,4.25-1.42,6.59-1.42,5.89,0,8.48,3.45,8.48,6.93,0,7.89-10.17,7.89-12.56,7.89-.96,0-3.21,0-6.47-.52l-.41-4.58Z"/><path class="cls-4" d="m725.91,31.09c-.61,2.41-.82,3.34-1.4,6.09.96-.49,4.05-2.12,8.07-2.12,5.16,0,8.63,2.73,8.63,7.17,0,3.77-2.42,6.38-5.57,7.48-1.05.35-3.44,1.1-8.1,1.1-2.39,0-3.79-.17-4.87-.32l-.88-4.7c1.34.23,3.38.58,6.09.58,1.6,0,8.54,0,8.54-4.21,0-2.84-3.29-2.84-4.08-2.84-.87,0-5.13,0-9.53,3.92l-3.73-1.1c.35-2.38.93-6.32,2.27-12.04l4.55.99Zm9.3,1.25c-5.01-1.86-8.63-2.41-11.98-2.78l1.52-3.97c2.62.26,6.64.75,12.07,2.58l-1.6,4.18Z"/><path class="cls-1" d="m177.47,175.29c0,4.9-3.98,8.88-8.88,8.88s-8.88-3.96-8.88-8.88,4.02-8.88,8.88-8.88,8.88,3.94,8.88,8.88Z"/><path class="cls-1" d="m196.09,182.71c0,1.5-1.04,1.98-1.88,1.98h-4.26l-.4-2.62h3.32c.46,0,.64-.24.64-.64v-3.1h-9.34c-.28,2.34-1.02,4.6-2.48,6.42l-2.26-1.84c.92-1.28,2.32-3.24,2.32-7.98v-8.32h14.34v16.1Zm-11.76-13.68v2.22h9.18v-2.22h-9.18Zm0,4.52v2.44h9.18v-2.44h-9.18Z"/><path class="cls-1" d="m218.15,175.03c-2.06,2.62-4.88,2.62-5.32,2.62-1.58,0-2.3-.4-4.48-1.56-1.54-.84-2.28-1.06-3.26-1.06-2.38,0-3.48,1.46-3.82,1.92l-1.44-1.42c.38-.48.96-1.2,2.08-1.78.92-.48,2.06-.82,3.26-.82,1.72,0,2.88.64,4.36,1.46,1.42.78,2.16,1.18,3.34,1.18,2.22,0,3.36-1.38,3.84-1.98l1.44,1.44Z"/><path class="cls-1" d="m227.9,165.86h2.6v5.24h6.98v2.52h-6.98v7.88h8.04v2.56h-18.72v-2.56h8.08v-7.88h-6.88v-2.52h6.88v-5.24Z"/><path class="cls-1" d="m250.88,178.97l-1.36,3.92h-3.12l5.9-15.96h3.62l5.9,15.96h-3.12l-1.36-3.92h-6.46Zm5.62-2.42l-2.38-6.86-2.4,6.86h4.78Z"/><path class="cls-1" d="m273.54,182.89h-3.1l-3.76-12.02-1.44,12.02h-2.86l2.12-15.96h3.58l3.9,12.4,3.92-12.4h3.58l2.12,15.96h-2.86l-1.44-12.02-3.76,12.02Z"/><path class="cls-1" d="m284.44,180.17c.96.38,1.7.46,2.32.46,1.62,0,4.02-.6,4.62-4.58-.66.56-1.58,1.36-3.4,1.36-2.7,0-5.2-1.94-5.2-5.22s2.38-5.58,5.66-5.58c1.62,0,5.96.68,5.96,7.36,0,5.28-2.64,9.24-7.56,9.24-1.26,0-2.04-.28-2.4-.4v-2.64Zm4-5.22c1.56,0,3.04-1.1,3.04-2.84s-1.26-2.92-2.98-2.92c-1.88,0-2.9,1.5-2.9,2.94,0,1.8,1.32,2.82,2.84,2.82Z"/><path class="cls-1" d="m299.84,170.99v3.18h-3.14v-3.18h3.14Zm0,8.72v3.18h-3.14v-3.18h3.14Z"/><path class="cls-1" d="m302.24,174.91c0-2.82.5-4.68,1.34-5.98,1.02-1.6,2.72-2.32,4.38-2.32,5.72,0,5.72,6.84,5.72,8.3s0,8.3-5.72,8.3-5.72-6.84-5.72-8.3Zm8.62,0c0-3.44-.78-5.72-2.9-5.72-2.26,0-2.9,2.56-2.9,5.72,0,3.46.78,5.72,2.9,5.72s2.9-2.44,2.9-5.72Z"/><path class="cls-1" d="m315.64,174.91c0-2.82.5-4.68,1.34-5.98,1.02-1.6,2.72-2.32,4.38-2.32,5.72,0,5.72,6.84,5.72,8.3s0,8.3-5.72,8.3-5.72-6.84-5.72-8.3Zm8.62,0c0-3.44-.78-5.72-2.9-5.72-2.26,0-2.9,2.56-2.9,5.72,0,3.46.78,5.72,2.9,5.72s2.9-2.44,2.9-5.72Z"/><path class="cls-1" d="m352.32,175.03c-2.06,2.62-4.88,2.62-5.32,2.62-1.58,0-2.3-.4-4.48-1.56-1.54-.84-2.28-1.06-3.26-1.06-2.38,0-3.48,1.46-3.82,1.92l-1.44-1.42c.38-.48.96-1.2,2.08-1.78.92-.48,2.06-.82,3.26-.82,1.72,0,2.88.64,4.36,1.46,1.42.78,2.16,1.18,3.34,1.18,2.22,0,3.36-1.38,3.84-1.98l1.44,1.44Z"/><path class="cls-1" d="m364.08,166.92c1.78,0,2.92.22,4.02,1.08,1.16.92,1.72,2.36,1.72,3.92,0,.8-.16,2.72-1.78,3.88-1.12.8-2.18.98-4.14.98h-1.42v6.1h-2.82v-15.96h4.42Zm-.12,7.28c1.26,0,3.06,0,3.06-2.32s-1.72-2.38-3.06-2.38h-1.48v4.7h1.48Z"/><path class="cls-1" d="m382.14,182.89h-3.1l-3.76-12.02-1.44,12.02h-2.86l2.12-15.96h3.58l3.9,12.4,3.92-12.4h3.58l2.12,15.96h-2.86l-1.44-12.02-3.76,12.02Z"/><path class="cls-1" d="m400.42,169.24c-.54-.04-.6-.06-.86-.06-.9,0-3.88,0-5.16,4.56.48-.44,1.52-1.36,3.4-1.36,2.54,0,5.22,1.88,5.22,5.28s-2.5,5.54-5.6,5.54c-2.88,0-6.04-1.94-6.04-7.2,0-4.86,2.82-9.4,7.98-9.4.42,0,.88.04,1.06.04v2.6Zm-3.04,5.62c-1.46,0-3.1.96-3.1,2.7,0,1.54,1.18,3.06,3.06,3.06s2.86-1.46,2.86-2.9c0-2.68-2.28-2.86-2.82-2.86Z"/><path class="cls-1" d="m408.44,170.99v3.18h-3.14v-3.18h3.14Zm0,8.72v3.18h-3.14v-3.18h3.14Z"/><path class="cls-1" d="m410.84,174.91c0-2.82.5-4.68,1.34-5.98,1.02-1.6,2.72-2.32,4.38-2.32,5.72,0,5.72,6.84,5.72,8.3s0,8.3-5.72,8.3-5.72-6.84-5.72-8.3Zm8.62,0c0-3.44-.78-5.72-2.9-5.72-2.26,0-2.9,2.56-2.9,5.72,0,3.46.78,5.72,2.9,5.72s2.9-2.44,2.9-5.72Z"/><path class="cls-1" d="m424.24,174.91c0-2.82.5-4.68,1.34-5.98,1.02-1.6,2.72-2.32,4.38-2.32,5.72,0,5.72,6.84,5.72,8.3s0,8.3-5.72,8.3-5.72-6.84-5.72-8.3Zm8.62,0c0-3.44-.78-5.72-2.9-5.72-2.26,0-2.9,2.56-2.9,5.72,0,3.46.78,5.72,2.9,5.72s2.9-2.44,2.9-5.72Z"/><path class="cls-1" d="m482.7,175.29c0,4.9-3.98,8.88-8.88,8.88s-8.88-3.96-8.88-8.88,4.02-8.88,8.88-8.88,8.88,3.94,8.88,8.88Z"/><path class="cls-1" d="m501.9,166.7v17.44h-15.76v-17.44h15.76Zm-13.14,7.38h10.48v-4.92h-10.48v4.92Zm0,2.42v5.16h10.48v-5.16h-10.48Z"/><path class="cls-1" d="m515.64,173.73c-.18.42-.26.64-.42.94h2.08c.26-.44.42-.78.6-1.26l2.2.34c-.28.54-.34.66-.52.92h3.62v1.74h-4.02v1.12h3.32v1.38h-3.32v1.12h3.32v1.4h-3.32v1.14h4.42v1.82h-11.5v-5.64c-.08.08-.16.16-.56.52l-.82-1.34v5.36h-5.46v-16.62h5.46v10.2c.3-.28,1.9-1.72,2.7-3.62l2.22.48Zm-6.84-4.74h-1.52v4.76h1.52v-4.76Zm0,6.92h-1.52v5.06h1.52v-5.06Zm7.98-9.46v6.68h-5.48v-1.64h3.32v-.94h-3.02v-1.5h3.02v-.98h-3.32v-1.62h5.48Zm.34,9.96h-2.78v1.12h2.78v-1.12Zm0,2.5h-2.78v1.12h2.78v-1.12Zm0,2.52h-2.78v1.14h2.78v-1.14Zm5.88-14.98v6.68h-5.54v-1.64h3.42v-.94h-3.14v-1.5h3.14v-.98h-3.42v-1.62h5.54Z"/><path class="cls-1" d="m537.08,175.29c0,1.44-1.18,2.66-2.66,2.66s-2.66-1.2-2.66-2.66,1.24-2.66,2.66-2.66,2.66,1.18,2.66,2.66Z"/><path class="cls-1" d="m550,184.73h-2.34v-7.06c-.92.88-1.5,1.32-2,1.68l-.84-2.72c2-1.42,3.8-3.18,4.7-5.48h-4.36v-2.3h2.5v-2.98h2.36v2.98h1.94v2.3c-.26.76-.5,1.5-1.44,3,.74,1,1.4,1.62,2.3,2.3l-1.2,2.44c-.36-.38-1.04-1.16-1.62-2.2v8.04Zm2.86-18.28h10.44v9h-2.84v5.92c0,.32,0,.78.44.78h.36c.44,0,.56-.42.58-.66.08-.56.14-2.2.14-2.6l2.18.56c-.12,3.76-.22,5.1-2.2,5.1h-2.1c-1.52,0-1.72-1-1.72-1.82v-7.28h-1.3c-.02,5-1.56,7.42-4.36,9.32l-1.58-2.14c2.76-1.74,3.6-3.46,3.72-7.18h-1.76v-9Zm2.44,2.32v4.44h5.58v-4.44h-5.58Z"/><path class="cls-1" d="m582.7,166.7v17.44h-15.76v-17.44h15.76Zm-13.14,7.38h10.48v-4.92h-10.48v4.92Zm0,2.42v5.16h10.48v-5.16h-10.48Z"/><path class="cls-1" d="m597.68,175.29c0,1.44-1.18,2.66-2.66,2.66s-2.66-1.2-2.66-2.66,1.24-2.66,2.66-2.66,2.66,1.18,2.66,2.66Z"/><path class="cls-1" d="m616.26,170.7c-1.44-1.02-2.92-1.52-4.72-1.52-3.92,0-6,2.54-6,5.72,0,2.46,1.28,5.72,6.14,5.72,1.52,0,2.4-.34,2.92-.52v-3.68h-3.88v-2.5h6.66v8.12c-1.82.78-3.76,1.16-5.72,1.16-6.1,0-8.96-4.1-8.96-8.32,0-4.9,3.72-8.28,8.84-8.28,2.96,0,4.92,1.08,5.68,1.52l-.96,2.58Z"/><path class="cls-1" d="m630.42,169.98l-.52,3.1-2,9.8h-3.54l-3.76-15.96h2.98l2.14,10.16.44,2.72.44-2.72,2-10.16h3.64l2,10.16.44,2.72.44-2.72,2.14-10.16h2.98l-3.76,15.96h-3.54l-2-9.8-.52-3.1Z"/><path class="cls-1" d="m648.28,175.29c0,1.44-1.18,2.66-2.66,2.66s-2.66-1.2-2.66-2.66,1.24-2.66,2.66-2.66,2.66,1.18,2.66,2.66Z"/><path class="cls-1" d="m674.64,184.71c-1.46-.08-5.38-.32-8.9-1.4-2.66.9-6,1.36-8.84,1.4l-.56-2.04c1.26.02,3.54,0,6.38-.56-.78-.4-1.36-.72-2.52-1.58-.7.3-1.36.56-2.88.96l-.9-1.98c1.62-.26,3.7-1.06,4.96-2h-3.12v-8.32h5.72c.1-.2.22-.5.3-.76h-7.82v-1.96h18.7v1.96h-8.3c-.12.32-.16.44-.32.76h6.82v8.32h-8.84c-.2.24-.3.36-.7.74h8.28v1.54c-1.2,1.12-2.04,1.64-3.28,2.26,2.72.42,5.14.44,6.52.42l-.7,2.24Zm-3.64-14.06h-10.32v.88h10.32v-.88Zm0,2.2h-10.32v.94h10.32v-.94Zm0,2.22h-10.32v.94h10.32v-.94Zm-8.78,4.74c.92.6,2.12,1.14,3.44,1.52,1.76-.56,2.74-1.18,3.24-1.52h-6.68Z"/><path class="cls-1" d="m681.06,180.59c-.62,1.46-1.96,3.2-3.08,4.12l-1.66-1.72c1.1-.88,2.2-2.44,2.74-3.4l2,1Zm-3.16-14.72h2.3v1.58h3.26v-1.58h2.3v1.58h1.28v2.2h-1.28v7.66h1.24v2.16h-10.46v-2.16h1.36v-7.66h-1.08v-2.2h1.08v-1.58Zm2.3,3.78v1.22h3.26v-1.22h-3.26Zm0,3.12v1.3h3.26v-1.3h-3.26Zm0,3.1v1.44h3.26v-1.44h-3.26Zm3.52,3.74c.58.52,1.42,1.42,2.1,2.54l-1.68,1.46c-.44-.78-1.18-1.86-2.06-2.82l1.64-1.18Zm11.1-13.22v16.58c0,1.64-1.04,1.7-1.8,1.7h-2.62l-.4-2.38h1.84c.54,0,.62-.28.62-.66v-2.92h-2.98c-.34,3.8-1.58,5.38-2.04,5.98l-2.02-1.68c1.44-2,2.06-3.9,2.06-9.54v-7.08h7.34Zm-5.1,7.3c-.02,1.06-.02,1.6-.04,2.78h2.78v-2.78h-2.74Zm0-4.96v2.78h2.74v-2.78h-2.74Z"/><path class="cls-1" d="m698.56,175.45c-.54.7-.82.98-1.26,1.38l-.8-3.28c1.64-1.94,2.82-4.32,3.3-7.72l2.54.24c-.14,1.02-.4,2.72-1.34,5v13.66h-2.44v-9.28Zm2.62,4.58c2.4-2.28,4.24-5.06,5.5-8.14h-4.58v-2.42h5.34v-3.62h2.48v3.62h5.68v2.42h-5c.36.9,1.82,4.76,5.34,8l-1.58,2.54c-1.14-1.1-2.8-2.84-4.44-6.94v9.24h-2.48v-9.56c-1.72,3.94-3.52,5.98-4.64,7.2l-1.62-2.34Z"/><path class="cls-1" d="m722.56,183.33h-5.16v-16.7h5.16v16.7Zm-1.9-14.38h-1.26v4.78h1.26v-4.78Zm0,6.94h-1.26v5.14h1.26v-5.14Zm8.32-2.82h-3.42v1.8h3.42v2.24h-3.42v1.78h3.42v2.22h-3.42v3.6h-2.08v-18.36h5.5v6.72Zm-1.8-4.5h-1.62v2.34h1.62v-2.34Zm.56,14.16c1.74-.88,2.4-1.42,3.12-2.08-.52-.92-.9-1.68-1.38-3.3l1.88-.56c.18.58.4,1.26.9,2.2.6-.96.86-1.86,1.02-2.44h-3.82v-2.22h5.94v2.22c-.5,2.06-.98,3.02-1.82,4.26,1,1.06,1.88,1.54,2.5,1.88l-1.2,2.06c-1.36-.82-2-1.46-2.72-2.28-.8.76-1.44,1.3-3.04,2.24l-1.38-1.98Zm7.66-9.66h-5.7v-2.2h3.5v-2.26h-3.5v-2.26h5.7v6.72Z"/><path class="cls-1" d="m749.28,175.29c0,1.44-1.18,2.66-2.66,2.66s-2.66-1.2-2.66-2.66,1.24-2.66,2.66-2.66,2.66,1.18,2.66,2.66Z"/><path class="cls-1" d="m775.5,167.64v2.4h-6.24v2.36h5.6v2.34h-5.6v3.2h6.98v2.4h-6.98v4.36h-2.52v-4.36h-9.34v-2.4h2.78v-5.18c-.58.6-.88.86-1.38,1.28l-1.66-2.16c2.1-1.62,3.58-3.72,4.28-6.18l2.66.5c-.18.52-.28.82-.54,1.44h11.96Zm-13.22,2.4c-.82,1.28-1.32,1.86-1.76,2.36h6.22v-2.36h-4.46Zm4.46,4.7h-4.04v3.2h4.04v-3.2Z"/><path class="cls-1" d="m777.6,167.98h8.14v-2.14h2.48v2.14h8.2v2.44h-8.2v2.7h7.04v2.4h-5.7c1.96,2.9,5.42,4.68,7.12,5.48l-1.44,2.44c-3.24-1.88-4.84-3.3-7.02-6.1v7.38h-2.48v-7.38c-1.68,2.34-4.34,4.8-7.06,6.18l-1.3-2.56c2.92-1.24,4.96-2.78,7.14-5.44h-5.8v-2.4h7.02v-2.7h-8.14v-2.44Z"/><path class="cls-1" d="m815.9,167.64v2.4h-6.24v2.36h5.6v2.34h-5.6v3.2h6.98v2.4h-6.98v4.36h-2.52v-4.36h-9.34v-2.4h2.78v-5.18c-.58.6-.88.86-1.38,1.28l-1.66-2.16c2.1-1.62,3.58-3.72,4.28-6.18l2.66.5c-.18.52-.28.82-.54,1.44h11.96Zm-13.22,2.4c-.82,1.28-1.32,1.86-1.76,2.36h6.22v-2.36h-4.46Zm4.46,4.7h-4.04v3.2h4.04v-3.2Z"/><path class="cls-1" d="m825.42,169.14c-.14,2.94-.52,6.58-1.52,9.4.88.74,1.34,1.16,1.98,1.78l-1.62,2.1c-.6-.64-.92-.96-1.5-1.52-1.28,2.12-2.66,3.24-3.38,3.84l-1.64-2.08c1.46-.98,2.28-1.88,3.22-3.32-.86-.68-1.52-1.16-2.86-1.9.98-2.64,1.3-4.32,1.56-5.96h-1.66v-2.34h1.94c.12-1.1.14-1.42.24-3.32l2.36.14c-.08,1.3-.14,1.86-.3,3.18h3.18Zm-3.54,2.34c-.36,1.94-.66,3.2-1.18,4.88.76.44.96.56,1.32.8.88-2.34,1.12-4.84,1.18-5.68h-1.32Zm12.16-3.22c1.14,1.62,2.36,3.56,3.1,5.72l-2.28,1.1c-.14-.5-.24-.82-.42-1.24-1.92.3-7.3.76-8.92.82l-.2-2.44c.48,0,.94-.04,1.42-.06.6-1.52,1.38-3.96,1.88-6.46l2.66.28c-.4,1.68-1.52,4.62-2.1,6.06,1.94-.08,2.94-.16,4.28-.28-.38-.68-.72-1.26-1.52-2.44l2.1-1.06Zm2.08,15.98h-9.8v-8.52h9.8v8.52Zm-2.42-6.36h-5.06v4.16h5.06v-4.16Z"/><path class="cls-1" d="m240.51,146.84c-10.9,0-20.4-7.14-20.4-19.93v-28.2c0-12.78,9.49-19.93,20.4-19.93s20.3,7.14,20.3,19.93v28.2c0,12.78-9.4,19.93-20.3,19.93Zm8.08-47.94c0-5.64-3.29-9.12-8.08-9.12s-8.18,3.48-8.18,9.12v27.92c0,5.64,3.38,9.02,8.18,9.02s8.08-3.38,8.08-9.02v-27.92Z"/><path class="cls-1" d="m291.55,146.84c-10.9,0-20.4-7.14-20.4-19.93v-28.2c0-12.78,9.49-19.93,20.4-19.93s20.3,7.14,20.3,19.93v28.2c0,12.78-9.4,19.93-20.3,19.93Zm8.08-47.94c0-5.64-3.29-9.12-8.08-9.12s-8.18,3.48-8.18,9.12v27.92c0,5.64,3.38,9.02,8.18,9.02s8.08-3.38,8.08-9.02v-27.92Z"/><path class="cls-1" d="m342.31,146.84c-10.9,0-21.15-5.73-21.34-19.74h12.22c.19,6.02,4.32,8.74,9.12,8.74,5.26,0,9.02-3.29,9.02-9.31,0-5.54-3.38-9.21-9.4-9.21h-1.79v-10.62h1.79c5.92,0,8.46-3.67,8.46-8.37,0-5.64-3.76-8.55-8.18-8.55s-7.99,3.01-8.27,8.08h-12.22c.28-11.94,9.21-19.08,20.49-19.08,11.84,0,20.4,7.9,20.4,19.17,0,7.24-3.29,11.37-7.71,13.72,4.79,2.54,8.65,7.14,8.65,15.23,0,13.35-9.78,19.93-21.24,19.93Z"/><path class="cls-1" d="m393.64,146.28h-13.25l21.71-55.93h-17.67v10.53h-11.66v-21.52h42.58v11l-21.71,55.93Z"/><path class="cls-1" d="m424.66,125.13v-11.37h28.95v11.37h-28.95Z"/><path class="cls-1" d="m484.53,146.84c-11.84,0-20.87-7.42-20.87-20.68,0-6.11,2.63-11.75,5.64-17.86l14.1-28.95h13.35l-13.91,27.63c1.6-.66,3.38-.85,4.98-.85,9.02,0,17.58,7.43,17.58,19.83,0,13.16-9.02,20.87-20.87,20.87Zm0-30.55c-4.98,0-8.65,3.57-8.65,9.78s3.67,9.78,8.65,9.78,8.65-3.57,8.65-9.78-3.48-9.78-8.65-9.78Z"/><path class="cls-1" d="m535.76,146.84c-10.9,0-20.4-7.14-20.4-19.93v-28.2c0-12.78,9.49-19.93,20.4-19.93s20.3,7.14,20.3,19.93v28.2c0,12.78-9.4,19.93-20.3,19.93Zm8.08-47.94c0-5.64-3.29-9.12-8.08-9.12s-8.18,3.48-8.18,9.12v27.92c0,5.64,3.38,9.02,8.18,9.02s8.08-3.38,8.08-9.02v-27.92Z"/><path class="cls-1" d="m586.8,146.84c-10.9,0-20.4-7.14-20.4-19.93v-28.2c0-12.78,9.49-19.93,20.4-19.93s20.3,7.14,20.3,19.93v28.2c0,12.78-9.4,19.93-20.3,19.93Zm8.08-47.94c0-5.64-3.29-9.12-8.08-9.12s-8.18,3.48-8.18,9.12v27.92c0,5.64,3.38,9.02,8.18,9.02s8.08-3.38,8.08-9.02v-27.92Z"/><path class="cls-1" d="m637.66,146.84c-11.84,0-20.87-7.42-20.87-20.68,0-6.11,2.63-11.75,5.64-17.86l14.1-28.95h13.35l-13.91,27.63c1.6-.66,3.38-.85,4.98-.85,9.02,0,17.58,7.43,17.58,19.83,0,13.16-9.02,20.87-20.87,20.87Zm0-30.55c-4.98,0-8.65,3.57-8.65,9.78s3.67,9.78,8.65,9.78,8.65-3.57,8.65-9.78-3.48-9.78-8.65-9.78Z"/><path class="cls-1" d="m668.87,125.13v-11.37h28.95v11.37h-28.95Z"/><path class="cls-1" d="m744.35,117.33l-14.19,28.95h-13.25l13.91-27.63c-1.6.66-3.38.85-4.98.85-9.02,0-17.67-7.43-17.67-19.83,0-13.16,9.02-20.87,20.87-20.87s20.87,7.43,20.87,20.68c0,6.11-2.54,11.75-5.55,17.86Zm-15.32-27.54c-4.98,0-8.65,3.57-8.65,9.78s3.48,9.78,8.65,9.78,8.65-3.57,8.65-9.78-3.67-9.78-8.65-9.78Z"/><path class="cls-1" d="m779.97,146.28h-13.25l21.71-55.93h-17.67v10.53h-11.66v-21.52h42.58v11l-21.71,55.93Z"/><path class="cls-1" d="m830.83,146.84c-11.84,0-20.87-7.42-20.87-20.68,0-6.11,2.63-11.75,5.64-17.86l14.1-28.95h13.35l-13.91,27.63c1.6-.66,3.38-.85,4.98-.85,9.02,0,17.58,7.43,17.58,19.83,0,13.16-9.02,20.87-20.87,20.87Zm0-30.55c-4.98,0-8.65,3.57-8.65,9.78s3.67,9.78,8.65,9.78,8.65-3.57,8.65-9.78-3.48-9.78-8.65-9.78Z"/><path class="cls-1" d="m898.51,136.78v9.49h-11.75v-9.49h-27.35v-11.56l22.93-45.87h13.35l-22.93,45.87h14v-12.5h11.75v12.5h6.11v11.56h-6.11Z"/><path class="cls-1" d="m190.37,114.47c1.83,1.6,2.83,3.33,2.83,5.13,0,8.24-17.78,14.91-46.41,14.91s-46.41-6.67-46.41-14.91c0-1.94,1.16-3.79,3.27-5.5-6.35,3.39-10.1,7.55-10.1,12.07,0,11.35,23.79,20.55,53.12,20.55s53.12-9.2,53.12-20.55c0-4.35-3.48-8.38-9.43-11.69Z"/><path class="cls-1" d="m147.09,81.64c9.78.1,20.77.67,27.18,1.44,3.51.42,7.16,1.46,8.04,4.7.42,1.53.87,4.86,1.35,6.64.65,2.38,6.32,3.8,14.87,3.8,4.48,0,6.72-1.15,6.72-3.47,0-2.86-1.69-5.39-4.85-7.76-4.07-3.06-10.2-5.45-18.79-6.87-7.5-1.24-19.01-1.99-34.52-1.99s-27.03.75-34.52,1.99c-8.59,1.43-14.72,3.82-18.79,6.87-3.15,2.38-4.84,4.9-4.84,7.76,0,2.32,2.23,3.47,6.71,3.47,8.55,0,14.21-1.42,14.86-3.8.48-1.78.94-5.11,1.35-6.64.88-3.24,4.53-4.29,8.04-4.7,6.41-.77,17.4-1.54,27.18-1.44Z"/><path class="cls-1" d="m137.59,90.52c-.09,12-6.71,15.8-17.73,17.16v-4.14c7.28-1.01,9.78-4.04,10.79-9.08h-12.34v-3.94h19.27Z"/><path class="cls-1" d="m146.58,99.64h-5.73v-9.37h5.73v9.37Zm11.41-1.36c0,6.69-4.21,9.55-15.42,9.43v-3.72c5.94-.36,9.31-1.01,9.31-5.68v-8.04h6.12v8.01Z"/><path class="cls-1" d="m178.52,95.14v4.57h-17.17v-4.57h17.17Z"/><path class="cls-1" d="m130.57,109.03v2.94h7.07v3.91h-7.33v10.48h-5.13v-10.52h-7.71v-3.87h7.45v-2.94h5.64Zm-13.63,17.04c.96-2.22,1.71-5.69,1.93-8.25h4.35c-.14,2.67-.51,5.87-1.25,8.25h-5.04Zm16.84,0c-.4-2.57-1.13-5.26-1.91-8.25h4.54c.81,2.67,1.74,5.18,2.57,8.25h-5.2Zm-.64-15.26c-.07-.52-.39-2.12-.86-3.62h2.36c.15.42.59,1.7.66,1.97.29,1.27.34,1.41.39,1.64h-2.56Zm3.9,0c-.1-.52-.49-2.12-1.03-3.62h2.36c.16.42.67,1.7.75,1.97.35,1.27.4,1.41.47,1.64h-2.56Z"/><path class="cls-1" d="m152.65,126.07h-5.58v-6.89c-2.8,1.16-5.28,1.81-7.49,2.08v-4.09c5.56-1,10.73-4.55,12.94-7.81h6.96c-1.52,2.95-3.27,4.95-6.82,7.27v9.44Z"/><path class="cls-1" d="m171.9,121.45c-2.6,2.14-6.9,3.83-11.85,4.66v-4.14c6.95-1.56,10.37-4.96,11.28-8.32h-9.91v-4.11h17.71c-.34,2.57-1.17,5.38-3.51,8.62,3.05,2.56,4.41,3.74,7.12,6.96h-7.78c-1.21-1.83-1.71-2.44-3.07-3.67Z"/></g></svg>