<?xml version="1.0" encoding="UTF-8"?><svg id="_レイヤー_2" xmlns="http://www.w3.org/2000/svg" viewBox="0 0 690 198"><defs><style>.cls-1{fill:#fff;}.cls-2{fill:#39b54a;}.cls-3{fill:#007816;}.cls-4{fill:#00b33e;}</style></defs><g id="_内容_共通_"><rect class="cls-3" y="5" width="690" height="193" rx="13.8" ry="13.8"/><rect class="cls-2" width="690" height="193" rx="13.8" ry="13.8"/><rect class="cls-1" x="13.36" y="11.57" width="666.67" height="38.97" rx="5.84" ry="5.84"/><path class="cls-4" d="m103.34,18.61h4.39v4c.59-.06,2.45-.28,4.9-.84l.08,4.37c-2.5.39-2.98.45-4.98.67v1.71c1.66-.45,3.26-.73,4.98-.73,5.94,0,8.24,3.92,8.24,7.67,0,3-1.63,7.17-7.48,7.17-1.24,0-2.03-.2-2.65-.34l-.14-4.56c.51.2,1.24.5,2.42.5,3.15,0,3.32-2.18,3.32-2.94,0-1.46-.82-3.44-4.39-3.44-1.94,0-3.4.5-4.31.78v4.48c0,1.76-.06,2.58-.34,3.39-.82,2.46-3.21,2.6-3.85,2.6-2.59,0-6.61-1.9-6.61-5.57,0-4.17,4.59-6.64,6.42-7.45v-2.88c-2.84.11-3.21.14-5.35.14l-.06-4.42c.93.06,1.6.08,2.81.08.34,0,1.49,0,2.59-.06v-4.34Zm.11,15.9c-.45.28-2.65,1.6-2.65,2.97,0,.78,1.07,1.57,1.97,1.57.68,0,.68-.56.68-1.54v-3Zm12.69-14.25c3.04,1.88,5.01,3.89,6.3,5.35l-3.12,3c-1.63-2.13-3.29-3.72-5.85-5.38l2.67-2.97Z"/><path class="cls-4" d="m153.84,21.43h-9.65v.92h11.09v6.1h-4.16v-3.7h-6.92v4.65h-3.74v-4.65h-6.81v3.7h-4v-6.1h10.8v-.92h-9.4v-2.97h22.79v2.97Zm2.28,17.47c-.39,4.9-1.94,5.15-3.69,5.15h-9.31c-2.25,0-2.95-.9-2.95-2.21v-1.74h-9.31v-10.08h23.02v8.32l2.25.56Zm-16.6-13.3v1.37h-4.95v-1.37h4.95Zm0,2.24v1.4h-4.95v-1.4h4.95Zm.65,8.23h-5.21v1.46h5.21v-1.46Zm0-3.5h-5.15v1.37h5.15v-1.37Zm9.48,0h-5.43v1.37h5.43v-1.37Zm0,3.5h-5.43v1.46h5.43v-1.46Zm1.04,5.15c.68,0,1.04-.03,1.35-1.12h-7.82v.48c0,.42.14.64.56.64h5.91Zm-.48-15.62v1.37h-5.09v-1.37h5.09Zm0,2.24v1.4h-5.09v-1.4h5.09Z"/><path class="cls-4" d="m173.93,22.55v3.14h-11.06v-3.14h11.06Zm-.87-4.14v3.02h-9.43v-3.02h9.43Zm0,8.37v3.05h-9.43v-3.05h9.43Zm0,4.23v3.05h-9.43v-3.05h9.43Zm0,4.2v8.62h-9.43v-8.62h9.43Zm-3.4,2.94h-2.17v2.63h2.17v-2.63Zm4.22-19.15c1.63,0,9.23-.03,13.67-1.4l1.49,3.81c-1.35.34-1.94.45-5.18.84v2.74h5.63v3.84h-5.63v2.94h4.61v11.98h-13.39v-11.98h4.73v-2.94h-5.8v-3.84h5.8v-2.38c-2.19.17-3.29.2-5.12.22l-.82-3.84Zm10.58,16.49h-5.32v4.45h5.32v-4.45Z"/><path class="cls-4" d="m221.08,20.12l.37,4.48c-2.03.03-4.81.11-7.79,1.79-1.44.78-4.84,3.02-4.84,6.75,0,4.56,5.63,5.52,8.38,5.71l-2.11,4.42c-6.92-.81-10.97-4.45-10.97-9.74s3.4-7.53,5.12-8.71l-11.76,1.51-.34-4.68c1.24-.03,3.77-.06,5.15-.17l18.8-1.37Zm-5.09,7.64c1.15,1.37,2.05,2.88,3.21,5.24l-2.48,1.43c-.96-2.18-1.72-3.53-3.1-5.32l2.36-1.34Zm3.85-2.04c1.55,1.82,2.59,3.75,3.29,5.15l-2.5,1.37c-1.07-2.27-1.74-3.44-3.18-5.26l2.39-1.26Z"/><path class="cls-4" d="m242.91,39.24c3.1-.95,7.43-2.91,7.43-8.32,0-1.34-.23-5.85-5.52-6.92-.42,2.94-1.15,7.98-3.21,12.74-1.13,2.58-2.53,4.68-5.01,4.68-3.18,0-6.33-3.92-6.33-9.27,0-7.08,5.35-12.35,12.89-12.35,6.95,0,11.82,4.45,11.82,11.17,0,8.82-7.71,11.4-9.37,11.96l-2.7-3.7Zm-8.27-6.94c0,2.55.96,4.37,1.8,4.37.68,0,1.38-1.96,1.72-2.91,1.44-4.12,1.97-7.9,2.19-9.49-3.88,1.23-5.71,4.54-5.71,8.04Z"/><path class="cls-4" d="m269.94,18.61h4.39v4c.59-.06,2.45-.28,4.9-.84l.08,4.37c-2.5.39-2.98.45-4.98.67v1.71c1.66-.45,3.26-.73,4.98-.73,5.94,0,8.24,3.92,8.24,7.67,0,3-1.63,7.17-7.48,7.17-1.24,0-2.03-.2-2.65-.34l-.14-4.56c.51.2,1.24.5,2.42.5,3.15,0,3.32-2.18,3.32-2.94,0-1.46-.82-3.44-4.39-3.44-1.94,0-3.4.5-4.3.78v4.48c0,1.76-.06,2.58-.34,3.39-.82,2.46-3.21,2.6-3.85,2.6-2.59,0-6.61-1.9-6.61-5.57,0-4.17,4.59-6.64,6.42-7.45v-2.88c-2.84.11-3.21.14-5.35.14l-.06-4.42c.93.06,1.6.08,2.81.08.34,0,1.49,0,2.59-.06v-4.34Zm.11,15.9c-.45.28-2.64,1.6-2.64,2.97,0,.78,1.07,1.57,1.97,1.57.67,0,.67-.56.67-1.54v-3Zm12.69-14.25c3.04,1.88,5.01,3.89,6.3,5.35l-3.12,3c-1.63-2.13-3.29-3.72-5.85-5.38l2.67-2.97Z"/><path class="cls-4" d="m296.5,18.69h11.56v11.68h-7.37v14h-4.19v-25.68Zm4.22,3.3v1.4h3.26v-1.4h-3.26Zm0,3.86v1.46h3.26v-1.46h-3.26Zm14.27,14.2h1.69c.7,0,.79-.17.79-.81v-8.88h-7.51v-11.68h11.71v22.68c0,2.86-1.8,3-2.79,3h-5.26l-.42-2.55h-10.07v-9.83h11.87v8.06Zm-7.99-4.65v2.83h4.11v-2.83h-4.11Zm7.06-13.41v1.4h3.4v-1.4h-3.4Zm0,3.86v1.46h3.4v-1.46h-3.4Z"/><path class="cls-4" d="m336.25,21.27c-.23,1.43-.73,4.34-.73,7.67,0,5.01,1.21,8.2,2.28,8.2s2.25-3.53,2.65-4.96l3.66,2.44c-2.17,6.47-4.5,7.73-6.53,7.73-2.73,0-6.7-3.14-6.7-13.61,0-2.83.28-5.43.82-8.2l4.56.73Zm14.12,17.02c.23-6.16-1.63-10.98-4.16-13.86l3.71-2.24c5.21,5.46,5.18,12.68,5.15,14.76l-4.7,1.34Z"/><path class="cls-4" d="m387.91,29.16c-1.15-.5-2.17-.98-4.33-2.24v2.32h-14.46v-2.38c-1.35.78-2.39,1.37-4.47,2.3l-2.05-4.31c4.92-1.57,9-4.2,11.45-7.17h4.61c3.97,4.54,9.65,6.55,11.45,7.17l-2.19,4.31Zm-.68,1.93v12.71h-21.86v-12.71h21.86Zm-4.42,3.86h-13.06v5.04h13.06v-5.04Zm-1.58-9.55c-1.58-1.12-2.95-2.21-4.95-4.4-1.13,1.32-2.19,2.44-4.92,4.4h9.88Z"/><path class="cls-4" d="m409.54,38.12c3.83-.22,8.08-2.04,8.08-6.52,0-3.58-2.9-4.26-4.25-4.26-2.7,0-5.01,1.6-6.42,2.91-.06,3.53-.03,5.07.06,12.88h-4.31l.03-8.06c-.82,1.18-1.49,2.13-2.67,4.06l-3.24-3.05c.28-.36,3.55-4.65,3.6-4.7.65-.87,1.69-2.24,2.34-3.11v-.9c-.9.14-2.5.36-4.39.5l-.42-4.45c2.33-.03,3.35-.11,4.84-.25l.03-4.34h4.33c0,.7-.14,6.16-.14,6.55,1.63-1.09,3.83-2.21,6.7-2.21,4.14,0,8.5,2.58,8.5,8.54,0,6.92-5.54,10.02-11.09,10.67l-1.58-4.26Z"/><path class="cls-4" d="m446.51,18.94l4.47.03.08,5.49c.96-.08,3.69-.39,4.22-.48l.37,4.42c-1.91.06-3.01.11-4.59.22-.11,6.22-.7,8.12-7.6,8.04l-1.13-4.09c.45.03.96.06,1.72.06,2.45,0,2.62-.17,2.65-3.64l-7.17.59v3.95c0,4.23.03,5.18,5.09,5.18,2.95,0,6.33-.31,8.36-.5l-.51,4.42c-1.29.11-3.97.31-7.26.31-5.68,0-10.07-.62-10.1-7.5l-.03-5.49c-2,.2-2.84.28-4.22.48l-.37-4.42c1.66-.03,2.28-.06,4.56-.22l-.03-6.16h4.5v5.8l7.15-.59-.17-5.88Z"/><path class="cls-4" d="m470.48,19.73c-1.04,4.62-1.6,8.74-1.6,13.47,0,4.12.48,6.89.9,8.93l-4.31.64c-.76-3.19-.96-6.47-.96-9.74,0-6.27.96-11.45,1.38-13.83l4.59.53Zm8.27-.62h4.45l.08,4.59c1.83-.17,2.73-.31,4.16-.53v4.45c-2.42.28-2.9.34-4.08.42l.14,5.77c1.74.76,3.24,1.48,5.18,2.88l-1.72,4.09c-1.27-1.04-2.28-1.65-3.49-2.3-.08.98-.39,4.54-5.71,4.54-3.04,0-6.5-1.43-6.5-5.24,0-2.44,1.66-5.18,6.13-5.18.45,0,.48,0,1.66.11l-.08-4.42c-1.89.06-4.42.06-7.46-.11l.03-4.42c3.01.2,4.73.25,7.32.2l-.11-4.84Zm-1.38,17.3c-1.24,0-2.17.5-2.17,1.4,0,.95,1.18,1.4,2.11,1.4,1.89,0,1.89-1.18,1.86-2.49-.34-.11-.93-.31-1.8-.31Z"/><path class="cls-4" d="m503.95,32.52c-.9.56-2.98,1.88-2.98,3.08,0,1.82,5.32,1.96,7.37,1.96,3.4,0,6.47-.39,9.79-1.15l.25,4.82c-3.15.62-6.42.84-9.65.84s-12.41,0-12.41-6.02c0-1.99,1.1-3.86,4.67-6.3l2.95,2.77Zm11.82-6.44c-3.35-.64-6.5-.95-9.9-.95s-5.82.31-7.01.45l.2-4.65c1.13-.14,3.35-.36,6.67-.36,4.95,0,8.47.59,10.35.9l-.31,4.62Z"/><path class="cls-4" d="m530.82,38.18c2.28.48,4.45.73,6.67.73,1.8,0,7.57-.14,7.57-3.56,0-2.6-3.49-2.6-4.08-2.6-2.17,0-5.57.78-8.81,3.3l-3.35-1.62c1.6-3.28,2.59-6.55,2.87-7.5-1.63,0-2.65-.03-4.92-.14l-.06-4.37c1.94.17,4.16.28,6.13.28.34-1.43.53-2.24.9-4.26l4.47.67c-.23.9-.56,2.3-.9,3.47,4.9-.28,8.36-.92,10.86-1.43l.48,4.28c-6.25,1.06-9.9,1.26-12.55,1.4-.03.14-.53,1.79-1.07,3.33,2.08-.9,4.11-1.37,6.36-1.37,5.68,0,8.19,3.33,8.19,6.69,0,7.62-9.82,7.62-12.13,7.62-.93,0-3.1,0-6.25-.5l-.39-4.42Z"/><path class="cls-4" d="m565.59,23.87c-.59,2.32-.79,3.22-1.35,5.88.93-.48,3.91-2.04,7.79-2.04,4.98,0,8.33,2.63,8.33,6.92,0,3.64-2.33,6.16-5.37,7.22-1.01.34-3.32,1.06-7.82,1.06-2.31,0-3.66-.17-4.7-.31l-.84-4.54c1.29.22,3.26.56,5.88.56,1.55,0,8.24,0,8.24-4.06,0-2.74-3.18-2.74-3.94-2.74-.84,0-4.95,0-9.2,3.78l-3.6-1.06c.34-2.3.9-6.1,2.19-11.62l4.39.95Zm8.98,1.2c-4.84-1.79-8.33-2.32-11.56-2.69l1.46-3.84c2.53.25,6.42.73,11.65,2.49l-1.55,4.03Z"/><path class="cls-1" d="m37.6,160.55c0,6.86-4.23,12.43-9.44,12.43s-9.44-5.54-9.44-12.43,4.28-12.43,9.44-12.43,9.44,5.52,9.44,12.43Z"/><path class="cls-1" d="m56.78,170.94c0,2.1-1.11,2.77-2,2.77h-4.53l-.43-3.67h3.53c.49,0,.68-.34.68-.9v-4.34h-9.93c-.3,3.28-1.08,6.44-2.64,8.99l-2.4-2.58c.98-1.79,2.47-4.54,2.47-11.17v-11.65h15.25v22.54Zm-12.51-19.15v3.11h9.76v-3.11h-9.76Zm0,6.33v3.42h9.76v-3.42h-9.76Z"/><path class="cls-1" d="m72.63,160.18c-1.44,3.67-3.41,3.67-3.72,3.67-1.11,0-1.61-.56-3.13-2.18-1.08-1.18-1.6-1.48-2.28-1.48-1.67,0-2.43,2.04-2.67,2.69l-1.01-1.99c.27-.67.67-1.68,1.46-2.49.64-.67,1.44-1.15,2.28-1.15,1.2,0,2.01.9,3.05,2.04.99,1.09,1.51,1.65,2.34,1.65,1.55,0,2.35-1.93,2.69-2.77l1.01,2.02Z"/><path class="cls-1" d="m82.22,147.36h2.77v7.34h7.42v3.53h-7.42v11.03h8.55v3.58h-19.91v-3.58h8.59v-11.03h-7.32v-3.53h7.32v-7.34Z"/><path class="cls-1" d="m105.39,165.7l-1.45,5.49h-3.32l6.27-22.34h3.85l6.27,22.34h-3.32l-1.45-5.49h-6.87Zm5.98-3.39l-2.53-9.6-2.55,9.6h5.08Z"/><path class="cls-1" d="m128.86,171.19h-3.3l-4-16.83-1.53,16.83h-3.04l2.25-22.34h3.81l4.15,17.36,4.17-17.36h3.81l2.25,22.34h-3.04l-1.53-16.83-4,16.83Z"/><path class="cls-1" d="m139.82,167.38c1.02.53,1.81.64,2.47.64,1.72,0,4.28-.84,4.91-6.41-.7.78-1.68,1.9-3.62,1.9-2.87,0-5.53-2.72-5.53-7.31s2.53-7.81,6.02-7.81c1.72,0,6.34.95,6.34,10.3,0,7.39-2.81,12.94-8.04,12.94-1.34,0-2.17-.39-2.55-.56v-3.7Zm4.25-7.31c1.66,0,3.23-1.54,3.23-3.98s-1.34-4.09-3.17-4.09c-2,0-3.08,2.1-3.08,4.12,0,2.52,1.4,3.95,3.02,3.95Z"/><path class="cls-1" d="m155.57,154.53v4.45h-3.34v-4.45h3.34Zm0,12.21v4.45h-3.34v-4.45h3.34Z"/><path class="cls-1" d="m157.48,160.02c0-3.95.53-6.55,1.42-8.37,1.08-2.24,2.89-3.25,4.66-3.25,6.08,0,6.08,9.58,6.08,11.62s0,11.62-6.08,11.62-6.08-9.58-6.08-11.62Zm9.17,0c0-4.82-.83-8.01-3.08-8.01-2.4,0-3.08,3.58-3.08,8.01,0,4.84.83,8.01,3.08,8.01s3.08-3.42,3.08-8.01Z"/><path class="cls-1" d="m171.1,160.02c0-3.95.53-6.55,1.42-8.37,1.08-2.24,2.89-3.25,4.66-3.25,6.08,0,6.08,9.58,6.08,11.62s0,11.62-6.08,11.62-6.08-9.58-6.08-11.62Zm9.17,0c0-4.82-.83-8.01-3.08-8.01-2.4,0-3.08,3.58-3.08,8.01,0,4.84.83,8.01,3.08,8.01s3.08-3.42,3.08-8.01Z"/><path class="cls-1" d="m197.19,160.18c-1.44,3.67-3.41,3.67-3.72,3.67-1.11,0-1.61-.56-3.13-2.18-1.08-1.18-1.6-1.48-2.28-1.48-1.67,0-2.43,2.04-2.67,2.69l-1.01-1.99c.27-.67.67-1.68,1.46-2.49.64-.67,1.44-1.15,2.28-1.15,1.2,0,2.01.9,3.05,2.04.99,1.09,1.51,1.65,2.34,1.65,1.55,0,2.35-1.93,2.69-2.77l1.01,2.02Z"/><path class="cls-1" d="m203.58,148.84c1.89,0,3.11.31,4.28,1.51,1.23,1.29,1.83,3.3,1.83,5.49,0,1.12-.17,3.81-1.89,5.43-1.19,1.12-2.32,1.37-4.4,1.37h-1.51v8.54h-3v-22.34h4.7Zm-.13,10.19c1.34,0,3.25,0,3.25-3.25s-1.83-3.33-3.25-3.33h-1.57v6.58h1.57Z"/><path class="cls-1" d="m222.16,171.19h-3.3l-4-16.83-1.53,16.83h-3.04l2.25-22.34h3.81l4.15,17.36,4.17-17.36h3.81l2.25,22.34h-3.04l-1.53-16.83-4,16.83Z"/><path class="cls-1" d="m243.73,148.84v3.7l-8.21,18.65h-3.36l8.36-18.73h-9.17v-3.61h12.38Z"/><path class="cls-1" d="m248.86,154.53v4.45h-3.34v-4.45h3.34Zm0,12.21v4.45h-3.34v-4.45h3.34Z"/><path class="cls-1" d="m250.78,160.02c0-3.95.53-6.55,1.42-8.37,1.08-2.24,2.89-3.25,4.66-3.25,6.08,0,6.08,9.58,6.08,11.62s0,11.62-6.08,11.62-6.08-9.58-6.08-11.62Zm9.17,0c0-4.82-.83-8.01-3.08-8.01-2.4,0-3.08,3.58-3.08,8.01,0,4.84.83,8.01,3.08,8.01s3.08-3.42,3.08-8.01Z"/><path class="cls-1" d="m264.4,160.02c0-3.95.53-6.55,1.42-8.37,1.08-2.24,2.89-3.25,4.66-3.25,6.08,0,6.08,9.58,6.08,11.62s0,11.62-6.08,11.62-6.08-9.58-6.08-11.62Zm9.17,0c0-4.82-.83-8.01-3.08-8.01-2.4,0-3.08,3.58-3.08,8.01,0,4.84.83,8.01,3.08,8.01s3.08-3.42,3.08-8.01Z"/><path class="cls-1" d="m303.82,160.55c0,6.86-4.23,12.43-9.44,12.43s-9.44-5.54-9.44-12.43,4.28-12.43,9.44-12.43,9.44,5.52,9.44,12.43Z"/><path class="cls-1" d="m323.61,148.54v24.42h-16.76v-24.42h16.76Zm-13.98,10.33h11.15v-6.89h-11.15v6.89Zm0,3.39v7.22h11.15v-7.22h-11.15Z"/><path class="cls-1" d="m337.59,158.36c-.19.59-.28.9-.45,1.32h2.21c.28-.62.45-1.09.64-1.76l2.34.48c-.3.76-.36.92-.55,1.29h3.85v2.44h-4.28v1.57h3.53v1.93h-3.53v1.57h3.53v1.96h-3.53v1.6h4.7v2.55h-12.23v-7.9c-.09.11-.17.22-.6.73l-.87-1.88v7.5h-5.81v-23.27h5.81v14.28c.32-.39,2.02-2.41,2.87-5.07l2.36.67Zm-7.27-6.64h-1.62v6.66h1.62v-6.66Zm0,9.69h-1.62v7.08h1.62v-7.08Zm8.49-13.24v9.35h-5.83v-2.3h3.53v-1.32h-3.21v-2.1h3.21v-1.37h-3.53v-2.27h5.83Zm.36,13.94h-2.96v1.57h2.96v-1.57Zm0,3.5h-2.96v1.57h2.96v-1.57Zm0,3.53h-2.96v1.6h2.96v-1.6Zm6.25-20.97v9.35h-5.89v-2.3h3.64v-1.32h-3.34v-2.1h3.34v-1.37h-3.64v-2.27h5.89Z"/><path class="cls-1" d="m359.76,160.55c0,2.02-1.25,3.72-2.83,3.72s-2.83-1.68-2.83-3.72,1.32-3.72,2.83-3.72,2.83,1.65,2.83,3.72Z"/><path class="cls-1" d="m372.87,173.76h-2.49v-9.88c-.98,1.23-1.6,1.85-2.13,2.35l-.89-3.81c2.13-1.99,4.04-4.45,5-7.67h-4.64v-3.22h2.66v-4.17h2.51v4.17h2.06v3.22c-.28,1.06-.53,2.1-1.53,4.2.79,1.4,1.49,2.27,2.45,3.22l-1.28,3.42c-.38-.53-1.11-1.62-1.72-3.08v11.26Zm3.04-25.59h11.1v12.6h-3.02v8.29c0,.45,0,1.09.47,1.09h.38c.47,0,.6-.59.62-.92.09-.78.15-3.08.15-3.64l2.32.78c-.13,5.26-.23,7.14-2.34,7.14h-2.23c-1.62,0-1.83-1.4-1.83-2.55v-10.19h-1.38c-.02,7-1.66,10.39-4.64,13.05l-1.68-3c2.94-2.44,3.83-4.84,3.96-10.05h-1.87v-12.6Zm2.59,3.25v6.22h5.93v-6.22h-5.93Z"/><path class="cls-1" d="m407.01,148.54v24.42h-16.76v-24.42h16.76Zm-13.98,10.33h11.15v-6.89h-11.15v6.89Zm0,3.39v7.22h11.15v-7.22h-11.15Z"/><path class="cls-1" d="m422.31,160.55c0,2.02-1.25,3.72-2.83,3.72s-2.83-1.68-2.83-3.72,1.32-3.72,2.83-3.72,2.83,1.65,2.83,3.72Z"/><path class="cls-1" d="m441.44,154.14c-1.53-1.43-3.11-2.13-5.02-2.13-4.17,0-6.38,3.56-6.38,8.01,0,3.44,1.36,8.01,6.53,8.01,1.62,0,2.55-.48,3.11-.73v-5.15h-4.13v-3.5h7.08v11.37c-1.94,1.09-4,1.62-6.08,1.62-6.49,0-9.53-5.74-9.53-11.65,0-6.86,3.96-11.59,9.4-11.59,3.15,0,5.23,1.51,6.04,2.13l-1.02,3.61Z"/><path class="cls-1" d="m455.87,153.13l-.55,4.34-2.13,13.72h-3.76l-4-22.34h3.17l2.28,14.22.47,3.81.47-3.81,2.13-14.22h3.87l2.13,14.22.47,3.81.47-3.81,2.28-14.22h3.17l-4,22.34h-3.77l-2.13-13.72-.55-4.34Z"/><path class="cls-1" d="m474.23,160.55c0,2.02-1.25,3.72-2.83,3.72s-2.83-1.68-2.83-3.72,1.32-3.72,2.83-3.72,2.83,1.65,2.83,3.72Z"/><path class="cls-1" d="m501.64,173.74c-1.55-.11-5.72-.45-9.47-1.96-2.83,1.26-6.38,1.9-9.4,1.96l-.6-2.86c1.34.03,3.76,0,6.79-.78-.83-.56-1.45-1.01-2.68-2.21-.74.42-1.45.78-3.06,1.34l-.96-2.77c1.72-.36,3.94-1.48,5.27-2.8h-3.32v-11.65h6.08c.11-.28.23-.7.32-1.06h-8.32v-2.74h19.89v2.74h-8.83c-.13.45-.17.62-.34,1.06h7.25v11.65h-9.4c-.21.34-.32.5-.74,1.04h8.81v2.16c-1.28,1.57-2.17,2.3-3.49,3.16,2.89.59,5.47.62,6.93.59l-.74,3.14Zm-3.87-19.68h-10.98v1.23h10.98v-1.23Zm0,3.08h-10.98v1.32h10.98v-1.32Zm0,3.11h-10.98v1.32h10.98v-1.32Zm-9.34,6.64c.98.84,2.25,1.6,3.66,2.13,1.87-.78,2.91-1.65,3.45-2.13h-7.1Z"/><path class="cls-1" d="m507.83,167.97c-.66,2.04-2.08,4.48-3.28,5.77l-1.77-2.41c1.17-1.23,2.34-3.42,2.91-4.76l2.13,1.4Zm-3.36-20.61h2.45v2.21h3.47v-2.21h2.45v2.21h1.36v3.08h-1.36v10.72h1.32v3.02h-11.12v-3.02h1.45v-10.72h-1.15v-3.08h1.15v-2.21Zm2.45,5.29v1.71h3.47v-1.71h-3.47Zm0,4.37v1.82h3.47v-1.82h-3.47Zm0,4.34v2.02h3.47v-2.02h-3.47Zm3.74,5.24c.62.73,1.51,1.99,2.23,3.56l-1.79,2.04c-.47-1.09-1.25-2.6-2.19-3.95l1.74-1.65Zm11.81-18.51v23.21c0,2.3-1.11,2.38-1.91,2.38h-2.79l-.43-3.33h1.96c.57,0,.66-.39.66-.92v-4.09h-3.17c-.36,5.32-1.68,7.53-2.17,8.37l-2.15-2.35c1.53-2.8,2.19-5.46,2.19-13.36v-9.91h7.81Zm-5.42,10.22c-.02,1.48-.02,2.24-.04,3.89h2.96v-3.89h-2.91Zm0-6.94v3.89h2.91v-3.89h-2.91Z"/><path class="cls-1" d="m525.81,160.77c-.57.98-.87,1.37-1.34,1.93l-.85-4.59c1.74-2.72,3-6.05,3.51-10.81l2.7.34c-.15,1.43-.43,3.81-1.43,7v19.12h-2.59v-12.99Zm2.79,6.41c2.55-3.19,4.51-7.08,5.85-11.4h-4.87v-3.39h5.68v-5.07h2.64v5.07h6.04v3.39h-5.32c.38,1.26,1.94,6.66,5.68,11.2l-1.68,3.56c-1.21-1.54-2.98-3.98-4.72-9.72v12.94h-2.64v-13.38c-1.83,5.52-3.74,8.37-4.94,10.08l-1.72-3.28Z"/><path class="cls-1" d="m550.71,171.8h-5.49v-23.38h5.49v23.38Zm-2.02-20.13h-1.34v6.69h1.34v-6.69Zm0,9.72h-1.34v7.2h1.34v-7.2Zm8.85-3.95h-3.64v2.52h3.64v3.14h-3.64v2.49h3.64v3.11h-3.64v5.04h-2.21v-25.7h5.85v9.41Zm-1.91-6.3h-1.72v3.28h1.72v-3.28Zm.6,19.82c1.85-1.23,2.55-1.99,3.32-2.91-.55-1.29-.96-2.35-1.47-4.62l2-.78c.19.81.43,1.76.96,3.08.64-1.34.92-2.6,1.08-3.42h-4.06v-3.11h6.32v3.11c-.53,2.88-1.04,4.23-1.94,5.96,1.06,1.48,2,2.16,2.66,2.63l-1.28,2.88c-1.45-1.15-2.13-2.04-2.89-3.19-.85,1.06-1.53,1.82-3.23,3.14l-1.47-2.77Zm8.15-13.52h-6.06v-3.08h3.72v-3.16h-3.72v-3.16h6.06v9.41Z"/><path class="cls-1" d="m578.49,160.55c0,2.02-1.25,3.72-2.83,3.72s-2.83-1.68-2.83-3.72,1.32-3.72,2.83-3.72,2.83,1.65,2.83,3.72Z"/><path class="cls-1" d="m605.75,149.85v3.36h-6.64v3.3h5.96v3.28h-5.96v4.48h7.42v3.36h-7.42v6.1h-2.68v-6.1h-9.93v-3.36h2.96v-7.25c-.62.84-.94,1.2-1.47,1.79l-1.77-3.02c2.23-2.27,3.81-5.21,4.55-8.65l2.83.7c-.19.73-.3,1.15-.57,2.02h12.72Zm-14.06,3.36c-.87,1.79-1.4,2.6-1.87,3.3h6.62v-3.3h-4.74Zm4.74,6.58h-4.3v4.48h4.3v-4.48Z"/><path class="cls-1" d="m607.35,150.33h8.66v-3h2.64v3h8.72v3.42h-8.72v3.78h7.49v3.36h-6.06c2.08,4.06,5.76,6.55,7.57,7.67l-1.53,3.42c-3.45-2.63-5.15-4.62-7.47-8.54v10.33h-2.64v-10.33c-1.79,3.28-4.62,6.72-7.51,8.65l-1.38-3.58c3.11-1.74,5.28-3.89,7.59-7.62h-6.17v-3.36h7.47v-3.78h-8.66v-3.42Z"/><path class="cls-1" d="m647.45,149.85v3.36h-6.64v3.3h5.96v3.28h-5.96v4.48h7.42v3.36h-7.42v6.1h-2.68v-6.1h-9.93v-3.36h2.96v-7.25c-.62.84-.94,1.2-1.47,1.79l-1.77-3.02c2.23-2.27,3.81-5.21,4.55-8.65l2.83.7c-.19.73-.3,1.15-.57,2.02h12.72Zm-14.06,3.36c-.87,1.79-1.4,2.6-1.87,3.3h6.62v-3.3h-4.74Zm4.74,6.58h-4.3v4.48h4.3v-4.48Z"/><path class="cls-1" d="m656.95,151.95c-.15,4.12-.55,9.21-1.62,13.16.94,1.04,1.43,1.62,2.11,2.49l-1.72,2.94c-.64-.9-.98-1.34-1.6-2.13-1.36,2.97-2.83,4.54-3.59,5.38l-1.74-2.91c1.55-1.37,2.42-2.63,3.42-4.65-.92-.95-1.62-1.62-3.04-2.66,1.04-3.7,1.38-6.05,1.66-8.34h-1.77v-3.28h2.06c.13-1.54.15-1.99.26-4.65l2.51.2c-.08,1.82-.15,2.6-.32,4.45h3.38Zm-3.77,3.28c-.38,2.72-.7,4.48-1.25,6.83.81.62,1.02.78,1.4,1.12.94-3.28,1.19-6.78,1.26-7.95h-1.4Zm12.93-4.51c1.21,2.27,2.51,4.98,3.3,8.01l-2.43,1.54c-.15-.7-.25-1.15-.45-1.74-2.04.42-7.76,1.06-9.49,1.15l-.21-3.42c.51,0,1-.06,1.51-.08.64-2.13,1.47-5.54,2-9.04l2.83.39c-.43,2.35-1.62,6.47-2.23,8.48,2.06-.11,3.13-.22,4.55-.39-.4-.95-.77-1.76-1.62-3.42l2.23-1.48Zm2.21,22.37h-10.42v-11.93h10.42v11.93Zm-2.57-8.9h-5.38v5.82h5.38v-5.82Z"/><path class="cls-1" d="m137.38,127.89c-8.66,0-16.2-5.67-16.2-15.83v-22.4c0-10.15,7.54-15.83,16.2-15.83s16.13,5.67,16.13,15.83v22.4c0,10.15-7.47,15.83-16.13,15.83Zm6.42-38.08c0-4.48-2.61-7.24-6.42-7.24s-6.5,2.76-6.5,7.24v22.17c0,4.48,2.69,7.17,6.5,7.17s6.42-2.69,6.42-7.17v-22.17Z"/><path class="cls-1" d="m177.92,127.89c-8.66,0-16.2-5.67-16.2-15.83v-22.4c0-10.15,7.54-15.83,16.2-15.83s16.13,5.67,16.13,15.83v22.4c0,10.15-7.47,15.83-16.13,15.83Zm6.42-38.08c0-4.48-2.61-7.24-6.42-7.24s-6.5,2.76-6.5,7.24v22.17c0,4.48,2.69,7.17,6.5,7.17s6.42-2.69,6.42-7.17v-22.17Z"/><path class="cls-1" d="m218.24,127.89c-8.66,0-16.8-4.55-16.95-15.68h9.71c.15,4.78,3.43,6.94,7.24,6.94,4.18,0,7.17-2.61,7.17-7.39,0-4.41-2.69-7.32-7.47-7.32h-1.42v-8.44h1.42c4.7,0,6.72-2.91,6.72-6.64,0-4.48-2.99-6.79-6.5-6.79s-6.35,2.39-6.57,6.42h-9.71c.22-9.48,7.32-15.16,16.28-15.16,9.41,0,16.2,6.27,16.2,15.23,0,5.75-2.61,9.03-6.12,10.9,3.81,2.02,6.87,5.67,6.87,12.1,0,10.6-7.77,15.83-16.87,15.83Z"/><path class="cls-1" d="m259,127.44h-10.53l17.25-44.42h-14.04v8.36h-9.26v-17.1h33.82v8.74l-17.25,44.42Z"/><path class="cls-1" d="m283.63,110.65v-9.03h23v9.03h-23Z"/><path class="cls-1" d="m331.19,127.89c-9.41,0-16.57-5.9-16.57-16.43,0-4.85,2.09-9.33,4.48-14.19l11.2-23h10.6l-11.05,21.95c1.27-.52,2.69-.67,3.96-.67,7.17,0,13.96,5.9,13.96,15.75,0,10.45-7.17,16.58-16.57,16.58Zm0-24.27c-3.96,0-6.87,2.84-6.87,7.77s2.91,7.76,6.87,7.76,6.87-2.84,6.87-7.76-2.76-7.77-6.87-7.77Z"/><path class="cls-1" d="m371.88,127.89c-8.66,0-16.2-5.67-16.2-15.83v-22.4c0-10.15,7.54-15.83,16.2-15.83s16.13,5.67,16.13,15.83v22.4c0,10.15-7.47,15.83-16.13,15.83Zm6.42-38.08c0-4.48-2.61-7.24-6.42-7.24s-6.5,2.76-6.5,7.24v22.17c0,4.48,2.69,7.17,6.5,7.17s6.42-2.69,6.42-7.17v-22.17Z"/><path class="cls-1" d="m412.42,127.89c-8.66,0-16.2-5.67-16.2-15.83v-22.4c0-10.15,7.54-15.83,16.2-15.83s16.13,5.67,16.13,15.83v22.4c0,10.15-7.47,15.83-16.13,15.83Zm6.42-38.08c0-4.48-2.61-7.24-6.42-7.24s-6.5,2.76-6.5,7.24v22.17c0,4.48,2.69,7.17,6.5,7.17s6.42-2.69,6.42-7.17v-22.17Z"/><path class="cls-1" d="m452.8,127.89c-9.41,0-16.57-5.9-16.57-16.43,0-4.85,2.09-9.33,4.48-14.19l11.2-23h10.6l-11.05,21.95c1.27-.52,2.69-.67,3.96-.67,7.17,0,13.96,5.9,13.96,15.75,0,10.45-7.17,16.58-16.57,16.58Zm0-24.27c-3.96,0-6.87,2.84-6.87,7.77s2.91,7.76,6.87,7.76,6.87-2.84,6.87-7.76-2.76-7.77-6.87-7.77Z"/><path class="cls-1" d="m477.59,110.65v-9.03h23v9.03h-23Z"/><path class="cls-1" d="m537.54,104.45l-11.27,23h-10.53l11.05-21.95c-1.27.52-2.69.67-3.96.67-7.17,0-14.04-5.9-14.04-15.75,0-10.45,7.17-16.57,16.57-16.57s16.58,5.9,16.58,16.42c0,4.85-2.02,9.33-4.41,14.19Zm-12.17-21.88c-3.96,0-6.87,2.84-6.87,7.76s2.76,7.76,6.87,7.76,6.87-2.84,6.87-7.76-2.91-7.76-6.87-7.76Z"/><path class="cls-1" d="m565.83,127.44h-10.53l17.25-44.42h-14.04v8.36h-9.26v-17.1h33.82v8.74l-17.25,44.42Z"/><path class="cls-1" d="m606.22,127.89c-9.41,0-16.58-5.9-16.58-16.43,0-4.85,2.09-9.33,4.48-14.19l11.2-23h10.6l-11.05,21.95c1.27-.52,2.69-.67,3.96-.67,7.17,0,13.96,5.9,13.96,15.75,0,10.45-7.17,16.58-16.57,16.58Zm0-24.27c-3.96,0-6.87,2.84-6.87,7.77s2.91,7.76,6.87,7.76,6.87-2.84,6.87-7.76-2.76-7.77-6.87-7.77Z"/><path class="cls-1" d="m659.97,119.9v7.54h-9.33v-7.54h-21.73v-9.18l18.22-36.43h10.6l-18.22,36.43h11.12v-9.93h9.33v9.93h4.85v9.18h-4.85Z"/><path class="cls-1" d="m97.56,102.18c1.45,1.27,2.25,2.65,2.25,4.07,0,6.54-14.12,11.84-36.86,11.84s-36.86-5.3-36.86-11.84c0-1.54.92-3.01,2.6-4.37-5.05,2.69-8.03,6-8.03,9.58,0,9.01,18.89,16.32,42.19,16.32s42.19-7.31,42.19-16.32c0-3.46-2.77-6.65-7.49-9.29Z"/><path class="cls-1" d="m63.18,76.11c7.76.08,16.5.53,21.59,1.15,2.79.33,5.68,1.16,6.39,3.73.33,1.21.69,3.86,1.07,5.27.52,1.89,5.02,3.02,11.81,3.02,3.56,0,5.33-.92,5.33-2.76,0-2.27-1.35-4.28-3.85-6.17-3.23-2.43-8.1-4.33-14.92-5.46-5.96-.99-15.1-1.58-27.42-1.58s-21.47.59-27.42,1.58c-6.83,1.13-11.69,3.03-14.92,5.46-2.51,1.89-3.85,3.9-3.85,6.17,0,1.84,1.77,2.76,5.33,2.76,6.79,0,11.29-1.13,11.81-3.02.38-1.41.75-4.06,1.07-5.27.7-2.57,3.6-3.4,6.39-3.73,5.09-.61,13.82-1.22,21.59-1.15Z"/><path class="cls-1" d="m55.64,83.17c-.07,9.53-5.33,12.55-14.08,13.63v-3.29c5.78-.8,7.77-3.21,8.57-7.21h-9.8v-3.13h15.31Z"/><path class="cls-1" d="m62.78,90.41h-4.55v-7.44h4.55v7.44Zm9.06-1.08c0,5.31-3.35,7.58-12.25,7.49v-2.96c4.72-.29,7.39-.8,7.39-4.51v-6.39h4.86v6.36Z"/><path class="cls-1" d="m88.15,86.83v3.63h-13.64v-3.63h13.64Z"/><path class="cls-1" d="m50.06,97.87v2.33h5.62v3.1h-5.82v8.33h-4.07v-8.35h-6.12v-3.07h5.92v-2.33h4.48Zm-10.83,13.53c.76-1.76,1.36-4.52,1.54-6.55h3.46c-.11,2.12-.4,4.66-.99,6.55h-4Zm13.37,0c-.32-2.04-.9-4.18-1.52-6.55h3.61c.64,2.12,1.38,4.11,2.04,6.55h-4.13Zm-.5-12.12c-.06-.41-.31-1.69-.68-2.87h1.87c.12.33.47,1.35.52,1.57.23,1.01.27,1.12.31,1.3h-2.03Zm3.09,0c-.08-.41-.39-1.69-.81-2.87h1.88c.13.33.53,1.35.6,1.57.28,1.01.32,1.12.37,1.3h-2.03Z"/><path class="cls-1" d="m67.6,111.4h-4.44v-5.47c-2.22.92-4.19,1.43-5.95,1.65v-3.25c4.41-.8,8.52-3.61,10.28-6.2h5.52c-1.21,2.34-2.6,3.93-5.42,5.77v7.5Z"/><path class="cls-1" d="m82.89,107.73c-2.07,1.7-5.48,3.04-9.41,3.7v-3.29c5.52-1.24,8.24-3.94,8.96-6.61h-7.87v-3.27h14.07c-.27,2.04-.93,4.28-2.79,6.85,2.42,2.03,3.5,2.97,5.65,5.53h-6.18c-.96-1.46-1.36-1.94-2.44-2.91Z"/></g></svg>