<svg id="_レイヤー_2" data-name="レイヤー 2" xmlns="http://www.w3.org/2000/svg" xmlns:xlink="http://www.w3.org/1999/xlink" viewBox="0 0 308.97 56.91"><defs><linearGradient id="linear-gradient" x1="32.38" y1="40.59" x2="34.34" y2="38.91" gradientUnits="userSpaceOnUse"><stop offset="0" stop-color="#fff"/><stop offset="1" stop-color="#ff0012"/></linearGradient><linearGradient id="linear-gradient-2" x1="34.78" y1="41.86" x2="38.52" y2="38.64" xlink:href="#linear-gradient"/><radialGradient id="_コバサンタの靴_1" data-name="コバサンタの靴 1" cx="-1418.64" cy="3454.98" fx="-1418.64" fy="3454.98" r="2.82" gradientTransform="matrix(.89193 -.26336 .18123 .6138 668.94 -2438.81)" gradientUnits="userSpaceOnUse"><stop offset="0" stop-color="#cdb7ab"/><stop offset="1" stop-color="#721419"/></radialGradient><style>.cls-5{fill:#fff}.cls-7{fill:#fbd9b2}.cls-9{fill:#fff000}.cls-10{fill:#ff0012}.cls-11{fill:#721419}</style></defs><g id="_レイヤー_1-2" data-name="レイヤー 1"><path d="M61.38 3.85c1.58 2.8 1.71 6.85-.72 9.33-.34.31-.73.64-1.07.91 3.97 1.2 7.72 4.8 8.4 8.76.77 4.28-1.19 8.4-5.16 10.63-3.07 1.72-7.43 2.4-10.84 1.12-.73.64-1.58 1.08-2.6 1.08-.68-.05-1.45-.37-1.67-1-.77.32-1.7.08-2.38-.24-.52-.44-1.03-.88-1.24-1.44-.43.08-.77.45-1.15.65.6 1.75 2.02 3.08 3.03 3.79.85.28 1.28 1.15 1.61 1.84.17 1.48-.21 2.8-1.15 3.88.86 1.8 1.88 3.52 2.82 5.28.08.28.04.68-.39.77-5.76 2.35-11.31 5.15-16.94 7.71-.98-.2-1.53-1.12-2.05-1.83-.98.24-1.75 1.08-2.73 1.16-2.3-2.28-2.09-6.16-.72-8.8 1.11-2.04 3.33-3.67 5.76-3.83-.59-1-1.36-2.36-.72-3.64-2.14-2.24-5.38-2.48-8.24-3.4-1.79-.56-3.75-1.9-3.84-3.92.04-.76.25-1.54.76-2.1-.21-1.08-1.57-1.7-2.59-2.14-.77-.08-1.57-.36-2.39-.16-.55.84-1.58.96-2.52.84-.77-.2-1.46-.6-2.01-1.17-.47.68-1.24.88-2.05.85-.81-.48-1.49.15-2.3.2-1.62.31-2.99-.52-3.93-1.64-.47-.8-.94-1.72-.64-2.68-.68-.76-1.07-1.72-.85-2.76.04-.4.21-.72.55-1.04-.17-.48-.2-1.13.29-1.63.48-.35-.34-.79-.95-1.76-.72-1.36-1.21-3.44-.14-4.76.68-.83 2.13-1.16 3.24-.84.81.2 1.36.88 2.09 1.16-.55-2.24-.09-4.68 1.79-6.19 2.8-2.34 5.85-.48 6.01-.52 1.88-1.79 3.67-3.64 6.11-4.48C23.28.17 27.46-.3 31.43.3c2.77.44 5.46 1.2 7.85 2.59 1.92.96 3.24 2.83 5.16 3.8l1.2.23c.3-2.36 1.83-4.68 4.18-5.8 2.52-1.43 6.35-1.64 8.79.13 1.07.71 2.13 1.52 2.77 2.59z"/><path d="M6.66 21.86c-.17-.06-.35-.13-.52-.24-.25-.14-.53-.12-.16.21.17.15.41.27.68.39-.02-.12-.01-.25 0-.36z" fill="none"/><path class="cls-7" d="M9.33 22.63c-.92.57-1.78.44-2.11-.27-.28-.59.18-1.22 1.12-1.78.93-.55 1.36-.53 1.78-.04.19.23.3.4.4.62.19.42.14.93.14.93-.05.47-.25.76-.3.87-.38 1.05-.35 2.17-.27 2.77-.12.4-1.27 1.42-1.85 1.18.24-.48-.1-1.33-1.05-1.46.16-.15.32-.55.33-.8.39-.29 1.05-.58 1.03-1.36 0 0 .3 0 .89-.37.59-.38.29-.52-.11-.27z"/><path class="cls-7" d="M6.74 22.5c-.04-.09-.07-.19-.09-.28-.27-.12-.51-.23-.68-.39-.36-.33-.08-.36.16-.21.18.11.35.18.52.24.11-.54.63-1.09 1.42-1.56.37-.22.7-.36.99-.42-.65-.83-.88-1.39-1.25-2.1-.36-.68-1.52-2.34-2.44-3.25-.41-.4-.76-.6-1.03-.75-.49-.28-1.34-.18-1.83.35-.4.43-.54 1.17-.24 2.08.36 1.06 2.06 3.48 3.78 4.12.53.2.15.31-.26.21-.67-.16-1.46-.73-1.85-1.06-.67.2-.9 1.32-.65 2.19.25.85 1.84 2.81 3.86 2.59.52-.05.95-.54.98-.98-.19-.02-.37-.06-.52-.11-.32-.11-.73-.34-.87-.66z"/><path class="cls-7" d="M6.96 24.83c-2.08-.11-3.32-1.57-3.89-2.62-.52.19-.8 1.79.6 2.81 1.94 1.42 3.25.53 3.3-.19z"/><path class="cls-7" d="M6.9 25.91c-1.02.75-2.78.12-3.44-.49 0 1.12.61 1.61 1.66 1.86 1.06.27 2.08.03 2.51-.24.67-.43-.26-1.24-.74-1.13z"/><path class="cls-5" d="M64.41 21.33c1.19 2.19 1.15 5.32-.43 7.36-2.3 2.84-6.02 4.68-9.95 3.76-.72-.28-1.78-.56-2-1.36.31-1.08.22-2.4-.59-3.2-.17-1.2-1.2-2.28-2.39-2.72-.39-.13-.81-.36-1.24-.16-.34-.17-.47-.6-.85-.8-1.03-.91-2.39-1.12-3.71-1.36-.26.08-.42.04-.73.04.09-.59.73-1.11 1.33-1.43 1.62.84 3.67.32 5.12-.57 1.23-1.04 1.83-2.35 2.05-3.83 2.9-1.6 7.47-1.29 10.11.72 1.37.96 2.43 2.24 3.28 3.56z"/><path class="cls-10" d="M42.26 22.01c-.38.68-.04 4.13-2.57 7.76-1.1 1.38-4.39 2.31-5.28 2.63-3.37.68-9.57.85-10.96-1.86-1.59-2.09-4.27-4.34-7.81-4.38-.3-.52 0-1.16.39-1.6 4.1 1.68 8.79 2.48 13.52 1.96 2.64-.56 5.55-.84 7.98-2 1.66-.64 3.25-1.52 4.73-2.52z"/><path class="cls-5" d="M15.13 24.13c-.26.64-.56 1.52-.26 2.28-.51.56-1.28.8-2.09.56-.64-.13-1.28-.52-1.62-1.09-.47-.99-.17-2.32.17-3.28l.47-.4c1.11.76 2.22 1.31 3.33 1.92zm35.67 3.32c.64 1.56.13 3.4-1.03 4.6-.77.79-1.88.79-2.9.6-.51-.16-.99-.52-1.28-.96.09-.28.51-.2.64-.4 1.71-1.04 2.13-2.95 1.92-4.75l-.22-.99c1.19-.12 2.47.83 2.86 1.91z"/><path class="cls-10" d="M50.97 32.28c-.49.76-1.28 1.04-2.09.84 1.78-.45 2.6-2.52 2.69-4.15.38 1.16.08 2.39-.6 3.31z"/><path d="M37.18 40.64c-.64.64-2.16.77-2.55.41-.32-.4-.54-.79-.99-1.22-1.12-1.07-1.54-1.62-2.56-2.3.64-.12 1.54-.48 2.18-.08.98.76 3.71 2.56 3.92 3.2z" fill="url(#linear-gradient)"/><path d="M43.4 39.54c-.12 1.04-.89 1.59-2.01 2.14-.81.34-1.77.4-2.67.15-1.2-2.23-3.54-3.91-5.16-4.76 1.86-.24 6.48-2.11 7.38-2.83 0 0 1.03 2.13 1.79 3.76l.68 1.53z" fill="url(#linear-gradient-2)"/><path class="cls-5" d="M44.25 38.64c.56.2.88.56.96 1 .13.96-.09 1.92-.86 2.6-1.23 1.16-2.77 1.8-4.52 1.72-1.09-.14-2.52-.39-2.62-1.5-.04-.48.27-.98.7-1.23.23.06.38.29.38.45-.01.12-.18.36.28.54 1.67.24 3.01.16 4.51-1.14.67-.73.84-1.62.81-1.84-.02-.19-.48-.2-.53-.28-.03-.04-.13-.27-.13-.32 0-.09.61-.17 1.03 0zm-10.28 1.89c-.17.2.1.56.19.71.31.5 1.17.53 2.23.34l.74-.24c-.5.43-.46 1.06-.29 1.42-.64.32-1.87.55-2.74.28-.81-.29-1.13-.65-1.19-1.33-.04-.4.13-.95.46-1.23.2-.18.59-.24.59.05z"/><path class="cls-11" d="M37.44 43.96c.34.23.98.36 1.02.87-1.02-.16-2.09-.56-3.2-.36-.21-.2-.3-.51-.43-.84.64 0 1.41.04 2.05-.17l.56.49zm8.71 3.95c-4.86 2-9.6 4.32-14.38 6.52-1.24-1.56-1.75-4.07-.6-5.8 1.41-1.95 3.97-2.71 6.4-2.28.73.4 1.58.44 2.22 1.07.52.05.94-.15 1.15-.59.51-.84-.34-1.6-.64-2.37 1.23-.04 2.3-.4 3.28-.95.98 1.39 1.79 2.88 2.56 4.39z"/><path d="M34.8 50.51c1.38-.41 2.28-1.52 2-2.47-.28-.96-1.63-1.39-3.02-.99-1.38.41-2.28 1.51-1.99 2.47.28.95 1.63 1.39 3.02.98z" fill="url(#_コバサンタの靴_1)"/><path class="cls-11" d="M32.45 45.31c-2.13.73-3.8 2.97-3.84 5.2-.05.92.04 1.76.38 2.56l-1.07.6c-.6-.96-.77-2.4-.6-3.55.08-2.28 2.43-4 4.52-4.68.22 0 .39-.13.6-.13z"/><path d="M53.69 46.97c0 .18-.15.32-.41.32h-.77v-.53c0-.06.03-.08.08-.08h.64c.3 0 .45.12.45.29zm.32 1.31c-.17-.25-.19-.5-.27-.67a.295.295 0 00-.13-.14c.22-.05.37-.23.37-.49 0-.38-.27-.55-.75-.55h-.71c-.19 0-.28.09-.28.28v1.66c0 .17.28.17.28 0v-.81h.73c.11 0 .18.05.23.13.09.18.11.47.29.73.11.19.37 0 .26-.14z"/><path d="M53.08 49.04a1.54 1.54 0 000-3.08c-.85 0-1.55.69-1.55 1.54s.69 1.54 1.55 1.54z" stroke="#000" stroke-width=".2" fill="none"/><path class="cls-10" d="M39.09 5.37c1.88 1.27 3.45 3.2 5.75 3.64 1.96.39 4.01.32 5.75-.47.47-.28.98-.87 1.62-.48.13.2.09.4.04.6-1.2.91-2.77 1.7-3.24 3.12-1.02-.96-2.56-1.31-3.93-.76l-.55.2c-2.94-3.16-6.27-5.57-10.44-6.77-9.74-2.23-15.51 1.37-18.76 3.07 3.16-3.32 7.41-4.82 11.98-5.25 4.34-.08 8.39.84 11.76 3.09z"/><path class="cls-5" d="M58.96 5.47c.47 1.38 1.02 3.17.25 4.54-.34 1.27-1.37 2.45-2.69 2.93-2.26.83-5.12.55-6.81-1.15-.26-.4.17-.76.47-1.04.72-1.22 3.11-1.26 2.47-2.92-.56-.56-1.37-.47-1.96-.08-.51.43-1.19.51-1.79.71-.09-.08-.26.04-.3-.12-.34-1.85.64-3.63 2.22-4.74 1.92-1.15 4.77-1.3 6.65 0 .81.39.98 1.27 1.49 1.86zm-21.53.78c2.43 1.34 4.85 2.97 6.43 5.3-1.11.75-1.87 1.9-2.3 3.05-3.49-3.96-7.67-6.77-13.34-7.72-4.95-.6-10.25 1.02-13.34 3.15-1.03.83-1.58 1.47-2.18 2.34-.17-.12-.48-.56-.61-.72 1.66-3.35 5.04-4.5 5.91-4.98 2.26-1.1 5.28-2.09 6.9-2.24 5.12-.7 10.27.48 12.53 1.83z"/><path class="cls-7" d="M13.22 9.02c-.64.72-1.19 1.55-1.62 2.38-1.15-.32-2.09.31-2.85.99-.68-.6-.21-1.7.04-2.38.52-1.07 1.71-1.78 2.86-1.9.68 0 1.15.52 1.58.91z"/><path class="cls-5" d="M21.57 15.56c.21.62.16 1.25-.21 1.38-.37.12-.85-.27-1.06-.89-.21-.62-.08-1.34.3-1.46.43-.15.76.35.98.97z"/><path class="cls-7" d="M49.71 13.46c-.73-1.04-1.84-2.22-3.24-2.23-1.37.12-2.6.6-3.45 1.71-.47.71-1.11 1.38-.98 2.21-.15.17-.41.1-.53 0-.08-.06-3.45-3.98-6.28-5.16 1.15 1.51 1.83 3.25 1.74 5.22l-.13.17c-.13 0-.26-.04-.34-.12.21-2.17-.59-4.23-2.25-5.74-1.24-.87-3.46-1.71-5.5-2.09.03 0 .05.02.08.04 4.05 1.89 3.4 7.97 3.25 9.07-.15 1.09-1.04 2.98-2.96 2.01-1.93-.96-1.33-4.77 0-5.36 1.33-.59 1.85.06 1.85.06-.02-4.74-2.57-5.58-3.05-5.6-1.98-.21-3.84 1.86-4.11 5.08-.27 3.22 1.86 5.72 2.1 6.08.23.35-.04.28-.04.28s-1.27-1.02-2.15-3.46c-.24-.69-.43-2.74-.24-3.66.77-3.68 2.82-4.54 3.5-4.73h-.02c-.55-.12-1.53-.09-1.92-.04-.87.38-1.88 1.42-1.75 2.44-.12.16-.39.22-.51.05-.1-1.12.46-1.8 1.07-2.3-1.28.08-2.56.31-3.67.78.6.26 1.5.86 1.37 1.13-.23.42-.78-.37-1.46-.69-.47-.32-1.01-.16-1.57.16 1.51-.21 2.58.94 3.36 2.71.78 1.79.76 5.4.76 5.4.65-.12 1.44 1.1 1.36 1.7-.1.76-.21.47-.52-.37-.31-.84-.76-.97-1.1-.84-.35.13-.41.37-.44.71.02 1.06.5 1.52.68 1.64.18.13.26.3.1.42-.17.13-.25.06-.25.06-1.01-.87-.89-1.63-.89-1.63-1.11.47-3.57-1.51-3.07-3.81.62-2.84 2.73-2.24 2.73-2.24s-.3-1.46-.97-2.52c-.67-1.05-1.97-.93-2.6-.56-1.81 1.09-2 3.09-2.13 4.48-.21 3.11 1.59 5.34 1.71 5.45.11.11.75.38.36.6-.38.22-1.34-.88-1.91-2.53a9.417 9.417 0 01-.28-5.33c.27-1.12.81-2.05 1.52-2.64-.6.27-1.13.61-1.7.95 0 0-.38.34-.64.8s-.48 1.02-.56 1.81c-.05.47.01 1.25-.1 1.28-.52.1-.24-2.19.1-2.81-.55.47-.75.98-1.32 1.54l-.94-.83c-.6-.2-1.28-.08-1.78.2-.68.35-1.28 1.03-1.5 1.74-.77 3.25 1.23 6.1 4.13 7.92 4.6 2.97 10.1 4.2 15.98 3.89 5.15-.47 9.97-1.85 13.94-5.13.21-.31-.34-.55-.47-.82-.04-.28-.43-.68.04-.88l.21.19c.6 1.27 2.01 1.98 3.49 2.02 1.58-.08 3.24-.66 3.84-2.17 1.06-1.62 1.02-4.04.05-5.69z"/><path class="cls-5" d="M30.97 16.17c-.07.6-.47 1.05-.89 1-.43-.04-.72-.57-.65-1.17.07-.6.47-1.05.9-1 .42.05.71.57.64 1.17z"/><path d="M13.13 17.06c1.49 3.41 5.37 4.91 8.91 5.43 4.48.32 9.12-.27 12.62-2.6 1.53-.9 2.98-2.29 3.88-3.76.3-.16.6-.35.98-.28.3.25.21.68.13.95-1.03 1.27-2.56 2.26-3.88 3.24-4.52 3-10.41 3.71-15.99 2.44-3.11-.95-6.9-3.33-7.29-6.7l.13-.2c.47.32.27.94.51 1.47zm34.51-4.22c-.12.3-.57.2-.87.28-.35.1-.61.29-.61.29.11.06.43.21.61.37.95.72 1.69 2.2 1.3 3.55-.04.24-.26.57-.56.57-.35-.33.17-.59.17-1.03.18-1.14-.66-2.55-1.39-2.89-.19-.11-.49-.38-.91 0-.74.69-1.13 1.51-1 2.53 0 .49.26.89.52 1.31-.17.12-.48.04-.6-.12-.57-.86-.61-2.21 0-3.06 1.11-1.84 3.06-1.93 3.21-1.91.16.03.14.12.14.12z"/><path class="cls-5" d="M21.58 18.56s-.9 1.33-3.86 1.24c0 0 .01-.04-.05-.1a.704.704 0 00-.19-.16c-.06-.04-.16-.1-.23-.15 0 0-.33-.34-.61-.81-.27-.48-.59-1.08-.81-1.88 0 0-.28-.92-.34-1.84-.06-.91.14-2.08.19-2.32.05-.24.3-1.45.9-2.16.6-.71 1.27-1.23 2.12-1.22.84.02 1.28.45 1.46.67.18.22.5.89.67 1.29.17.41.42 1.43.42 1.43s-.19-.04-.37-.04-.53-.04-1.07.23c-.53.27-.89.87-1.01 1.14-.12.27-.41.98-.34 1.72.06.75.24 1.05.54 1.57.3.52.93 1.06 1.55 1.33.13.06.64.26 1.01.08zm8.77.24s-1 .52-2.4.45c-1.41-.08-1.85-.26-2.11-.44-.17-.25-.65-.9-.88-1.3-.23-.41-.77-1.55-.96-2.29-.19-.75-.28-1.45-.26-1.99.02-.53.11-1.47.31-2.15.21-.68.59-1.46.73-1.65.14-.2.65-.97 1.21-1.3.57-.32.85-.45 1.35-.52.26 0 .9-.07 1.63.46.72.53 1.01 1.07 1.3 1.6.29.52.44 1.26.51 1.55.07.3.22 1.7.17 2.06 0 0-.3-.39-.97-.32-.67.08-.86.24-.96.29-.1.05-.37.21-.66.75-.29.53-.34.9-.36 1-.02.09-.13.54-.11 1.31.02.76.39 1.44.49 1.58 0 0 .27.43.75.66.49.22.81.27 1.22.26zm-7.46 11.82s.52 2.58 6.02 2.91c3-.11 8.33-.28 11.39-3.52l3.91.14S40 34.36 33.74 35.8c-4.14.92-8.67.55-11.28-1.57-2.38-2.71.43-3.6.43-3.6z"/><path d="M33.07 29.35c.04 1.31-1.7 2.44-3.91 2.51-2.2.08-4.02-.92-4.07-2.23-.05-1.31 1.7-2.43 3.91-2.51 2.2-.08 4.02.92 4.07 2.23z"/><path d="M32.24 29.38c.03.97-1.35 1.81-3.1 1.88-1.74.06-3.18-.68-3.22-1.66-.03-.97 1.35-1.8 3.1-1.87 1.74-.07 3.19.68 3.22 1.65z" fill="#ffe200"/><path class="cls-5" d="M30.89 29.96c.48-.02.85-.32.84-.68-.02-.35-.41-.62-.88-.6-.48 0-.85.31-.84.67.01.36.41.63.88.62z"/><path d="M45.97 34.44s-1.72.43-1.7-2.7c3.49-.31 4.11-4.01 3.49-6.17-.68-1.82-2.59-3.88-5.08-3.79-2.49.08-2.68 1.02-2.41 1.8-1.12.19-1.93 1.9-1.22 2.86-.9.92-.14 2.3.2 2.5-.23.37.34 1.07.68 1.32-.84.83-3.37 3.89-1.97 9.19.56 1.98 1.58 1.19 2.1 1.02.51-.17 2.03-.77 3.21-1.75 1.17-.97 2.38-.59 2.96-.62.58-.02 1.89-.65 2.21-1.99.32-1.34-1.28-1.64-2.47-1.68z"/><path class="cls-5" d="M41.62 30.02c.44.1.81.48.86 1.31-.28 1.21-.09 2.66 1.07 3.46.89.46 1.79 1.09 2.84 1.24-.34.74-1.19 1.04-1.97 1.08-1.3-.22-2.69-1.26-4.08-.69-1.02.43-1.16 1.58-1.63 2.29-.62-2.62-.48-5.71 1.3-7.82l.56-.53c.16-.19.68-.44 1.06-.34z"/><path class="cls-7" d="M47.53 26.26c-.06-.58-.33-.87-.91-1.6-1.05-1.32-2.15-1.93-3.28-2.08-1.6-.21-1.92.02-2.26.91.54-.02 1.28 0 2.1.35.35.23.16.36-.02.45-.37-.24-3.87-1.29-3.5 1.46 1.24-.83 2.34-.58 3.49.22.07.11-.04.17-.06.27-.4.14-.73-.27-1.06-.33-1.96-.63-3.34.95-2.36 1.78.72-.47 1.35-.4 2.09-.22.23.14.7.12.77.5-.31.41-.62.06-.95-.05-.33-.12-.96-.13-1.42.1-.46.23-.62 1.41.34 1.74.06-.08.42-.1.56-.19-.37-.07-.54-.21-.39-.26.39-.11.64-.42 1.42.07.21.75 1.51 1.4 2 1.59 2.25.32 3.87-1.73 3.44-4.69z"/><path class="cls-5" d="M72.86 30.95l-.81 2.49h11.18l.76-2.49H72.86zm24.98 2.49l.81-2.49H87.46l-.77 2.49h11.15z"/><path class="cls-5" d="M86.69 33.44l.77-2.49.38-1.24h-3.47l-.38 1.24-.76 2.49-.34 1.08h3.46l.34-1.08zm-3.06 9.89h-3.46l-.33 1.09h3.46l.33-1.09zm-5.09 5.3H82l.53-1.72h-3.46l-.53 1.72zm1.3-4.21h-11.2l-.81 2.49H94l.81-2.49H79.84zm14.54-1.09l2.86-8.81H72.26l-2.87 8.81h24.98zm-2.86-2.43h-7.08l.27-.86h7.08l-.27.86zm.92-3.03h-7.09l.27-.86h7.08l-.26.86zm-17.42-.86h7.08l-.26.86h-7.09l.27-.86zm-.92 3.03h7.09l-.28.86h-7.08l.27-.86zm32.23 1.29l.92-3.35s-.71-.22-.98-2.32H108l.92-2.87h-2.22l.87-3.03h-3.24l-.98 3.08h-3.3l-.81 2.82h2.44s0 1.4-4 4.48l-1.13 4.17s1.08-.16 3.95-2.22l-2.05 6.49h3.13l2.92-9.14s.65 1.24 1.84 1.89zm22.44-8.49s-4.59-1.24-7.84-3.13h-2.7s-4.33 2.59-8.39 3.08l-.92 2.59h.65l-.38 1.57h6.97l-.38.87h-7.19l-1.79 6h5.25s-1.51 1.68-6.43 2.27l-.76 2.6s6.86.6 10.71-3.73c0 0 2.33 4.11 7.95 3.73l.92-2.92s-4.92.71-6.21-2.05h6.75l1.68-5.79h-6.98l.43-1.03h6.21l.38-1.84s.06.17.6.22l1.46-2.43zm-14.71 8.49h-3.03l.43-1.3h3.41l-.81 1.3zm8.38-1.3l-.43 1.3h-3.78l.81-1.3h3.41zm-7.19-5.67c3.09-1.46 4.17-2.16 4.17-2.16 1.89 1.35 4.11 2.16 4.11 2.16h-8.28zm27.42-2.06s-5.73-.7-10.49 3.3c0 0-5.41 4-5.3 9.08 0 0 .22 4.22 4.43 3.03 0 0 6.14-1.05 10.5-12.56.18.04.35.07.53.12 0 0 6.49 1.03.65 7.79 0 0-3.03 2.6-5.63 2.98l-.7 2.76s7.41-.44 10.92-6.65c0 0 4.27-8.65-4.92-9.84zm-11.09 11.9s-3.41.65-.16-3.89c0 0 3.21-3.63 6.91-4.88-.85 2.21-2.81 6.09-6.74 8.77zm24.39-19.46l-2.11 7.02h28.39l-3.14 9.52h-28.5l-2.48 6.92h36.23l7.9-23.52-36.29.06zm48.51 4.05l-8.71 10.44c-1.89 2.38-3.78 2.16-3.78 2.16h-3.03l-2.6 7.3h6.81c5.95-.75 8.98-5.52 8.98-5.52l7.35-9.24c2.33-3.19 5.79-2.59 5.79-2.59l2.7-7.25h-4.92c-5.09.06-8.6 4.71-8.6 4.71zm20.65-4.71h-4l-1.84 5.52h4l1.84-5.52zm1.9 0l-1.84 5.52h3.99l1.84-5.52h-3.99zm-8.6 7.3l2.7 17.25h7.41l-2.71-17.25h-7.4zm24.84.03h-7.13l-2.39 7.25h7.14l2.38-7.25zm9.58 0h-7.14l-2.38 7.25h7.14l2.38-7.25z"/><path class="cls-5" d="M264.63 31.49h-6.68c-2.32 10.55-11.6 10.3-11.6 10.3h-13.68l-2.21 6.81h16.11c8.88-.26 13.68-5.69 16.19-10.37h-.46l2.34-6.75z"/><path class="cls-5" d="M273.52 24.14c-1.13 7.24-6.3 7.33-6.3 7.33l-2.58-.02-.02.04-2.34 6.75h.46l5.39.04c7.92-.89 9.98-6.89 9.98-6.89h17.36c-2.76 10.76-15.19 10.38-15.19 10.38h-12.93l-2.38 6.76h16.11c10.22-.11 15.03-5.25 15.03-5.25 3.35-2.86 5.35-7.67 5.35-7.67l3.9-11.46h-31.85z"/><text transform="translate(303.26 47.5)" fill="#fff" font-family="SeuratPro-DB,'SeuratPro DB-83pv-RKSJ-H'" font-size="5.95"><tspan x="0" y="0">R</tspan></text><path d="M305.49 48.58a3.25 3.25 0 100-6.5 3.25 3.25 0 000 6.5z" stroke="#fff" stroke-width=".46" fill="none"/><path class="cls-9" d="M80 13.77h27.16v.41H80zm185.64 0h27.17v.41h-27.17zM115.79 6.96h5.03l-.17.68h-.62c-.41 0-.66.16-.75.49l-.91 3.52h4.09l.89-3.41c.01-.06.02-.11.02-.16 0-.13-.06-.24-.16-.32-.11-.08-.28-.12-.53-.12h-.72l.16-.68h4.99l-.17.68h-.61c-.25 0-.45.05-.57.16-.13.11-.23.32-.31.64l-2.05 7.95s-.01.07-.01.1c0 .11.04.2.12.25.12.08.28.12.47.12h.84l-.18.66h-4.93l.17-.66h.72c.33 0 .56-.2.66-.58l.98-3.77h-4.06l-1 3.76c-.01.06-.02.12-.02.17 0 .14.05.24.14.31.09.07.23.11.42.11h.92l-.16.66h-4.9l.16-.66h.5c.2 0 .37-.05.5-.14.13-.09.22-.21.26-.34l2.14-8.24c.02-.07.01-.14-.02-.23a.406.406 0 00-.19-.2.953.953 0 00-.38-.07h-.91l.16-.68zm14.98 4.88l.38-1.03 1.79-.14-1.38 5.11c-.09.35-.14.57-.14.66 0 .07.02.13.05.17.03.04.08.06.14.06.34 0 .79-.56 1.34-1.67l.53.29c-.82 1.63-1.7 2.43-2.67 2.43-.33 0-.58-.1-.77-.31-.18-.21-.29-.51-.32-.92-.35.46-.69.77-1.02.96-.33.19-.68.28-1.05.28-.63 0-1.16-.23-1.57-.7-.41-.47-.61-1.11-.61-1.92s.18-1.53.55-2.24c.37-.72.84-1.27 1.42-1.67.58-.4 1.17-.6 1.78-.6.41 0 .75.1 1 .31.26.2.44.51.57.95zm-1.17-.38c-.56 0-1.07.41-1.52 1.22-.45.81-.68 1.75-.68 2.8 0 .49.07.84.21 1.04.15.2.35.3.62.3.28 0 .58-.15.91-.44.32-.3.61-.79.86-1.47.25-.69.37-1.42.38-2.19 0-.46-.07-.79-.2-.98a.667.667 0 00-.57-.28z"/><path class="cls-9" d="M137.25 12.01c.38-.51.76-.87 1.13-1.09.37-.22.77-.32 1.2-.32.62 0 1.13.23 1.55.68.41.46.62 1.06.62 1.83 0 1.09-.34 2.09-1.03 3.02-.78 1.04-1.71 1.56-2.78 1.56-.45 0-.83-.11-1.15-.32-.32-.22-.55-.52-.7-.91l-.66 2.4c-.04.12-.06.21-.06.27 0 .15.05.26.15.34.1.07.29.11.57.11h.42l-.2.67h-4.25l.19-.67h.53c.21 0 .38-.05.5-.16.13-.11.23-.3.3-.56l1.91-6.81c0-.05.02-.1.02-.15 0-.14-.05-.25-.15-.32-.09-.08-.26-.11-.48-.11h-.53l.19-.65 3.04-.14-.33 1.32zm1.53-.45c-.27 0-.54.12-.82.37-.38.35-.71.88-1.01 1.61-.3.73-.44 1.4-.43 1.98 0 .4.09.71.27.91.18.21.42.31.71.31.57 0 1.08-.43 1.54-1.31.46-.88.69-1.74.69-2.58 0-.43-.09-.75-.26-.97a.834.834 0 00-.68-.33zm6.7.45c.38-.51.76-.87 1.13-1.09.37-.22.77-.32 1.2-.32.63 0 1.14.23 1.55.68.41.46.62 1.06.62 1.83 0 1.09-.35 2.09-1.03 3.02-.78 1.04-1.71 1.56-2.78 1.56-.45 0-.84-.11-1.15-.32a1.83 1.83 0 01-.7-.91l-.66 2.4c-.04.12-.06.21-.06.27 0 .15.05.26.14.34.1.07.29.11.57.11h.43l-.2.67h-4.25l.19-.67h.53c.21 0 .37-.05.5-.16s.23-.3.3-.56l1.91-6.81c.01-.05.02-.1.02-.15 0-.14-.05-.25-.15-.32-.1-.08-.26-.11-.49-.11h-.53l.2-.65 3.04-.14-.33 1.32zm1.53-.45c-.27 0-.54.12-.82.37-.38.35-.72.88-1.02 1.61-.3.73-.44 1.4-.44 1.98 0 .4.09.71.27.91.18.21.42.31.71.31.57 0 1.09-.43 1.54-1.31.46-.88.68-1.74.68-2.58 0-.43-.09-.75-.26-.97a.82.82 0 00-.68-.33zm7.93 3.94c.4-.59.7-1.16.92-1.71.21-.56.32-.93.32-1.14 0-.11-.04-.28-.11-.48-.15-.38-.22-.66-.22-.84 0-.26.08-.47.22-.63.15-.16.34-.23.58-.23s.43.08.57.23c.14.16.22.36.22.62 0 .49-.25 1.27-.75 2.32-.68 1.45-1.46 2.74-2.31 3.88-.85 1.14-1.61 1.92-2.27 2.34-.5.32-.97.48-1.43.48-.41 0-.75-.11-.99-.33-.25-.22-.38-.49-.38-.81 0-.28.09-.51.26-.69.18-.18.4-.28.68-.28.23 0 .42.09.56.25.14.17.22.41.22.73 0 .14.02.23.05.27.04.05.08.07.15.07.12 0 .29-.06.51-.17.22-.11.49-.33.81-.65.41-.42.76-.84 1.07-1.27l-.36-1.65c-.33-1.53-.55-2.47-.66-2.83-.19-.6-.36-1-.54-1.17-.09-.08-.17-.13-.26-.13-.11 0-.23.07-.34.19-.11.12-.27.45-.46.96l-.54-.24c.56-1.43 1.24-2.14 2.04-2.14.44 0 .8.23 1.1.69.37.58.82 2.03 1.36 4.34zm15.67-7.55c.27-.16.47-.43.6-.8h.63l-.79 3.98h-.61c0-1.04-.09-1.79-.27-2.25-.17-.45-.45-.81-.83-1.06-.38-.25-.83-.38-1.35-.38-.57 0-1.13.23-1.69.68-.55.46-1.04 1.23-1.46 2.32a9.166 9.166 0 00-.64 3.4c0 .68.1 1.24.31 1.67.21.43.52.77.94 1.01.42.25.88.37 1.4.37.66 0 1.27-.23 1.85-.67.58-.45 1.04-1.13 1.4-2.03l.59.27c-.4 1.08-.98 1.9-1.75 2.44-.76.55-1.68.82-2.74.82-1.31 0-2.35-.38-3.12-1.14-.76-.77-1.15-1.79-1.15-3.08s.27-2.42.81-3.5c.53-1.08 1.24-1.9 2.11-2.46.87-.56 1.81-.84 2.82-.84.63 0 1.18.1 1.65.29.47.2.91.52 1.32.95zm6.13 3.89l.38-1.03 1.78-.14-1.38 5.11c-.09.35-.14.57-.14.66 0 .07.01.13.05.17.03.04.07.06.13.06.34 0 .79-.56 1.34-1.67l.52.29c-.82 1.63-1.7 2.43-2.66 2.43-.33 0-.59-.1-.77-.31-.18-.21-.29-.51-.32-.92-.35.46-.69.77-1.02.96-.33.19-.68.28-1.05.28-.63 0-1.16-.23-1.57-.7-.41-.47-.62-1.11-.62-1.92s.18-1.53.55-2.24c.37-.72.84-1.27 1.42-1.67.58-.4 1.17-.6 1.78-.6.42 0 .75.1 1 .31.25.2.44.51.57.95zm-1.17-.38c-.56 0-1.07.41-1.52 1.22-.45.81-.68 1.75-.68 2.8 0 .49.07.84.22 1.04.14.2.35.3.61.3s.58-.15.91-.44c.32-.3.61-.79.86-1.47.25-.69.37-1.42.38-2.19 0-.46-.07-.79-.2-.98a.667.667 0 00-.57-.28zm5.35-.63l2.72-.15-.67 3.07c.46-1.14.87-1.91 1.25-2.32.52-.55 1.12-.83 1.79-.83.38 0 .69.11.92.33.23.22.34.51.34.86 0 .33-.1.62-.29.84-.2.23-.43.34-.69.34-.23 0-.42-.08-.58-.23a.747.747 0 01-.23-.56c0-.12.02-.26.06-.42.01-.06.02-.09.02-.12 0-.06-.02-.1-.06-.14a.245.245 0 00-.16-.06c-.19 0-.41.1-.66.3-.25.2-.54.63-.86 1.28-.43.9-.78 1.81-1.03 2.74l-.47 1.77-1.85.08.98-3.77c.19-.7.28-1.26.28-1.67 0-.29-.06-.48-.19-.58-.13-.1-.4-.15-.81-.14l.18-.61zm36.18-3.87h3.72l.74 7.64 4.62-7.64h3.38l-.18.68h-.42c-.52 0-.83.22-.94.66l-1.95 7.98c-.01.06-.03.12-.03.17 0 .13.05.22.13.28.11.08.25.13.43.13h.92l-.18.66h-5.01l.15-.66h.63c.46 0 .74-.2.85-.6l1.93-7.4-5.2 8.66h-.85l-.87-8.61-1.64 6.16c-.06.23-.09.44-.09.64 0 .72.45 1.1 1.35 1.14l-.17.66h-3.78l.17-.66c.4-.03.73-.18.99-.44.36-.37.61-.81.75-1.34l1.8-6.79a.75.75 0 00.04-.24c0-.13-.05-.23-.14-.3-.1-.07-.25-.11-.49-.11h-.87l.18-.68zm16.33 4.88l.38-1.03 1.78-.14-1.38 5.11c-.09.35-.14.57-.14.66 0 .07.02.13.05.17.03.04.07.06.13.06.35 0 .79-.56 1.34-1.67l.53.29c-.81 1.63-1.7 2.43-2.66 2.43-.33 0-.59-.1-.77-.31-.18-.21-.29-.51-.32-.92-.35.46-.69.77-1.02.96-.33.19-.68.28-1.05.28-.63 0-1.16-.23-1.56-.7-.41-.47-.62-1.11-.62-1.92s.18-1.53.55-2.24c.37-.72.84-1.27 1.42-1.67.57-.4 1.17-.6 1.78-.6.42 0 .75.1 1.01.31.25.2.44.51.57.95zm-1.17-.38c-.57 0-1.07.41-1.52 1.22-.45.81-.68 1.75-.68 2.8 0 .49.07.84.22 1.04.14.2.35.3.61.3.28 0 .58-.15.91-.44.32-.3.61-.79.86-1.47.25-.69.37-1.42.38-2.19 0-.46-.07-.79-.2-.98a.667.667 0 00-.57-.28zm5.4-4.5l3.11-.13-1.55 6.01c.7-.94 1.3-1.57 1.8-1.89.5-.32 1-.48 1.53-.48.49 0 .88.13 1.17.39.29.26.43.59.43.99 0 .32-.09.63-.27.93-.18.3-.47.57-.86.82-.4.25-1 .49-1.82.72.28.14.47.27.58.37.11.1.18.22.24.35.03.09.1.41.19.98.05.26.09.41.13.46.03.06.08.08.15.08.11 0 .24-.08.39-.23.24-.23.48-.59.72-1.08l.54.29c-.37.75-.78 1.3-1.21 1.63-.44.34-.86.5-1.29.5-.37 0-.65-.11-.85-.31-.19-.21-.28-.54-.28-1 0-.19.02-.45.07-.79.05-.37.08-.62.08-.75 0-.12-.01-.2-.04-.24a.143.143 0 00-.12-.06l-.19.02-.17.02c-.15 0-.26-.03-.34-.1-.08-.07-.13-.15-.13-.25s.04-.19.12-.26c.07-.07.18-.1.32-.1l.27.02c.13.01.24.02.32.02.47 0 .89-.18 1.26-.54.36-.35.54-.74.54-1.16 0-.24-.06-.42-.18-.55-.12-.13-.28-.19-.51-.19-.29 0-.59.11-.92.34-.46.32-.9.83-1.33 1.54-.43.71-.78 1.49-1.04 2.35l-.51 1.83-1.81.06 2.44-9.39s.02-.1.02-.15c0-.11-.05-.2-.15-.27-.13-.1-.3-.15-.49-.15h-.55l.22-.65zm9.17 7.93c-.02.18-.03.33-.03.45 0 .51.12.89.36 1.17.24.27.56.41.97.41.34 0 .67-.09 1-.25.33-.17.72-.5 1.2-.99l.47.37c-.54.61-1.07 1.04-1.6 1.31-.52.25-1.08.38-1.68.38-.85 0-1.52-.25-2.01-.75-.49-.5-.74-1.18-.74-2.05 0-.77.21-1.5.61-2.2.41-.7.96-1.26 1.67-1.66a4.49 4.49 0 012.29-.61c.6 0 1.06.15 1.39.44.32.29.49.67.49 1.12 0 .37-.13.75-.4 1.13-.26.38-.69.71-1.29.99-.59.28-1.49.53-2.7.75zm.08-.6c.79-.16 1.37-.41 1.73-.76.5-.48.74-1.02.74-1.62 0-.25-.06-.44-.17-.58a.544.544 0 00-.43-.21c-.34 0-.66.21-.95.63-.44.61-.74 1.46-.92 2.53zm5.17-3.46l2.72-.15-.67 3.07c.46-1.14.87-1.91 1.25-2.32.52-.55 1.12-.83 1.79-.83.38 0 .69.11.92.33.23.22.35.51.35.86 0 .33-.1.62-.29.84-.2.23-.43.34-.69.34-.23 0-.42-.08-.58-.23a.757.757 0 01-.24-.56c0-.12.02-.26.07-.42.01-.06.02-.09.02-.12 0-.06-.02-.1-.06-.14a.227.227 0 00-.16-.06c-.19 0-.4.1-.66.3-.25.2-.54.63-.86 1.28-.44.9-.78 1.81-1.03 2.74l-.47 1.77-1.85.08.99-3.77c.19-.7.28-1.26.28-1.67 0-.29-.06-.48-.19-.58-.13-.1-.4-.15-.81-.14l.18-.61zm-62.99-3.89l3.24-.14-2.44 9.09c-.08.27-.11.47-.11.59 0 .09.01.16.05.2.03.04.08.07.13.07.13 0 .27-.08.44-.24.34-.33.68-.8 1.03-1.41l.55.28c-.44.84-.9 1.45-1.4 1.82s-.98.56-1.46.56c-.36 0-.65-.1-.85-.31-.2-.21-.31-.5-.31-.88 0-.32.05-.66.14-1l1.93-7.23c.04-.14.06-.26.06-.37 0-.13-.06-.24-.17-.32-.11-.08-.33-.12-.65-.12h-.36l.19-.6zm4.74 3.88l3.22-.14-1.44 5.35c-.07.23-.1.4-.1.51 0 .08.02.15.05.19.03.04.08.07.14.07.13 0 .3-.1.51-.31.34-.34.68-.82 1.01-1.44l.52.3c-.87 1.61-1.84 2.42-2.88 2.42-.35 0-.64-.11-.84-.32-.21-.22-.31-.51-.31-.88 0-.26.03-.5.09-.73l.99-3.72c.02-.07.04-.14.04-.21 0-.13-.06-.24-.17-.32-.11-.08-.3-.12-.57-.12h-.46l.2-.65zm2.59-3.89c.33 0 .6.12.83.35.23.23.35.51.35.83s-.12.61-.35.84c-.23.23-.51.35-.83.35s-.61-.12-.84-.35c-.23-.23-.35-.51-.35-.84s.12-.6.35-.83c.23-.23.51-.35.84-.35zm6.07 3.89h1.34l-.19.75h-1.37l-1.43 5.46c-.29 1.1-.67 2.08-1.14 2.92-.55.08-1.13.2-1.76.36-.21.06-.34.09-.38.09-.08 0-.12-.04-.12-.11 0-.05.03-.12.08-.22.36-.61.65-1.19.87-1.74.42-1.03.71-1.84.86-2.41l1.16-4.34h-1.31l.24-.75h1.27c.74-2.75 1.91-4.13 3.5-4.13.41 0 .74.11.98.33.24.22.35.49.35.81 0 .27-.09.5-.27.68a.87.87 0 01-.66.28c-.24 0-.44-.07-.57-.21-.14-.14-.22-.38-.26-.72-.03-.3-.09-.45-.19-.45-.14 0-.26.13-.37.4-.17.42-.39 1.43-.65 3.01zm3 4.09c-.02.18-.03.33-.03.45 0 .51.12.9.37 1.17.25.27.58.41 1 .41.35 0 .69-.08 1.03-.25.34-.17.75-.5 1.24-1l.48.37c-.56.62-1.11 1.05-1.65 1.31-.54.26-1.12.39-1.74.39-.88 0-1.57-.25-2.08-.76s-.76-1.19-.76-2.06c0-.77.21-1.51.63-2.21.42-.71 1-1.26 1.73-1.67.73-.41 1.52-.61 2.36-.61.62 0 1.1.15 1.44.44.34.3.51.67.51 1.13 0 .38-.14.76-.41 1.14-.27.38-.72.71-1.33.99-.61.28-1.54.53-2.79.75zm.09-.6c.82-.16 1.41-.41 1.79-.76.51-.48.77-1.02.77-1.63 0-.25-.06-.44-.18-.58a.563.563 0 00-.44-.21c-.35 0-.68.21-.99.64-.45.62-.77 1.46-.95 2.54z"/></g></svg>