<svg xmlns="http://www.w3.org/2000/svg" viewBox="0 0 197.64 36.04"><path d="M197.64 36.04H0V5.72C0 2.56 2.56 0 5.72 0h186.21c3.16 0 5.72 2.56 5.72 5.72v30.33z" fill="#ff0012"/><path d="M24.97 20.13H13.09l5.94-7.98 5.94 7.98zm5.25-3.64c-1.17 1.2-1.17 2.12-1.17 2.38 0 1.99 2.74 1.99 4.22 1.99 2.29 0 3.58-.17 4.41-.27l.05 1.2c-.68.07-1.98.18-3.81.18-2.7 0-3.65-.21-4.49-.58-1.07-.48-1.51-1.52-1.51-2.38 0-1.46.9-2.52 1.46-3.15l.83.64zm6.79-3.72c-1.79.27-3.3 1.08-4.34 1.7l-.74-.77c.64-.39 1.05-.58 1.88-.91-4.22.08-4.69.09-5.23.12v-1.18c.52.03.66.03 1.44.03 1.11 0 5.99-.04 6.98-.04v1.05zm9.06 8.29c2.04-.18 3.12-.51 3.85-1.24 1-1 1.13-2.48 1.13-3.28 0-1.52-.75-3.85-3.95-3.94-.03 2.61-1 8.5-3.87 8.5-1.52 0-2.43-1.82-2.43-3.73 0-3.22 2.26-5.82 6.12-5.82 3.61 0 5.41 2.21 5.41 5.07 0 4.94-4.16 5.4-5.88 5.53l-.38-1.09zm-2.3-7.54c-1.86 1.36-1.86 3.63-1.86 3.96 0 .97.33 2.46 1.34 2.46.69 0 1.12-.69 1.38-1.18.39-.77 1.22-3.03 1.31-6.08-.47.08-1.31.21-2.17.85zm11.13 3.86c.52-.56 2.65-3.18 3.12-3.69.35-.39.91-.87 1.61-.87.4 0 .86.05 1.92 1.12l5.72 5.69-.96 1.01-5.92-6.12c-.09-.09-.44-.47-.83-.47-.43 0-.86.58-1.36 1.25-.33.43-1.73 2.38-2.04 2.76-.12.13-.29.32-.34.38l-.92-1.05zm11.38-4.86c0 .74-.58 1.35-1.35 1.35s-1.35-.61-1.35-1.35.62-1.35 1.35-1.35 1.35.6 1.35 1.35zm-2.04 0c0 .38.31.69.69.69s.7-.31.7-.69-.33-.69-.7-.69-.69.3-.69.69zm17.09 3.47v1.25H69.79v-1.25h11.54zm6.59 1.02c-1.22-.68-2.44-1.16-3.71-1.53l.48-1.04c1.12.3 2.69.87 3.72 1.44l-.49 1.13zm-3.21 3.72c5.37-.47 7.58-2.26 9.26-7.29l1.12.49c-1.68 4.81-3.94 7.32-9.87 8.02l-.51-1.22zm4.24-6.75c-1-.53-2.24-1.07-3.71-1.48l.49-1.04c1.72.47 2.99 1.05 3.74 1.42l-.53 1.11zm4.11-.94c-.17-.61-.23-.75-.83-1.99l.88-.26c.46.78.62 1.13.87 1.94l-.92.31zm1.73-.44c-.52-1.25-.57-1.39-.88-1.89l.86-.27c.25.39.51.79.9 1.83l-.87.33zm8.36 8.46c2.04-.18 3.12-.51 3.85-1.24 1-1 1.13-2.48 1.13-3.28 0-1.52-.75-3.85-3.95-3.94-.03 2.61-1 8.5-3.87 8.5-1.52 0-2.43-1.82-2.43-3.73 0-3.22 2.26-5.82 6.12-5.82 3.61 0 5.41 2.21 5.41 5.07 0 4.94-4.16 5.4-5.88 5.53l-.38-1.09zm-2.3-7.54c-1.86 1.36-1.86 3.63-1.86 3.96 0 .97.33 2.46 1.34 2.46.69 0 1.12-.69 1.38-1.18.39-.77 1.22-3.03 1.31-6.08-.47.08-1.31.21-2.17.85zm16.85-1.14v-1.77h1.08v1.77h4.75v1h-4.75v2.5h5.36v1h-3.94v4.29c0 .31.1.33.31.33h1.83c.26 0 .46 0 .55-.35.07-.27.13-.65.21-1.53l1.04.21c-.17 2.57-.73 2.7-1.42 2.7h-2.55c-.36 0-1.05-.04-1.05-.95v-4.69h-2.17c-.06 2.11-.66 4.76-4.35 5.92l-.56-1.04c3.04-.79 3.8-2.57 3.84-4.88h-3.73v-1h5.56v-2.5h-2.81c-.65 1.26-1.14 1.82-1.43 2.15l-.94-.61c1.4-1.51 1.94-3.17 2.18-4.16l1.03.23c-.14.58-.23.91-.42 1.39h2.38zm14.11 8.69c-1.56.53-4.64 1.04-5.06 1.12l-.22-1.05c.87-.08 1.91-.25 2.78-.42.3-.69.68-1.95.88-3.15l.99.2c-.19.96-.57 2.2-.77 2.72.61-.14.97-.25 1.33-.35l.06.94zm-.06-10.14v.96h-5.14v-.96h5.14zm-.35 6.16h-4.38v-4.08h4.38v4.08zm-3.74 3.22c-.01-.7-.25-1.92-.42-2.51l.92-.23c.12.4.34 1.14.47 2.54l-.98.21zm2.77-6.4H128v2.28h2.43v-2.28zm.81 7.96a8.72 8.72 0 002.81-1.59l.71.64c-.86.84-2.07 1.5-2.92 1.82l-.6-.87zm7.42-9.98h-2.69c-.04.17-.25.96-.3 1.12h2.5v7.06h-5.56v-7.06h2.03c.14-.51.18-.65.26-1.12h-2.67v-.96h6.44v.96zm-1.48 2.03h-3.61v1.14h3.61v-1.14zm0 2.02h-3.61v1.13h3.61v-1.13zm0 1.99h-3.61v1.23h3.61v-1.23zm-.52 2.38c.92.94 1.44 1.26 2.2 1.59l-.71.88c-.99-.55-1.83-1.42-2.22-1.87l.74-.6zm15.84-.07c-2.3-1.81-4.24-3.59-4.65-4-1.82-1.81-1.92-1.91-2.39-1.91s-.77.29-1.03.56c-.23.25-.47.53-2.56 3.09l-.9-1.03c.44-.44 2.29-2.51 2.69-2.9.68-.65 1.11-.9 1.78-.9.84 0 1.12.25 3.08 2.07 1.86 1.72 3.22 2.74 4.8 3.91l-.82 1.1zm14.69 2.53c-2.15-.62-3.72-1.82-4.72-3.77-.23.6-.44.96-.66 1.25-1.22 1.6-3.02 2.27-3.68 2.52l-.58-.99c1.3-.42 3.28-1.23 3.96-3.24h-3.77c-.16 1.49-.58 2.96-1.44 4.2l-.9-.79c.95-1.31 1.31-2.94 1.31-4.56V13h10.02v3.32h-3.78c0 .29-.01.65-.12 1.31h4.72v.92h-4.29c1.3 2.34 3.43 2.92 4.48 3.17l-.56 1.05zm.42-11.73V12h-11.96v-.96h11.96zm-9.82 5.27v1.07c0 .08 0 .2-.01.25h3.95c.13-.66.13-1.03.14-1.31h-4.08zm7.88-2.44h-7.88v1.57h7.88v-1.57zm12.82-2.63v.99c-.53.47-2.78 2.52-3.28 2.96.49-.21.95-.38 1.95-.38 3.34 0 3.58 2.64 3.58 3.39 0 1.38-.79 3.97-4.8 3.97-2.6 0-3.38-1.22-3.38-2.17 0-1.16 1.09-1.94 2.31-1.94 2.33 0 2.47 2.21 2.47 2.42 0 .25-.04.38-.1.58 1.74-.4 2.37-1.66 2.37-2.85 0-1.42-.82-2.41-2.73-2.41-2.03 0-3.46 1.18-3.52 1.25-.6.51-1.53 1.46-2.3 2.3l-.99-.77c.36-.31 2.03-1.89 2.63-2.46.65-.61 3.55-3.3 4.13-3.87l-5.59.06v-1.09h7.25zm-2.21 9.39c0-.92-.57-1.61-1.44-1.61-.69 0-1.22.46-1.22.99 0 1.25 1.96 1.21 2.55 1.2.09-.23.12-.35.12-.57z" fill="#fff"/></svg>