<?xml version="1.0" encoding="UTF-8"?><svg id="_レイヤー_2" xmlns="http://www.w3.org/2000/svg" xmlns:xlink="http://www.w3.org/1999/xlink" viewBox="0 0 862.4 341.62"><defs><style>.cls-1{fill:#fff;}.cls-2{fill:#721519;}.cls-3{fill:none;stroke:red;stroke-miterlimit:10;stroke-width:4px;}.cls-4{fill:url(#_コバサンタの靴);}.cls-5{fill:url(#_コバサンタの靴-2);}.cls-6{fill:url(#_新規グラデーションスウォッチ_1);}.cls-7{fill:url(#_コバサンタの肌);}.cls-8{fill:#e50012;}.cls-9{fill:url(#_新規グラデーションスウォッチ_1-2);}.cls-10{fill:#87020a;}.cls-11{fill:#fff000;}.cls-12{fill:#f5aa00;}.cls-13{fill:#009fe8;}.cls-14{fill:#036eb7;}.cls-15{fill:#fce6c5;}.cls-16{fill:#231815;}.cls-17{fill:#fbd9b2;}.cls-18{fill:red;}.cls-19{fill:url(#_コバサンタの肌-2);}</style><radialGradient id="_新規グラデーションスウォッチ_1" cx="-5022.07" cy="-10745.57" fx="-5022.07" fy="-10745.57" r="9.63" gradientTransform="translate(1676.6 3607.89) scale(.33)" gradientUnits="userSpaceOnUse"><stop offset="0" stop-color="#fff"/><stop offset="1" stop-color="#fce6c5"/></radialGradient><radialGradient id="_新規グラデーションスウォッチ_1-2" cx="-201.52" cy="6.75" fx="-201.52" fy="6.75" r="5.44" gradientTransform="translate(219.35 62.02) scale(.74)" xlink:href="#_新規グラデーションスウォッチ_1"/><radialGradient id="_コバサンタの靴" cx="-216.24" cy="-1870.27" fx="-216.24" fy="-1870.27" r="7.14" gradientTransform="translate(455 1053.2) rotate(-167.5) scale(.76 -.52)" gradientUnits="userSpaceOnUse"><stop offset="0" stop-color="#dcc5b9"/><stop offset="1" stop-color="#721519"/></radialGradient><radialGradient id="_コバサンタの靴-2" cx="3417.23" cy="-325.85" fx="3417.23" fy="-325.85" r="7.15" gradientTransform="translate(-1592.72 1194.26) rotate(-20.39) scale(.76 .52)" xlink:href="#_コバサンタの靴"/><radialGradient id="_コバサンタの肌" cx="809.92" cy="2841.12" fx="809.92" fy="2841.12" r="2.71" gradientTransform="translate(-747.42 -4151.64) rotate(-3.94) scale(1.49 1.52)" gradientUnits="userSpaceOnUse"><stop offset="0" stop-color="#fff"/><stop offset="1" stop-color="#fbd9b2"/></radialGradient><radialGradient id="_コバサンタの肌-2" cx="864.04" cy="2707.52" fx="864.04" fy="2707.52" r="2.47" gradientTransform="translate(-719.38 -3745.78) rotate(-3.94) scale(1.49 1.44)" xlink:href="#_コバサンタの肌"/></defs><g id="_内容_共通_"><path class="cls-16" d="m35.66,126.96c-.69,1.84-1.13,3.32-5.27,4-.45,2.27-1.27,3.06-3.15,3.53-1.89.47-3.4-.63-3.95-1.23l-4.7-.84c-1.1,3.66-1.86,5.18-3.85,6.71-3.16,2.44-8.56,3.33-11.48-1.18-3.61-5.57.27-11.12,2.79-12.5,4.26-2.33,6.51-2.07,8.93-1.36l4.72-1.52c.26-1.39.65-2.32,2.59-2.7,1.94-.38,3.27.4,3.61,1.22.52-.28,1.39-.76,1.74-1.16,2.66.33,5.82.76,8.02,7.02Z"/><path class="cls-1" d="m28.97,130.62c-.21.45-.93,1.19-2.2-.72-.89-1.34-2.87-5.44-1.77-8.18-.33-.61-2-.95-2.86.55-1.33,2.31.06,6.51,1.42,8.58.5.76,1.72,2.11,3.35,1.79,1.41-.28,2.31-1.15,2.06-2.02Z"/><path class="cls-15" d="m34.01,126.84c-1.02,2.47-3.14,2.74-5.61,3.17-2.33-1.99-3.06-6.22-2.63-7.7,0,0,1.31-.49,2.23-.89,2.46.58,5.39,1.8,6.01,5.42Z"/><path class="cls-8" d="m22.28,131.68c-1.29-1.33-2.44-4.54-2.29-7.55-3.94,1.24-3.1.97-5.16,1.52-2.61-1.05-7.15.75-8.64,2.36-2.48,2.69-3,6.29-.65,8.95,2.79,3.14,6.87,1.57,8.86-.33,2.22-2.11,3.28-4.84,3.01-6.05-.16-.7.88,0,1.08.78,2.52-.12,3.79.33,3.79.33Z"/><path class="cls-16" d="m45.56,134.44c-.11-.92-1.28-8.19-1.5-8.98-.53-.05,9.61-3.77,10.16-.74l.22,8.93c1.53.18,4.01,1.19,3.64,4.45-.14,1.26-1.24,2.24-2.28,2.8l.06,1.37c2.05-.61,4.37-.54,6.98.55,3.98,1.64,5.9,6.49,4.64,10.45-1.93,6.08-11.39,7.02-15.92,3.53-1.3-1-2.21-3.26-3.98-4.88l-1.64-.08c-.63.11-1.51-.89-1.67-1.08-.34-.41-.15-2.11-.19-2.33l.44-7.01c-1.58-.69-2.43-1.46-2.36-3.79.04-1.5,2.03-2.69,3.4-3.22Z"/><path class="cls-8" d="m46,141.78c-.06,2.45-.51,5.55-.01,6.12,2.61,2.95,5.09,7.05,8.59,7.91,3.45.84,9.35.58,10.19-4.29.42-2.44-.66-5.3-3.14-6.77-2.87-1.72-7.65-1.46-10.99,1.41-.46.4-.27-.48-.05-.79,1.01-1.53,3.81-2.66,3.81-2.66-.04-.56-.02-1.39-.02-1.39-2.26,1.02-5.45,1.22-8.37.47Z"/><path class="cls-1" d="m54.13,135.17v.54c.37.07.46.87-.56,1.33-2.69,1.22-5.82.56-6.66.37-1.3-.3-.92-1.41-.51-1.31l-.06-.51c-.68.08-2.29.8-2.25,2.05.07,2.13.22,2.31,2.52,3.04,1.68.53,5.65.74,8.1-.63,1.73-.98,1.8-2.4,1.42-3.58-.26-.81-.99-1.19-2-1.3Z"/><path class="cls-15" d="m47.16,136.49c-.16-1.19-1.11-9.3-1.11-9.3l6.95-1.16s.16,8.73.23,10.08c-1.1.69-4.41,1.05-6.07.38Z"/><path class="cls-16" d="m61.36,98.77c3.08,3.43,4.93,8.29,5.93,12.12,1.12-.42,3.17-.19,4.27,1.08,1.51,1.7,2.59,4.7,2.33,8.05-.33,4.18-7.63,11.31-22.01,12.01-24.41,1.2-36.26-11.75-34.02-25.1.7-4.15,4.34-5.71,7.11-6.1.56-.08,1.87-.47,2.94.18.63.39,1.11,1.02,1.39,1.69,1.61-1.42,4.3-6.47,4.25-8.71,0,0-.36-2.2.38-3.68l27.45,8.47"/><path class="cls-8" d="m60.14,99.83c-4.62,1.89-15.3,2.68-25.18-3.3-2.6,5.18-5.9,8.41-7.96,9.04.06,6.86,10.35,17.41,28.59,13.26,6.09-1.38,9.64-2.51,10.72-4.51-.07-5.47-3.91-13.35-6.17-14.49Z"/><path class="cls-1" d="m71.12,119.09c-.11,2.93-2.61,5.56-3.79,6.4-6.23,4.41-16.56,5.39-24.71,4.26-11.15-1.54-23.84-9.1-22.57-22.04.18-1.89,1.12-3.49,2.06-4.2.58-.43,2.21-1.32,3.79-1.26.88.03,1.64.18,2.37,1.13,0,0-.07.19-.65.43-.57.24-.83.18-.83.18-.14-.98-1.84-.61-1.73.75.3,3.43,3.4,14.17,18.86,16.01,7.99.95,19.98-.55,23.36-5.69.86-1.29,1.12-2.71.04-2.02-.09-.22-.12-.84-.12-.84.31-.06,1.01-.59,1.96.49,1.14,1.31,2.06,3.87,1.95,6.43Z"/><path class="cls-16" d="m22.28,76.01c-.86-2.83-2.23-4.74-9.44-8-1.46-.66-2.6-3.91-2.68-5.27-.06-1.38-.85-2.42-2.43-2.58-1.16-.1-2.85,1.02-2.78,2.45-2-.57-5.11.94-3.73,4.99-.78,1.77.85,3.7,2.74,4.39-.23.63.03,2.43,1.3,2.88-3.38-.34-6.12,3.21-5.02,5.81.98,2.31,3.82,2.58,6.18,2.45,4.45-.25,5.05,2.8,10.39,2.01,3.47-.51,6.68-5.19,5.47-9.14Z"/><path class="cls-15" d="m16.23,82.87c2.59-.47,4.68-2.5,4.35-5.27-.22-3.26-4.98-7.38-7.9-8.33-1.78-.57-3.58-3.72-3.69-4.53-.17-1.26-2.91-1.56-3.38.12-.46,1.68.35,4.37,4.25,6.87,2.08,1.31,1.71,3.3,1.03,4.35-.65,1.04-1.6,1.11-1.38.48.24-.63-.61-.36-1.14-.35-1.79.05-3.62-.52-4.68,1.57-1.45,2.81,1.78,2.33,4.66,2.98,1.06.24,4.27,2.76,7.87,2.1Z"/><path class="cls-15" d="m6.85,70.27c-1.12-1.18-2.56-3.32-2.17-5.55-.95-.33-2.67.89-2.08,2.39.6,1.49,3.09,2.82,4.25,3.16Z"/><path class="cls-15" d="m7.15,71.04c-.84-.24-2.19-.81-3.54-1.79-.34.94,1.71,3.09,6.01,3.95,0,0-.28-1.16-2.47-2.15Z"/><path class="cls-15" d="m10.1,75.01s.45-.63-.08-.95c-.84-.01-2.51-.49-3.76-1.36-.23.85.47,2.23,3.83,2.32Z"/><path class="cls-16" d="m16.46,84.09c.29,2.21.48,5.35,6.75,6.35,5.44.88,5.51-2.15,6.26-4.15,1.94.03,5.99.64,8.59,2.43l.23-8.77-8.39-1.97c.4-2.46.84-4.29-2.12-5.38-3.59-1.32-5.25-1.33-7.1-.27-2.22,1.26-5.04,6.86-4.21,11.76Z"/><path class="cls-8" d="m36.9,86.34c-4.62-1.6-8.25-1.87-10.48-2.08-1.02-1.08-1.01-4.83,1.14-6.11,0,0,5.2,1.04,9.32,2.29-.33,1.57-.08,4.66.03,5.9Z"/><path class="cls-1" d="m27.84,85.77l-1.2-.24c-.22.79-1.37,1.01-1.82-2.36-.31-2.45.51-4.74,1.21-5.74.78-1.14,2.16-.52,1.88.02l.96.46c.41-1.21.83-3.04-1.95-3.79-2.76-.75-4.78-1.25-6.78.62-1.81,1.73-3.61,7.57-1.83,11.14.92,1.81,5.1,2.82,7.1,2.45,1.22-.23,1.94-1.21,2.44-2.56Z"/><path class="cls-16" d="m39.19,100.64c-8.02-4.58-11.23-13.94-5.8-25.91.66.49,5.19,1.72,9.25,2.69,4.86,1.2,6.85,1.17,15.05.39,9.15-.87,14.46-1.06,16.54,1.19,1.3,1.42,2.04,3.92,1.63,5.53-.28,1.1-1.4,3.45-1.4,3.45-1.07,2.12-3.18,5.76-7.02,9.01-5.11,6.81-20.23,8.23-28.25,3.64Z"/><path class="cls-15" d="m54.46,80.06c-1.28.14-5.98.57-7.41.57v1.69c1.3.71,5.71.99,7.56-.15l-.15-2.11Z"/><path class="cls-8" d="m71.73,81.29c-.87-.22-3.09.04-3.15.76,1.25.95,5.24,1.59,4.91,4.03.28-.94.85-1.75.85-2.51,0-1.69-1.31-3.55-2.72-4.01-1.96-.66-5.56-1.33-10.65-.66-1.77.24-5.37-.34-5.37-.34l.24,4.06c-1.14,1.15-3.13,1.75-6.26,1.56-1.51-.09-2.93-.48-3.66-1.14-.08-.08-.83-1.71.29-.87l-.11-3.61c-7.27-1.13-9.99-1.48-12.18-2.39-5.57,16.13,3.57,23.2,11.69,24.21,9.87,1.24,15.54-3.17,17.54-15.17.44-2.61,5.44-6.31,8.81-4.36.17.1.63.65-.22.44Z"/><path class="cls-16" d="m45.51,87.45c3.22.24,5.97,2.32,5.84,5.47-.14,3.15-3.06,4.29-6.24,4.24-3.52-.06-5.76-2.6-5.53-5.21.29-3.28,2.69-4.74,5.93-4.5Z"/><path class="cls-1" d="m45.08,88.79c2.27.18,4,1.63,4.11,3.86.09,1.85-1.57,3.48-4.58,3.18-2.59-.26-3.82-2.1-3.7-3.86.13-1.93,1.9-3.34,4.17-3.18Z"/><path class="cls-16" d="m49.83,100.18c-1.09-2.28-1.99-7.65,2.27-10.97,1.97-1.53,5.26-2.01,5.26-2.01,0,0,2.17-.55,3.61,1.1,3.58-2.35,3.57-4.76,6.81-5.24,0,0,3.37-.58,5.2,3.57.9,2.86.28,5.37-3.58,9.05-1.77,1.69-4.04,4.54-4.04,4.54-.75,3.26-3.47,5.59-7.85,6.82-4.98,1.38-6.59-4.57-7.68-6.85Z"/><path class="cls-1" d="m50.56,92.18c1-1.68,3.79-3.33,6.28-3.17,1.39.1,3.13,1.04,3.97,2.02,2.37,2.78,2.81,5.42,2.26,8.92-.54,3.5-5.86,6.18-7.84,5.14-.42-.22-1.23-.84-1.55-1.68l.86-.25c1.14,1.35,1.43-.69.74-4.85-.49-2.96-3.74-4.9-5.56-3.53,0,0,.53-2.1.84-2.61Z"/><path class="cls-8" d="m62.16,88.98c.92-.23,2.11-1.92,3.87-3.69.48-.3,2.03-1.12,2.74-.77,1.89.36,2.98,1.77,2.98,3.52,0,1.76-.24,3.67-2.27,5.39-2.05,1.73-3.78,4.02-3.78,4.02.28-2.53-.71-6.02-3.53-8.48Z"/><path class="cls-16" d="m54.25,103.16c-1.76,3.07-4.69,2.84-6.92,4.48-1.78,1.31-3.48,4-5.24,3.08-1.71-.89-2.63-4.21-.13-6.4-.98-.28-1.65-.18-2.75.01-.97.17-2.58.59-3.68.61-2.61.04-4.47.39-5.81-1.06-.98-1.07-.83-2.75-.49-3.79.88-2.62,5.71-2.34,6.71-2.36,1.3-.03,3.4-.43,4.76-1.1,6.66-3.27,9.08-3.59,11.37-2.57,0,0,5.25,2.36,2.19,9.1Z"/><path class="cls-17" d="m45.27,102.65c-.51-.35-1.11.59-1.42.99-1.03,1.33-2.54,2.29-1.67,4.33,1.17,2.73,2.6-.3,4.8-1.98.37-.28.35-.05,1.76-.8,0,0-1.52-1.16-3.47-2.53Z"/><path class="cls-17" d="m50.51,104.15c-2.03.11-2.56-.9-4.19-1.84-.16-.09-2.07-1.66-4.29-1.02-2.83.81-4.86,1.23-5.38.04-.66-1.5.47-2.29,2.1-2.43.69-.05,1.34-.07,2.95-.78,2.63-1.18,7.95-4.29,10.46-2.49,1.8.73,2.18,3.23,2.07,5-.1,1.76-1.46,3.4-3.72,3.52Z"/><path class="cls-17" d="m44.64,102.11s-.92-.65-3.1-.01c-1.22.37-5.75,2.22-5.99-1.22-.05-.52.31-1.31.52-1.49,0,0-2.83-.28-3.01,1.32-.18,1.6,1.54,3.08,4.34,2.65,2.79-.43,7.24-1.24,7.24-1.24Z"/><path class="cls-17" d="m33.13,99.66s-1.43,1.14-.49,2.64c.44.44.72.73,1.27,1,0,0-3.1.51-3.21-1.96-.1-2.02,2.43-1.68,2.43-1.68Z"/><path class="cls-16" d="m95.3,43.63c.08.78-.87,3.2-.95,3.83,2.99.6,6.21,4.67,5.67,9.65-.53,4.98-4.05,10.5-12.54,8.51-3.93,4.06-10.64,11.07-29.57,14.98-5.51,1.26-8.9,1.43-11.89,1.43-2.27,0-4.02-.2-5.27-.28-15.8-3.2-22.98-8.62-26.04-13.34-3.37-5.22-4.14-11.64,2.15-15.04-.32-2.13.27-8.21,1.67-10.41-3.68-2.46-7.19-6.25-3.98-14.68,3.22-8.43,12.49-14.27,27.33-15.16,20.38-1.23,30.13-.61,39.64,8.13,5,4.81,13.77,22.38,13.77,22.38Z"/><path class="cls-15" d="m20.69,44.2c-.91,1.65-1.84,5.88-1.29,11.39-3.67,1.3-4.63,5.58-2.7,10.07,1.11,2.55,7.56,10.93,24.21,13.31,14.15,1.08,35.54-3.83,45.6-13.99,0-1.47.37-2.21,2.02-1.47,1.65.74,9.38.91,9.56-6.61.18-7.54-7.15-9.05-9.93-4.43-.55.93-1.66.2-1.84-1.83-1.27,2.2-2.69,8.77-3.06,12.26-.36,3.49-2.9-.08-3.55-1.23-1.58-2.78-3.87-7.67-2.19-17.79-6.6,4.44-13.03,5.05-16.38,5.36,1.12,4,.8,11.19-1.92,14.5-1.02,1.22-2.65,1.95-4.22,1.91-5.08-.13-5.39-5.61-4.74-9.07,1.13-6.04,5.64-8,8.7-6.1,0-.61-.09-1.02-.34-1.45-1.42-.12-2.06-.17-3.04-.45-1.45-.24-.6-.76-.4-.91.76-.59,1.26-1.12,1.98-2.07-.96-1.21-2.05-2.1-3.44-2.26-2.2,1.57-3.79,2.35-5.73,3.17-3.21,1.1-2.34-.27-2.43-.51-2.39,1.9-4.85,11.88-.39,18.17.29.42-.62.18-.97-.21-3.17-3.37-4.19-15.32,1.33-20.01,0-4.03-1.05-6.7-1.56-8.14-1.88,1.18-5.12,5.37-6.76,8.54-.76,1.41-.72,2.14-1.71,1.48,1.64,2.55,2.87,7.11,2.67,10.79-.16,2.87-.62,6.75-4.19,7.04-3.57.3-5.62-3.43-5.29-8.63.23-3.67,2.19-7.3,6.07-6.4-.99-3.57-4.83-6.67-7.24-4.75.34.86.56,1.39.99,2.11.32.52-.25,1.11-1.48.81-1.1-.27-2.17-.64-2.68-.75-.88.88-1.88,2.53-2.2,5.51-.4,3.62.37,8.66,3.78,11.92.71.68-.43.45-1.02-.1-1.59-1.55-3.52-4.77-3.82-9.49-.2-3.13.46-6.29,2.15-8.42-.91-.41-1.92-.87-2.59-1.25Z"/><path class="cls-1" d="m25.96,63.46c1.75.88,4.19.9,8.05.17-3.57.3-5.62-3.43-5.29-8.63.23-3.67,2.19-7.3,6.07-6.4-.99-3.57-4.83-6.67-7.24-4.75.34.86.56,1.39.99,2.11.32.52-.25,1.11-1.48.81-1.1-.27-2.17-.64-2.68-.75-.88.88-1.88,2.53-2.2,5.51-.4,3.62.37,8.66,3.78,11.92Z"/><path class="cls-15" d="m27.11,42.17c.74-.41,2.47-1.08,4.21-.16-1.33-2.15-1.31-4.93-.38-7.6-2.04,1.13-4.74,4.62-3.83,7.76Z"/><path class="cls-16" d="m40.98,64.59c-.03.23.33.23.41.04.25-.53.34-1.27.05-2.06-.32-.86-1.14-1.46-2.29-1.3-2.14.3-2.42,3.3-.68,4.36.23.14.64.03.5-.12-.62-.66-1.09-2.31.04-2.81.74-.33,1.97.08,1.96,1.32,0,.27.04.43.02.58Z"/><path class="cls-12" d="m87.95,49.33c-.22-.21-1.23-.3-1.13-1.02.1-.73-.76.27-1.17.98-.91,1.59-2.39,7.09-3.2,13.31-4.44-5.42-5.18-10.61-3.46-18.75.2-.95,2.11-5.46-.04-3.41-2.14,2.03-10.61,8.94-20.73,6.33,2.89-3.22,2.82-7.21.47-11.5-.35-.6-1.08-2.3-1.54-.31-.29,1.29-2.32,7.46-9.89,9.93-.25-4.26-1.27-8.08-2.37-10.22-.26-.49-.71-.86-1.54-.17-3.06,2.6-5.2,5.23-7.66,9.2-4.37-2.15-4.25-7.61-3.13-9.94,1.14-2.33-.19-1.58-.59-1.49-3.65.77-8.8,6.67-5.32,12.45-7.87-3.48-11.55-9.66-10.43-15.73,1.43-7.77,6.74-19.62,38.92-17.17,29.61,2.26,39.03,23.91,38.11,35.04-3.37.42-4.19,1.33-5.31,2.46Z"/><path class="cls-16" d="m93.97,53.11c-1.74,0-3.95.79-5.11,3.48-.6,1.43.1,3.17.51,3.27.41.1,0-.83-.1-1.64-.11-.82.76-2.75,2.85-1.83,1.64.72,1.75,2.65.62,3.67-1.12,1.02.29.8.92.11.92-1.02.92-5.12-3.06-4.9.61-.81,2.04-1.64,3.06-1.75,1.02-.09.72-.4.31-.4Z"/><path class="cls-16" d="m22.39,47.45c-1.19.09-1.59-.77-1.56-1.3.03-.4-.61-.28-.53.44.07.7.87,1.38,1.89,1.34l.2-.48Z"/><path class="cls-16" d="m22.03,48.41c-.82.83-2.02-.09-2.13-.68-.04-.21-.21-.21-.33-.11-.18.14-.23.67-.05.97.43.7,1.68,1.09,2.48.47l.03-.64Z"/><path class="cls-15" d="m54.85,41.92c.88-.8,2.99-4.18,2.92-6.06,1.14,2.43,1.86,5.83.38,8.04-.93-.94-1.95-1.71-3.3-1.98Z"/><path class="cls-6" d="m20.45,66.65c1.75,0,3.17-1.42,3.17-3.18s-1.42-3.19-3.17-3.19-3.18,1.43-3.18,3.19,1.41,3.18,3.18,3.18Z"/><path class="cls-9" d="m69.44,71.09c2.24,0,4.06-1.81,4.06-4.05s-1.83-4.05-4.06-4.05c-2.24,0-4.04,1.81-4.04,4.05s1.8,4.05,4.04,4.05Z"/><path class="cls-16" d="m33.59,68.09c.6-.12.8.19.76.72-.19,2.6,1.55,4.4,5.59,4.81,4.41.46,7.12-1.86,7.85-3.47.12-.27.88-.45,1.36-.08.3.23.39.81.09,1.36-.69,1.24-3.19,3.62-8.67,3.41-5.24-.21-7.74-3.7-7.68-5.84.02-.58.2-.81.71-.91Z"/><path class="cls-16" d="m103.42,30.19c5.62-2.04,11.08-.17,13.25,5.45,1.89,4.9.16,10.56-6.58,12.5-5.92,1.72-10.68-1.37-12.29-5.53-1.89-4.91.27-10.48,5.62-12.42Z"/><path class="cls-1" d="m103.64,31.45c4.5-1.64,8.53.01,10.61,4.36,1.78,3.7.13,8.47-5.26,10.02-4.74,1.37-8.56-1.1-9.85-4.43-1.51-3.93.22-8.39,4.51-9.95Z"/><path class="cls-16" d="m94.94,41.03c3.02,5.6,4.78,16.13.34,22.85-.83,1.26-5.56,8.34-13.17,8.8-.82.05-4.88-.34-2.38-1.78,8.5-4.94,7.37-7.68,7.38-9.21.03-3.61-1.87-9.06-3.55-12.73-5.25-11.52-19.51-17.96-33.66-19.7-8.25-1.02-20.62.3-28.13,4.14-2.57,1.31-3.95,2.82-4.12,4.32-.16,1.51.22,1.66,1.03,2.71q.89,1.16.6,2.5l-.6,2.96c-1.1-.2-6.78-.73-8.12-5.91-.84-3.27-.19-11.38,4.1-16.39,1.96-2.29,2.91-2.63,4.65-3.43C32.21,5.97,47.35,1.56,51.19.49c4.59-1.27,20.36-.04,26.52,3.22,12.75,6.73,28.28,25.14,29.79,32.36.25,1.21-1.77,3.61-2.93,2.09-2.16-2.84-4.33-4.14-10.42-6.31,0,0,.59,3.08.7,4.27.24,2.73.09,4.91.09,4.91Z"/><path class="cls-1" d="m12.75,35.7c.65-5.57,2.37-9.14,4.22-11.26,2.46-2.82,10.34-5.66,15.17-6.51,9.53-1.67,24.52-2.38,36.57,2.42,20.5,8.18,28.39,26.09,26.75,34.73-.35,1.83.04,9.1-8.55,14.71-2.33,1.52-4.52,1.06-4.52,1.06,0,0,2.48-1.43,3.69-2.53,4.92-4.48,4.27-6,4.42-7.54.36-3.52-2.15-6.28-6.92-14.83-3.57-6.41-14.73-15.16-28.6-17.36-7.36-1.17-16.52-2.06-25.38.37-3.57.98-7.37,1.94-10.06,3.8-2.42,1.68-4.36,3.71-4.44,5.71-.05,1.2.45,2.73,3.4,3.17l-.63,2.16s-3.16-.17-4.65-3.67c-.5-1.17-.69-2.56-.47-4.45Z"/><path class="cls-8" d="m23.15,19.03c1.01-.24,4.03-1.78,9.88-3.01,2.82-.59,10.46-1.15,17.05-1.27,7.29-.14,16.9,2.46,20.32,3.92,6.88,2.95,17.38,10.98,22.24,19.41.42-11.62-5.24-20.25-7.43-23.23-1.1-1.49,1.64-1.13,3.22.42,1.57,1.55,2.6,5.72,1.58,5.31,1.01,1.82,3.22,7.18,3.47,8.38,6.16,2.47,8.43,4.16,11.4,6.94.81.14,1.65.39.65-1.39-3.02-5.39-10.13-15.42-17.89-22.29-4.31-3.82-9.04-6.41-12.99-7.98-3.26-1.29-16.78-3.31-23.32-1.76-7.36,1.75-20.95,8.36-28.17,16.54Z"/><path class="cls-15" d="m85.87,62.68c1.17.84,2.66.83,2.66.83,1.65.74,9.38.91,9.56-6.61.18-7.54-7.55-9.39-10.33-4.78l-2.39,2.28"/><path class="cls-16" d="m85.97,64.88c0-1.47.36-2.21,2.02-1.47,1.66.74,9.84,1.39,10.11-6.51.26-7.85-8.83-8.11-11.79-2.93-.53.94-1.87.44-1.48-2.18l2.7-2.45c1.12-1.13,2.16-1.93,5.52-2.36l2.04.37c2.99.6,6.1,4.56,5.57,9.54-.53,4.98-4.68,10.71-13.17,8.72l-1.51-.74Z"/><path class="cls-16" d="m93.97,53.11c-1.74,0-3.95.79-5.11,3.48-.6,1.43.1,3.17.51,3.27.41.1,0-.83-.1-1.64-.11-.82.76-2.75,2.85-1.83,1.64.72,1.75,2.65.62,3.67-1.12,1.02.29.8.92.11.92-1.02.92-5.12-3.06-4.9.61-.81,2.04-1.64,3.06-1.75,1.02-.09.72-.4.31-.4Z"/><path class="cls-14" d="m36.45,55.48c.1,3.01-.02,7.24-2.41,7.47-2.76.27-4.11-3.57-3.99-6.57.15-3.79,1.74-6.03,3.26-6.03,1.52,0,3.01,1.17,3.14,5.13Z"/><path class="cls-13" d="m35.5,55.84c.07,2.1,0,5.08-1.69,5.21-2.1.17-2.76-2.71-2.78-4.81-.04-2.93,1.21-3.99,2.27-3.99,1.06,0,2.1.82,2.19,3.58Z"/><path class="cls-14" d="m59.45,57.9c-.34,3.61-1.38,7.26-4.93,6.98-2.86-.23-3.57-4.54-2.94-7.55.91-4.46,3.76-5.69,5.44-5.39,1.71.31,2.78,2.2,2.43,5.96Z"/><path class="cls-13" d="m58.46,57.73c-.39,2.38-1.15,5.74-3.26,5.72-2.65-.02-2.82-3.34-2.38-5.71.61-3.32,2.41-4.38,3.72-4.28,1.31.11,2.42,1.14,1.92,4.27Z"/><path class="cls-1" d="m33.13,54.94c-.08-2.16.6-2.68,1.32-2.68.71,0,1.36.94,1.42,2.68.05,1.46-.22,2.46-1.13,2.47-.92,0-1.55-.91-1.6-2.46Z"/><path class="cls-1" d="m34.67,58.65c.43,0,.93.31,1.06,1.23.1.71-.25,1.34-.76,1.34-.51,0-.94-.62-1.06-1.24-.12-.62.26-1.33.76-1.33Z"/><path class="cls-1" d="m55.37,56.46c.23-1.86,1.19-3.22,2.32-2.97,1.14.26,1.52,1.89,1.16,3.12-.35,1.24-.98,2.52-2.13,2.35-1.04-.16-1.52-1.08-1.34-2.5Z"/><path class="cls-1" d="m55.73,61.4c0-.73.37-1.34.99-1.22.6.13.93.73.82,1.34-.14.61-.46,1.1-1.08,1.1s-.73-.49-.73-1.21Z"/><path class="cls-16" d="m61.24,50.65c.59.5,1.86.14,2.12-.87.07-.26.25-.4.4-.35.15.05.19.23.2.34.07.65-.66,1.84-2.5,1.48l-.21-.6Z"/><path class="cls-16" d="m61.33,51.77c.98,1.09,2.59.47,2.93-.15.27-.51.73-.37.74,0,.02.52-.25.83-.74,1.11-.45.26-1.67.62-2.81-.17l-.12-.8Z"/><path class="cls-1" d="m45.2,64.14c1.27.84,6.67,1.57,9.81,1.49-5.08-.13-5.39-5.61-4.74-9.07,1.13-6.04,5.64-8,8.7-6.1,0-.61-.09-1.02-.34-1.45-1.42-.12-2.06-.17-3.04-.45-1.45-.24-.6-.76-.4-.91.76-.59,1.26-1.12,1.98-2.07-.96-1.21-2.05-2.1-3.44-2.26-2.2,1.57-3.79,2.35-5.73,3.17-3.21,1.1-2.34-.27-2.43-.51-2.39,1.9-4.85,11.88-.39,18.17Z"/><path class="cls-16" d="m834.7,78.26c.81-3.51,2.32-5.96,10.83-10.53,1.73-.92,2.85-4.98,2.82-6.65-.04-1.69.83-3.02,2.75-3.34,1.4-.22,3.56,1.01,3.59,2.76,2.39-.86,6.3.72,4.96,5.76,1.1,2.09-.73,4.58-2.97,5.58.34.74.17,2.97-1.34,3.62,4.08-.7,7.72,3.39,6.61,6.66-.99,2.88-4.43,3.46-7.32,3.5-5.44.06-5.92,3.83-12.5,3.32-4.26-.33-8.56-5.76-7.43-10.67Z"/><path class="cls-17" d="m842.64,86.11c-3.19-.36-5.92-2.65-5.75-6.05,0-3.99,5.45-9.41,8.93-10.81,2.12-.85,4.04-4.84,4.11-5.82.1-1.55,3.41-2.14,4.13-.13.7,2-.06,5.35-4.61,8.72-2.42,1.77-1.8,4.16-.89,5.38.88,1.21,2.04,1.21,1.72.48-.34-.74.71-.49,1.35-.52,2.19-.09,4.36-.95,5.84,1.52,2,3.31-1.97,2.99-5.43,4.01-1.27.39-4.97,3.72-9.41,3.22Z"/><path class="cls-17" d="m853.02,69.98c1.27-1.53,2.84-4.26,2.18-6.94,1.12-.48,3.32.86,2.73,2.73-.6,1.87-3.52,3.69-4.91,4.2Z"/><path class="cls-17" d="m852.72,70.93c1.01-.37,2.61-1.18,4.17-2.48.49,1.12-1.83,3.91-6.99,5.31,0,0,.24-1.44,2.82-2.83Z"/><path class="cls-17" d="m849.46,76.02s-.59-.73.02-1.17c1.02-.09,3.01-.81,4.46-1.97.34,1.01-.4,2.75-4.48,3.14Z"/><path class="cls-16" d="m842.47,87.61c-.17,2.72-.18,5.8-7.74,7.55-3.82.9-6.17-.2-7.14-1.57-.7-.97-6.23-.45-9.68.98,0,0-3.91-.84-4.29-6.27-.28-3.98,1.93-3.91,1.93-3.91l10.05-3.11c-.7-2.97-1.37-5.16,2.14-6.73,4.27-1.91,6.28-2.06,8.63-.92,2.81,1.34,6.71,7.93,6.11,13.98Z"/><path class="cls-8" d="m817.77,92.07c5.49-2.33,9.89-2.96,12.59-3.41,1.15-1.41.82-5.97-1.9-7.34,0,0-6.25,1.7-11.16,3.57,0,0-1.16,2.06-1.1,3.24.09,1.58,1.58,3.08,1.57,3.95Z"/><path class="cls-1" d="m828.75,90.62l1.44-.39c.34.94,1.76,1.11,2.02-3.04.17-3.01-1.02-5.73-1.95-6.89-1.05-1.32-2.67-.45-2.29.18l-1.12.65c-.61-1.44-1.26-3.63,2.06-4.79,3.31-1.14,5.72-1.92,8.32.2,2.35,1.96,4.98,8.16,3.12,12.66-.97,2.29-5.98,3.87-8.44,3.58-1.5-.18-2.4-.56-3.13-2.16Z"/><path class="cls-16" d="m818.25,114.59l-1.45,7.77c1.46.21,3.83.72,4.56,1.66,1.16,2.39.69,3.97-.94,5.5,4.98-1.83,17.68-1.53,20.11,10.89,1.52,7.8-1.85,12.81-8.83,14.2-13.98,2.78-19.89-1.76-26.96-3.91-5.14-1.56-5.62-7.44-4.36-10.65,1.26-3.22,2.14-5.92,2.45-8.58-2.18-.5-4.26-3.24-3.45-5.77.82-2.53,1.91-3.43,4.36-3.76l.08-6.1,14.41-1.24Z"/><path class="cls-16" d="m783.41,114.77l-.62,8.94c-3.23-.27-5.7,3.36-4.56,5.5-7.19-3.95-24.42-3.47-25.84,15.87-.51,6.96,3.39,13.36,14.82,14.3,10.95.9,22.5.18,26.79-2.09,4.29-2.27,4.07-8.17,2.32-13.01-1.22-3.38-.18-6.17-.18-6.17,3.47.26,6.05-1.89,5.78-5.83-.17-2.51-1.82-4.81-3.85-5.67l2.45-11.04-17.1-.8Z"/><path class="cls-8" d="m806.11,117.66l-.56,6.29c2.21,1,6.69,1.35,8.62.72l1.28-7.66-9.34.65Z"/><path class="cls-1" d="m802.77,129.08c2.93,1.22,7.03,1.66,10.65,1.57,2.97-.07,4.87-.99,5.21-3.24.35-2.31-.71-3.16-2.36-3.22l-.11.83c1.47-.1.23.98-1.25,1.08-3.44.24-7.4.18-10.27-.78-.95-.31-1.2-.74-.41-1.12.8-.39-.12-.78-1.02-.43-2.08.8-2.49,4.45-.46,5.3Z"/><path class="cls-2" d="m814.5,131.9c-2.13.15-5.92.16-10.19-.78-.22,3.97-.57,4.82-1.56,7.19-1.26,3.02-1.36,7.16,1.78,9.1,4.81,2.97,17,5.26,26.41,3.13,5.46-1.24,7.23-4.95,6.25-9.65-.98-4.71-4.62-9.73-11.22-9.77-6.59-.04-11.03,2.41-14.19,6.74,0,0-.82.06-.4-.96.42-1.02,2.41-3.3,3.05-3.5l.06-1.49Z"/><path class="cls-4" d="m826.32,140.05c-2.91-.64-4.91-2.8-4.47-4.8.45-2.01,3.17-3.12,6.09-2.47,2.91.64,4.91,2.8,4.46,4.81-.44,2.01-3.17,3.11-6.08,2.47Z"/><path class="cls-8" d="m797.65,117s-1.91,8.04-2.09,9.05c-3.09-1.77-8.32-2.4-10.29-2.26l.7-7.71,11.68.92Z"/><path class="cls-1" d="m798.6,130.77c-2.21-3.3-10.74-6.01-15.85-4.09-2.4.91-1.96,3.84-.68,4.49,3.6-1.48,9.64.08,13.25,2.3,1.52.93,1.87,2.1.14,1.97l-.18,1c2.7-.19,5.46-2.46,3.32-5.67Z"/><path class="cls-2" d="m783.18,132.83l.18-1c5.9-.4,9.46,1.08,11.32,2.93-.47,3.98-.74,7.65-.37,8.92.98,3.39,3.32,10.84-3.84,12.37-1.7.36-3.34-.4-4.28-1.19-6.82-5.71-13.26-9.47-22.15-9.34-4.46.06-6.4,3.9-6.08,4.87.55,1.71-3.37.74-1.32-8.31,1.14-5.02,5.11-11.97,14.01-11.84,7.17.1,17.26,5.47,19.34,15.22.37,1.71,1.22.92,1.18-.82-.14-5.68-4.35-9.34-7.98-11.8Z"/><path class="cls-16" d="m786.77,156.3c-6.36.93-16.53.81-20.52-.07-4.27-.94-6.83-2.25-7.21-4.19-.38-1.96,1.19-4.13,5.63-4.34,12.56-.62,18.55,7.37,22.09,8.61Z"/><path class="cls-16" d="m781.83,84.07c-3.3,7.15-5.08,13.53-6.33,16.91-5.16.36-7.4,2.57-7.87,7.71-.37,4.1.97,6.95,6.83,9.5,13.08,5.69,45.11,4.31,54.93-3.78,2.61-2.15,1.99-5.66.92-8.14-1.18-2.71-2.64-4.92-6.12-5.18,0,0-4.4-16.01-5.84-20.19-4.04-5.98-30.92-3.96-36.52,3.18Z"/><path class="cls-8" d="m783.14,86.37c-3.38,8.38-5.62,15.21-6.11,18.95,6.08,5.76,31.39,6.07,46.24-.72,0,0-5.09-18.92-6.35-22.79-2.41-3.95-28.61-2.73-33.79,4.55Z"/><path class="cls-1" d="m775.71,102.94c-.19.76-.39,1.51-.39,1.51-1.34-.24-1.58,1.82.37,2.94,11.49,6.62,38.14,3.63,48.15-1.67,1.05-.97,2.02-1.57,3.45,1.08,1.42,2.62,1.25,4.19-1.32,6.02-9.18,6.56-41.35,8.28-51.28,1.8-3.5-2.29-4.25-4.09-3.52-8.16.53-3,3.28-3.69,4.53-3.53Z"/><path class="cls-16" d="m790.07,99.54c.03-1.07.53-5.83,8.35-6.89,6.94-.94,11.32,2.89,11.14,6.66-.17,3.78-4.3,5.91-8.79,6.2-6.5.43-10.83-2.06-10.7-5.98Z"/><path class="cls-11" d="m791.6,99.06c.22-2.53,2.19-4.69,6.67-5.03,4.48-.34,8.12,1.43,8.41,4.35.28,2.91-3.06,5.17-7.62,5.29-4.54.13-7.71-1.79-7.46-4.61Z"/><path class="cls-16" d="m781.02,87.05l-14.6-.69c-1.56-2.32-3.79-3.76-6.27-3.91-2.48-.15-6.8-.33-8.31,2.22-1.23,2.09-2.59,8.63-.47,14.31,1.76,4.7,5.08,5.69,9.08,4.97,3.99-.72,6.15-2.31,7.07-5.32l12.75-1.85c3.09-.4,3.55-8.68.74-9.73Z"/><path class="cls-8" d="m781.22,88.67l-13.76-.21c.97,2.7,1.16,6.29.45,8.66,0,0,8.99-1,11.55-1.25,2.56-.25,3.54-5.18,1.76-7.2Z"/><path class="cls-1" d="m753.63,88.16c1.19-1.32,3.44.73,4.35,2.63,1.52,3.22,1.21,8.65-1.67,8.73-1.18.03-1.05,1.76-.09,2.15,2.32.96,6.61.47,8.85-1.6,2.65-2.45,2.3-9.16.09-12.45-1.43-2.12-2.85-3.4-7.07-3.23-4.63.19-5.2,1.32-5.39,3.13-.18,1.81-.18,1.86.93.64Z"/><path class="cls-16" d="m756.45,90.5c-1.82-1.33-2.44-6.54-6.56-7.87-4.11-1.33-9.14-.47-14.71-2.51-2.41-.88-5.2,1.3-4.68,4.79.51,3.49,4.75,4.38,6.24,4.33-9.36,1.71-13.4,5.93-9.89,9.47-2.72,2.52-.83,7.69,3.24,7.51.42,2.59,3.19,3.83,5.68,2.65,1.45,2.5,4.33,2.2,7.32.8,5.71-2.68,11.66-3.36,14.39-6.08,3.39-3.38,4.4-9.12-1.04-13.09Z"/><path class="cls-17" d="m753.95,89.36c-.65-2.18-2.96-5.01-7.58-5.63-4.62-.62-8.08-.93-10.12-1.59-2.95-.95-4.82,2.37-2.41,4.5,1.85,1.63,5.59,1.73,6.8,1.81,1.19.08.83.96-.84,1.3-1.68.34-8.88,2.53-10.83,4.53-.97.98-.98,2.79.2,3.17,2.22-1.65,6.43-3.52,7.85-3.66.91-.09,1.11.66,1.11.66-3.26,1.43-7.27,2.96-9.22,5.09-2.2,2.39,0,4.36,1.5,4.47.07-3.16,4.84-4.94,9.03-6.76,1.3-.57,1.62.41,1.62.41-3.71,1.55-8.2,3.51-9.26,5.84-1.06,2.33,1.64,4.01,3.51,2.93,0-2.25.71-3.1,3.02-3.99,2.32-.9,5.7-2.02,5.7-2.02.76-.25,1.21.24,1.15.83-1.15.35-6.8,2.01-7.89,3.37-1.15,1.43-.12,3.9,2.33,3.16,1.72-.52,6.19-2.59,8.77-2.86,2.57-.28,8.45-2,9.61-6.42,1.42-5.47-3.3-6.69-4.04-9.14Z"/><path class="cls-5" d="m770.69,138.34c2.79-1.04,4.48-3.45,3.76-5.37-.72-1.93-3.57-2.65-6.36-1.61-2.8,1.03-4.49,3.45-3.77,5.37.72,1.93,3.57,2.65,6.37,1.62Z"/><path class="cls-16" d="m837.05,48.32s7.52,2.04,14.25-.31c7.32-2.57,14.2-10.06,9.5-22.98-1.32-3.64-9.23-16.51-26.08-10.09-6.93,3.16-11.07,9.33-11.46,15.89"/><path class="cls-1" d="m827.38,26.62c1-3.75,3.36-6.48,7.77-8.67,14.1-6.46,21.16,4.97,22.27,8,2.73,7.52,1.08,12.85-2.37,16.25,0,0-1.73-1.91-3.33-3.56-1.98-2.03-6.23-5.06-6.25-5.8-.02-.73.27-.68.97-1.68.77-1.12,1.03-2.52-.31-3.53-3.53-2.67-4.97,1.74-7.34.74-2.42-1.02-4.95-2.37-4.95-2.37-.97.07-6.49,5.13-6.56,4.96-.59-1.51-.05-3.77.1-4.35Z"/><path class="cls-16" d="m845.05,40.62s.88-6.75-3.8-10.27c-4.67-3.51-15.76-12.54-35.36-13.76-13.6-1.39-42.67,5.31-52.27,28.13-.5,1.18-.66,3.45-1.05,4.72-2.71.42-5.6,2.56-6.63,5.94-1.76,5.79,1.23,8.41,1,9.26-.72,2.63-.78,6.44,2.22,10.41,4.39,5.83,14.95,11.84,36.25,13.82,36.04,3.34,49.83-13.59,55.02-16.83,3.04,2.43,28.04,3.41,20.62-22.43-.48-1.69-5.49-11.29-15.99-8.97Z"/><path class="cls-1" d="m821.83,30.56c6.82,3.27,14.23,8.29,18.32,12.65-2.86,2.29-4.47,5.85-5.42,9.09-10.17-10.3-21.97-17.3-37.46-18.88-13.46-.74-27.47,4.72-35.38,11.2-2.63,2.48-3.99,4.34-5.43,6.85-.48-.29-1.41-1.46-1.79-1.86,8.07-16.56,28.83-21.65,33.18-22.38,13.66-2.88,27.63.03,33.98,3.34Z"/><path class="cls-1" d="m780.99,58.7c.69,1.68.68,3.45-.3,3.86-.97.43-2.34-.59-3.04-2.26-.69-1.67-.46-3.69.52-4.1,1.14-.49,2.13.83,2.83,2.5Z"/><path class="cls-17" d="m856.49,47.64c-1.73-2.86-4.01-5.56-9.14-5.21-3.66.59-8.47,2.54-10.47,7.82-.32.85-.75,2.28-.76,3.5-.4.5-1.1.38-1.44.11-.21-.16-10.08-10.36-17.94-13.09,3.4,3.95,5.56,8.64,5.7,14.13l-.32.46c-.35.02-.7-.07-.94-.27.17-6.07-2.41-11.6-7.18-15.47-3.49-2.2-9.64-4.09-15.2-4.77.07.03.15.05.22.07,11.3,4.48,10.7,21.44,10.48,24.5-.21,3.07-2.24,8.44-7.6,6.13-5.38-2.31-4.5-12.98-1.03-14.86,3.47-1.88,4.98-.18,4.98-.18-.93-13.12-8.01-14.96-9.29-14.93-5.38-.23-10.01,5.86-10.12,14.81-.13,8.95,6.12,15.5,6.81,16.43.69.94-.03.79-.03.79,0,0-3.62-2.58-6.45-9.19-.78-1.83-1.7-7.51-1.35-10.08,1.37-10.33,6.75-13.1,8.54-13.74-.03,0-.04,0-.06,0-1.52-.23-4.16.05-5.18.24-2.27,1.2-4.79,4.28-4.25,7.1-.31.47-1.01.69-1.37.2-.48-3.07.88-5.04,2.44-6.54-3.43.45-6.84,1.34-9.74,2.86,1.66.59,4.2,2.09,3.9,2.88-.53,1.2-2.18-.89-4.05-1.65-1.33-.79-2.75-.24-4.22.73,4.04-.87,7.13,2.11,9.6,6.89,2.45,4.78,3.08,14.79,3.08,14.79,1.74-.45,4.08,2.78,3.99,4.45-.12,2.14-.46,1.35-1.46-.93-1-2.27-2.22-2.53-3.14-2.12-.91.42-1.04,1.1-1.05,2.06.27,2.92,1.64,4.12,2.14,4.44.51.32.77.77.34,1.15-.43.39-.66.21-.66.21-2.91-2.23-2.72-4.33-2.72-4.33-2.92,1.49-9.92-3.55-9-10,1.14-7.98,6.94-6.71,6.94-6.71,0,0-1.08-3.99-3.08-6.79-2-2.8-5.51-2.21-7.14-1.06-4.67,3.35-4.81,8.91-4.89,12.78.04,8.66,5.31,14.48,5.64,14.78.34.29,2.09.92,1.09,1.59-1,.66-3.77-2.19-5.64-6.66-1.88-4.47-2.64-9.51-1.78-14.69.52-3.16,1.78-5.8,3.6-7.59-1.57.86-2.93,1.89-4.41,2.94,0,0-.95,1.02-1.56,2.33-.61,1.33-1.09,2.9-1.17,5.11-.04,1.33.27,3.46-.02,3.54-1.39.36-1.07-6.02-.26-7.81-1.41,1.41-3.42,5.53-2.92,10.7.14,1.34-2.38-.16-5.18,2.34-2.5,2.23-2.72,6.87-.6,10.51,1.34,2.32,3.65,4.18,6.88,5.96,12.98,7.37,28.05,9.75,43.87,7.79,13.82-2.26,26.56-6.98,36.64-16.79.23-.41-.72-1.21-1.3-2.15-.65-1.03-.93-2.19-.51-2.46.48-.3.96.49.96.49,1.85,3.4,5.77,5.11,9.81,4.95,4.25-.51,8.61-2.46,9.94-6.73,2.57-4.69,2-11.38-.96-15.79Z"/><path class="cls-1" d="m806.47,58.65c-.07,1.68-1.07,3-2.22,2.94-1.15-.05-2.03-1.46-1.97-3.13.07-1.68,1.07-2.99,2.22-2.94,1.16.05,2.04,1.45,1.97,3.13Z"/><path class="cls-7" d="m755.62,71.38c2.8-.18,4.92-2.65,4.73-5.5-.19-2.85-2.62-5-5.43-4.82-2.8.19-4.92,2.65-4.73,5.51.2,2.85,2.62,5.01,5.43,4.81Z"/><path class="cls-16" d="m850.97,47.9c-.27.81-1.47.65-2.25.92-.9.32-1.55.88-1.55.88.31.13,1.19.46,1.68.87,2.64,1.77,4.88,5.61,4.1,9.3-.07.67-.58,1.59-1.39,1.65-.98-.82.34-1.61.27-2.79.25-3.1-2.23-6.72-4.21-7.53-.51-.26-1.37-.93-2.41.16-1.82,2-2.71,4.26-2.18,6.98.09,1.3.85,2.36,1.62,3.42-.43.37-1.25.2-1.63-.22-1.65-2.21-2.01-5.82-.57-8.23,2.61-5.14,7.76-5.75,8.16-5.71.42.03.37.3.37.3Z"/><path class="cls-19" d="m836.3,64.61c2.33-.16,4.09-2.11,3.94-4.37-.16-2.25-2.17-3.95-4.49-3.78-2.33.16-4.1,2.11-3.94,4.36.16,2.26,2.16,3.95,4.5,3.79Z"/><path class="cls-1" d="m781.6,67s-2.2,3.87-10.21,4.16c0,0,.02-.1-.16-.29-.18-.18-.37-.32-.54-.41-.17-.1-.44-.25-.64-.39,0,0-.96-.87-1.79-2.14-.84-1.26-1.8-2.9-2.53-5.05,0,0-.93-2.5-1.26-5.02-.33-2.53-.02-5.79.07-6.47.09-.68.53-4.04,2-6.14,1.48-2.09,3.2-3.65,5.49-3.77,2.28-.12,3.54,1,4.07,1.58.52.57,1.52,2.36,2.05,3.45.52,1.1,1.49,4.13,1.49,4.13,0,0-.69-.27-1.16-.24-.49.02-1.4-.08-2.79.76-1.38.84-2.23,2.56-2.49,3.34-.28.78-.91,2.79-.6,4.84.33,2.04.87,2.85,1.79,4.24.91,1.37,2.69,2.79,4.43,3.39.38.13,1.78.61,2.77.03Z"/><path class="cls-1" d="m805.31,66.03s-2.59,1.62-6.4,1.68c-3.8.06-5.03-.38-5.75-.84-.53-.65-1.94-2.34-2.63-3.43-.7-1.08-2.38-4.13-3.03-6.16-.65-2.03-1.03-3.95-1.09-5.45-.05-1.49,0-4.08.43-5.99.42-1.92,1.3-4.15,1.64-4.72.35-.58,1.56-2.8,3.03-3.82,1.47-1.02,2.21-1.41,3.54-1.69.69-.08,2.43-.39,4.48.96,2.05,1.34,2.94,2.78,3.83,4.19.89,1.4,1.41,3.39,1.66,4.2.25.8.92,4.63.85,5.65,0,0-.9-1.03-2.68-.68-1.77.33-2.29.81-2.55.97-.24.15-.96.67-1.64,2.2-.68,1.53-.73,2.57-.78,2.81-.03.25-.25,1.55-.04,3.66.21,2.12,1.35,3.93,1.63,4.27,0,0,.8,1.14,2.15,1.68,1.35.54,2.22.62,3.34.5Z"/><path class="cls-17" d="m775.77,80.22l-2.74,1.68c6.71,6.23,14.54,7.38,20.92,6.57,13.77-1.75,18.77-7.02,21.16-12.43"/><path class="cls-16" d="m763.62,72.88c10.7,4.83,12.67,15.66,30.57,13.91,12.7-1.24,19.33-8.68,24.4-16.7,2.79-4.43,4.65-8.98,8.01-11.17l-6.55,3.02c-4.94,5.65-34.33,17.58-54.41,10.56l-2.01.38Z"/><path class="cls-16" d="m824.5,56.4c1.8.12,3.1.48,4.56,1.75,1.47,1.27,1.3,2.99.55,3.5-.71.49-1.47.21-2.1-.78-.87-1.4-1.16-2.48-3.53-3.31-1.14-.4-.75-1.25.51-1.16Z"/><path class="cls-8" d="m797.12,79.13c-4.15.89-5.66,2.55-6.69,3.52-.37.35-.64.06-.49-.14.26-.36.63-.83.99-1.16-2.47-.84-7.34.77-8.78,2.7,3.24,1.88,6.57,2.1,10.99,1.59,6.97-.8,10.86-2.27,13.82-4.58-2.2-1.4-5.46-2.87-9.84-1.93Z"/><path class="cls-16" d="m762.97,70.83c5.11,2.59,10.77,3.29,16.17,3.15,17.37-.45,28.47-4.92,34.39-8.34,5.92-3.42,8.81-5.67,11.43-8.16.82-.44.43-.23,1.46-.09.81.55.43.82.18,1.53-1.96,1.81-5.7,4.33-10.27,7.11-11.64,7.06-29.29,10.37-42.31,9.16-4.04-.38-7.01-.45-10.97-2.6-2.05-1.12-1.88-2.01-1.66-2.23.21-.22.41-.13,1.59.47Z"/><path class="cls-16" d="m813.46,78.89c-3.05,4.55-9.38,8.21-20.02,9.43-6.4.73-13.93-1.66-18.62-5.4-.38-.3-.77-.64-1.18-.36-.76.5-.07,1.24.17,1.42,5.47,4.19,11.81,6.73,20.96,5.63,10.73-1.3,17.07-5.19,20.16-9.82.19-.29.85-1.26-.16-1.88-.44-.27-1.13.72-1.3.97Z"/><path class="cls-8" d="m844.21,34.14c-.05-.05-.11-.11-.17-.16-.16-.23-1.28-1.95.15-2.69,1.79-.92,1.27-3.03-.54-2.82-1.05.12-1.13.79-1.93,1.41-.56.44-1.61.35-2.8-.03-1.45-.46-2.97-1.28-3.08-1.2-.4.26-.23.34,2.73,2.58,2.49,1.89,3.69,3.39,3.27,3.9-.42.51-1.18.79-2.33.18-1.03-.76-1.59-1.76-2.42-2.82-2.51-3.22-5.54-5.52-9.85-7.82-7.34-3.91-14.73-6.06-29.31-5.42-8.4.14-34.26,7.81-41.85,24.24.39-.94,8.28-9.15,16.93-13.32,14.28-6.89,25.3-6.81,39.71-4.46,11.46,2.53,20.36,8.2,28.89,16.42,0,0,1.31-1.01,3.67-1.55.8-.19,3.51-.56,4.72-.17.36.12-3.54-4.14-5.8-6.27Z"/><path class="cls-17" d="m748.29,55.9c.91-2.32,3.34-4.51,5.21-4.97.59-.04,1.89,1.65,2.48,2.38-.84,1.77-.86,3.59-.64,5.34-1.91-.3-5.35,1.23-6.82,3.9-1.08-1.9-.78-5.33-.23-6.65Z"/><path class="cls-10" d="m781.21,83.56s-3.78-1.6-6.55-4.05c-2.48-2.2-4.34-3.74-7.07-5.54-.26-.17-.63-.39-.57-.45.06-.06.22.04.78.24,1.38.5,4.05,1.16,8.36,1.32,3.91.15,11.02-.09,18.72-1.35,7.43-1.21,13.06-3.44,19.43-6.84.98-.52,2.8-1.72,4.41-2.82.93-.63,1.62-1.25,2.13-1.48.37-.17.45.22.23.56-.11.18-.55.87-.91,1.63-1.02,2.12-4.62,7.85-6.81,10.35-2.89,3.3-5.42,4.96-5.42,4.96,0,0-5.14-4.42-13.16-1.64,0,0-2.45,1.15-3.1,1.71,0,0-6.14-1.29-10.47,3.39Z"/><path class="cls-18" d="m52.34,253.94c-1.1-1.06-2.35-2.3-3.79-4.18v16.61h-8.02v-15.55c-1.63,1.25-2.69,1.92-4.56,3.02l-1.97-9.46c6.14-3.17,9.65-8.54,10.66-10.18h-9.75v-7.54h5.62v-5.95h8.02v5.95h4.7v7.54c-.91,1.92-2.02,4.27-4.32,7.49,1.73,1.58,4.22,3.6,7.49,5.14l-4.08,7.1Zm1.92-23.62v-7.92h25.3c0,9.55,0,32.02-1.58,38.93-.72,3.07-2.02,5.04-6.91,5.04h-7.3l-1.49-8.02h5.14c2.35,0,3.31,0,3.84-11.33.14-2.64.29-14.35.38-16.71h-3.79c-.58,16.13-1.1,26.02-13.06,36.05l-5.38-6.91c8.93-7.73,9.74-15.31,10.22-21.22-2.16,4.22-2.78,5.18-4.08,6.86l-4.66-3.12c1.39-1.92,3.07-4.99,3.79-6.62l4.94,2.83c.24-3.26.29-5.52.34-7.87h-5.71Z"/><path class="cls-18" d="m114.64,223.8c-.62,3.46-.77,4.13-1.15,5.86,6.43,1.39,13.49,6.43,13.49,16.61,0,16.13-16.32,18.34-19.39,18.77l-3.12-7.3c10.32-1.15,14.21-6.14,14.21-11.66,0-4.18-2.35-7.58-7.01-8.83-2.06,6.96-3.6,10.61-5.52,13.87-1.49,2.45-6.53,10.51-13.3,10.51-5.9,0-8.64-5.33-8.64-10.85,0-2.35.29-8.21,6.05-14.21-.77-2.45-1.2-4.08-2.26-9.02l7.92-2.93c.43,3.17.62,4.18,1.25,7.01,1.2-.58,3.79-1.82,7.97-2.35.62-3.55.72-3.94,1.2-7.2l8.3,1.73Zm-21.41,21.31c-.91,1.73-1.49,3.79-1.49,5.57,0,2.69,1.06,3.22,1.73,3.22,1.1,0,2.26-1.2,2.98-2.02-.82-1.49-1.78-3.36-3.22-6.77Zm5.76-6.05c.67,2.11,1.15,3.26,2.16,5.57.58-1.39,1.3-3.41,2.4-7.39-1.49.38-2.93.91-4.56,1.82Z"/><path class="cls-18" d="m173.78,224.76l.67,8.35c-3.6.05-8.59.14-13.92,3.36-2.78,1.68-7.15,5.33-7.15,10.71,0,7.44,9.02,8.98,14.02,9.31l-3.98,8.3c-12.62-1.44-18.91-8.11-18.91-16.95,0-5.66,2.69-10.75,7.58-14.26l-18.67,2.5-.62-8.74c2.26-.05,6.62-.1,9.02-.29l31.97-2.3Z"/><path class="cls-18" d="m201.81,257.45c4.7-1.44,12.58-4.51,12.58-13.97,0-2.88-.82-6.19-3.22-8.59-1.92-1.92-3.94-2.45-5.23-2.74-.86,5.9-2.11,13.78-5.62,21.55-2.21,4.9-4.7,7.97-8.79,7.97-5.57,0-11.04-6.77-11.04-16.08,0-12,8.78-21.41,22.27-21.41,12.29,0,20.35,8.02,20.35,19.35,0,15.51-13.3,19.87-16.18,20.83l-5.14-6.91Zm-13.1-11.62c0,4.03,1.39,6.67,2.5,6.67s2.26-3.46,2.78-4.94c1.63-4.85,2.78-9.89,3.55-14.93-5.47,1.97-8.83,6.96-8.83,13.2Z"/><path class="cls-18" d="m244.1,246.41c-.86.53-4.85,3.02-4.85,4.85,0,1.68,2.16,2.21,3.12,2.4,2.16.38,4.08.72,8.35.72,7.58,0,13.01-1.1,16.95-2.02l.53,9.12c-5.47,1.06-10.75,1.49-16.32,1.49-5.23,0-21.31,0-21.31-10.66,0-3.36,1.73-6.53,7.54-10.61l6,4.7Zm18.96-25.44c2.02,2.83,3.22,5.38,4.7,9.17l-3.65,2.02c-.82-2.4-1.15-3.07-1.58-4.13l-.53,7.92c-5.33-1.06-9.94-1.54-15.31-1.54-5.76,0-10.13.53-12.19.77l.38-8.83c2.74-.29,6.34-.62,11.38-.62,3.5,0,9.94.29,15.84,1.44-.72-1.44-1.25-2.4-2.45-4.32l3.41-1.87Zm6.29-1.54c2.02,2.93,3.12,5.33,4.66,9.17l-3.65,2.02c-1.34-3.89-2.35-6-4.46-9.31l3.46-1.87Z"/><path class="cls-18" d="m283.65,229.22c-1.82.05-5.9.19-7.49.24l-.91-7.25c6.77,0,15.46-.29,21.6-1.92l2.16,7.15c-2.02.48-3.46.77-7.73,1.2v4.22h7.2v7.34h-6.53c3.36,6.48,5.42,8.5,6.91,9.98l-4.03,6.67c-1.06-1.49-2.02-2.78-3.55-5.9v15.51h-7.63v-14.93c-2.3,4.37-5.04,7.49-6.67,9.31l-2.64-9.94c5.18-4.18,8.4-10.27,8.59-10.71h-7.92v-7.34h8.64v-3.65Zm24.58-4.94v31.01h-8.02v-31.01h8.02Zm10.99-3.65v39.99c0,4.42-1.1,5.86-6.38,5.86h-8.98l-1.39-8.4h7.44c1.34,0,1.39-.38,1.39-1.3v-36.15h7.92Z"/><path class="cls-18" d="m366.59,260.62c0,5.47-3.94,5.86-7.44,5.86h-5.09l-1.39-8.16h4.51c1.06,0,1.25-.24,1.25-1.44v-4.13h-8.45v13.3h-7.44v-13.3h-8.54c-.29,2.88-1.15,9.6-4.37,13.87l-6.86-5.76c3.74-6.53,3.84-13.49,3.84-14.98v-23.52h39.99v38.26Zm-24.05-30.87h-8.16v4.51h8.16v-4.51Zm0,11.43h-8.16v4.56h8.16v-4.56Zm15.89-11.43h-8.45v4.51h8.45v-4.51Zm0,11.43h-8.45v4.56h8.45v-4.56Z"/><path class="cls-18" d="m413.68,224.76l.67,8.35c-3.65.05-8.26.19-13.15,2.93-2.06,1.15-7.97,4.85-7.97,11.19,0,7.49,9.41,8.98,14.07,9.26l-3.98,8.3c-13.11-1.49-18.91-8.54-18.91-16.9,0-5.38,2.35-10.56,7.58-14.31l-18.67,2.5-.67-8.74c2.3-.05,6.62-.1,9.07-.29l31.97-2.3Zm-8.59,13.39c2.5,2.98,4.18,6.34,5.47,8.98l-4.46,2.54c-1.63-3.79-2.93-6.1-5.23-9.17l4.22-2.35Zm6.58-3.46c2.5,2.98,4.22,6.14,5.62,8.83l-4.46,2.4c-1.78-3.74-2.88-5.76-5.42-9.02l4.27-2.21Z"/><path class="cls-18" d="m421.11,249.74c9.44-5.61,18.15-12.47,25.01-21.05h-23.03v-11.22h28.77l-.13-12.01h11.42l.07,12.01h15.31v11.22h-15.18l.2,23.23c.07,10.56-4.03,11.75-17.09,11.42l-2.44-11.55c1.39.07,4.95.26,5.87.26,2.24,0,2.18-.2,2.18-2.97l-.07-10.43c-4.62,5.54-11.09,12.21-22.83,19.93l-8.05-8.84Z"/><path class="cls-18" d="m524.92,263.53h-12.14v-29.24c-7,3.43-11.22,5.21-19.53,7.92l-5.81-10.36c18.81-6.07,32.27-13.2,47.78-27.45l9.11,7.66c-3.56,3.3-9.77,9.04-19.4,15.31v36.17Z"/><path class="cls-18" d="m575.87,207.31v16.3c0,15.71-2.05,28.25-14.12,40.32l-8.65-9.11c9.57-10.16,10.96-19.53,10.96-30.95v-16.56h11.81Zm16.56-.99v39.73c2.44-1.72,8.32-5.74,14.39-14.85l7.85,8.12c-6.33,8.98-16.83,19.86-34.05,23.89v-56.89h11.81Z"/><path class="cls-18" d="m674.34,238.52c-3.43-1.78-14.25-7.33-21.18-15.05l7.85-4.22h-26.53l8.38,4.16c-7.72,8.65-15.18,12.6-20.19,14.98l-5.94-10.29c6.2-1.98,12.14-6.34,14.78-8.84h-14.06v-10.69h25.61v-5.41h11.35v5.41h25.74v10.69h-15.25c2.57,2.44,7.59,6.14,16.04,8.84l-6.6,10.43Zm-33.46-6.6c2.97,4.88,5.28,7.33,7.99,9.97,4.62-4.22,7.06-8.91,7.99-10.62l9.9,5.15c-2.71,5.41-6.4,9.31-8.91,11.68,9.77,5.02,19.21,5.94,23.1,6.27l-4.82,11.42c-15.71-2.71-23.56-7.72-27.58-10.29-5.21,3.3-13.66,8.12-27.12,10.56l-4.42-11.81c7.85-.79,15.58-2.64,22.64-6.07-5.08-5.21-8.12-10.16-9.17-11.95l10.43-4.29Z"/><path class="cls-18" d="m702.2,240.83c-1.06.46-1.98.79-3.04,1.12v17.75c0,1.91,0,6.2-5.87,6.2h-8.38l-1.39-11.22h4.29c1.19,0,1.19-.92,1.19-1.85v-7.59c-2.11.66-3.17.92-4.95,1.39l-.99-10.96c1.98-.4,3.83-.79,5.94-1.32v-10.63h-5.61v-10.16h5.61v-10.36h10.16v10.36h3.43c7.33-4.55,9.64-9.04,10.62-10.96l11.42.73c-.4,1.06-.59,1.52-1.39,2.84h16.83v8.38c-.26.33-1.32,1.72-2.38,2.84h6.4v23.03h1.91v9.44h-13.4c3.04,2.97,7.66,4.88,14.65,6.4l-4.49,9.96c-11.48-3.23-16.5-8.18-19.27-11.81-4.09,6.01-10.36,9.97-17.29,12.01l-5.68-9.64c2.44-.53,9.83-2.11,14.52-6.93h-12.87v-9.04Zm2.51-21.12l-1.85-3.43v7.46h-3.7v7.66c1.39-.46,2.97-.99,3.83-1.32l.07,10.36h1.65v-20.72Zm20.46-2.31c.73-.73.86-.92,2.38-2.9h-10.96c-1.65,1.65-2.38,2.24-3.17,2.9h11.75Zm-11.29,23.03h5.21c.07-.4.07-.66.13-2.51h10.1c-.2,1.45-.26,1.85-.33,2.51h6.07v-3.89h-5.21c-2.24,0-4.88-.13-4.88-4.36v-7.72h-1.98c-.4,7.79-1.39,10.49-5.28,13.66l-3.83-5.21v7.52Zm0-8.45c2.64-2.38,3.04-4.75,3.1-7.52h-3.1v7.52Zm17.82-7.52v3.23c0,1.06.07,1.32,1.58,1.32h1.78v-4.55h-3.37Z"/><path class="cls-18" d="m774.93,223.6c-.38.58-.53.82-1.78,2.93,4.7-.38,8.26-.82,13.06-1.78l-.19,7.68c-8.69,1.15-12.86,1.39-17.42,1.63-.14.29-.82,1.39-.96,1.63.67-.14,1.63-.38,3.02-.38,3.84,0,6.38,1.73,7.63,3.84,5.28-2.16,5.86-2.4,10.61-4.18l2.98,7.2c-4.46,1.49-10.85,3.84-12.1,4.37.1,2.54.05,4.03,0,8.02l-7.82.24c.14-2.26.14-2.98.19-4.8-2.98,1.68-4.37,2.88-4.37,4.37,0,2.02,2.21,2.59,6.62,2.59.86,0,5.95,0,14.3-1.44l-.77,8.11c-3.6.43-7.87.77-11.62.77-7.01,0-9.36-.86-10.61-1.34-4.27-1.68-5.86-5.18-5.86-8.21,0-6.62,6.62-10.03,11.33-12.43-.91-.86-2.11-.86-2.45-.86-4.8,0-8.02,4.7-11.28,9.46l-6.34-4.51c3.22-3.79,6.24-7.82,8.78-12.15-2.3.05-3.26.05-6.48.05l.19-7.73c2.21.1,4.99.24,8.5.24h2.06c.86-1.54,1.3-2.45,2.59-5.14l8.16,1.82Z"/><path class="cls-18" d="m116.73,297.16h8.26v6.58c3.46-.43,5.38-.82,7.92-1.39l.14,8.21c-3.84.58-5.28.77-8.06,1.1v2.26c2.59-.72,5.28-1.15,8.02-1.15,10.18,0,14.26,6.82,14.26,13.39,0,5.28-2.88,12.53-13.1,12.53-2.02,0-3.26-.29-4.27-.53l-.34-8.59c.86.34,1.97.82,3.94.82.91,0,5.23,0,5.23-4.56,0-2.45-1.49-5.38-6.96-5.38-2.35,0-4.56.43-6.77,1.2v7.1c0,3.26-.14,4.7-.62,6.14-1.49,4.32-5.76,4.61-6.86,4.61-4.56,0-11.57-3.31-11.57-9.89,0-6.19,5.66-10.46,10.8-12.77v-4.46c-4.13.24-7.58.24-8.93.24l-.1-8.3c1.39.05,3.17.14,5.18.14.53,0,3.22-.1,3.84-.1v-7.2Zm.24,27.99c-.77.48-3.79,2.4-3.79,4.37,0,1.1,1.49,2.3,2.83,2.3.96,0,.96-.67.96-2.26v-4.42Zm22.13-25.35c4.8,2.98,8.02,6,10.9,9.31l-5.76,5.57c-2.74-3.55-5.62-6.38-10.08-9.31l4.94-5.57Z"/><path class="cls-18" d="m151.05,303.12c3.36-2.16,5.09-4.13,7.1-7.63l7.34,2.21c-1.54,3.22-6,9.98-11.38,13.44l-3.07-8.02Zm16.08,7.25c-1.2,2.4-2.59,4.7-4.18,6.91v24.1h-7.82v-15.36c-.72.62-1.06.86-2.02,1.39l-1.97-10.03c4.37-2.98,8.11-8.4,9.36-10.61l6.62,3.02v-12.67h27.89v16.99h-27.89v-3.74Zm2.26,19.06h-4.85v-6.53h20.02v-1.58h-18.77v-5.9h30.67v5.9h-3.98v1.58h5.14v6.53h-5.14v7.58c0,2.59-.53,4.37-4.94,4.37h-7.97l-1.3-6.91h5.09c1.1,0,1.2-.19,1.2-1.44v-3.6h-10.61c1.73,1.54,3.02,3.12,4.42,4.9l-6.05,4.75c-1.68-2.78-5.09-6.34-5.9-7.2l2.98-2.45Zm5.14-27.41v1.87h12.96v-1.87h-12.96Zm0,5.76v1.92h12.96v-1.92h-12.96Z"/><path class="cls-18" d="m214.5,299.85c-.96,4.13-2.78,12.05-2.78,21.89,0,8.21,1.25,13.78,1.78,16.13l-8.4.91c-.53-2.5-1.58-7.73-1.58-16.61,0-10.71,1.54-18.91,2.35-23.28l8.64.96Zm28.32,35.86c-1.87.24-6.34.86-11.09.86-7.82,0-15.31-1.25-15.31-9.36,0-2.98,1.1-5.09,1.82-6.43l7.06,1.34c-.62,1.06-1.3,2.45-1.3,3.6,0,2.06,1.92,2.54,7.68,2.54,4.94,0,9.6-.82,11.38-1.15l-.24,8.59Zm-24.29-32.98c4.7-.53,8.98-.86,13.73-.86,4.27,0,7.15.29,8.83.43l-.24,8.21c-1.39-.14-4.42-.38-8.54-.38-6.67,0-11.42.67-13.97,1.01l.19-8.4Z"/><path class="cls-18" d="m254.01,308.3c-.67-1.78-1.01-2.59-1.49-3.5h-2.26l-1.63-7.06c1.49.05,3.36.14,6.19.14,9.94,0,24.72-.77,34.37-2.4l3.5,6.86c-1.25.24-1.34.24-2.98.48-1.73,4.27-1.92,4.61-2.4,5.47h5.18v13.59h-5.9v2.26c-1.1,1.63-3.02,4.51-6.77,7.49,3.5.77,7.54,1.39,14.16,1.54l-3.36,8.45c-6.77-.82-13.44-2.21-19.83-4.66-3.5,1.44-9.46,3.6-20.02,4.56l-3.22-8.35c3.36-.05,8.21-.19,13.63-1.44-3.5-2.78-4.61-4.22-5.52-5.38l5.66-2.21h-6.67v-2.26h-5.71v-13.59h5.04Zm30.67,6.82h-27.79v2.26h27.79v-2.26Zm-17.67-6.82c-.05-.14-.91-2.78-1.44-3.84l-4.66.14c.14.29,1.15,2.5,1.63,3.7h4.46Zm-2.88,15.84c2.78,2.59,4.85,3.65,6.19,4.32,2.93-1.63,4.46-3.12,5.71-4.32h-11.9Zm14.64-15.84c.62-1.15.91-1.68,1.92-4.56-2.83.24-4.99.38-6.72.48,1.01,2.93,1.15,3.26,1.34,4.08h3.46Z"/><path class="cls-18" d="m310.26,299.42c-.96,3.89-2.69,11.33-2.69,20.31s1.58,14.79,2.26,17.33l-8.06,1.25c-1.97-5.9-2.4-12.15-2.4-18.39,0-7.2.86-14.4,2.21-21.51l8.69,1.01Zm23.47,17.47c.19,8.35.05,17.19-9.26,23.81l-7.54-5.38c7.92-4.75,8.54-11.14,8.35-18.19l-.05-1.78c-1.34.05-3.79.19-8.06.19-2.64,0-4.13-.05-5.9-.1l-.19-8.26c1.92.1,4.18.19,7.25.19,2.59,0,4.61-.1,6.58-.14l-.34-9.12,8.59-.05.24,8.45c2.4-.34,3.98-.58,6.62-1.15l.43,8.26c-2.35.38-3.5.58-6.77,1.01l.05,2.26Z"/><path class="cls-18" d="m360.71,306.53c-1.01,3.84-1.73,7.25-2.11,9.26,3.98-2.02,8.02-3.22,12.48-3.22,8.16,0,14.5,4.18,14.5,12.19,0,14.5-17.91,14.5-22.9,14.5-3.74,0-6.24-.29-7.97-.53l-1.58-8.54c1.58.29,5.33.96,10.03.96,2.93,0,13.68-.1,13.68-6.48,0-4.27-4.94-4.32-6.24-4.32-1.78,0-8.21.05-15.22,6.38l-6.72-1.97c1.34-9.36,2.83-15.79,3.79-19.97l8.26,1.73Zm14.83,2.3c-8.64-3.31-15.46-4.27-20.02-4.85l2.69-7.1c7.15.77,12.58,1.82,20.21,4.32l-2.88,7.63Z"/><path class="cls-18" d="m394.31,305.61c3.46-.05,5.47-.19,7.73-.43l.05-7.58h8.21c-.24,5.66-.24,6.38-.34,10.85,2.83-2.54,6.1-5.57,11.57-5.57,4.85,0,9.75,2.88,9.75,9.02,0,2.4-1.58,12.96-1.58,15.12,0,.43,0,1.54.91,1.54,1.44,0,4.08-2.3,4.7-2.88l1.97,7.82c-1.39,1.2-4.66,3.79-8.98,3.79-4.61,0-7.34-2.78-7.34-7.68,0-2.06.34-4.75.58-6.86.14-1.1,1.15-8.78,1.15-9.41,0-.38,0-2.54-2.26-2.54-3.89,0-8.5,5.28-10.61,7.63,0,9.75,0,10.85.14,21.07h-8.21l.1-10.27c-1.97,2.88-2.06,3.02-3.41,5.18l-6.14-5.38c1.68-2.21,8.54-11.28,9.65-12.72v-3.07c-3.22.43-4.51.58-6.77.77l-.86-8.4Z"/><path class="cls-18" d="m442.02,321.93l19.63-15.55c-6.1.72-9.74.82-12.91.91l-.62-8.21c1.82.1,3.75.14,6.82.14,9.79,0,15.75-.82,18.48-1.2l3.41,6.05c-5.47,3.5-10.13,6.91-11.28,7.73.91-.14,1.87-.29,3.36-.29,7.2,0,13.73,4.46,13.73,12.67,0,9.6-7.83,15.65-18.34,15.65-7.49,0-13.15-3.07-13.15-8.93,0-5.09,4.85-7.97,9.6-7.97,7.2,0,10.66,5.14,11.71,6.62.72-.82,1.87-2.02,1.87-4.66,0-3.79-2.93-6.82-8.79-6.82-6.43,0-10.22,2.64-18.48,10.42l-5.04-6.58Zm18.29,7.39c-1.68,0-2.06,1.01-2.06,1.39,0,1.63,2.93,2.3,5.18,2.3,1.1,0,1.82-.1,2.4-.19-1.3-2.06-3.31-3.5-5.52-3.5Z"/><path class="cls-18" d="m516.38,312.67h15.07v8.16h-15.36c-.58,6.24-2.93,14.02-14.02,19.49l-6.24-6.72c8.74-3.74,10.95-8.45,11.76-12.77h-17.52v-8.16h17.86v-3.94c-.62.1-4.94.91-12.15,1.63l-2.59-7.92c10.66-.67,21.79-2.5,28.42-5.66l5.42,6.48c-4.32,2.06-9.07,3.26-10.66,3.65v5.76Z"/><path class="cls-18" d="m573.45,310.65l2.98,3.36c-1.54,3.6-3.79,8.5-8.02,15.03l-6.24-3.41c1.97-2.74,2.78-4.18,4.32-6.91l-6.62,1.01,3.31,19.54-7.3,1.39-3.36-19.83-10.23,1.54-1.06-7.06,10.13-1.44-1.34-7.82,7.39-.91,1.3,7.68,14.74-2.16Z"/><path class="cls-18" d="m602.92,314.45c-4.85-3.26-9.17-5.42-14.64-7.34l3.98-7.44c5.57,1.87,10.13,3.98,15.26,7.25l-4.61,7.54Zm25.15-.48c-4.03,6.58-9.22,12.34-15.55,16.71-6.24,4.37-13.35,7.3-20.79,8.74l-2.98-8.74c13.59-2.5,24.58-8.26,33.65-24.19l5.66,7.49Z"/><path class="cls-18" d="m669.69,339.17c-1.49-2.06-5.52-7.54-11.86-13.15-4.42,4.75-9.7,9.6-19.01,13.78l-5.33-7.3c12.62-5.18,21.22-13.44,25.59-23.95h-21.84v-8.3h33.84c-2.21,8.83-4.99,14.26-8.06,19.06,7.06,5.81,11.42,11.28,13.44,13.78l-6.77,6.1Z"/><path class="cls-18" d="m707.51,298.12l-1.1,27.22h-7.2l-1.1-27.22h9.41Zm-9.07,30.43h8.74v8.3h-8.74v-8.3Z"/><path class="cls-18" d="m296.52,80.74h-6.03l-6.93-24.12h5.37l4.56,17.76,4.29-17.76h6.03l4.32,17.76,4.53-17.76h5.37l-6.93,24.12h-6.03l-4.26-18.06-4.29,18.06Z"/><path class="cls-18" d="m334.83,66.04v4.53h-9.72v5.52h11.01v4.65h-16.08v-24.12h15.69v4.65h-10.62v4.77h9.72Z"/><path class="cls-18" d="m347.37,56.62c1.8,0,3.18.3,4.14.69,2.07.84,3.75,2.82,3.75,5.64,0,2.97-1.56,4.29-2.49,5.07.99.63,3.18,2.07,3.18,5.85,0,6.87-6.66,6.87-8.82,6.87h-8.49v-24.12h8.73Zm-3.66,4.65v4.89h3.69c2.31,0,2.79-1.71,2.79-2.46,0-.87-.42-2.43-3.03-2.43h-3.45Zm0,9.06v5.76h3.69c.78,0,3.48,0,3.48-2.85,0-2.13-1.59-2.91-3.18-2.91h-3.99Z"/><path class="cls-18" d="m366.96,60.22h-7.56v-4.17h24.15v4.2c-2.49,2.04-5.4,3.39-8.34,4.65.18.15.78.75.96.93h9.51v4.23c-.9,1.29-2.97,4.26-6.99,7.59l-3.42-3.45c.63-.42,2.73-1.83,4.56-4.14h-5.85v10.53c0,1.77-.87,3.03-3.48,3.03h-6.33l-1.11-4.65h4.98c1.14,0,1.14-.21,1.14-1.08v-7.83h-11.91v-4.23h12.15c-2.13-1.77-4.26-3.03-5.25-3.6l2.79-2.01Zm2.07,0c1.17.72,2.07,1.38,3.03,2.07,2.64-1.05,3.39-1.68,3.87-2.07h-6.9Z"/><path class="cls-18" d="m391.17,73.18c-.03.75-.24,6.18-1.11,8.97l-3.03-1.89c.57-2.07,1.02-5.07.99-7.47l3.15.39Zm-3.81-5.37c.93.03,1.38.03,1.98,0,.93-1.17,1.2-1.53,1.44-1.83-.27-.36-1.65-2.31-3.66-3.93l2.07-3.66c.36.24.48.33.69.51.9-1.56,1.32-2.28,2.13-3.93l3.54,1.17c-.36.84-.81,1.89-3.15,5.25.21.27.45.54.9,1.08,1.47-2.16,2.13-3.48,2.7-4.56l3.78,1.38c-1.77,2.97-3.84,5.73-6.12,8.31.36-.03,2.25-.12,2.67-.15-.39-1.26-.45-1.44-.69-1.98l2.97-.99c.78,1.38,1.89,4.71,2.31,6.36l-3.54,1.14c-.12-.57-.15-.78-.24-1.23-.3.06-.54.09-1.44.21v12.6h-3.81v-12.15c-2.64.27-3.39.3-4.35.36l-.18-3.96Zm12.24,4.68c.63,2.43.93,5.37,1.02,6.93l-3.63.6c0-.57-.18-4.98-.6-6.99l3.21-.54Zm7.8-17.07c-.18.9-.36,1.83-.93,3.42h8.67c-.18,12.63-.24,18.72-.9,21.51-.24,1.05-1.05,3.21-3.45,3.21h-6.6l-.9-4.5h5.22c.75,0,1.14,0,1.41-1.35.48-2.37.6-9.81.66-14.64h-5.97c-1.32,2.4-2.16,3.3-3,4.23l-3.03-3.57c1.92-2.01,3.69-5.07,4.41-8.64l4.41.33Zm-2.28,10.98c1.29,1.71,2.85,4.38,3.72,7.17l-3.96,2.04c-.54-1.59-1.92-5.13-3.6-7.44l3.84-1.77Z"/><path class="cls-18" d="m418.02,55.84h10.86v4.14c-.54,2.01-1.38,4.44-2.13,6.15,1.68,1.8,2.43,4.41,2.43,6.9,0,4.65-3.18,4.8-3.51,4.8h-2.46l-.66-4.29h.84c1.08,0,1.38-.39,1.38-1.5,0-3.03-1.5-4.53-2.22-5.25.93-2.4,1.44-4.29,2.01-6.84h-2.22v23.64h-4.32v-27.75Zm9.54,23.16c.63-.06,1.11-.12,2.43-.3v-22.86h14.91v14.46h-.63l1.95,3.36c-.75.66-1.62,1.38-3.48,2.49,1.11,1.41,2.16,2.34,3.45,3.39l-2.76,4.11c-3.63-2.85-6.48-7.68-7.44-13.35h-1.68v7.74c2.28-.39,3-.57,3.84-.75l.3,4.02c-2.28.63-4.23,1.02-10.29,2.07l-.6-4.38Zm6.75-19.23v1.86h6.24v-1.86h-6.24Zm0,4.95v1.95h6.24v-1.95h-6.24Zm5.58,5.58c.24.81.45,1.5.93,2.58,1.11-.84,2.07-1.59,2.97-2.58h-3.9Z"/><path class="cls-18" d="m459.36,67.93h-5.88v-4.08h16.29v4.08h-5.94v2.85h8.7v4.11h-8.7v3.57c.51.03.81.06,1.62.06h10.71l-.93,4.47h-10.59c-6.09,0-8.61-2.31-10.62-4.74-1.14,2.4-2.13,3.75-3.93,5.4l-3.09-3.66c1.11-.96,4.29-3.75,5.16-11.1l4.35.57c-.3,2.16-.57,3.36-1.02,4.86,1.44,2.25,3.18,2.97,3.87,3.24v-9.63Zm4.5-12.78v2.13h11.22v7.8h-4.47v-3.81h-17.97v3.81h-4.47v-7.8h11.16v-2.13h4.53Z"/><path class="cls-18" d="m504.15,67.69c-4.89-2.07-9.21-5.25-12.6-9.09-3.63,4.38-8.34,7.35-12.66,9.15l-2.01-4.53c2.73-.96,8.16-3.09,12.24-8.13h4.95c4.17,5.07,9.57,7.11,12.27,8.01l-2.19,4.59Zm-1.02.69v4.26h-8.82v5.67h10.98v4.38h-27.36v-4.38h3.3v-10.83h4.44v10.83h4.2v-15.27h4.44v5.34h8.82Z"/><path class="cls-18" d="m535.8,60.04h-12.33v1.68h5.76v15.69h-15.21v-15.69h5.76v-1.68h-12.39v-4.08h28.41v4.08Zm-23.19,1.32v17.4h17.91v-17.4h4.17v21.36h-26.19v-21.36h4.11Zm7.17,3.9h-2.22v2.58h2.22v-2.58Zm0,5.91h-2.22v2.73h2.22v-2.73Zm5.94-5.91h-2.25v2.58h2.25v-2.58Zm0,5.91h-2.25v2.73h2.25v-2.73Z"/><line class="cls-3" x1="124.49" y1="43.84" x2="716.52" y2="43.84"/><line class="cls-3" x1="716.52" y1="91.45" x2="124.49" y2="91.45"/><path d="m193.61,164.09v-4.29h-12.21v-3.3h12.21v-1.65h-9.84v-12.18h9.84v-1.56h-11.85v-3.24h11.85v-2.07h3.72v2.07h11.85v3.24h-11.85v1.56h9.96v12.18h-9.96v1.65h12.21v3.3h-12.21v4.29h-3.72Zm-6.18-18.6v2.01h6.18v-2.01h-6.18Zm0,4.35v2.1h6.18v-2.1h-6.18Zm9.9-4.35v2.01h6.3v-2.01h-6.3Zm0,4.35v2.1h6.3v-2.1h-6.3Z"/><path d="m235.88,144.89h-3.75v2.04h6.54v9h-5.46c.48,1.08,1.41,3,6.87,4.77l-1.56,3.42c-5.73-1.98-7.53-5.34-8.07-6.33-2.55,4.68-6.81,6-8.13,6.42l-1.83-3.3c3.33-1.11,5.94-2.46,7.17-4.98h-5.52v-4.86l-1.62,3.27c-1.14-1.47-1.44-2.07-2.01-3.24v12.96h-3.48v-11.76c-1.2,3.66-2.1,4.98-2.94,6.18l-1.35-4.8c1.62-2.28,3-4.68,4.08-9.12h-3.54v-3.48h3.75v-5.28h3.48v5.28h2.28v.93c4.41-2.16,6.18-4.26,7.59-6.21h4.2c2.46,3.24,4.17,4.5,7.71,6.3l-1.77,3.24c-.75-.42-1.5-.84-2.64-1.65v1.2Zm-10.68-1.23c-1.38,1.05-2.19,1.44-2.94,1.8l-1.47-3.09v2.19h-2.28v1.35c1.68,2.88,2.97,4.14,3.63,4.8v-3.78h6.51v-2.04h-3.45v-1.23Zm3.27,9.27c.15-1.02.18-1.83.18-3h-3.21v3h3.03Zm5.13-11.07c-1.59-1.41-2.43-2.46-3.09-3.33-.75.93-1.65,1.98-3.15,3.33h6.24Zm1.74,11.07v-3h-3.21c0,1.35-.03,1.95-.15,3h3.36Z"/><path d="m249.35,138.32c-.51,2.25-1.74,7.41-1.74,13.83,0,4.8.72,8.1,1.08,9.63l-3.96.48c-.78-3.27-1.02-6.66-1.02-10.02,0-6.54,1.02-11.67,1.53-14.37l4.11.45Zm18.36,21.99c-1.44.21-3.87.54-6.81.54-4.41,0-9.24-.63-9.24-5.34,0-1.53.51-2.79,1.32-4.11l3.36.66c-.96,1.38-1.05,2.28-1.05,2.73,0,1.56,1.44,2.13,5.43,2.13,3,0,5.31-.39,7.08-.72l-.09,4.11Zm-14.82-19.89c1.68-.18,4.65-.51,8.52-.51,2.55,0,4.05.12,5.16.21l-.09,3.93c-.75-.06-2.55-.24-5.25-.24-3.93,0-6.93.42-8.4.6l.06-3.99Z"/><path d="m272.33,136.73h11.88v10.38h-8.34v16.95h-3.54v-27.33Zm3.54,2.55v1.65h4.92v-1.65h-4.92Zm0,3.72v1.65h4.92v-1.65h-4.92Zm15.15,19.68c-3.54-1.65-5.13-4.47-5.46-5.04-.42.78-2.13,3.93-6.81,5.67l-1.92-2.94c1.08-.3,3.3-.99,5.28-3.24h-4.68v-2.64h6.03c.21-.78.21-1.23.21-1.8h-5.64v-2.61h2.52c-.12-.18-.78-1.59-.99-1.95l3.42-.54c.36.75.75,1.8.93,2.49h3.09c.3-.78.6-1.89.75-2.49l3.54.36c-.21.78-.81,1.92-.9,2.13h2.73v2.61h-6.15c-.06.66-.09,1.11-.24,1.8h6.78v2.64h-4.95c1.8,1.74,3.18,2.28,4.23,2.7l-.42.69h1.8c.84,0,.9-.24.9-.99v-12.42h-8.37v-10.38h11.91v24.15c0,2.13-.24,3.18-3,3.18h-2.94l-.78-2.76-.87,1.38Zm-.87-23.4v1.65h4.92v-1.65h-4.92Zm0,3.72v1.65h4.92v-1.65h-4.92Z"/><path d="m303.86,150.23c-.78,1.02-1.11,1.41-1.74,2.04l-1.32-4.89c1.98-2.43,3.78-5.28,4.92-11.73l3.72.48c-.24,1.38-.63,3.84-1.92,7.23v20.67h-3.66v-13.8Zm11.97,5.64c-1.05,2.76-2.7,5.28-5.01,7.47l-2.7-2.58c1.89-1.62,3.45-3.66,4.47-6.03l3.24,1.14Zm-7.17-5.67c.12,0,5.88.03,6.39.03.12-.09.21-.18.93-.87-1.35-1.35-3.45-3.12-6.03-5.04l2.1-2.61c.54.36,1.02.66,1.74,1.2.69-.81,1.23-1.53,2.07-2.7-3.21.15-4.59.15-5.52.15l-.48-3.24c4.11,0,12.51-.21,17.73-1.44l1.2,3.09c-1.17.24-3.72.78-8.55,1.17-.96,1.59-2.82,4.05-3.84,5.16.99.9,1.5,1.41,1.92,1.8,1.65-1.83,3.03-3.39,5.31-6.6l3.24,1.65c-2.13,2.94-4.59,5.64-7.2,8.16l5.25-.24c-.48-1.05-.72-1.56-1.17-2.4l3.03-1.26c1.5,2.49,2.28,4.14,3.24,7.14l-3.36,1.29c-.18-.63-.33-1.11-.54-1.77-1.32.15-3.03.33-5.28.48v10.71h-3.72v-10.56c-1.17.03-6.9.21-8.19.21l-.27-3.51Zm16.59,4.44c1.02,2.07,2.16,3.75,4.59,6.24l-2.61,2.61c-1.83-1.83-4.02-4.77-5.04-7.65l3.06-1.2Z"/><path d="m344.27,137.36c-.18.54-.81,2.37-1.2,3.54,1.62-.18,2.37-.27,3.93-.57l-.21,3.9c-2.16.36-4.53.54-5.1.6-2.61,7.2-4.71,11.64-5.58,13.44l-3.84-1.65c1.98-3.72,3.75-7.59,5.19-11.55-1.32.06-2.04.06-4.05.06l-.15-3.99c2.55.15,3.18.12,5.52.09.6-1.74.87-2.76,1.38-4.65l4.11.78Zm12.3,23.13c-.81-.57-2.52-1.8-4.2-2.61-.12,2.7-1.47,5.01-6.03,5.01-3.93,0-6.84-2.01-6.84-5.22,0-2.82,2.4-5.22,6.45-5.22,1.02,0,1.86.15,2.4.24-.18-2.79-.21-4.14-.24-6.09l3.84.09c0,1.5.03,2.04.3,6.96,1.11.42,3,1.17,6.21,3.36l-1.89,3.48Zm-10.98-4.62c-1.47,0-2.58.66-2.58,1.74,0,1.23,1.35,1.86,3,1.86,2.58,0,2.58-1.44,2.58-2.04,0-.18-.03-.3-.06-1.17-.87-.24-2.1-.39-2.94-.39Zm4.38-15.84c1.77.66,4.65,1.77,8.37,3.87l-1.68,3.54c-2.64-1.71-5.34-3.18-8.37-4.14l1.68-3.27Z"/><path d="m385.07,139.79c-4.23,2.94-9.63,6.15-14.1,8.82-1.59.93-1.59.96-1.59,1.26,0,.33.12.39,1.26.96,8.16,4.14,11.46,6.36,15.21,9.18l-2.88,3.33c-6.27-4.86-10.2-6.96-15.27-9.66-1.8-.96-3.12-1.92-3.12-3.69,0-2.01,1.56-3,2.76-3.72,5.52-3.36,9.33-5.64,14.76-9.75l2.97,3.27Z"/><path d="m399.65,136.73h3.9v4.65c2.31-.3,3.27-.42,5.61-.96l.09,3.93c-2.52.42-2.82.45-5.7.78v2.52c1.26-.36,3.33-.93,5.79-.93,6.12,0,8.64,4.02,8.64,7.98,0,2.91-1.56,7.44-7.77,7.44-1.41,0-2.28-.24-2.94-.42l-.09-4.08c.57.24,1.41.6,2.76.6,3.57,0,3.99-2.55,3.99-3.66,0-1.59-.78-4.23-5.22-4.23-2.22,0-3.99.6-5.16,1.02v5.37c0,2.04,0,5.97-4.11,5.97-2.7,0-6.78-2.04-6.78-5.64,0-4.59,5.49-7.29,6.99-7.98v-3.63c-.81.03-3.03.18-5.94.12l-.03-3.96c.93.06,1.8.09,3.21.09s2.16-.03,2.76-.06v-4.92Zm.09,16.32c-.96.54-3.6,2.16-3.6,3.93,0,1.11,1.5,2.07,2.64,2.07.96,0,.96-.87.96-2.07v-3.93Zm12.99-14.34c2.85,1.83,4.8,3.6,6.54,5.61l-2.79,2.7c-1.68-2.13-3.45-3.9-6.15-5.64l2.4-2.67Z"/><path d="m427.16,141.02c-.78.96-1.71,2.04-3.84,4.05l-2.37-3.06c2.4-1.86,3.87-3.6,5.4-6.51l3.99.72c-.45.75-.57.96-.93,1.56h20.01v3.24h-22.26Zm9.09,22.44c-.81-.81-2.4-2.46-4.89-4.47-4.02,3.3-6.66,4.47-7.98,5.07l-2.25-3.36c3.12-1.2,5.37-2.34,7.38-3.87-2.13-1.53-3.72-2.43-4.95-3.09l2.19-2.73c.84.42,2.22,1.14,5.46,3.33,1.08-1.17,1.86-2.19,2.91-3.78l3.15,1.68c-.6.99-1.47,2.43-3.24,4.23,2.67,2.07,4.05,3.27,4.89,4.05l-2.67,2.94Zm-14.67-16.44h23.61c-.12,1.74-.39,6.18-.39,8.64,0,.84,0,4.02.87,4.02.72,0,1.29-2.52,1.68-4.26l2.55,2.49c-.48,2.43-1.29,3.84-1.59,4.32-.51.81-1.29,1.65-2.88,1.65-3.6,0-4.2-4.29-4.2-8.88,0-2.22.06-3.93.12-4.8h-19.77v-3.18Zm25.68-4.5v3h-20.76v-3h20.76Z"/><path d="m451.52,137.78h4.95v-2.01h3.3v2.01h4.8v3.21h-4.8v1.41h4.68v12.24h-4.68v1.71h4.98v3.27h-4.98v4.47h-3.3v-4.47h-5.19v-3.27h5.19v-1.71h-4.62v-12.24h4.62v-1.41h-4.95v-3.21Zm3.06,7.32v2.16h2.01v-2.16h-2.01Zm0,4.53v2.22h2.01v-2.22h-2.01Zm5.1-4.53v2.16h2.04v-2.16h-2.04Zm0,4.53v2.22h2.04v-2.22h-2.04Zm14.49,6.51v3.75h5.43v3.51h-15.12v-3.51h6.03v-3.75h-5.07v-3.36h5.07v-2.46h3.66v2.46h4.8v3.36h-4.8Zm4.8-16.17c-.42,1.11-1.23,3.21-3.75,5.79,1.95,1.32,3.48,1.83,4.62,2.22l-1.59,3.45c-1.11-.39-3.24-1.2-5.7-3.3-2.79,2.1-5.1,2.91-6.42,3.33l-1.59-3.33c.9-.27,2.91-.87,5.43-2.46-1.89-2.19-2.64-3.75-3-4.59l2.46-.99h-4.17v-3.45h13.71v3.33Zm-8.88.12c.39.75,1.05,1.89,2.49,3.45,1.53-1.5,2.1-2.58,2.55-3.45h-5.04Z"/><path d="m489.35,138.32c-.51,2.25-1.74,7.41-1.74,13.83,0,4.8.72,8.1,1.08,9.63l-3.96.48c-.78-3.27-1.02-6.66-1.02-10.02,0-6.54,1.02-11.67,1.53-14.37l4.11.45Zm18.36,21.99c-1.44.21-3.87.54-6.81.54-4.41,0-9.24-.63-9.24-5.34,0-1.53.51-2.79,1.32-4.11l3.36.66c-.96,1.38-1.05,2.28-1.05,2.73,0,1.56,1.44,2.13,5.43,2.13,3,0,5.31-.39,7.08-.72l-.09,4.11Zm-14.82-19.89c1.68-.18,4.65-.51,8.52-.51,2.55,0,4.05.12,5.16.21l-.09,3.93c-.75-.06-2.55-.24-5.25-.24-3.93,0-6.93.42-8.4.6l.06-3.99Z"/><path d="m518.87,137.48l4.2-.81,1.17,6.42c.12.6.39,1.98.6,2.7,2.7-.96,6.27-1.98,8.73-2.67l1.29,3.93c-1.8.42-6.36,1.53-10.38,3.03-2.04.78-6.3,2.34-6.3,5.01,0,2.85,3.96,3.24,8.01,3.24,1.8,0,5.04-.09,10.29-1.02l.3,4.26c-2.55.27-6.21.69-10.38.69-3.12,0-12.42-.09-12.42-6.72,0-4.38,3.66-6.66,6.99-8.19-.36-1.2-.6-2.31-.81-3.33l-1.29-6.54Zm13.71-1.83c.96,1.41,1.68,2.88,2.73,5.82l-2.58,1.11c-.72-2.37-1.35-3.84-2.55-5.85l2.4-1.08Zm4.83-.48c.45.72,1.5,2.34,2.67,5.91l-2.58,1.05c-.78-2.55-1.38-3.99-2.55-6l2.46-.96Z"/><path d="m548.45,158.93c6.99.09,14.13-2.1,14.13-7.59,0-3.6-2.79-3.96-4.59-3.96-1.44,0-5.52.42-13.26,2.85l-1.29-4.05c8.16-2.01,11.43-2.64,14.43-2.64,1.35,0,8.88,0,8.88,7.59,0,6.87-6.12,11.4-16.86,11.67l-1.44-3.87Zm12.84-15.84c-3.33-.45-8.37-1.17-12.87-2.76l1.47-3.63c2.73.87,6.84,2.07,12.18,2.58l-.78,3.81Z"/><path d="m598.25,148.61c-10.11.33-13.65,4.53-13.65,6.9,0,3.63,7.92,3.3,8.37,3.3l-.96,3.96c-2.19-.06-11.46-.27-11.46-6.69,0-3.84,3.18-5.7,5.1-6.81-2.52.45-8.28,1.47-12.93,2.52l-.42-3.81c.99-.12,5.31-.66,6.18-.78l7.62-5.85c-1.38.18-4.68.66-9.15.84l-.63-3.84c5.34.03,9.84-.12,14.58-.84l1.26,3.27-7.35,5.61c4.86-.63,4.98-.63,13.17-1.56l.27,3.78Zm-4.29-13.2c1.11,1.89,1.59,3.33,2.43,5.97l-2.28,1.02c-.66-2.58-1.11-3.78-2.25-6.06l2.1-.93Zm4.29-.54c1.11,1.95,1.71,3.63,2.4,5.94l-2.28,1.02c-.63-2.49-1.14-3.9-2.25-6.06l2.13-.9Z"/><path d="m617.72,137.39l-.51,17.07h-3.48l-.51-17.07h4.5Zm-4.44,19.65h4.35v4.29h-4.35v-4.29Z"/></g></svg>