<?xml version="1.0" encoding="UTF-8"?>
<svg id="_レイヤー_2" data-name="レイヤー 2" xmlns="http://www.w3.org/2000/svg" width="40" height="40" viewBox="0 0 40 40">
  <defs>
    <style>
      .cls-1 {
        fill: #fff;
      }

      .cls-2 {
        fill: #ff6482;
      }
    </style>
  </defs>
  <g id="_内容" data-name="内容">
    <g>
      <circle class="cls-2" cx="20" cy="20" r="20"/>
      <path class="cls-1" d="m26.15,25.67l3,3.88h-3.88l-1.52-1.96c-1.26.69-2.66,1.04-4.21,1.04-2.59,0-4.74-.89-6.45-2.68-1.71-1.79-2.57-3.91-2.57-6.38,0-1.65.4-3.16,1.2-4.54.8-1.38,1.89-2.47,3.29-3.29s2.89-1.22,4.5-1.22c2.45,0,4.55.88,6.3,2.65,1.76,1.77,2.63,3.92,2.63,6.46,0,2.34-.76,4.35-2.27,6.05Zm-2.05-2.65c.7-1.03,1.04-2.17,1.04-3.42,0-1.63-.55-3.02-1.65-4.16s-2.44-1.71-4-1.71-2.96.55-4.05,1.66-1.63,2.52-1.63,4.23c0,1.91.68,3.41,2.05,4.52,1.07.87,2.29,1.3,3.65,1.3.78,0,1.52-.15,2.21-.46l-3.09-3.97h3.91l1.55,2Z"/>
    </g>
  </g>
</svg>