<?xml version="1.0" encoding="UTF-8"?>
<svg id="_レイヤー_2" data-name="レイヤー 2" xmlns="http://www.w3.org/2000/svg" width="500" height="86" viewBox="0 0 500 86">
  <defs>
    <style>
      .cls-1 {
        fill: #fff;
      }

      .cls-2 {
        fill: #ff6482;
      }
    </style>
  </defs>
  <g id="_内容" data-name="内容">
    <g>
      <g>
        <rect class="cls-2" width="500" height="86" rx="21" ry="21"/>
        <circle class="cls-1" cx="30" cy="42.8" r="10"/>
        <circle class="cls-1" cx="470" cy="42.8" r="10"/>
      </g>
      <g>
        <path class="cls-1" d="m136.35,39.13c-5.52.72-9.16.88-10.64.92l.08,6.56c6.76,1.8,11.44,4.72,14.04,6.36l-3.16,5.76c-4.44-3.08-7.68-4.64-10.88-5.84.04,2.52.04,8.48-9.36,8.48-6.84,0-10.84-3.4-10.84-8.04s4-7.88,11.32-7.88c1.04,0,1.88.08,2.48.12l-.36-19.24,6.52.28.08,7.28c5.52-.24,9.36-1.04,10.84-1.36l-.12,6.6Zm-20.12,12.12c-1.52,0-4.72.2-4.72,2.12,0,1.52,2.24,2.28,4.32,2.28,3.48,0,3.52-1.4,3.56-4.16-1.04-.16-2.12-.24-3.16-.24Z"/>
        <path class="cls-1" d="m175.4,31.13c-5.76,4.08-10.48,6.84-18,11.28-1.8,1.04-2.04,1.16-2.04,1.64,0,.4.16.44,1.64,1.2,9.8,4.92,14.4,7.92,19.52,11.76l-4.64,5.28c-8.2-6.36-14.84-9.92-20.12-12.76-2.12-1.16-4.2-2.52-4.2-5.32,0-3.04,2.4-4.52,4.4-5.72,6.4-3.92,12.76-7.88,18.76-12.44l4.68,5.08Z"/>
        <path class="cls-1" d="m205.36,62.28l-1.72-5.6c1.6-.16,8.84-.92,8.84-6.92,0-3.4-2.24-4.64-2.92-5-3.4,7.2-10.32,15.76-18.28,15.76-3.4,0-7.04-2.64-7.04-7.72,0-6.2,4.84-10.76,10.36-12.92.04-1.04.08-1.52.2-3.04-.44,0-3.8.08-8.28-.04l.12-6.16c1.92.16,4.6.32,7.8.32h1c.16-1.36.24-2.08.64-4.56l6.16.48c-.28,1.28-.36,1.56-.84,3.88,6.84-.44,11.52-1.36,13.88-1.8l.4,6.04c-2.28.32-7.96,1.12-15.16,1.6-.04.36-.04.52-.2,1.88,1.28-.12,2.36-.28,4-.28,8.16,0,14.48,3.72,14.48,11.64,0,11.04-11.2,12.2-13.44,12.44Zm-10.88-16.32c-4.12,2.64-4.4,5.56-4.4,6.36s.24,2.24,1.88,2.24c1.28,0,2.36-.6,3.04-.96-.4-2.84-.48-6.48-.52-7.64Zm5.6-2.12c0,1.84,0,3.68.16,5.52,2.12-2.44,3.2-4.64,3.76-5.84-1.44-.04-2.92.12-3.92.32Z"/>
        <path class="cls-1" d="m226.2,47.21l17.04-13.68c-4.72.52-8.08.68-11.48.8l-.52-6.16c1.56,0,3.08.04,5,.04,8.28,0,13.24-.64,15.8-1l2.64,4.6c-2.48,1.6-5.64,3.76-10.04,7.08.88-.16,1.92-.36,3.44-.36,6.64,0,11.48,4.16,11.48,10.52,0,7.68-6.36,12.68-14.92,12.68-5.64,0-10.88-2.2-10.88-7.16,0-4,3.64-6.4,7.64-6.4,6.04,0,8.96,4.52,9.76,5.76,1.4-1.16,2.12-2.56,2.12-4.4,0-2.68-1.8-5.96-7.6-5.96s-9.4,2.76-15.64,8.6l-3.84-4.96Zm14.88,5.92c-1.2,0-1.84.64-1.84,1.28,0,1.44,2.68,2.16,4.72,2.16.92,0,1.6-.12,2.08-.2-1.12-1.92-2.92-3.24-4.96-3.24Z"/>
        <path class="cls-1" d="m279.72,46.37c-.88.56-4.2,2.68-4.2,4.36s2,2.08,2.88,2.28c1.88.4,3.88.68,7.28.68,6.44,0,11-1,13.92-1.68l.44,6.92c-4.48.88-9,1.24-13.52,1.24-4.24,0-17.64,0-17.64-8.64,0-2.2.84-4.96,6.28-8.76l4.56,3.6Zm14.72-9.12c-2.28-.44-6.28-1.2-12.28-1.2-4.72,0-8.28.4-10,.6l.28-6.68c2-.2,5.32-.48,9.32-.48,6.6,0,11.16.8,13.2,1.16l-.52,6.6Zm1.28-11.88c1.68,2.44,2.72,4.68,3.92,7.64l-3,1.64c-1.12-3.16-1.96-4.92-3.72-7.76l2.8-1.52Zm5.36-1.36c1.68,2.4,2.64,4.48,3.92,7.64l-3,1.64c-1.12-3.2-2.04-5.16-3.72-7.72l2.8-1.56Z"/>
        <path class="cls-1" d="m329.76,39.17l-2.44-2.12c.8-.76,2.56-2.44,2.56-6v-4.92c9.8-.08,13.28-.84,15.24-1.28l2.16,4.28c-3.68.76-10.44.96-12.12.96v1.24h12.48v3.92h-4.76v3.92h1.32v17.48h-7.68c2.48.8,5.8,1.68,11.4,1.64l-2.4,5.12c-5.36-.4-11.04-2.04-14.24-3.76l2.96-3h-11.2l2.8,3.04c-4.72,2-8.52,3.04-14.16,3.64l-2.44-5.16c1.52,0,6.76-.04,11.56-1.52h-7.72v-15l-3.68-3.88c2.04-1.84,2.84-3.96,2.84-7.12v-4.52c2.08,0,8.88-.04,14.4-1.28l2.16,4.28c-3.64.68-7.52.88-11.32.92v1.28h11.08v3.92h-3.76v3.92h4.96Zm-10.48,0v-3.92h-2.28c-.12.92-.44,2.2-1.36,3.92h3.64Zm19,3.6h-19.28v1.52h19.28v-1.52Zm0,4.24h-19.28v1.64h19.28v-1.64Zm0,4.4h-19.28v1.76h19.28v-1.76Zm-.92-12.24v-3.92h-2.72c-.4,1.44-.76,2.56-1.68,3.92h4.4Z"/>
        <path class="cls-1" d="m354.92,26.57h16.44v16.68h-10.48v20h-5.96V26.57Zm6,4.72v2h4.64v-2h-4.64Zm0,5.52v2.08h4.64v-2.08h-4.64Zm20.28,20.28h2.4c1,0,1.12-.24,1.12-1.16v-12.68h-10.68v-16.68h16.64v32.39c0,4.08-2.56,4.28-3.96,4.28h-7.48l-.6-3.64h-14.32v-14.04h16.88v11.52Zm-11.36-6.64v4.04h5.84v-4.04h-5.84Zm10.04-19.16v2h4.84v-2h-4.84Zm0,5.52v2.08h4.84v-2.08h-4.84Z"/>
      </g>
    </g>
  </g>
</svg>