<svg id="_レイヤー_2" data-name="レイヤー 2" xmlns="http://www.w3.org/2000/svg" xmlns:xlink="http://www.w3.org/1999/xlink" viewBox="0 0 455.41 63.89"><defs><radialGradient id="_コバサンタの靴_6" data-name="コバサンタの靴 6" cx="2508.92" cy="-4180.57" fx="2508.92" fy="-4180.57" r="3.17" gradientTransform="matrix(.89193 -.26336 .18123 .6138 -1434.06 3271.8)" gradientUnits="userSpaceOnUse"><stop offset="0" stop-color="#dcc5b9"/><stop offset="1" stop-color="#721519"/></radialGradient><radialGradient id="_コバサンタの肌_7" data-name="コバサンタの肌 7" cx="-1860.97" cy="-6918.13" fx="-1860.97" fy="-6918.13" r="3.73" gradientTransform="matrix(.5 0 0 .5 940.44 3467.41)" gradientUnits="userSpaceOnUse"><stop offset="0" stop-color="#fff"/><stop offset="1" stop-color="#fbd9b2"/></radialGradient><radialGradient id="_コバサンタの肌_7-2" data-name="コバサンタの肌 7" cx="-1791.15" cy="-6911.58" fx="-1791.15" fy="-6911.58" r="3.82" xlink:href="#_コバサンタの肌_7"/><radialGradient id="_コバサンタの肌_7-3" data-name="コバサンタの肌 7" cx="9056.3" cy="2357.82" fx="9056.3" fy="2357.82" r="2.61" gradientTransform="matrix(.30657 -.24107 .84722 1.07663 -4799.59 -320.25)" xlink:href="#_コバサンタの肌_7"/><radialGradient id="_コバサンタの肌_7-4" data-name="コバサンタの肌 7" cx="19155.52" cy="1509.27" fx="19155.52" fy="1509.27" r="2.35" gradientTransform="matrix(.1573 -.23164 .81903 .55614 -4279.76 3681.77)" xlink:href="#_コバサンタの肌_7"/><radialGradient id="_コバサンタの肌_7-5" data-name="コバサンタの肌 7" cx="27751.9" cy="1142.89" fx="27751.9" fy="1142.89" r="2.09" gradientTransform="matrix(.0953 -.20932 .71898 .32736 -3425.66 5384.78)" xlink:href="#_コバサンタの肌_7"/><linearGradient id="_コバサンタの服_2" data-name="コバサンタの服 2" x1="36.35" y1="45.57" x2="38.55" y2="43.68" gradientUnits="userSpaceOnUse"><stop offset="0" stop-color="#fff"/><stop offset="1" stop-color="#e50012"/></linearGradient><linearGradient id="_コバサンタの服_2-2" data-name="コバサンタの服 2" x1="39.04" y1="46.99" x2="43.24" y2="43.38" xlink:href="#_コバサンタの服_2"/><style>.cls-4{fill:#fbd9b2}.cls-5{fill:#fff}.cls-7{fill:#e50012}.cls-8{fill:#231815}.cls-9{fill:#721519}</style></defs><g id="_ワイヤー" data-name="ワイヤー"><path d="M68.91 4.33c1.77 3.14 1.91 7.68-.81 10.46-.38.36-.82.72-1.2 1.03 4.45 1.35 8.67 5.38 9.43 9.83.86 4.8-1.34 9.42-5.8 11.93-3.45 1.93-8.34 2.69-12.16 1.26-.81.71-1.78 1.21-2.92 1.21-.76-.05-1.63-.41-1.87-1.12-.86.36-1.92.09-2.68-.27-.58-.49-1.15-.99-1.39-1.62-.48.09-.86.5-1.3.72.67 1.97 2.26 3.47 3.4 4.27.95.31 1.43 1.3 1.82 2.06.19 1.66-.24 3.14-1.29 4.35.96 2.02 2.11 3.95 3.16 5.92.09.31.05.76-.43.86-6.47 2.64-12.7 5.79-19.02 8.66-1.1-.22-1.72-1.26-2.3-2.06-1.1.27-1.96 1.21-3.07 1.3-2.59-2.56-2.35-6.91-.81-9.88 1.24-2.29 3.74-4.13 6.46-4.31-.67-1.12-1.53-2.64-.81-4.08-2.4-2.51-6.04-2.78-9.25-3.81-2.01-.63-4.21-2.13-4.31-4.4.05-.85.28-1.72.85-2.36-.24-1.21-1.76-1.9-2.91-2.4-.86-.09-1.77-.4-2.68-.18-.63.94-1.77 1.08-2.83.94-.86-.22-1.63-.67-2.25-1.31-.53.77-1.39.99-2.3.95-.91-.54-1.67.18-2.58.23-1.82.35-3.35-.59-4.41-1.84-.53-.9-1.06-1.93-.72-3-.77-.86-1.2-1.93-.96-3.1.05-.45.24-.81.62-1.17-.19-.54-.22-1.26.32-1.84.53-.39-.38-.89-1.06-1.98-.82-1.52-1.36-3.86-.16-5.34.76-.93 2.39-1.31 3.64-.95.91.23 1.53.99 2.35 1.3-.62-2.52-.09-5.25 2.01-6.96 3.15-2.62 6.57-.54 6.75-.58 2.11-2.02 4.12-4.08 6.85-5.03C26.13.2 30.82-.34 35.28.33c3.11.5 6.13 1.35 8.82 2.92 2.15 1.08 3.63 3.18 5.79 4.27l1.34.26c.33-2.65 2.06-5.25 4.69-6.51 2.83-1.62 7.14-1.84 9.87.14 1.2.81 2.4 1.71 3.12 2.92z"/><path d="M7.48 24.55a3.48 3.48 0 01-.59-.28c-.27-.16-.59-.13-.18.24.19.18.45.31.76.44-.02-.13-.01-.27 0-.4z" fill="none"/><path class="cls-4" d="M10.47 25.41c-1.03.65-2 .5-2.38-.3-.32-.66.21-1.37 1.26-2 1.05-.62 1.53-.6 2-.05.21.25.34.45.44.7.21.47.16 1.04.16 1.04-.06.53-.28.85-.34.98-.42 1.17-.39 2.43-.3 3.11-.13.45-1.42 1.6-2.08 1.32.27-.53-.12-1.49-1.17-1.64.18-.18.36-.62.37-.91.44-.32 1.17-.65 1.15-1.53 0 0 .33.01 1-.41.67-.43.33-.59-.12-.31z"/><path class="cls-4" d="M7.57 25.26c-.05-.1-.08-.21-.1-.32-.31-.13-.57-.26-.76-.44-.41-.37-.1-.4.18-.24.2.12.4.21.59.28.12-.61.71-1.23 1.59-1.76.42-.25.79-.4 1.11-.47-.73-.94-.98-1.56-1.4-2.36-.41-.77-1.71-2.63-2.74-3.65-.46-.46-.85-.68-1.16-.85-.55-.31-1.51-.2-2.06.4-.45.49-.61 1.32-.27 2.33.4 1.19 2.32 3.91 4.24 4.63.6.23.17.34-.29.24-.76-.18-1.64-.82-2.07-1.19-.75.22-1.01 1.48-.73 2.45.29.96 2.07 3.16 4.33 2.91.58-.06 1.06-.62 1.1-1.11-.21-.02-.41-.06-.59-.12-.36-.12-.81-.39-.98-.73z"/><path class="cls-4" d="M7.81 27.88c-2.33-.13-3.72-1.77-4.37-2.95-.58.22-.9 2.01.68 3.16 2.18 1.59 3.64.59 3.69-.22z"/><path class="cls-4" d="M7.75 29.1c-1.15.84-3.12.13-3.86-.56 0 1.26.69 1.81 1.87 2.09 1.18.29 2.34.04 2.81-.27.75-.48-.3-1.4-.83-1.27z"/><path class="cls-5" d="M72.31 23.95c1.34 2.47 1.29 5.97-.48 8.26-2.59 3.18-6.75 5.25-11.16 4.22-.82-.31-2.01-.63-2.25-1.53.34-1.21.24-2.69-.67-3.59-.19-1.35-1.34-2.57-2.68-3.05-.43-.14-.91-.4-1.39-.18-.39-.18-.53-.67-.96-.9-1.15-1.03-2.69-1.26-4.17-1.52-.29.09-.48.05-.82.05.1-.67.82-1.26 1.49-1.61 1.82.94 4.12.36 5.75-.63 1.38-1.17 2.06-2.65 2.3-4.31 3.26-1.8 8.38-1.44 11.35.81 1.54 1.08 2.73 2.51 3.69 3.99z"/><path class="cls-7" d="M47.45 24.71c-.43.76-.05 4.63-2.88 8.72-1.24 1.55-4.93 2.59-5.93 2.95-3.78.76-10.74.96-12.3-2.09-1.78-2.35-4.8-4.87-8.77-4.91-.33-.59 0-1.3.43-1.8 4.6 1.88 9.87 2.78 15.18 2.2 2.97-.62 6.23-.94 8.96-2.25 1.86-.72 3.64-1.7 5.31-2.83z"/><path class="cls-5" d="M16.98 27.09c-.29.72-.63 1.7-.29 2.56-.58.63-1.44.9-2.35.63-.72-.14-1.44-.58-1.82-1.21-.53-1.12-.19-2.6.19-3.68l.52-.45c1.25.85 2.49 1.48 3.74 2.16zm40.05 3.73c.72 1.75.14 3.81-1.15 5.16-.86.9-2.11.9-3.26.67-.58-.18-1.11-.58-1.44-1.08.1-.31.58-.22.72-.45 1.92-1.17 2.4-3.32 2.16-5.34l-.24-1.12c1.34-.14 2.78.94 3.21 2.15z"/><path class="cls-7" d="M57.22 36.25c-.55.86-1.44 1.17-2.35.94 2-.51 2.92-2.83 3.02-4.66.43 1.3.1 2.69-.67 3.72z"/><path d="M41.74 45.63c-.72.72-2.42.86-2.86.45-.36-.44-.61-.88-1.11-1.37-1.26-1.19-1.73-1.82-2.88-2.58.72-.13 1.72-.54 2.44-.09 1.1.85 4.16 2.87 4.4 3.59z" fill="url(#_コバサンタの服_2)"/><path d="M48.72 44.39c-.14 1.17-1 1.78-2.26 2.41-.91.38-1.99.44-2.99.17-1.36-2.5-3.98-4.39-5.8-5.34 2.09-.28 7.27-2.37 8.28-3.18 0 0 1.16 2.4 2 4.22l.76 1.72z" fill="url(#_コバサンタの服_2-2)"/><path class="cls-5" d="M49.68 43.38c.63.22.99.63 1.08 1.12.14 1.08-.1 2.16-.96 2.92-1.39 1.3-3.11 2.02-5.07 1.93-1.23-.15-2.82-.43-2.94-1.68-.05-.54.31-1.11.78-1.37.26.06.42.32.42.5-.01.14-.2.4.31.6 1.87.27 3.37.19 5.06-1.28.76-.82.94-1.82.91-2.06-.03-.22-.54-.22-.59-.31-.03-.04-.15-.3-.15-.37 0-.1.68-.19 1.15 0zM38.14 45.5c-.19.22.11.62.21.8.35.56 1.32.59 2.5.38l.84-.27c-.56.49-.52 1.2-.32 1.59-.72.36-2.1.61-3.07.31-.91-.32-1.27-.73-1.34-1.49-.04-.45.14-1.06.52-1.38.22-.2.66-.27.66.05z"/><path class="cls-9" d="M42.04 49.35c.38.27 1.1.4 1.15.99-1.15-.18-2.35-.63-3.59-.4-.24-.23-.33-.59-.48-.94.72 0 1.58.04 2.3-.19l.63.54zm9.77 4.45c-5.46 2.24-10.78 4.85-16.14 7.31-1.39-1.75-1.96-4.58-.67-6.51 1.58-2.19 4.45-3.05 7.18-2.55.82.45 1.78.49 2.49 1.21.58.05 1.06-.18 1.29-.67.58-.94-.39-1.8-.71-2.65 1.39-.05 2.58-.45 3.68-1.08 1.1 1.57 2.01 3.23 2.88 4.94z"/><path d="M39.07 56.7c1.55-.46 2.56-1.7 2.24-2.77-.32-1.07-1.83-1.57-3.39-1.11-1.55.46-2.56 1.7-2.24 2.77.31 1.07 1.83 1.57 3.38 1.11z" fill="url(#_コバサンタの靴_6)"/><path class="cls-9" d="M36.43 50.87c-2.4.81-4.27 3.32-4.31 5.84-.05 1.03.05 1.98.43 2.87l-1.19.67c-.67-1.08-.86-2.69-.67-3.99.1-2.56 2.73-4.49 5.08-5.25.24 0 .43-.14.67-.14z"/><path class="cls-8" d="M60.27 52.73c0 .2-.16.36-.46.36h-.86v-.59c0-.07.03-.09.09-.09h.72c.33 0 .5.13.5.32zm.36 1.46c-.19-.27-.21-.56-.31-.75a.39.39 0 00-.15-.16c.25-.06.41-.27.41-.55 0-.42-.3-.62-.84-.62h-.8c-.21 0-.32.11-.32.32v1.86c0 .2.32.2.32 0v-.9h.82c.12 0 .21.06.25.14.1.19.13.53.32.82.13.21.41 0 .29-.16z"/><path d="M59.59 55.06a1.73 1.73 0 000-3.46c-.95 0-1.73.78-1.73 1.73s.78 1.73 1.73 1.73z" stroke="#000" stroke-width=".23" fill="none"/><path class="cls-7" d="M43.89 6.04c2.1 1.42 3.87 3.6 6.45 4.09 2.2.45 4.5.36 6.46-.52.53-.31 1.1-.98 1.82-.54.14.22.1.45.05.67-1.34 1.02-3.11 1.9-3.64 3.5-1.15-1.07-2.87-1.47-4.4-.85l-.62.22c-3.3-3.55-7.04-6.26-11.71-7.6-10.93-2.5-17.42 1.54-21.06 3.44 3.55-3.72 8.33-5.41 13.45-5.89 4.88-.08 9.42.94 13.2 3.47z"/><path class="cls-5" d="M66.19 6.14c.52 1.56 1.14 3.55.28 5.1-.39 1.42-1.53 2.75-3.02 3.29-2.54.93-5.74.62-7.65-1.3-.29-.45.19-.85.53-1.15.82-1.38 3.49-1.42 2.78-3.28-.62-.62-1.53-.53-2.2-.09-.57.49-1.34.58-2.01.8-.1-.09-.29.04-.34-.13-.38-2.09.72-4.08 2.49-5.32 2.15-1.28 5.36-1.46 7.46 0 .91.44 1.1 1.42 1.68 2.09zm-24.17.87c2.73 1.51 5.45 3.33 7.22 5.95-1.25.84-2.11 2.13-2.59 3.42-3.92-4.45-8.61-7.6-14.98-8.67-5.55-.67-11.51 1.14-14.97 3.53-1.16.93-1.77 1.64-2.45 2.62-.19-.13-.54-.63-.68-.8C15.43 9.3 19.23 8 20.2 7.48c2.54-1.24 5.93-2.35 7.75-2.52 5.74-.79 11.53.54 14.07 2.06z"/><path class="cls-4" d="M14.84 10.13c-.72.8-1.34 1.73-1.82 2.67-1.29-.36-2.34.35-3.21 1.11-.76-.67-.23-1.91.05-2.67.58-1.2 1.92-1.99 3.21-2.13.77 0 1.29.58 1.77 1.02z"/><path class="cls-5" d="M24.21 17.47c.24.69.19 1.41-.23 1.55-.42.14-.95-.3-1.2-1-.24-.69-.09-1.5.33-1.64.48-.16.86.4 1.1 1.09z"/><path class="cls-4" d="M55.8 15.11c-.82-1.16-2.06-2.49-3.64-2.5-1.53.14-2.92.67-3.88 1.91-.53.8-1.25 1.55-1.1 2.48-.18.19-.46.12-.6 0-.08-.07-3.88-4.47-7.05-5.79 1.29 1.69 2.05 3.65 1.96 5.86l-.14.18c-.14 0-.29-.05-.39-.13.24-2.44-.66-4.75-2.53-6.45-1.39-.98-3.88-1.92-6.16-2.35.03.01.06.02.09.04 4.55 2.12 3.82 8.95 3.65 10.18-.17 1.23-1.17 3.34-3.33 2.26s-1.49-5.36 0-6.03c1.49-.67 2.07.07 2.07.07-.02-5.33-2.89-6.27-3.42-6.29-2.22-.24-4.31 2.09-4.62 5.7-.3 3.61 2.09 6.42 2.35 6.82.26.4-.04.32-.04.32s-1.43-1.14-2.41-3.89c-.27-.76-.49-3.08-.27-4.11.86-4.13 3.17-5.1 3.93-5.31h-.02c-.62-.13-1.72-.09-2.15-.05-.98.42-2.11 1.6-1.96 2.75-.14.18-.44.25-.58.05-.11-1.25.51-2.01 1.2-2.57-1.44.09-2.87.35-4.12.88.67.28 1.68.96 1.54 1.27-.25.47-.88-.42-1.63-.78-.52-.36-1.13-.17-1.77.18 1.7-.24 2.89 1.05 3.78 3.05.88 2 .86 6.06.86 6.06.73-.13 1.61 1.24 1.52 1.91-.11.86-.23.52-.57-.42-.35-.94-.85-1.09-1.24-.94-.39.14-.46.41-.49.8.02 1.19.56 1.71.76 1.85.2.14.29.33.11.47-.19.14-.28.06-.28.06-1.14-.98-1-1.82-1-1.82-1.25.52-4.01-1.71-3.44-4.29.7-3.19 3.07-2.52 3.07-2.52s-.33-1.64-1.08-2.83c-.75-1.18-2.22-1.04-2.93-.63-2.03 1.23-2.25 3.47-2.39 5.03-.23 3.5 1.79 5.99 1.92 6.12.13.13.84.43.4.67-.43.24-1.5-.99-2.15-2.84-.65-1.85-.82-3.91-.32-5.98.31-1.27.9-2.3 1.71-2.97-.68.3-1.27.68-1.91 1.06 0 0-.43.39-.71.9-.29.52-.53 1.14-.63 2.03-.06.53 0 1.4-.11 1.43-.59.11-.27-2.46.11-3.16-.62.53-.84 1.1-1.49 1.73l-1.05-.93c-.67-.22-1.43-.09-2.01.22-.76.4-1.43 1.16-1.67 1.95-.87 3.64 1.38 6.85 4.63 8.89 5.16 3.33 11.33 4.71 17.94 4.37 5.79-.53 11.19-2.07 15.65-5.76.24-.35-.38-.62-.53-.93-.05-.31-.48-.76.05-.98l.24.22c.67 1.42 2.25 2.22 3.92 2.27 1.77-.09 3.64-.75 4.31-2.44 1.19-1.83 1.15-4.54.05-6.4z"/><path class="cls-5" d="M34.76 18.16c-.08.67-.53 1.18-1 1.12-.48-.05-.8-.64-.72-1.32.08-.68.53-1.18 1.01-1.12.47.05.8.64.72 1.32z"/><path d="M12.02 18.58c1.17 0 2.11-.93 2.11-2.09s-.94-2.09-2.11-2.09-2.12.93-2.12 2.09.94 2.1 2.11 2.1z" fill="url(#_コバサンタの肌_7)"/><path d="M14.74 19.15c1.67 3.82 6.03 5.51 9.99 6.09 5.03.36 10.25-.3 14.17-2.92 1.72-1.02 3.35-2.58 4.36-4.22.34-.17.67-.4 1.1-.31.34.27.24.75.14 1.07-1.15 1.43-2.87 2.54-4.36 3.64-5.08 3.37-11.68 4.16-17.95 2.74-3.49-1.07-7.75-3.74-8.17-7.52l.14-.22c.53.36.3 1.06.57 1.65zm38.74-4.73c-.14.33-.64.23-.98.32-.39.11-.68.32-.68.32.13.06.49.23.68.41 1.06.81 1.9 2.47 1.46 3.99-.05.27-.29.64-.63.64-.39-.37.19-.66.19-1.15.2-1.28-.75-2.86-1.56-3.25-.21-.12-.55-.42-1.03 0-.83.78-1.27 1.69-1.12 2.84 0 .55.29 1.01.58 1.47-.19.14-.53.04-.68-.14-.63-.97-.68-2.47 0-3.43 1.25-2.07 3.44-2.17 3.61-2.15.18.03.15.14.15.14z"/><path d="M46.95 21.96c1.23 0 2.23-.99 2.24-2.22 0-1.22-1-2.21-2.23-2.21s-2.23.99-2.23 2.21 1 2.22 2.23 2.22z" fill="url(#_コバサンタの肌_7-2)"/><path class="cls-5" d="M24.23 20.83s-1.02 1.5-4.34 1.39c0 0 .01-.04-.06-.12a.841.841 0 00-.21-.18c-.07-.04-.18-.11-.25-.17 0 0-.38-.38-.68-.91-.31-.54-.66-1.22-.9-2.11 0 0-.32-1.04-.38-2.06-.07-1.03.15-2.34.21-2.61s.34-1.62 1.01-2.42c.67-.8 1.43-1.38 2.38-1.37.95.02 1.43.5 1.64.75.2.25.57.99.75 1.45.19.46.47 1.6.47 1.6s-.22-.05-.42-.05c-.2 0-.6-.04-1.2.26s-1 .97-1.13 1.28c-.13.31-.45 1.1-.38 1.93.07.84.27 1.18.62 1.76.34.58 1.04 1.2 1.74 1.49.15.06.72.3 1.14.09zm9.84.27s-1.12.58-2.69.5c-1.58-.08-2.08-.29-2.36-.5-.2-.27-.73-1-.99-1.46-.26-.46-.87-1.74-1.08-2.57-.21-.84-.31-1.63-.3-2.23.02-.6.12-1.65.35-2.42.23-.76.66-1.64.82-1.86.16-.22.73-1.09 1.36-1.46.64-.36.95-.5 1.51-.58.29-.01 1.02-.09 1.83.51s1.14 1.21 1.46 1.8c.33.59.49 1.41.57 1.74.08.33.25 1.9.19 2.31 0 0-.34-.44-1.09-.35-.75.09-.97.27-1.08.32-.11.06-.42.25-.75.85-.32.6-.38 1.02-.4 1.11-.02.1-.15.61-.12 1.48.03.86.45 1.62.55 1.77 0 0 .3.48.84.74.54.25.9.31 1.37.29z"/><path d="M7.72 22.22c.45-.35-.19-1.89-1.41-3.45-1.22-1.55-2.58-2.53-3.02-2.18-.45.35.18 1.9 1.4 3.45 1.22 1.55 2.58 2.53 3.02 2.18z" fill="url(#_コバサンタの肌_7-3)"/><path d="M8.31 26.94c.21-.3-.79-.8-1.85-1.52s-2.09-1.06-2.29-.75c-.21.3.48 1.13 1.54 1.85 1.06.72 2.39.73 2.6.42z" fill="url(#_コバサンタの肌_7-4)"/><path d="M7.48 28.45c.11-.24-.75-.18-1.58-.56-.83-.37-1.59-.48-1.7-.25-.11.24.48.74 1.31 1.11.83.37 1.86-.07 1.97-.3z" fill="url(#_コバサンタの肌_7-5)"/><path class="cls-5" d="M25.7 34.38s.59 2.88 6.77 3.26c3.37-.12 9.35-.32 12.78-3.95l4.39.16s-4.72 4.72-11.75 6.33c-4.65 1.03-9.73.62-12.66-1.76-2.67-3.03.48-4.04.48-4.04z"/><path d="M37.13 32.95c.05 1.47-1.91 2.74-4.38 2.82-2.47.09-4.51-1.04-4.57-2.51-.05-1.47 1.91-2.74 4.39-2.82 2.47-.09 4.51 1.04 4.57 2.51z"/><path d="M36.19 32.98c.04 1.09-1.52 2.04-3.47 2.1-1.96.07-3.57-.76-3.61-1.85-.04-1.09 1.52-2.03 3.48-2.1 1.96-.07 3.58.76 3.61 1.85z" fill="#fff000"/><path class="cls-5" d="M34.67 33.64c.53-.02.95-.36.94-.76-.01-.4-.46-.71-.99-.69-.53.02-.95.36-.94.76.01.4.46.71.99.69z"/><path class="cls-8" d="M51.61 38.66s-1.93.48-1.91-3.02c3.92-.34 4.62-4.5 3.92-6.93-.76-2.05-2.91-4.35-5.7-4.26-2.79.09-3.01 1.14-2.71 2.03-1.25.22-2.17 2.13-1.37 3.21-1.01 1.04-.15 2.59.23 2.81-.25.42.38 1.2.77 1.49-.94.93-3.79 4.36-2.21 10.32.62 2.23 1.77 1.33 2.35 1.14.58-.19 2.29-.87 3.61-1.96 1.32-1.09 2.67-.67 3.33-.7.65-.03 2.12-.73 2.48-2.23.36-1.51-1.44-1.84-2.77-1.88z"/><path class="cls-5" d="M46.73 33.71c.49.11.91.53.97 1.47-.31 1.37-.1 2.98 1.2 3.89 1.01.52 2.02 1.22 3.19 1.39-.38.83-1.33 1.17-2.22 1.21-1.46-.25-3.02-1.41-4.58-.77-1.15.49-1.31 1.77-1.83 2.58-.69-2.95-.54-6.41 1.46-8.78l.63-.6c.18-.22.76-.49 1.19-.38z"/><path class="cls-4" d="M53.36 29.48c-.07-.65-.37-.97-1.02-1.79-1.17-1.49-2.42-2.17-3.69-2.33-1.79-.24-2.15.02-2.53 1.02.6-.02 1.44 0 2.35.4.39.26.19.4-.03.49-.42-.26-4.34-1.44-3.93 1.64 1.39-.94 2.63-.65 3.92.24.08.12-.04.2-.06.3-.45.16-.82-.3-1.19-.37-2.2-.71-3.74 1.06-2.65 2 .8-.53 1.51-.46 2.35-.26.26.16.78.13.87.56-.35.45-.7.06-1.07-.06-.37-.13-1.08-.15-1.6.11-.51.26-.69 1.58.39 1.95.06-.08.47-.11.63-.21-.42-.08-.62-.24-.44-.29.44-.12.72-.47 1.59.08.23.84 1.69 1.57 2.24 1.78 2.53.36 4.35-1.94 3.86-5.27z"/><path class="cls-5" d="M87.37 25.08l-1.26 3.88h17.42l1.19-3.88H87.37zm38.94 3.88l1.26-3.88h-17.45l-1.2 3.88h17.39z"/><path class="cls-5" d="M108.92 28.96l1.2-3.88.6-1.93h-5.4l-.6 1.93-1.19 3.88-.52 1.68h5.4l.51-1.68zm-4.75 15.42h-5.4l-.52 1.69h5.39l.53-1.69zm-7.95 8.26h5.4l.82-2.69h-5.39l-.83 2.69zm2.03-6.57H80.8l-1.26 3.88h40.79l1.26-3.88H98.25zm22.67-1.69l4.46-13.74H86.44l-4.47 13.74h38.94zm-4.46-3.79h-11.04l.41-1.34h11.04l-.42 1.34zm1.44-4.72h-11.05l.42-1.35h11.04l-.41 1.35zm-27.15-1.35h11.04l-.41 1.35H90.33l.42-1.35zm-1.43 4.72h11.04l-.43 1.34H88.89l.42-1.34zm50.23 2.02l1.43-5.22s-1.1-.34-1.52-3.62h2.7l1.43-4.47h-3.46l1.35-4.73h-5.06l-1.52 4.8h-5.14l-1.27 4.39h3.8s0 2.19-6.24 6.99l-1.77 6.49s1.69-.25 6.15-3.46l-3.2 10.11h4.88l4.56-14.24s1.01 1.93 2.87 2.95zm34.97-13.23s-7.16-1.93-12.21-4.88h-4.21s-6.75 4.04-13.08 4.8l-1.43 4.04h1.02l-.59 2.44h10.87l-.59 1.36h-11.21l-2.79 9.35h8.18s-2.36 2.61-10.03 3.54l-1.18 4.05s10.7.93 16.69-5.82c0 0 3.63 6.41 12.39 5.82l1.43-4.55s-7.67 1.1-9.69-3.19h10.53l2.62-9.02h-10.88l.68-1.6h9.69l.59-2.88s.09.26.93.34l2.27-3.8zm-22.93 13.24h-4.72l.67-2.02h5.31l-1.27 2.02zm13.06-2.02l-.67 2.02h-5.9l1.26-2.02h5.31zm-11.22-8.84c4.81-2.28 6.5-3.37 6.5-3.37 2.95 2.1 6.41 3.37 6.41 3.37h-12.91zm42.75-3.22s-8.94-1.09-16.35 5.15c0 0-8.43 6.24-8.26 14.16 0 0 .34 6.58 6.9 4.72 0 0 9.56-1.64 16.37-19.58.28.06.55.1.83.19 0 0 10.12 1.6 1.01 12.14 0 0-4.72 4.05-8.77 4.65l-1.09 4.3s11.55-.68 17.03-10.37c0 0 6.66-13.48-7.67-15.34zM178.9 45.74s-5.31 1.01-.25-6.07c0 0 5.01-5.66 10.76-7.61-1.33 3.45-4.38 9.5-10.51 13.68zm38.02-30.35l-3.29 10.95h44.26L253 41.17h-44.43l-3.88 10.8h56.48l12.31-36.66-56.56.08zm75.61 6.32l-13.58 16.27c-2.94 3.71-5.9 3.37-5.9 3.37h-4.72l-4.05 11.38h10.62c9.27-1.17 14-8.6 14-8.6l11.46-14.41c3.63-4.97 9.03-4.04 9.03-4.04l4.21-11.31h-7.67c-7.93.09-13.4 7.34-13.4 7.34zm32.2-7.34h-6.23l-2.88 8.61h6.24l2.87-8.61zm2.95 0l-2.87 8.61h6.24l2.86-8.61h-6.23zm-13.41 11.38l4.23 26.89h11.53l-4.21-26.89h-11.55zm38.74.04h-11.12l-3.72 11.3h11.13l3.71-11.3zm14.92 0H356.8l-3.71 11.3h11.13l3.71-11.3z"/><path class="cls-5" d="M386.3 25.92h-10.42c-3.62 16.44-18.07 16.06-18.07 16.06h-21.33l-3.45 10.62h25.11c13.84-.4 21.33-8.88 25.23-16.16h-.72l3.64-10.52z"/><path class="cls-5" d="M400.16 14.46c-1.77 11.29-9.81 11.42-9.81 11.42l-4.02-.03-.02.07-3.64 10.52h.72l8.4.06c12.35-1.38 15.55-10.75 15.55-10.75h27.05c-4.3 16.77-23.68 16.18-23.68 16.18h-20.15l-3.71 10.54h25.12c15.93-.17 23.43-8.18 23.43-8.18 5.23-4.46 8.34-11.96 8.34-11.96l6.07-17.87h-49.65zm48.09 33.21v2.86c0 .31-.25.46-.49.46s-.5-.16-.5-.46v-5.88c0-.67.33-1 1-1h2.51c1.68 0 2.63.65 2.63 1.97 0 .89-.52 1.55-1.3 1.73.21.08.36.28.47.5.31.61.36 1.5.97 2.36.06.09.09.19.09.27 0 .28-.27.52-.55.52-.17 0-.33-.08-.46-.28-.6-.93-.7-1.99-1.01-2.6-.14-.26-.4-.45-.8-.45h-2.57zm.29-3.09c-.21 0-.29.08-.29.3v1.86h2.72c.93 0 1.44-.51 1.44-1.14s-.54-1.02-1.59-1.02h-2.28z"/><path d="M449.99 52.56c2.8 0 5.07-2.26 5.07-5.07s-2.27-5.07-5.07-5.07-5.07 2.27-5.07 5.07 2.26 5.07 5.07 5.07z" stroke="#fff" stroke-width=".72" fill="none"/></g></svg>