<?xml version="1.0" encoding="UTF-8"?><svg id="_レイヤー_2" xmlns="http://www.w3.org/2000/svg" xmlns:xlink="http://www.w3.org/1999/xlink" viewBox="0 0 664.37 657.02"><defs><style>.cls-1{fill:#fff;}.cls-2{fill:#721519;}.cls-3{fill:none;stroke:red;stroke-miterlimit:10;stroke-width:4px;}.cls-4{fill:url(#_コバサンタの肌_7-2);}.cls-5{fill:#e50012;}.cls-6{fill:url(#_コバサンタの靴_6);}.cls-7{fill:#87020a;}.cls-8{fill:#fff000;}.cls-9{fill:url(#_新規グラデーションスウォッチ_25);}.cls-10{fill:#f5aa00;}.cls-11{fill:#009fe8;}.cls-12{fill:url(#_新規グラデーションスウォッチ_25-2);}.cls-13{fill:url(#_コバサンタの靴_6-2);}.cls-14{fill:#036eb7;}.cls-15{fill:#fce6c5;}.cls-16{fill:#231815;}.cls-17{fill:#fbd9b2;}.cls-18{fill:url(#_コバサンタの肌_7);}.cls-19{fill:red;}</style><radialGradient id="_新規グラデーションスウォッチ_25" cx="-7372.51" cy="-9957.88" fx="-7372.51" fy="-9957.88" r="16.02" gradientTransform="translate(3397.51 4834.89) scale(.44)" gradientUnits="userSpaceOnUse"><stop offset="0" stop-color="#fff"/><stop offset="1" stop-color="#fce6c5"/></radialGradient><radialGradient id="_新規グラデーションスウォッチ_25-2" cx="242.21" cy="422.23" fx="242.21" fy="422.23" r="9.05" gradientTransform="translate(15.9 33.15)" xlink:href="#_新規グラデーションスウォッチ_25"/><radialGradient id="_コバサンタの靴_6" cx="5119.98" cy="-346.93" fx="5119.98" fy="-346.93" r="11.88" gradientTransform="translate(5481.67 1960.39) rotate(-167.5) scale(1.01 -.7)" gradientUnits="userSpaceOnUse"><stop offset="0" stop-color="#dcc5b9"/><stop offset="1" stop-color="#721519"/></radialGradient><radialGradient id="_コバサンタの靴_6-2" cx="3129.74" cy="-1217.42" fx="3129.74" fy="-1217.42" r="11.88" gradientTransform="translate(-2312.49 2497.4) rotate(-20.39) scale(1.01 .7)" xlink:href="#_コバサンタの靴_6"/><radialGradient id="_コバサンタの肌_7" cx="1898.8" cy="2998.31" fx="1898.8" fy="2998.31" r="4.51" gradientTransform="translate(-3875.11 -5359.03) rotate(-3.94) scale(2 2.03)" gradientUnits="userSpaceOnUse"><stop offset="0" stop-color="#fff"/><stop offset="1" stop-color="#fbd9b2"/></radialGradient><radialGradient id="_コバサンタの肌_7-2" cx="1988.85" cy="2867.01" fx="1988.85" fy="2867.01" r="4.1" gradientTransform="translate(-3836.87 -4805.24) rotate(-3.94) scale(2 1.93)" xlink:href="#_コバサンタの肌_7"/></defs><g id="_内容_共通_"><path d="m105.79,118.28v-4.58h-13.02v-3.52h13.02v-1.76h-10.5v-12.99h10.5v-1.66h-12.64v-3.46h12.64v-2.21h3.97v2.21h12.64v3.46h-12.64v1.66h10.62v12.99h-10.62v1.76h13.02v3.52h-13.02v4.58h-3.97Zm-6.59-19.84v2.14h6.59v-2.14h-6.59Zm0,4.64v2.24h6.59v-2.24h-6.59Zm10.56-4.64v2.14h6.72v-2.14h-6.72Zm0,4.64v2.24h6.72v-2.24h-6.72Z"/><path d="m150.87,97.8h-4v2.18h6.98v9.6h-5.82c.51,1.15,1.5,3.2,7.33,5.09l-1.66,3.65c-6.11-2.11-8.03-5.7-8.61-6.75-2.72,4.99-7.26,6.4-8.67,6.85l-1.95-3.52c3.55-1.18,6.34-2.62,7.65-5.31h-5.89v-5.18l-1.73,3.49c-1.22-1.57-1.54-2.21-2.14-3.46v13.82h-3.71v-12.54c-1.28,3.9-2.24,5.31-3.14,6.59l-1.44-5.12c1.73-2.43,3.2-4.99,4.35-9.73h-3.78v-3.71h4v-5.63h3.71v5.63h2.43v.99c4.7-2.3,6.59-4.54,8.09-6.62h4.48c2.62,3.46,4.45,4.8,8.22,6.72l-1.89,3.46c-.8-.45-1.6-.9-2.82-1.76v1.28Zm-11.39-1.31c-1.47,1.12-2.34,1.54-3.14,1.92l-1.57-3.3v2.34h-2.43v1.44c1.79,3.07,3.17,4.42,3.87,5.12v-4.03h6.94v-2.18h-3.68v-1.31Zm3.49,9.89c.16-1.09.19-1.95.19-3.2h-3.42v3.2h3.23Zm5.47-11.81c-1.7-1.5-2.59-2.62-3.3-3.55-.8.99-1.76,2.11-3.36,3.55h6.66Zm1.86,11.81v-3.2h-3.42c0,1.44-.03,2.08-.16,3.2h3.58Z"/><path d="m165.24,90.79c-.54,2.4-1.86,7.9-1.86,14.75,0,5.12.77,8.64,1.15,10.27l-4.22.51c-.83-3.49-1.09-7.1-1.09-10.69,0-6.98,1.09-12.45,1.63-15.33l4.38.48Zm19.58,23.45c-1.54.22-4.13.58-7.26.58-4.7,0-9.86-.67-9.86-5.7,0-1.63.54-2.98,1.41-4.38l3.58.7c-1.02,1.47-1.12,2.43-1.12,2.91,0,1.66,1.54,2.27,5.79,2.27,3.2,0,5.66-.42,7.55-.77l-.1,4.38Zm-15.81-21.21c1.79-.19,4.96-.54,9.09-.54,2.72,0,4.32.13,5.5.22l-.1,4.19c-.8-.06-2.72-.26-5.6-.26-4.19,0-7.39.45-8.96.64l.06-4.26Z"/><path d="m189.76,89.09h12.67v11.07h-8.9v18.08h-3.78v-29.15Zm3.78,2.72v1.76h5.25v-1.76h-5.25Zm0,3.97v1.76h5.25v-1.76h-5.25Zm16.16,20.99c-3.78-1.76-5.47-4.77-5.82-5.38-.45.83-2.27,4.19-7.26,6.05l-2.05-3.14c1.15-.32,3.52-1.06,5.63-3.46h-4.99v-2.82h6.43c.22-.83.22-1.31.22-1.92h-6.02v-2.78h2.69c-.13-.19-.83-1.7-1.06-2.08l3.65-.58c.38.8.8,1.92.99,2.66h3.3c.32-.83.64-2.02.8-2.66l3.78.38c-.22.83-.86,2.05-.96,2.27h2.91v2.78h-6.56c-.06.7-.1,1.18-.26,1.92h7.23v2.82h-5.28c1.92,1.86,3.39,2.43,4.51,2.88l-.45.74h1.92c.9,0,.96-.26.96-1.06v-13.25h-8.93v-11.07h12.7v25.76c0,2.27-.26,3.39-3.2,3.39h-3.14l-.83-2.94-.93,1.47Zm-.93-24.96v1.76h5.25v-1.76h-5.25Zm0,3.97v1.76h5.25v-1.76h-5.25Z"/><path d="m223.39,103.49c-.83,1.09-1.18,1.5-1.86,2.18l-1.41-5.22c2.11-2.59,4.03-5.63,5.25-12.51l3.97.51c-.26,1.47-.67,4.1-2.05,7.71v22.05h-3.9v-14.72Zm12.77,6.02c-1.12,2.94-2.88,5.63-5.34,7.97l-2.88-2.75c2.02-1.73,3.68-3.9,4.77-6.43l3.46,1.22Zm-7.65-6.05c.13,0,6.27.03,6.82.03.13-.1.22-.19.99-.93-1.44-1.44-3.68-3.33-6.43-5.38l2.24-2.78c.58.38,1.09.7,1.86,1.28.74-.86,1.31-1.63,2.21-2.88-3.42.16-4.9.16-5.89.16l-.51-3.46c4.38,0,13.34-.22,18.91-1.54l1.28,3.3c-1.25.26-3.97.83-9.12,1.25-1.02,1.7-3.01,4.32-4.1,5.5,1.06.96,1.6,1.5,2.05,1.92,1.76-1.95,3.23-3.62,5.66-7.04l3.46,1.76c-2.27,3.14-4.9,6.02-7.68,8.7l5.6-.26c-.51-1.12-.77-1.66-1.25-2.56l3.23-1.34c1.6,2.66,2.43,4.42,3.46,7.62l-3.58,1.38c-.19-.67-.35-1.18-.58-1.89-1.41.16-3.23.35-5.63.51v11.42h-3.97v-11.26c-1.25.03-7.36.22-8.74.22l-.29-3.74Zm17.7,4.74c1.09,2.21,2.3,4,4.9,6.66l-2.78,2.78c-1.95-1.95-4.29-5.09-5.38-8.16l3.26-1.28Z"/><path d="m266.49,89.77c-.19.58-.86,2.53-1.28,3.78,1.73-.19,2.53-.29,4.19-.61l-.22,4.16c-2.3.38-4.83.58-5.44.64-2.78,7.68-5.02,12.42-5.95,14.33l-4.1-1.76c2.11-3.97,4-8.1,5.54-12.32-1.41.06-2.18.06-4.32.06l-.16-4.26c2.72.16,3.39.13,5.89.1.64-1.86.93-2.94,1.47-4.96l4.38.83Zm13.12,24.67c-.86-.61-2.69-1.92-4.48-2.78-.13,2.88-1.57,5.34-6.43,5.34-4.19,0-7.29-2.14-7.29-5.57,0-3.01,2.56-5.57,6.88-5.57,1.09,0,1.98.16,2.56.26-.19-2.98-.22-4.42-.26-6.5l4.1.1c0,1.6.03,2.18.32,7.42,1.18.45,3.2,1.25,6.62,3.58l-2.02,3.71Zm-11.71-4.93c-1.57,0-2.75.7-2.75,1.86,0,1.31,1.44,1.98,3.2,1.98,2.75,0,2.75-1.54,2.75-2.18,0-.19-.03-.32-.06-1.25-.93-.26-2.24-.42-3.14-.42Zm4.67-16.89c1.89.7,4.96,1.89,8.93,4.13l-1.79,3.78c-2.82-1.82-5.7-3.39-8.93-4.42l1.79-3.49Z"/><path d="m310.01,92.36c-4.51,3.14-10.27,6.56-15.04,9.41-1.7.99-1.7,1.02-1.7,1.34,0,.35.13.42,1.34,1.02,8.7,4.42,12.22,6.78,16.22,9.79l-3.07,3.55c-6.69-5.18-10.88-7.42-16.29-10.3-1.92-1.02-3.33-2.05-3.33-3.94,0-2.14,1.66-3.2,2.94-3.97,5.89-3.58,9.95-6.02,15.74-10.4l3.17,3.49Z"/><path d="m325.56,89.09h4.16v4.96c2.46-.32,3.49-.45,5.98-1.02l.1,4.19c-2.69.45-3.01.48-6.08.83v2.69c1.34-.38,3.55-.99,6.18-.99,6.53,0,9.21,4.29,9.21,8.51,0,3.1-1.66,7.94-8.29,7.94-1.5,0-2.43-.26-3.14-.45l-.1-4.35c.61.26,1.5.64,2.94.64,3.81,0,4.26-2.72,4.26-3.9,0-1.7-.83-4.51-5.57-4.51-2.37,0-4.25.64-5.5,1.09v5.73c0,2.18,0,6.37-4.38,6.37-2.88,0-7.23-2.18-7.23-6.02,0-4.9,5.86-7.78,7.46-8.51v-3.87c-.86.03-3.23.19-6.33.13l-.03-4.22c.99.06,1.92.1,3.42.1s2.3-.03,2.94-.06v-5.25Zm.1,17.41c-1.02.58-3.84,2.3-3.84,4.19,0,1.18,1.6,2.21,2.82,2.21,1.02,0,1.02-.93,1.02-2.21v-4.19Zm13.85-15.29c3.04,1.95,5.12,3.84,6.98,5.98l-2.98,2.88c-1.79-2.27-3.68-4.16-6.56-6.02l2.56-2.85Z"/><path d="m354.91,93.67c-.83,1.02-1.82,2.18-4.1,4.32l-2.53-3.26c2.56-1.98,4.13-3.84,5.76-6.94l4.26.77c-.48.8-.61,1.02-.99,1.66h21.34v3.46h-23.74Zm9.7,23.93c-.86-.86-2.56-2.62-5.22-4.77-4.29,3.52-7.1,4.77-8.51,5.41l-2.4-3.58c3.33-1.28,5.73-2.5,7.87-4.13-2.27-1.63-3.97-2.59-5.28-3.3l2.34-2.91c.9.45,2.37,1.22,5.82,3.55,1.15-1.25,1.98-2.34,3.1-4.03l3.36,1.79c-.64,1.06-1.57,2.59-3.46,4.51,2.85,2.21,4.32,3.49,5.22,4.32l-2.85,3.14Zm-15.65-17.53h25.18c-.13,1.86-.42,6.59-.42,9.22,0,.9,0,4.29.93,4.29.77,0,1.38-2.69,1.79-4.54l2.72,2.66c-.51,2.59-1.38,4.1-1.7,4.61-.54.86-1.38,1.76-3.07,1.76-3.84,0-4.48-4.58-4.48-9.47,0-2.37.06-4.19.13-5.12h-21.09v-3.39Zm27.39-4.8v3.2h-22.14v-3.2h22.14Z"/><path d="m380.89,90.21h5.28v-2.14h3.52v2.14h5.12v3.42h-5.12v1.5h4.99v13.06h-4.99v1.82h5.31v3.49h-5.31v4.77h-3.52v-4.77h-5.54v-3.49h5.54v-1.82h-4.93v-13.06h4.93v-1.5h-5.28v-3.42Zm3.26,7.81v2.3h2.14v-2.3h-2.14Zm0,4.83v2.37h2.14v-2.37h-2.14Zm5.44-4.83v2.3h2.18v-2.3h-2.18Zm0,4.83v2.37h2.18v-2.37h-2.18Zm15.46,6.94v4h5.79v3.74h-16.13v-3.74h6.43v-4h-5.41v-3.58h5.41v-2.62h3.9v2.62h5.12v3.58h-5.12Zm5.12-17.25c-.45,1.18-1.31,3.42-4,6.18,2.08,1.41,3.71,1.95,4.93,2.37l-1.7,3.68c-1.18-.42-3.46-1.28-6.08-3.52-2.98,2.24-5.44,3.1-6.85,3.55l-1.7-3.55c.96-.29,3.1-.93,5.79-2.62-2.02-2.34-2.82-4-3.2-4.9l2.62-1.06h-4.45v-3.68h14.62v3.55Zm-9.47.13c.42.8,1.12,2.02,2.66,3.68,1.63-1.6,2.24-2.75,2.72-3.68h-5.38Z"/><path d="m421.24,90.79c-.54,2.4-1.86,7.9-1.86,14.75,0,5.12.77,8.64,1.15,10.27l-4.22.51c-.83-3.49-1.09-7.1-1.09-10.69,0-6.98,1.09-12.45,1.63-15.33l4.38.48Zm19.58,23.45c-1.54.22-4.13.58-7.26.58-4.7,0-9.85-.67-9.85-5.7,0-1.63.54-2.98,1.41-4.38l3.58.7c-1.02,1.47-1.12,2.43-1.12,2.91,0,1.66,1.54,2.27,5.79,2.27,3.2,0,5.66-.42,7.55-.77l-.1,4.38Zm-15.81-21.21c1.79-.19,4.96-.54,9.09-.54,2.72,0,4.32.13,5.5.22l-.1,4.19c-.8-.06-2.72-.26-5.6-.26-4.19,0-7.39.45-8.96.64l.06-4.26Z"/><path d="m452.73,89.89l4.48-.86,1.25,6.85c.13.64.42,2.11.64,2.88,2.88-1.02,6.69-2.11,9.31-2.85l1.38,4.19c-1.92.45-6.78,1.63-11.07,3.23-2.18.83-6.72,2.5-6.72,5.34,0,3.04,4.22,3.46,8.54,3.46,1.92,0,5.38-.1,10.98-1.09l.32,4.54c-2.72.29-6.62.74-11.07.74-3.33,0-13.25-.1-13.25-7.17,0-4.67,3.9-7.1,7.46-8.74-.38-1.28-.64-2.46-.86-3.55l-1.38-6.98Zm14.62-1.95c1.02,1.5,1.79,3.07,2.91,6.21l-2.75,1.18c-.77-2.53-1.44-4.1-2.72-6.24l2.56-1.15Zm5.15-.51c.48.77,1.6,2.5,2.85,6.3l-2.75,1.12c-.83-2.72-1.47-4.26-2.72-6.4l2.62-1.02Z"/><path d="m484.28,112.77c7.46.1,15.07-2.24,15.07-8.1,0-3.84-2.98-4.22-4.9-4.22-1.54,0-5.89.45-14.14,3.04l-1.38-4.32c8.7-2.14,12.19-2.82,15.39-2.82,1.44,0,9.47,0,9.47,8.1,0,7.33-6.53,12.16-17.98,12.45l-1.54-4.13Zm13.69-16.9c-3.55-.48-8.93-1.25-13.73-2.94l1.57-3.87c2.91.93,7.3,2.21,12.99,2.75l-.83,4.06Z"/><path d="m537.4,101.77c-10.78.35-14.56,4.83-14.56,7.36,0,3.87,8.45,3.52,8.93,3.52l-1.02,4.22c-2.34-.06-12.22-.29-12.22-7.14,0-4.1,3.39-6.08,5.44-7.26-2.69.48-8.83,1.57-13.79,2.69l-.45-4.06c1.06-.13,5.66-.7,6.59-.83l8.13-6.24c-1.47.19-4.99.7-9.76.9l-.67-4.1c5.7.03,10.5-.13,15.55-.9l1.34,3.49-7.84,5.98c5.18-.67,5.31-.67,14.05-1.66l.29,4.03Zm-4.58-14.08c1.18,2.02,1.7,3.55,2.59,6.37l-2.43,1.09c-.7-2.75-1.18-4.03-2.4-6.46l2.24-.99Zm4.58-.58c1.18,2.08,1.82,3.87,2.56,6.34l-2.43,1.09c-.67-2.66-1.22-4.16-2.4-6.46l2.27-.96Z"/><path d="m558.17,89.8l-.54,18.21h-3.71l-.54-18.21h4.8Zm-4.74,20.96h4.64v4.58h-4.64v-4.58Z"/><path class="cls-19" d="m16.04,193.22c-.97-.92-2.06-2.02-3.32-3.65v14.53h-7.01v-13.61c-1.43,1.09-2.35,1.68-3.99,2.65l-1.72-8.28c5.38-2.77,8.44-7.48,9.32-8.91H.8v-6.6h4.91v-5.21h7.01v5.21h4.12v6.6c-.8,1.68-1.76,3.74-3.78,6.55,1.51,1.39,3.7,3.15,6.55,4.49l-3.57,6.22Zm1.68-20.67v-6.93h22.13c0,8.36,0,28.02-1.39,34.07-.63,2.69-1.76,4.41-6.05,4.41h-6.38l-1.3-7.02h4.49c2.06,0,2.9,0,3.36-9.91.13-2.31.25-12.56.34-14.62h-3.32c-.5,14.11-.97,22.77-11.42,31.55l-4.7-6.05c7.81-6.76,8.52-13.4,8.94-18.57-1.89,3.7-2.44,4.54-3.57,6.01l-4.07-2.73c1.22-1.68,2.69-4.37,3.32-5.8l4.33,2.48c.21-2.86.25-4.83.29-6.89h-5Z"/><path class="cls-19" d="m70.55,166.84c-.55,3.02-.67,3.61-1.01,5.12,5.63,1.22,11.8,5.63,11.8,14.53,0,14.11-14.28,16.05-16.96,16.42l-2.73-6.39c9.03-1.01,12.43-5.38,12.43-10.21,0-3.65-2.06-6.64-6.13-7.73-1.81,6.09-3.15,9.28-4.83,12.14-1.3,2.14-5.71,9.2-11.63,9.2-5.17,0-7.56-4.66-7.56-9.49,0-2.06.25-7.18,5.29-12.43-.67-2.14-1.05-3.57-1.97-7.9l6.93-2.56c.38,2.77.55,3.65,1.09,6.13,1.05-.5,3.32-1.6,6.97-2.06.55-3.11.63-3.44,1.05-6.3l7.26,1.51Zm-18.73,18.65c-.8,1.51-1.3,3.32-1.3,4.87,0,2.35.92,2.81,1.51,2.81.97,0,1.97-1.05,2.6-1.76-.71-1.3-1.55-2.94-2.81-5.92Zm5.04-5.29c.59,1.85,1.01,2.86,1.89,4.87.5-1.22,1.13-2.98,2.1-6.47-1.3.34-2.56.8-3.99,1.6Z"/><path class="cls-19" d="m122.3,167.68l.59,7.31c-3.15.04-7.52.13-12.18,2.94-2.44,1.47-6.26,4.66-6.26,9.37,0,6.51,7.89,7.86,12.26,8.15l-3.49,7.27c-11.04-1.26-16.54-7.1-16.54-14.83,0-4.96,2.35-9.41,6.63-12.48l-16.33,2.18-.55-7.65c1.97-.04,5.79-.08,7.89-.25l27.97-2.02Z"/><path class="cls-19" d="m146.83,196.28c4.12-1.26,11-3.95,11-12.22,0-2.52-.71-5.42-2.81-7.52-1.68-1.68-3.44-2.14-4.58-2.39-.76,5.17-1.85,12.06-4.91,18.86-1.93,4.28-4.12,6.97-7.68,6.97-4.87,0-9.66-5.92-9.66-14.07,0-10.5,7.68-18.74,19.48-18.74,10.75,0,17.8,7.02,17.8,16.93,0,13.57-11.63,17.39-14.15,18.23l-4.49-6.05Zm-11.46-10.17c0,3.53,1.22,5.84,2.18,5.84s1.97-3.02,2.44-4.33c1.43-4.24,2.44-8.65,3.11-13.06-4.79,1.72-7.73,6.09-7.73,11.55Z"/><path class="cls-19" d="m183.83,186.62c-.76.46-4.24,2.65-4.24,4.24,0,1.47,1.89,1.93,2.73,2.1,1.89.34,3.57.63,7.31.63,6.63,0,11.38-.97,14.82-1.76l.46,7.98c-4.79.92-9.41,1.3-14.28,1.3-4.58,0-18.64,0-18.64-9.33,0-2.94,1.51-5.71,6.59-9.28l5.25,4.12Zm16.59-22.26c1.76,2.48,2.81,4.7,4.12,8.02l-3.19,1.76c-.71-2.1-1.01-2.69-1.39-3.61l-.46,6.93c-4.66-.92-8.69-1.34-13.4-1.34-5.04,0-8.86.46-10.67.67l.34-7.73c2.39-.25,5.54-.55,9.95-.55,3.07,0,8.69.25,13.86,1.26-.63-1.26-1.09-2.1-2.14-3.78l2.98-1.64Zm5.5-1.34c1.76,2.56,2.73,4.66,4.07,8.02l-3.19,1.76c-1.18-3.4-2.06-5.25-3.91-8.15l3.02-1.64Z"/><path class="cls-19" d="m218.44,171.58c-1.6.04-5.17.17-6.55.21l-.8-6.34c5.92,0,13.52-.25,18.9-1.68l1.89,6.26c-1.76.42-3.02.67-6.76,1.05v3.7h6.3v6.43h-5.71c2.94,5.67,4.75,7.44,6.05,8.74l-3.53,5.84c-.92-1.3-1.76-2.44-3.11-5.17v13.57h-6.68v-13.06c-2.02,3.82-4.41,6.55-5.84,8.15l-2.31-8.7c4.54-3.65,7.35-8.99,7.52-9.37h-6.93v-6.43h7.56v-3.19Zm21.5-4.33v27.14h-7.01v-27.14h7.01Zm9.62-3.19v34.99c0,3.86-.97,5.12-5.58,5.12h-7.85l-1.22-7.35h6.51c1.18,0,1.22-.34,1.22-1.13v-31.63h6.93Z"/><path class="cls-19" d="m291.01,199.06c0,4.79-3.44,5.12-6.51,5.12h-4.45l-1.22-7.14h3.95c.92,0,1.09-.21,1.09-1.26v-3.61h-7.39v11.64h-6.51v-11.64h-7.47c-.25,2.52-1.01,8.4-3.82,12.14l-6-5.04c3.28-5.71,3.36-11.8,3.36-13.11v-20.58h34.98v33.48Zm-21.04-27.01h-7.14v3.95h7.14v-3.95Zm0,10h-7.14v3.99h7.14v-3.99Zm13.9-10h-7.39v3.95h7.39v-3.95Zm0,10h-7.39v3.99h7.39v-3.99Z"/><path class="cls-19" d="m332.21,167.68l.59,7.31c-3.19.04-7.22.17-11.51,2.56-1.81,1.01-6.97,4.24-6.97,9.79,0,6.55,8.23,7.86,12.3,8.11l-3.49,7.27c-11.46-1.3-16.54-7.48-16.54-14.79,0-4.7,2.06-9.24,6.63-12.52l-16.33,2.18-.59-7.65c2.02-.04,5.79-.08,7.94-.25l27.97-2.02Zm-7.52,11.72c2.18,2.6,3.65,5.54,4.79,7.86l-3.91,2.23c-1.43-3.32-2.56-5.33-4.58-8.02l3.7-2.06Zm5.75-3.02c2.18,2.6,3.7,5.38,4.91,7.73l-3.91,2.1c-1.55-3.28-2.52-5.04-4.75-7.9l3.74-1.93Z"/><path class="cls-19" d="m338.73,189.47c8.29-4.93,15.95-10.96,21.98-18.5h-20.24v-9.86h25.29l-.12-10.56h10.03l.06,10.56h13.46v9.86h-13.34l.17,20.42c.06,9.28-3.54,10.32-15.02,10.03l-2.15-10.15c1.22.06,4.35.23,5.16.23,1.97,0,1.91-.17,1.91-2.61l-.06-9.16c-4.06,4.87-9.74,10.73-20.07,17.52l-7.08-7.77Z"/><path class="cls-19" d="m429.96,201.59h-10.67v-25.69c-6.15,3.02-9.86,4.58-17.17,6.96l-5.1-9.11c16.53-5.34,28.36-11.6,41.99-24.13l8,6.73c-3.13,2.9-8.58,7.95-17.05,13.46v31.78Z"/><path class="cls-19" d="m474.74,152.18v14.33c0,13.8-1.8,24.82-12.41,35.44l-7.6-8c8.41-8.93,9.63-17.17,9.63-27.2v-14.56h10.38Zm14.56-.87v34.92c2.15-1.51,7.31-5.05,12.64-13.05l6.9,7.13c-5.57,7.89-14.79,17.46-29.93,21v-49.99h10.38Z"/><path class="cls-19" d="m561.27,179.61c-3.02-1.57-12.53-6.44-18.62-13.22l6.9-3.71h-23.32l7.37,3.65c-6.79,7.6-13.34,11.08-17.75,13.17l-5.22-9.05c5.45-1.74,10.67-5.57,12.99-7.77h-12.35v-9.4h22.5v-4.76h9.98v4.76h22.62v9.4h-13.4c2.26,2.15,6.67,5.39,14.09,7.77l-5.8,9.16Zm-29.41-5.8c2.61,4.29,4.64,6.44,7.02,8.76,4.06-3.71,6.21-7.83,7.02-9.34l8.7,4.52c-2.38,4.76-5.63,8.18-7.83,10.27,8.58,4.41,16.88,5.22,20.3,5.51l-4.23,10.03c-13.8-2.38-20.71-6.79-24.24-9.05-4.58,2.9-12.01,7.13-23.84,9.28l-3.89-10.38c6.9-.7,13.69-2.32,19.89-5.34-4.47-4.58-7.13-8.93-8.06-10.5l9.16-3.77Z"/><path class="cls-19" d="m585.75,181.64c-.93.41-1.74.7-2.67.99v15.6c0,1.68,0,5.45-5.16,5.45h-7.37l-1.22-9.86h3.77c1.04,0,1.04-.81,1.04-1.62v-6.67c-1.86.58-2.78.81-4.35,1.22l-.87-9.63c1.74-.35,3.36-.7,5.22-1.16v-9.34h-4.93v-8.93h4.93v-9.11h8.93v9.11h3.02c6.44-4,8.47-7.95,9.34-9.63l10.03.64c-.35.93-.52,1.33-1.22,2.49h14.79v7.37c-.23.29-1.16,1.51-2.09,2.49h5.63v20.24h1.68v8.29h-11.77c2.67,2.61,6.73,4.29,12.88,5.63l-3.94,8.76c-10.09-2.84-14.5-7.19-16.94-10.38-3.6,5.28-9.11,8.76-15.2,10.56l-4.99-8.47c2.15-.46,8.64-1.86,12.76-6.09h-11.31v-7.95Zm2.2-18.56l-1.62-3.02v6.55h-3.25v6.73c1.22-.41,2.61-.87,3.36-1.16l.06,9.11h1.45v-18.21Zm17.98-2.03c.64-.64.75-.81,2.09-2.55h-9.63c-1.45,1.45-2.09,1.97-2.78,2.55h10.32Zm-9.92,20.24h4.58c.06-.35.06-.58.12-2.2h8.87c-.17,1.28-.23,1.62-.29,2.2h5.34v-3.42h-4.58c-1.97,0-4.29-.12-4.29-3.83v-6.79h-1.74c-.35,6.84-1.22,9.22-4.64,12.01l-3.36-4.58v6.61Zm0-7.42c2.32-2.09,2.67-4.18,2.73-6.61h-2.73v6.61Zm15.66-6.61v2.84c0,.93.06,1.16,1.39,1.16h1.57v-4h-2.96Z"/><path class="cls-19" d="m649.55,166.67c-.34.5-.46.71-1.55,2.56,4.12-.34,7.22-.71,11.42-1.55l-.17,6.72c-7.6,1.01-11.25,1.22-15.24,1.43-.13.25-.71,1.22-.84,1.43.59-.13,1.43-.34,2.65-.34,3.36,0,5.58,1.51,6.68,3.36,4.62-1.89,5.12-2.1,9.28-3.65l2.6,6.3c-3.91,1.3-9.49,3.36-10.58,3.82.08,2.23.04,3.53,0,7.02l-6.84.21c.13-1.97.13-2.6.17-4.2-2.6,1.47-3.82,2.52-3.82,3.82,0,1.76,1.93,2.27,5.79,2.27.76,0,5.21,0,12.51-1.26l-.67,7.1c-3.15.38-6.89.67-10.16.67-6.13,0-8.19-.76-9.28-1.18-3.74-1.47-5.12-4.54-5.12-7.18,0-5.8,5.79-8.78,9.91-10.88-.8-.76-1.85-.76-2.14-.76-4.2,0-7.01,4.12-9.87,8.28l-5.54-3.95c2.81-3.32,5.46-6.85,7.68-10.63-2.02.04-2.86.04-5.67.04l.17-6.76c1.93.08,4.37.21,7.43.21h1.81c.76-1.34,1.13-2.14,2.27-4.49l7.14,1.6Z"/><path class="cls-19" d="m73.01,233.08h7.22v5.76c3.02-.38,4.7-.71,6.93-1.22l.13,7.18c-3.36.5-4.62.67-7.05.97v1.97c2.27-.63,4.62-1.01,7.01-1.01,8.9,0,12.47,5.97,12.47,11.72,0,4.62-2.52,10.96-11.46,10.96-1.76,0-2.86-.25-3.74-.46l-.29-7.52c.76.29,1.72.71,3.44.71.8,0,4.58,0,4.58-3.99,0-2.14-1.3-4.7-6.09-4.7-2.06,0-3.99.38-5.92,1.05v6.22c0,2.86-.13,4.12-.55,5.38-1.3,3.78-5.04,4.03-6,4.03-3.99,0-10.12-2.9-10.12-8.65,0-5.42,4.96-9.16,9.45-11.17v-3.91c-3.61.21-6.63.21-7.81.21l-.08-7.27c1.22.04,2.77.13,4.54.13.46,0,2.81-.08,3.36-.08v-6.3Zm.21,24.49c-.67.42-3.32,2.1-3.32,3.82,0,.97,1.3,2.02,2.48,2.02.84,0,.84-.59.84-1.97v-3.86Zm19.36-22.18c4.2,2.6,7.01,5.25,9.53,8.15l-5.04,4.87c-2.39-3.11-4.91-5.59-8.82-8.15l4.33-4.87Z"/><path class="cls-19" d="m103.04,238.29c2.94-1.89,4.45-3.61,6.21-6.68l6.42,1.93c-1.34,2.81-5.25,8.74-9.95,11.76l-2.69-7.02Zm14.07,6.34c-1.05,2.1-2.27,4.12-3.65,6.05v21.09h-6.84v-13.44c-.63.55-.92.76-1.76,1.22l-1.72-8.78c3.82-2.6,7.1-7.35,8.19-9.28l5.79,2.65v-11.09h24.4v14.87h-24.4v-3.28Zm1.97,16.68h-4.24v-5.71h17.51v-1.39h-16.42v-5.17h26.83v5.17h-3.49v1.39h4.49v5.71h-4.49v6.64c0,2.27-.46,3.82-4.33,3.82h-6.97l-1.13-6.05h4.45c.97,0,1.05-.17,1.05-1.26v-3.15h-9.28c1.51,1.34,2.65,2.73,3.86,4.28l-5.29,4.16c-1.47-2.44-4.45-5.54-5.17-6.3l2.6-2.14Zm4.49-23.99v1.64h11.34v-1.64h-11.34Zm0,5.04v1.68h11.34v-1.68h-11.34Z"/><path class="cls-19" d="m158.56,235.44c-.84,3.61-2.44,10.54-2.44,19.16,0,7.18,1.09,12.06,1.55,14.11l-7.35.8c-.46-2.18-1.39-6.76-1.39-14.53,0-9.37,1.34-16.55,2.06-20.37l7.56.84Zm24.78,31.38c-1.64.21-5.54.76-9.7.76-6.84,0-13.4-1.09-13.4-8.19,0-2.6.97-4.45,1.6-5.63l6.17,1.18c-.55.92-1.13,2.14-1.13,3.15,0,1.81,1.68,2.23,6.72,2.23,4.33,0,8.4-.71,9.95-1.01l-.21,7.52Zm-21.25-28.86c4.12-.46,7.85-.76,12.01-.76,3.74,0,6.26.25,7.73.38l-.21,7.18c-1.22-.13-3.86-.34-7.47-.34-5.84,0-9.99.59-12.22.88l.17-7.35Z"/><path class="cls-19" d="m193.13,242.83c-.59-1.55-.88-2.27-1.3-3.07h-1.97l-1.43-6.18c1.3.04,2.94.13,5.42.13,8.69,0,21.63-.67,30.07-2.1l3.07,6.01c-1.09.21-1.18.21-2.6.42-1.51,3.74-1.68,4.03-2.1,4.79h4.54v11.89h-5.17v1.97c-.97,1.43-2.65,3.95-5.92,6.55,3.07.67,6.59,1.22,12.39,1.34l-2.94,7.39c-5.92-.71-11.76-1.93-17.34-4.07-3.07,1.26-8.27,3.15-17.51,3.99l-2.81-7.31c2.94-.04,7.18-.17,11.93-1.26-3.07-2.44-4.03-3.7-4.83-4.7l4.96-1.93h-5.84v-1.97h-5v-11.89h4.41Zm26.83,5.97h-24.31v1.97h24.31v-1.97Zm-15.45-5.97c-.04-.13-.8-2.44-1.26-3.36l-4.07.13c.13.25,1.01,2.18,1.43,3.23h3.91Zm-2.52,13.86c2.44,2.27,4.24,3.19,5.42,3.78,2.56-1.43,3.91-2.73,5-3.78h-10.41Zm12.81-13.86c.55-1.01.8-1.47,1.68-3.99-2.48.21-4.37.34-5.88.42.88,2.56,1.01,2.86,1.18,3.57h3.02Z"/><path class="cls-19" d="m242.35,235.06c-.84,3.4-2.35,9.91-2.35,17.77s1.39,12.94,1.97,15.16l-7.05,1.09c-1.72-5.17-2.1-10.63-2.1-16.09,0-6.3.76-12.6,1.93-18.82l7.6.88Zm20.53,15.29c.17,7.31.04,15.04-8.1,20.84l-6.59-4.7c6.93-4.16,7.47-9.75,7.31-15.92l-.04-1.55c-1.18.04-3.32.17-7.05.17-2.31,0-3.61-.04-5.17-.08l-.17-7.23c1.68.08,3.65.17,6.34.17,2.27,0,4.03-.08,5.75-.13l-.29-7.98,7.52-.04.21,7.39c2.1-.29,3.49-.5,5.79-1.01l.38,7.23c-2.06.34-3.07.5-5.92.88l.04,1.97Z"/><path class="cls-19" d="m286.49,241.28c-.88,3.36-1.51,6.34-1.85,8.11,3.49-1.76,7.01-2.81,10.92-2.81,7.14,0,12.68,3.65,12.68,10.67,0,12.69-15.66,12.69-20.03,12.69-3.28,0-5.46-.25-6.97-.46l-1.39-7.48c1.39.25,4.66.84,8.78.84,2.56,0,11.97-.08,11.97-5.67,0-3.74-4.33-3.78-5.46-3.78-1.55,0-7.18.04-13.31,5.59l-5.88-1.72c1.18-8.19,2.48-13.82,3.32-17.48l7.22,1.51Zm12.98,2.02c-7.56-2.9-13.52-3.74-17.51-4.24l2.35-6.22c6.26.67,11,1.6,17.68,3.78l-2.52,6.68Z"/><path class="cls-19" d="m315.89,240.48c3.02-.04,4.79-.17,6.76-.38l.04-6.64h7.18c-.21,4.96-.21,5.59-.29,9.49,2.48-2.23,5.33-4.87,10.12-4.87,4.24,0,8.52,2.52,8.52,7.9,0,2.1-1.39,11.34-1.39,13.23,0,.38,0,1.34.8,1.34,1.26,0,3.57-2.02,4.12-2.52l1.72,6.85c-1.22,1.05-4.07,3.32-7.85,3.32-4.03,0-6.42-2.44-6.42-6.72,0-1.81.29-4.16.5-6.01.13-.97,1.01-7.69,1.01-8.23,0-.34,0-2.23-1.97-2.23-3.4,0-7.43,4.62-9.28,6.68,0,8.53,0,9.49.13,18.44h-7.18l.08-8.99c-1.72,2.52-1.81,2.65-2.98,4.54l-5.38-4.7c1.47-1.93,7.47-9.87,8.44-11.13v-2.69c-2.81.38-3.95.5-5.92.67l-.76-7.35Z"/><path class="cls-19" d="m357.64,254.76l17.17-13.61c-5.33.63-8.52.71-11.3.8l-.55-7.18c1.6.08,3.28.13,5.96.13,8.57,0,13.77-.71,16.17-1.05l2.98,5.29c-4.79,3.07-8.86,6.05-9.87,6.76.8-.13,1.64-.25,2.94-.25,6.3,0,12.01,3.91,12.01,11.09,0,8.4-6.84,13.69-16.04,13.69-6.55,0-11.51-2.69-11.51-7.81,0-4.45,4.24-6.97,8.4-6.97,6.3,0,9.32,4.49,10.25,5.8.63-.71,1.64-1.76,1.64-4.07,0-3.32-2.56-5.96-7.68-5.96-5.63,0-8.94,2.31-16.17,9.12l-4.41-5.75Zm16,6.47c-1.47,0-1.81.88-1.81,1.22,0,1.43,2.56,2.02,4.54,2.02.97,0,1.6-.08,2.1-.17-1.13-1.81-2.9-3.07-4.83-3.07Z"/><path class="cls-19" d="m422.69,246.65h13.19v7.14h-13.44c-.5,5.46-2.56,12.27-12.26,17.05l-5.46-5.88c7.64-3.28,9.57-7.39,10.29-11.17h-15.33v-7.14h15.62v-3.44c-.55.08-4.33.8-10.62,1.43l-2.27-6.93c9.32-.59,19.06-2.18,24.86-4.96l4.75,5.67c-3.78,1.81-7.94,2.86-9.32,3.19v5.04Z"/><path class="cls-19" d="m472.63,244.89l2.6,2.94c-1.34,3.15-3.32,7.44-7.01,13.15l-5.46-2.98c1.72-2.39,2.44-3.65,3.78-6.05l-5.79.88,2.9,17.1-6.38,1.22-2.94-17.35-8.94,1.34-.92-6.18,8.86-1.26-1.18-6.85,6.47-.8,1.13,6.72,12.89-1.89Z"/><path class="cls-19" d="m498.42,248.21c-4.24-2.86-8.02-4.75-12.81-6.43l3.49-6.51c4.87,1.64,8.86,3.49,13.35,6.34l-4.03,6.6Zm22-.42c-3.53,5.76-8.06,10.8-13.61,14.62-5.46,3.82-11.67,6.39-18.18,7.65l-2.6-7.65c11.88-2.18,21.5-7.23,29.44-21.17l4.96,6.55Z"/><path class="cls-19" d="m556.84,269.84c-1.3-1.81-4.83-6.6-10.37-11.51-3.86,4.16-8.48,8.4-16.63,12.06l-4.66-6.39c11.04-4.54,18.56-11.76,22.38-20.96h-19.11v-7.27h29.6c-1.93,7.73-4.37,12.48-7.05,16.68,6.17,5.08,9.99,9.87,11.76,12.06l-5.92,5.33Z"/><path class="cls-19" d="m589.94,233.92l-.97,23.82h-6.3l-.97-23.82h8.23Zm-7.94,26.63h7.64v7.27h-7.64v-7.27Z"/><path class="cls-19" d="m199.02,38.9h-6.43l-7.39-25.73h5.73l4.86,18.94,4.58-18.94h6.43l4.61,18.94,4.83-18.94h5.73l-7.39,25.73h-6.43l-4.54-19.26-4.58,19.26Z"/><path class="cls-19" d="m241.8,23.22v4.83h-10.37v5.89h11.74v4.96h-17.15V13.18h16.74v4.96h-11.33v5.09h10.37Z"/><path class="cls-19" d="m257.09,13.18c1.92,0,3.39.32,4.42.74,2.21.9,4,3.01,4,6.02,0,3.17-1.66,4.58-2.66,5.41,1.06.67,3.39,2.21,3.39,6.24,0,7.33-7.1,7.33-9.41,7.33h-9.06V13.18h9.31Zm-3.9,4.96v5.22h3.94c2.46,0,2.98-1.82,2.98-2.62,0-.93-.45-2.59-3.23-2.59h-3.68Zm0,9.66v6.14h3.94c.83,0,3.71,0,3.71-3.04,0-2.27-1.7-3.1-3.39-3.1h-4.26Z"/><path class="cls-19" d="m279.91,17.02h-8.06v-4.45h25.76v4.48c-2.66,2.18-5.76,3.62-8.9,4.96.19.16.83.8,1.02.99h10.14v4.51c-.96,1.38-3.17,4.54-7.46,8.1l-3.65-3.68c.67-.45,2.91-1.95,4.86-4.42h-6.24v11.23c0,1.89-.93,3.23-3.71,3.23h-6.75l-1.18-4.96h5.31c1.22,0,1.22-.22,1.22-1.15v-8.35h-12.7v-4.51h12.96c-2.27-1.89-4.54-3.23-5.6-3.84l2.98-2.14Zm2.21,0c1.25.77,2.21,1.47,3.23,2.21,2.82-1.12,3.62-1.79,4.13-2.21h-7.36Z"/><path class="cls-19" d="m307.66,30.84c-.03.8-.26,6.59-1.18,9.57l-3.23-2.02c.61-2.21,1.09-5.41,1.06-7.97l3.36.42Zm-4.06-5.73c.99.03,1.47.03,2.11,0,.99-1.25,1.28-1.63,1.54-1.95-.29-.38-1.76-2.46-3.9-4.19l2.21-3.9c.38.26.51.35.74.54.96-1.66,1.41-2.43,2.27-4.19l3.78,1.25c-.38.9-.86,2.02-3.36,5.6.22.29.48.58.96,1.15,1.57-2.3,2.27-3.71,2.88-4.86l4.03,1.47c-1.89,3.17-4.1,6.11-6.53,8.86.38-.03,2.4-.13,2.85-.16-.42-1.34-.48-1.54-.74-2.11l3.17-1.06c.83,1.47,2.02,5.02,2.46,6.78l-3.78,1.22c-.13-.61-.16-.83-.26-1.31-.32.06-.58.1-1.54.22v13.44h-4.06v-12.96c-2.82.29-3.62.32-4.64.38l-.19-4.22Zm13.06,4.99c.67,2.59.99,5.73,1.09,7.39l-3.87.64c0-.61-.19-5.31-.64-7.46l3.42-.58Zm8.32-18.21c-.19.96-.38,1.95-.99,3.65h9.25c-.19,13.47-.26,19.97-.96,22.94-.26,1.12-1.12,3.42-3.68,3.42h-7.04l-.96-4.8h5.57c.8,0,1.22,0,1.5-1.44.51-2.53.64-10.46.7-15.61h-6.37c-1.41,2.56-2.3,3.52-3.2,4.51l-3.23-3.81c2.05-2.14,3.94-5.41,4.7-9.22l4.7.35Zm-2.43,11.71c1.38,1.82,3.04,4.67,3.97,7.65l-4.22,2.18c-.58-1.7-2.05-5.47-3.84-7.94l4.1-1.89Z"/><path class="cls-19" d="m338.22,12.34h11.58v4.42c-.58,2.14-1.47,4.74-2.27,6.56,1.79,1.92,2.59,4.7,2.59,7.36,0,4.96-3.39,5.12-3.74,5.12h-2.62l-.7-4.58h.9c1.15,0,1.47-.42,1.47-1.6,0-3.23-1.6-4.83-2.37-5.6.99-2.56,1.54-4.58,2.14-7.3h-2.37v25.21h-4.61V12.34Zm10.17,24.7c.67-.06,1.18-.13,2.59-.32V12.34h15.9v15.42h-.67l2.08,3.58c-.8.7-1.73,1.47-3.71,2.66,1.18,1.5,2.3,2.5,3.68,3.62l-2.94,4.38c-3.87-3.04-6.91-8.19-7.93-14.24h-1.79v8.26c2.43-.42,3.2-.61,4.1-.8l.32,4.29c-2.43.67-4.51,1.09-10.97,2.21l-.64-4.67Zm7.2-20.51v1.98h6.66v-1.98h-6.66Zm0,5.28v2.08h6.66v-2.08h-6.66Zm5.95,5.95c.26.86.48,1.6.99,2.75,1.18-.9,2.21-1.7,3.17-2.75h-4.16Z"/><path class="cls-19" d="m384.23,25.24h-6.27v-4.35h17.38v4.35h-6.34v3.04h9.28v4.38h-9.28v3.81c.54.03.86.06,1.73.06h11.42l-.99,4.77h-11.29c-6.5,0-9.18-2.46-11.33-5.06-1.22,2.56-2.27,4-4.19,5.76l-3.3-3.9c1.18-1.02,4.58-4,5.5-11.84l4.64.61c-.32,2.3-.61,3.58-1.09,5.18,1.54,2.4,3.39,3.17,4.13,3.46v-10.27Zm4.8-13.63v2.27h11.97v8.32h-4.77v-4.06h-19.17v4.06h-4.77v-8.32h11.9v-2.27h4.83Z"/><path class="cls-19" d="m433.93,24.98c-5.22-2.21-9.82-5.6-13.44-9.7-3.87,4.67-8.9,7.84-13.5,9.76l-2.14-4.83c2.91-1.02,8.7-3.3,13.05-8.67h5.28c4.45,5.41,10.21,7.58,13.09,8.54l-2.34,4.9Zm-1.09.74v4.54h-9.41v6.05h11.71v4.67h-29.18v-4.67h3.52v-11.55h4.74v11.55h4.48v-16.29h4.74v5.7h9.41Z"/><path class="cls-19" d="m469.61,16.82h-13.15v1.79h6.14v16.73h-16.22v-16.73h6.14v-1.79h-13.21v-4.35h30.3v4.35Zm-24.73,1.41v18.56h19.1v-18.56h4.45v22.78h-27.93v-22.78h4.38Zm7.65,4.16h-2.37v2.75h2.37v-2.75Zm0,6.3h-2.37v2.91h2.37v-2.91Zm6.34-6.3h-2.4v2.75h2.4v-2.75Zm0,6.3h-2.4v2.91h2.4v-2.91Z"/><line class="cls-3" x1="161.3" y1="2" x2="501.28" y2="2"/><line class="cls-3" x1="501.28" y1="49.61" x2="161.3" y2="49.61"/><path class="cls-16" d="m181.63,586.17c-1.54,4.09-2.5,7.38-11.71,8.89-1,5.05-2.81,6.81-6.99,7.85-4.2,1.04-7.56-1.39-8.78-2.73l-10.45-1.86c-2.45,8.13-4.14,11.52-8.56,14.92-7.02,5.42-19.04,7.4-25.52-2.62-8.03-12.38.59-24.72,6.21-27.79,9.48-5.19,14.48-4.61,19.85-3.02l10.5-3.38c.58-3.09,1.45-5.16,5.75-6,4.32-.85,7.27.89,8.02,2.72,1.16-.63,3.08-1.69,3.87-2.59,5.92.74,12.95,1.7,17.82,15.61Z"/><path class="cls-1" d="m166.74,594.31c-.46.99-2.08,2.64-4.88-1.6-1.99-2.99-6.38-12.1-3.93-18.19-.73-1.35-4.44-2.11-6.36,1.23-2.97,5.13.13,14.47,3.15,19.08,1.11,1.69,3.83,4.7,7.45,3.97,3.14-.62,5.13-2.55,4.57-4.49Z"/><path class="cls-15" d="m177.96,585.91c-2.27,5.5-6.97,6.09-12.46,7.04-5.19-4.42-6.8-13.83-5.84-17.11,0,0,2.92-1.1,4.95-1.97,5.48,1.28,11.98,3.99,13.35,12.04Z"/><path class="cls-5" d="m151.88,596.66c-2.87-2.95-5.43-10.09-5.1-16.79-8.76,2.76-6.88,2.15-11.47,3.38-5.8-2.33-15.9,1.67-19.21,5.24-5.51,5.97-6.67,13.97-1.44,19.89,6.2,6.98,15.28,3.48,19.69-.74,4.94-4.7,7.29-10.76,6.69-13.45-.34-1.55,1.95-.01,2.41,1.73,5.61-.27,8.43.73,8.43.73Z"/><path class="cls-16" d="m203.64,602.8c-.25-2.05-2.85-18.21-3.33-19.97-1.19-.11,21.36-8.37,22.58-1.64l.48,19.86c3.39.39,8.91,2.65,8.09,9.89-.31,2.81-2.75,4.99-5.08,6.23l.14,3.05c4.56-1.35,9.7-1.19,15.52,1.22,8.84,3.65,13.11,14.42,10.31,23.24-4.3,13.52-25.31,15.6-35.39,7.84-2.89-2.23-4.91-7.25-8.84-10.85l-3.65-.17c-1.4.24-3.36-1.97-3.71-2.39-.76-.91-.33-4.69-.42-5.17l.98-15.58c-3.51-1.53-5.4-3.24-5.24-8.42.09-3.34,4.52-5.99,7.57-7.15Z"/><path class="cls-5" d="m204.61,619.12c-.14,5.44-1.12,12.35-.02,13.6,5.81,6.57,11.32,15.67,19.1,17.58,7.66,1.88,20.78,1.28,22.64-9.54.93-5.43-1.47-11.77-6.98-15.05-6.39-3.81-17.01-3.24-24.43,3.13-1.03.88-.59-1.06-.12-1.77,2.25-3.4,8.46-5.92,8.46-5.92-.09-1.25-.04-3.09-.04-3.09-5.02,2.27-12.12,2.71-18.6,1.06Z"/><path class="cls-1" d="m222.67,604.42v1.2c.81.16,1.03,1.93-1.25,2.96-5.98,2.72-12.94,1.25-14.81.82-2.89-.66-2.05-3.13-1.13-2.92l-.14-1.13c-1.5.18-5.09,1.79-5,4.55.15,4.74.49,5.13,5.6,6.75,3.73,1.18,12.57,1.65,18.01-1.4,3.86-2.17,4-5.34,3.16-7.95-.57-1.81-2.2-2.64-4.44-2.89Z"/><path class="cls-15" d="m207.19,607.35c-.35-2.64-2.47-20.67-2.47-20.67l15.44-2.58s.35,19.41.52,22.41c-2.44,1.54-9.81,2.34-13.5.84Z"/><path class="cls-16" d="m238.76,523.5c6.85,7.63,10.96,18.43,13.19,26.94,2.49-.94,7.05-.42,9.48,2.39,3.35,3.79,5.77,10.44,5.17,17.88-.73,9.3-16.97,25.14-48.94,26.71-54.26,2.67-80.61-26.11-75.63-55.8,1.55-9.22,9.64-12.69,15.8-13.56,1.24-.18,4.15-1.05,6.54.41,1.4.86,2.47,2.27,3.08,3.75,3.58-3.15,9.56-14.38,9.44-19.35,0,0-.8-4.9.84-8.18l61.01,18.82"/><path class="cls-5" d="m236.03,525.87c-10.26,4.19-34.02,5.95-55.97-7.34-5.77,11.52-13.12,18.69-17.69,20.1.14,15.24,23.01,38.7,63.55,29.47,13.53-3.07,21.44-5.58,23.82-10.02-.16-12.16-8.7-29.67-13.71-32.22Z"/><path class="cls-1" d="m260.45,568.69c-.25,6.51-5.8,12.36-8.42,14.23-13.85,9.8-36.81,11.99-54.94,9.48-24.78-3.43-52.99-20.22-50.17-49,.41-4.2,2.5-7.75,4.59-9.33,1.28-.96,4.92-2.93,8.43-2.8,1.96.07,3.64.39,5.26,2.5,0,0-.16.43-1.43.95-1.28.52-1.84.39-1.84.39-.32-2.17-4.09-1.35-3.85,1.66.66,7.62,7.55,31.5,41.93,35.58,17.75,2.11,44.41-1.23,51.94-12.66,1.91-2.87,2.48-6.03.08-4.5-.2-.48-.27-1.88-.27-1.88.69-.13,2.25-1.31,4.35,1.09,2.53,2.92,4.59,8.6,4.34,14.29Z"/><path class="cls-16" d="m151.89,472.92c-1.92-6.28-4.97-10.53-20.99-17.78-3.25-1.46-5.79-8.69-5.96-11.71-.14-3.07-1.9-5.38-5.41-5.74-2.57-.23-6.33,2.28-6.18,5.46-4.45-1.26-11.35,2.1-8.29,11.08-1.73,3.93,1.9,8.24,6.09,9.77-.51,1.4.07,5.41,2.9,6.4-7.5-.76-13.6,7.13-11.16,12.91,2.17,5.13,8.49,5.74,13.73,5.45,9.89-.57,11.22,6.22,23.09,4.47,7.71-1.14,14.84-11.54,12.16-20.31Z"/><path class="cls-15" d="m138.44,488.17c5.76-1.05,10.41-5.56,9.68-11.71-.49-7.24-11.06-16.41-17.56-18.51-3.96-1.28-7.95-8.28-8.2-10.06-.39-2.8-6.48-3.46-7.51.28-1.02,3.73.78,9.72,9.45,15.28,4.62,2.9,3.79,7.33,2.3,9.66-1.45,2.31-3.56,2.46-3.06,1.07.53-1.39-1.35-.81-2.53-.78-3.98.12-8.04-1.16-10.41,3.49-3.22,6.26,3.95,5.18,10.36,6.61,2.35.54,9.48,6.13,17.48,4.67Z"/><path class="cls-15" d="m117.59,460.17c-2.49-2.63-5.69-7.37-4.82-12.33-2.1-.74-5.93,1.99-4.62,5.31,1.32,3.32,6.87,6.26,9.44,7.02Z"/><path class="cls-15" d="m118.25,461.87c-1.88-.54-4.87-1.81-7.86-3.98-.75,2.08,3.81,6.88,13.36,8.77,0,0-.61-2.59-5.5-4.79Z"/><path class="cls-15" d="m124.8,470.7s.99-1.4-.17-2.12c-1.87-.03-5.57-1.09-8.35-3.03-.51,1.89,1.05,4.95,8.52,5.15Z"/><path class="cls-16" d="m138.95,490.88c.64,4.91,1.06,11.9,15,14.12,12.09,1.97,12.24-4.78,13.91-9.23,4.32.07,13.3,1.43,19.08,5.39l.52-19.5-18.64-4.38c.9-5.48,1.86-9.55-4.72-11.95-7.98-2.94-11.66-2.96-15.79-.6-4.93,2.79-11.2,15.25-9.35,26.15Z"/><path class="cls-5" d="m184.37,495.87c-10.27-3.55-18.34-4.15-23.3-4.62-2.27-2.41-2.25-10.74,2.53-13.57,0,0,11.56,2.31,20.71,5.08-.74,3.5-.18,10.36.06,13.11Z"/><path class="cls-1" d="m164.24,494.62l-2.66-.54c-.5,1.76-3.05,2.24-4.04-5.25-.69-5.45,1.13-10.54,2.68-12.77,1.74-2.53,4.79-1.15,4.19.05l2.13,1.02c.92-2.68,1.83-6.76-4.34-8.41-6.15-1.66-10.63-2.78-15.08,1.38-4.03,3.84-8.03,16.82-4.07,24.77,2.04,4.03,11.34,6.26,15.77,5.44,2.71-.51,4.3-2.7,5.42-5.69Z"/><path class="cls-16" d="m189.47,527.68c-17.82-10.19-24.95-30.99-12.89-57.59,1.46,1.09,11.53,3.81,20.56,5.98,10.81,2.66,15.22,2.59,33.45.86,20.33-1.94,32.15-2.35,36.77,2.65,2.89,3.16,4.54,8.71,3.61,12.3-.63,2.44-3.1,7.67-3.1,7.67-2.37,4.71-7.08,12.8-15.61,20.04-11.36,15.14-44.98,18.29-62.79,8.1Z"/><path class="cls-15" d="m223.42,481.91c-2.84.31-13.29,1.28-16.47,1.28v3.76c2.88,1.59,12.7,2.21,16.8-.34l-.32-4.7Z"/><path class="cls-5" d="m261.8,484.66c-1.93-.49-6.86.08-7.01,1.69,2.78,2.11,11.64,3.54,10.92,8.96.62-2.09,1.89-3.89,1.89-5.59,0-3.75-2.91-7.89-6.04-8.92-4.35-1.46-12.36-2.97-23.67-1.46-3.93.53-11.94-.76-11.94-.76l.52,9.03c-2.53,2.55-6.95,3.9-13.92,3.46-3.35-.19-6.52-1.08-8.13-2.53-.17-.18-1.84-3.81.64-1.93l-.25-8.02c-16.16-2.51-22.21-3.28-27.07-5.3-12.39,35.86,7.94,51.57,25.98,53.82,21.94,2.75,34.55-7.05,38.99-33.72.97-5.81,12.08-14.03,19.58-9.68.37.23,1.4,1.44-.49.97Z"/><path class="cls-16" d="m203.52,498.35c7.15.53,13.27,5.15,12.99,12.16-.31,7-6.79,9.53-13.87,9.43-7.82-.12-12.81-5.78-12.29-11.59.64-7.3,5.99-10.55,13.18-10Z"/><path class="cls-1" d="m202.55,501.33c5.04.39,8.89,3.62,9.13,8.57.2,4.11-3.5,7.73-10.19,7.06-5.76-.57-8.49-4.66-8.22-8.57.3-4.3,4.22-7.42,9.28-7.06Z"/><path class="cls-16" d="m213.13,526.65c-2.42-5.07-4.41-17.01,5.04-24.38,4.38-3.4,11.7-4.48,11.7-4.48,0,0,4.83-1.22,8.03,2.44,7.95-5.22,7.93-10.57,15.13-11.65,0,0,7.49-1.28,11.56,7.93,2,6.35.63,11.93-7.96,20.13-3.93,3.76-8.99,10.09-8.99,10.09-1.66,7.24-7.71,12.43-17.44,15.16-11.07,3.07-14.65-10.16-17.08-15.23Z"/><path class="cls-1" d="m214.74,508.86c2.22-3.73,8.43-7.4,13.96-7.06,3.09.23,6.96,2.32,8.82,4.5,5.27,6.17,6.25,12.04,5.03,19.84-1.21,7.78-13.03,13.74-17.43,11.42-.94-.48-2.73-1.88-3.44-3.73l1.92-.56c2.54,3,3.17-1.53,1.64-10.77-1.09-6.59-8.31-10.88-12.36-7.84,0,0,1.18-4.67,1.86-5.79Z"/><path class="cls-5" d="m240.53,501.76c2.05-.52,4.7-4.28,8.59-8.2,1.07-.67,4.5-2.5,6.09-1.71,4.21.79,6.63,3.93,6.63,7.83.02,3.92-.54,8.17-5.06,11.98-4.55,3.85-8.41,8.94-8.41,8.94.62-5.61-1.58-13.39-7.84-18.84Z"/><path class="cls-16" d="m222.94,533.26c-3.92,6.82-10.42,6.31-15.39,9.97-3.96,2.92-7.73,8.89-11.64,6.84-3.8-1.98-5.85-9.37-.28-14.23-2.18-.62-3.68-.4-6.1.03-2.15.37-5.74,1.31-8.19,1.36-5.81.08-9.93.87-12.92-2.36-2.17-2.38-1.85-6.12-1.08-8.43,1.96-5.83,12.69-5.19,14.91-5.25,2.88-.06,7.55-.97,10.57-2.45,14.8-7.26,20.18-7.98,25.26-5.71,0,0,11.68,5.24,4.86,20.24Z"/><path class="cls-17" d="m202.97,532.13c-1.14-.77-2.47,1.31-3.16,2.2-2.3,2.97-5.65,5.1-3.72,9.63,2.6,6.08,5.78-.66,10.67-4.41.82-.63.79-.11,3.91-1.79,0,0-3.38-2.58-7.71-5.63Z"/><path class="cls-17" d="m214.62,535.46c-4.52.24-5.69-1.99-9.32-4.09-.36-.21-4.6-3.69-9.54-2.27-6.29,1.8-10.8,2.73-11.96.09-1.47-3.33,1.04-5.09,4.67-5.39,1.54-.12,2.97-.15,6.57-1.74,5.85-2.63,17.67-9.53,23.25-5.53,4,1.62,4.85,7.19,4.61,11.11-.23,3.92-3.26,7.55-8.27,7.82Z"/><path class="cls-17" d="m201.58,530.93s-2.05-1.45-6.88-.03c-2.71.82-12.78,4.93-13.32-2.72-.11-1.15.68-2.9,1.15-3.31,0,0-6.28-.62-6.69,2.92-.41,3.56,3.43,6.86,9.65,5.89,6.2-.96,16.1-2.76,16.1-2.76Z"/><path class="cls-17" d="m175.99,525.49s-3.18,2.52-1.08,5.87c.98.98,1.6,1.63,2.81,2.23,0,0-6.89,1.13-7.13-4.35-.21-4.48,5.4-3.74,5.4-3.74Z"/><path class="cls-16" d="m314.18,400.94c.18,1.73-1.93,7.12-2.11,8.5,6.64,1.33,13.8,10.37,12.6,21.45-1.18,11.07-9,23.33-27.87,18.92-8.74,9.03-23.66,24.62-65.73,33.29-12.26,2.8-19.78,3.17-26.42,3.17-5.06,0-8.94-.43-11.72-.63-35.13-7.12-51.08-19.15-57.89-29.65-7.5-11.6-9.2-25.88,4.78-33.42-.71-4.74.6-18.26,3.72-23.13-8.17-5.47-15.98-13.89-8.84-32.63,7.15-18.73,27.76-31.71,60.75-33.69,45.29-2.73,66.98-1.35,88.12,18.07,11.11,10.68,30.61,49.75,30.61,49.75Z"/><path class="cls-15" d="m148.34,402.21c-2.02,3.67-4.08,13.07-2.87,25.32-8.16,2.88-10.3,12.4-5.99,22.38,2.46,5.67,16.81,24.29,53.82,29.58,31.45,2.4,79-8.51,101.37-31.09,0-3.27.81-4.9,4.5-3.27,3.67,1.65,20.85,2.03,21.26-14.7.4-16.76-15.89-20.12-22.07-9.85-1.22,2.06-3.68.44-4.1-4.06-2.83,4.9-5.97,19.48-6.81,27.25-.8,7.76-6.44-.17-7.89-2.74-3.51-6.18-8.6-17.06-4.86-39.55-14.67,9.87-28.96,11.23-36.42,11.9,2.49,8.88,1.78,24.88-4.27,32.22-2.26,2.72-5.9,4.34-9.37,4.25-11.29-.28-11.98-12.46-10.54-20.17,2.51-13.42,12.54-17.78,19.33-13.56,0-1.36-.2-2.27-.75-3.23-3.17-.27-4.57-.37-6.76-1.01-3.23-.54-1.34-1.69-.89-2.02,1.7-1.3,2.8-2.48,4.41-4.61-2.13-2.68-4.55-4.68-7.64-5.02-4.89,3.5-8.43,5.23-12.73,7.05-7.13,2.44-5.2-.6-5.39-1.13-5.32,4.22-10.77,26.42-.86,40.4.65.92-1.39.39-2.15-.46-7.04-7.49-9.3-34.05,2.97-44.49,0-8.97-2.33-14.89-3.46-18.08-4.17,2.63-11.38,11.93-15.03,18.98-1.68,3.13-1.6,4.75-3.8,3.28,3.64,5.66,6.38,15.81,5.93,23.98-.34,6.38-1.37,15-9.31,15.66-7.94.67-12.49-7.62-11.76-19.17.52-8.17,4.86-16.24,13.49-14.22-2.2-7.94-10.73-14.82-16.1-10.55.75,1.92,1.24,3.1,2.2,4.68.71,1.15-.55,2.47-3.28,1.8-2.46-.6-4.81-1.43-5.95-1.67-1.96,1.97-4.18,5.61-4.89,12.25-.88,8.05.82,19.25,8.4,26.5,1.57,1.52-.97,1.01-2.26-.22-3.54-3.44-7.82-10.59-8.5-21.1-.45-6.97,1.03-13.98,4.79-18.72-2.02-.9-4.26-1.92-5.76-2.77Z"/><path class="cls-1" d="m160.06,445.02c3.89,1.96,9.32,2,17.89.39-7.94.67-12.49-7.62-11.76-19.17.52-8.17,4.86-16.24,13.49-14.22-2.2-7.94-10.73-14.82-16.1-10.55.75,1.92,1.24,3.1,2.2,4.68.71,1.15-.55,2.47-3.28,1.8-2.46-.6-4.81-1.43-5.95-1.67-1.96,1.97-4.18,5.61-4.89,12.25-.88,8.05.82,19.25,8.4,26.5Z"/><path class="cls-15" d="m162.62,397.7c1.65-.91,5.5-2.39,9.36-.36-2.96-4.79-2.91-10.96-.84-16.89-4.53,2.5-10.55,10.28-8.52,17.25Z"/><path class="cls-16" d="m193.44,447.52c-.08.52.73.52.91.09.56-1.18.75-2.83.1-4.59-.7-1.9-2.53-3.25-5.09-2.89-4.75.66-5.37,7.34-1.52,9.68.52.32,1.41.06,1.1-.28-1.38-1.47-2.41-5.12.1-6.24,1.65-.73,4.38.18,4.35,2.94,0,.61.09.97.04,1.29Z"/><path class="cls-10" d="m297.85,413.61c-.5-.48-2.73-.67-2.51-2.28.22-1.63-1.7.59-2.6,2.18-2.03,3.54-5.31,15.76-7.12,29.6-9.86-12.05-11.52-23.58-7.68-41.67.44-2.11,4.68-12.13-.09-7.57-4.77,4.51-23.59,19.88-46.09,14.07,6.43-7.17,6.27-16.03,1.05-25.56-.78-1.34-2.39-5.11-3.42-.68-.65,2.87-5.15,16.58-21.97,22.07-.55-9.47-2.83-17.96-5.26-22.72-.58-1.09-1.58-1.91-3.42-.37-6.81,5.79-11.56,11.62-17.03,20.46-9.7-4.78-9.45-16.93-6.95-22.09,2.54-5.18-.42-3.5-1.31-3.31-8.11,1.71-19.56,14.82-11.83,27.67-17.5-7.74-25.67-21.48-23.18-34.97,3.19-17.28,14.98-43.62,86.52-38.16,65.82,5.03,86.75,53.15,84.71,77.88-7.48.93-9.32,2.96-11.81,5.47Z"/><path class="cls-16" d="m311.24,422.02c-3.87,0-8.77,1.75-11.37,7.73-1.34,3.18.23,7.04,1.14,7.26.92.21,0-1.83-.21-3.65-.24-1.82,1.69-6.1,6.34-4.07,3.64,1.59,3.89,5.89,1.37,8.16-2.49,2.27.64,1.79,2.04.24,2.06-2.28,2.06-11.38-6.81-10.9,1.36-1.81,4.54-3.63,6.81-3.88,2.28-.21,1.61-.89.69-.89Z"/><path class="cls-16" d="m152.12,409.43c-2.65.21-3.54-1.7-3.47-2.88.06-.88-1.35-.63-1.18.98.15,1.56,1.93,3.08,4.21,2.97l.44-1.07Z"/><path class="cls-16" d="m151.31,411.56c-1.81,1.85-4.49-.2-4.74-1.52-.09-.47-.46-.46-.72-.25-.39.32-.52,1.5-.11,2.15.95,1.56,3.73,2.42,5.5,1.04l.07-1.43Z"/><path class="cls-15" d="m224.27,397.15c1.96-1.79,6.64-9.29,6.5-13.48,2.53,5.39,4.13,12.95.84,17.88-2.07-2.08-4.33-3.81-7.34-4.4Z"/><path class="cls-9" d="m147.8,452.11c3.88,0,7.05-3.15,7.05-7.07s-3.16-7.09-7.05-7.09-7.07,3.18-7.07,7.09,3.13,7.07,7.07,7.07Z"/><path class="cls-12" d="m256.71,461.97c4.97,0,9.03-4.02,9.03-9s-4.06-9.01-9.03-9.01-8.98,4.03-8.98,9.01,4,9,8.98,9Z"/><path class="cls-16" d="m177.02,455.32c1.32-.27,1.78.43,1.7,1.61-.42,5.78,3.44,9.77,12.43,10.69,9.81,1.02,15.83-4.13,17.44-7.7.26-.59,1.96-1.01,3.02-.18.66.51.88,1.79.19,3.02-1.54,2.76-7.09,8.05-19.28,7.57-11.65-.46-17.2-8.22-17.07-12.98.04-1.29.45-1.79,1.57-2.03Z"/><path class="cls-16" d="m332.24,371.06c12.5-4.54,24.63-.38,29.44,12.11,4.2,10.89.35,23.46-14.62,27.8-13.16,3.82-23.74-3.04-27.32-12.3-4.21-10.9.6-23.3,12.49-27.61Z"/><path class="cls-1" d="m332.74,373.86c10.01-3.64,18.96.02,23.58,9.68,3.95,8.23.29,18.82-11.7,22.28-10.55,3.05-19.02-2.44-21.89-9.86-3.37-8.74.49-18.66,10.02-22.11Z"/><path class="cls-16" d="m313.39,395.17c6.72,12.46,10.62,35.85.75,50.8-1.84,2.8-12.36,18.54-29.28,19.57-1.82.12-10.86-.75-5.3-3.97,18.9-10.97,16.38-17.06,16.41-20.46.06-8.02-4.17-20.14-7.89-28.29-11.68-25.6-43.37-39.92-74.81-43.78-18.34-2.26-45.83.67-62.52,9.21-5.7,2.92-8.79,6.27-9.16,9.61-.36,3.35.49,3.69,2.28,6.02q1.98,2.57,1.32,5.56l-1.33,6.57c-2.44-.43-15.07-1.63-18.05-13.13-1.88-7.26-.43-25.3,9.11-36.43,4.36-5.1,6.47-5.84,10.34-7.63,28.69-31.58,62.36-41.39,70.89-43.76,10.2-2.83,45.26-.08,58.94,7.15,28.34,14.96,62.87,55.88,66.22,71.93.56,2.68-3.93,8.03-6.51,4.64-4.81-6.31-9.62-9.2-23.16-14.03,0,0,1.31,6.86,1.55,9.5.53,6.06.19,10.92.19,10.92Z"/><path class="cls-1" d="m130.69,383.3c1.44-12.38,5.27-20.32,9.37-25.03,5.47-6.26,22.99-12.59,33.71-14.47,21.18-3.71,54.51-5.3,81.28,5.37,45.58,18.17,63.1,57.99,59.47,77.21-.77,4.08.08,20.24-19,32.7-5.18,3.38-10.06,2.36-10.06,2.36,0,0,5.51-3.18,8.19-5.61,10.93-9.96,9.49-13.34,9.83-16.76.81-7.82-4.78-13.96-15.37-32.97-7.93-14.24-32.75-33.71-63.56-38.58-16.36-2.6-36.73-4.59-56.41.82-7.94,2.18-16.39,4.31-22.37,8.46-5.38,3.73-9.69,8.25-9.86,12.69-.1,2.67,1,6.07,7.57,7.06l-1.41,4.8s-7.01-.38-10.34-8.16c-1.12-2.6-1.54-5.7-1.04-9.89Z"/><path class="cls-5" d="m153.82,346.26c2.25-.53,8.97-3.96,21.96-6.7,6.26-1.32,23.24-2.55,37.89-2.81,16.21-.3,37.57,5.46,45.17,8.71,15.29,6.55,38.63,24.4,49.44,43.15.94-25.83-11.65-45.01-16.51-51.65-2.45-3.32,3.64-2.51,7.15.94,3.5,3.44,5.79,12.71,3.51,11.8,2.24,4.05,7.16,15.96,7.71,18.63,13.68,5.49,18.75,9.24,25.35,15.43,1.81.31,3.67.87,1.43-3.09-6.71-11.97-22.51-34.28-39.77-49.54-9.58-8.49-20.09-14.26-28.87-17.73-7.25-2.86-37.31-7.36-51.84-3.91-16.36,3.89-46.58,18.59-62.63,36.77Z"/><path class="cls-15" d="m293.24,443.29c2.61,1.87,5.92,1.83,5.92,1.83,3.67,1.65,20.85,2.03,21.26-14.7.4-16.76-16.78-20.88-22.97-10.62l-5.31,5.07"/><path class="cls-16" d="m293.45,448.17c0-3.28.81-4.91,4.49-3.28,3.68,1.65,21.88,3.09,22.47-14.47.59-17.46-19.62-18.02-26.21-6.51-1.18,2.08-4.16.97-3.3-4.84l6.01-5.45c2.49-2.51,4.8-4.3,12.28-5.24l4.53.83c6.64,1.33,13.57,10.14,12.37,21.21-1.17,11.07-10.41,23.8-29.28,19.39l-3.36-1.64Z"/><path class="cls-16" d="m311.24,422.02c-3.87,0-8.77,1.75-11.37,7.73-1.34,3.18.23,7.04,1.14,7.26.92.21,0-1.83-.21-3.65-.24-1.82,1.69-6.1,6.34-4.07,3.64,1.59,3.89,5.89,1.37,8.16-2.49,2.27.64,1.79,2.04.24,2.06-2.28,2.06-11.38-6.81-10.9,1.36-1.81,4.54-3.63,6.81-3.88,2.28-.21,1.61-.89.69-.89Z"/><path class="cls-14" d="m183.39,427.29c.23,6.68-.04,16.09-5.35,16.61-6.14.6-9.14-7.92-8.87-14.61.33-8.42,3.88-13.41,7.25-13.41,3.38,0,6.68,2.6,6.97,11.41Z"/><path class="cls-11" d="m181.26,428.08c.16,4.67-.02,11.29-3.75,11.59-4.68.38-6.13-6.02-6.18-10.69-.09-6.52,2.7-8.86,5.06-8.87,2.35,0,4.66,1.82,4.87,7.96Z"/><path class="cls-14" d="m234.5,432.66c-.75,8.02-3.06,16.15-10.95,15.5-6.35-.52-7.93-10.09-6.54-16.78,2.03-9.91,8.35-12.64,12.1-11.97,3.79.68,6.18,4.89,5.39,13.25Z"/><path class="cls-11" d="m232.31,432.29c-.86,5.29-2.56,12.77-7.24,12.72-5.9-.05-6.26-7.42-5.29-12.7,1.36-7.38,5.35-9.75,8.27-9.52,2.92.24,5.37,2.53,4.26,9.49Z"/><path class="cls-1" d="m176,426.07c-.17-4.8,1.34-5.96,2.92-5.96,1.58,0,3.02,2.08,3.15,5.95.12,3.25-.5,5.48-2.52,5.48-2.05,0-3.44-2.03-3.56-5.48Z"/><path class="cls-1" d="m179.41,434.33c.95,0,2.08.68,2.35,2.73.22,1.58-.55,2.97-1.69,2.98-1.14,0-2.08-1.39-2.35-2.75-.27-1.37.58-2.96,1.69-2.96Z"/><path class="cls-1" d="m225.43,429.47c.5-4.13,2.63-7.16,5.16-6.61,2.54.58,3.39,4.19,2.57,6.93-.78,2.77-2.18,5.6-4.74,5.23-2.32-.37-3.38-2.4-2.99-5.55Z"/><path class="cls-1" d="m226.23,440.45c0-1.62.82-2.97,2.2-2.72,1.33.28,2.07,1.63,1.82,2.98-.31,1.35-1.03,2.44-2.39,2.44s-1.62-1.09-1.62-2.7Z"/><path class="cls-16" d="m238.48,416.55c1.31,1.11,4.13.32,4.7-1.94.15-.57.56-.89.89-.78.33.11.42.52.43.76.16,1.45-1.46,4.08-5.56,3.3l-.47-1.33Z"/><path class="cls-16" d="m238.68,419.04c2.18,2.42,5.77,1.05,6.5-.33.59-1.13,1.62-.83,1.65,0,.03,1.15-.55,1.83-1.65,2.47-.99.58-3.71,1.39-6.24-.37l-.27-1.78Z"/><path class="cls-1" d="m202.82,446.54c2.81,1.87,14.82,3.5,21.81,3.31-11.29-.28-11.98-12.46-10.54-20.17,2.51-13.42,12.54-17.78,19.33-13.56,0-1.36-.2-2.27-.75-3.23-3.17-.27-4.57-.37-6.76-1.01-3.23-.54-1.34-1.69-.89-2.02,1.7-1.3,2.8-2.48,4.41-4.61-2.13-2.68-4.55-4.68-7.64-5.02-4.89,3.5-8.43,5.23-12.73,7.05-7.13,2.44-5.2-.6-5.39-1.13-5.32,4.22-10.77,26.42-.86,40.4Z"/><path class="cls-16" d="m500.11,474.41c1.81-7.81,5.16-13.25,24.07-23.42,3.84-2.05,6.33-11.06,6.27-14.77-.09-3.75,1.85-6.72,6.11-7.43,3.11-.49,7.91,2.24,7.98,6.12,5.32-1.92,14,1.6,11.04,12.81,2.44,4.65-1.63,10.18-6.61,12.4.75,1.65.37,6.6-2.99,8.04,9.08-1.56,17.16,7.54,14.68,14.8-2.21,6.41-9.85,7.69-16.27,7.78-12.1.14-13.15,8.52-27.78,7.39-9.47-.73-19.04-12.81-16.51-23.72Z"/><path class="cls-17" d="m517.77,491.86c-7.09-.8-13.15-5.9-12.77-13.45-.01-8.86,12.11-20.92,19.85-24.02,4.71-1.9,8.98-10.75,9.14-12.95.23-3.44,7.59-4.77,9.17-.29,1.56,4.45-.13,11.9-10.24,19.39-5.38,3.93-4,9.25-1.99,11.97,1.96,2.7,4.54,2.7,3.82,1.06-.76-1.65,1.57-1.1,3.01-1.15,4.86-.21,9.7-2.1,12.98,3.38,4.44,7.35-4.38,6.64-12.06,8.92-2.82.86-11.04,8.26-20.92,7.16Z"/><path class="cls-17" d="m540.83,455.99c2.82-3.41,6.3-9.46,4.84-15.42,2.5-1.07,7.39,1.92,6.07,6.08-1.33,4.15-7.83,8.21-10.91,9.34Z"/><path class="cls-17" d="m540.16,458.12c2.24-.82,5.79-2.61,9.26-5.52,1.08,2.48-4.07,8.7-15.54,11.81,0,0,.52-3.2,6.28-6.29Z"/><path class="cls-17" d="m532.92,469.43s-1.32-1.62.04-2.6c2.28-.19,6.7-1.8,9.92-4.39.77,2.25-.88,6.12-9.97,6.99Z"/><path class="cls-16" d="m517.38,495.19c-.37,6.04-.4,12.9-17.2,16.78-8.49,1.99-13.71-.45-15.88-3.48-1.55-2.16-13.84-1-21.53,2.17,0,0-8.7-1.86-9.54-13.94-.61-8.84,4.28-8.69,4.28-8.69l22.34-6.9c-1.56-6.6-3.05-11.47,4.75-14.95,9.49-4.25,13.97-4.58,19.19-2.06,6.25,2.99,14.92,17.64,13.59,31.07Z"/><path class="cls-5" d="m462.48,505.1c12.2-5.19,21.98-6.59,27.99-7.58,2.55-3.13,1.82-13.27-4.23-16.32,0,0-13.88,3.79-24.8,7.93,0,0-2.58,4.59-2.45,7.19.2,3.5,3.51,6.85,3.48,8.78Z"/><path class="cls-1" d="m486.89,501.88l3.19-.87c.76,2.09,3.91,2.47,4.48-6.75.39-6.7-2.26-12.74-4.34-15.33-2.33-2.93-5.93-1-5.09.41l-2.5,1.44c-1.35-3.19-2.81-8.08,4.58-10.64,7.35-2.52,12.71-4.27,18.48.43,5.23,4.35,11.08,18.14,6.92,28.14-2.15,5.08-13.28,8.59-18.76,7.96-3.34-.4-5.35-1.24-6.96-4.81Z"/><path class="cls-16" d="m463.54,555.17l-3.21,17.26c3.26.46,8.52,1.59,10.14,3.69,2.57,5.32,1.53,8.82-2.08,12.23,11.07-4.06,39.29-3.4,44.7,24.2,3.38,17.34-4.11,28.48-19.62,31.56-31.07,6.18-44.21-3.91-59.92-8.68-11.42-3.47-12.49-16.53-9.68-23.68,2.8-7.15,4.77-13.15,5.46-19.06-4.84-1.12-9.47-7.21-7.66-12.83,1.81-5.61,4.24-7.62,9.68-8.36l.17-13.55,32.04-2.76Z"/><path class="cls-16" d="m386.11,555.56l-1.38,19.86c-7.17-.6-12.67,7.47-10.14,12.24-15.99-8.78-54.29-7.71-57.44,35.28-1.13,15.46,7.53,29.69,32.95,31.78,24.33,2.01,50.02.4,59.55-4.65,9.55-5.05,9.05-18.15,5.15-28.92-2.71-7.5-.39-13.71-.39-13.71,7.72.57,13.44-4.21,12.84-12.96-.38-5.59-4.04-10.7-8.56-12.59l5.45-24.54-38.02-1.78Z"/><path class="cls-5" d="m436.55,561.99l-1.25,13.99c4.92,2.23,14.86,3,19.15,1.61l2.85-17.04-20.76,1.44Z"/><path class="cls-1" d="m429.14,587.38c6.51,2.71,15.63,3.69,23.68,3.49,6.6-.15,10.82-2.2,11.58-7.2.77-5.14-1.58-7.03-5.25-7.15l-.24,1.85c3.28-.22.51,2.17-2.78,2.39-7.65.53-16.44.4-22.82-1.72-2.11-.7-2.67-1.64-.91-2.49,1.77-.86-.27-1.72-2.26-.95-4.63,1.78-5.53,9.9-1.01,11.78Z"/><path class="cls-2" d="m455.2,593.65c-4.74.33-13.16.35-22.65-1.74-.49,8.82-1.28,10.71-3.48,15.99-2.8,6.71-3.03,15.92,3.96,20.22,10.7,6.59,37.79,11.69,58.7,6.95,12.13-2.75,16.07-11,13.9-21.46-2.18-10.48-10.28-21.64-24.94-21.72-14.65-.09-24.52,5.35-31.55,14.99,0,0-1.82.13-.88-2.14.94-2.26,5.36-7.33,6.79-7.79l.14-3.31Z"/><path class="cls-6" d="m481.49,611.76c-6.48-1.43-10.92-6.22-9.94-10.68,1-4.47,7.05-6.93,13.54-5.5,6.47,1.43,10.92,6.22,9.92,10.69-.99,4.47-7.04,6.92-13.52,5.49Z"/><path class="cls-5" d="m417.76,560.51s-4.25,17.88-4.65,20.11c-6.86-3.93-18.49-5.34-22.87-5.03l1.57-17.13,25.96,2.05Z"/><path class="cls-1" d="m419.87,591.13c-4.91-7.34-23.88-13.37-35.24-9.1-5.35,2.02-4.35,8.53-1.5,9.98,8.01-3.29,21.43.17,29.46,5.11,3.37,2.07,4.16,4.66.31,4.38l-.4,2.23c6.01-.42,12.13-5.47,7.37-12.6Z"/><path class="cls-2" d="m385.58,595.7l.39-2.22c13.12-.9,21.04,2.39,25.17,6.51-1.04,8.86-1.65,17-.83,19.84,2.17,7.53,7.39,24.09-8.54,27.5-3.78.81-7.41-.88-9.51-2.65-15.17-12.68-29.48-21.04-49.24-20.77-9.91.14-14.22,8.67-13.52,10.82,1.22,3.79-7.48,1.65-2.93-18.48,2.53-11.16,11.36-26.61,31.14-26.31,15.93.23,38.36,12.16,42.98,33.84.83,3.79,2.72,2.04,2.63-1.83-.32-12.62-9.67-20.76-17.74-26.24Z"/><path class="cls-16" d="m393.57,647.89c-14.13,2.07-36.75,1.8-45.61-.16-9.49-2.08-15.17-5-16.02-9.32-.85-4.35,2.65-9.18,12.52-9.66,27.92-1.38,41.24,16.38,49.11,19.14Z"/><path class="cls-16" d="m382.58,487.33c-7.33,15.88-11.3,30.07-14.08,37.58-11.48.79-16.45,5.71-17.49,17.14-.83,9.11,2.15,15.44,15.19,21.11,29.07,12.65,100.27,9.58,122.1-8.41,5.81-4.78,4.43-12.57,2.04-18.08-2.63-6.03-5.88-10.95-13.61-11.51,0,0-9.77-35.58-12.98-44.88-8.97-13.29-68.73-8.81-81.18,7.07Z"/><path class="cls-5" d="m385.5,492.44c-7.51,18.63-12.5,33.8-13.58,42.13,13.51,12.8,69.78,13.5,102.79-1.59,0,0-11.32-42.06-14.11-50.66-5.37-8.79-63.59-6.06-75.11,10.12Z"/><path class="cls-1" d="m368.99,529.27c-.43,1.68-.86,3.36-.86,3.36-2.97-.53-3.5,4.04.82,6.54,25.55,14.71,84.77,8.07,107.04-3.72,2.34-2.15,4.5-3.49,7.67,2.4,3.15,5.82,2.79,9.31-2.93,13.39-20.41,14.59-91.92,18.41-113.98,4-7.79-5.09-9.44-9.09-7.82-18.14,1.17-6.67,7.3-8.2,10.06-7.84Z"/><path class="cls-16" d="m400.91,521.7c.08-2.37,1.17-12.95,18.55-15.31,15.43-2.08,25.16,6.43,24.76,14.81-.37,8.4-9.56,13.13-19.54,13.78-14.46.95-24.07-4.58-23.78-13.28Z"/><path class="cls-8" d="m404.31,520.65c.49-5.62,4.87-10.43,14.83-11.19,9.96-.75,18.06,3.19,18.68,9.67.61,6.47-6.81,11.49-16.93,11.77-10.08.28-17.14-3.97-16.58-10.25Z"/><path class="cls-16" d="m380.78,493.94l-32.45-1.53c-3.47-5.15-8.42-8.35-13.94-8.69-5.51-.34-15.12-.73-18.47,4.94-2.74,4.65-5.76,19.19-1.04,31.82,3.91,10.45,11.29,12.64,20.18,11.04,8.88-1.61,13.67-5.14,15.72-11.82l28.35-4.11c6.87-.89,7.89-19.29,1.64-21.64Z"/><path class="cls-5" d="m381.22,497.54l-30.58-.47c2.16,6,2.59,13.97.99,19.26,0,0,19.97-2.23,25.68-2.79,5.69-.56,7.86-11.51,3.91-16Z"/><path class="cls-1" d="m319.9,496.4c2.65-2.94,7.66,1.62,9.66,5.85,3.37,7.16,2.69,19.23-3.72,19.4-2.63.06-2.32,3.92-.19,4.79,5.16,2.14,14.69,1.04,19.68-3.56,5.89-5.44,5.1-20.37.2-27.68-3.17-4.71-6.33-7.57-15.71-7.17-10.28.42-11.56,2.94-11.99,6.95-.41,4.02-.4,4.13,2.06,1.42Z"/><path class="cls-16" d="m326.18,501.61c-4.04-2.95-5.42-14.55-14.57-17.5-9.15-2.96-20.31-1.04-32.7-5.57-5.35-1.95-11.56,2.89-10.41,10.66,1.14,7.76,10.55,9.73,13.88,9.63-20.8,3.81-29.79,13.18-21.97,21.06-6.05,5.6-1.84,17.1,7.21,16.7.94,5.76,7.1,8.52,12.63,5.88,3.23,5.56,9.63,4.9,16.26,1.77,12.69-5.96,25.91-7.46,32-13.52,7.53-7.52,9.79-20.27-2.32-29.1Z"/><path class="cls-17" d="m320.61,499.09c-1.46-4.86-6.59-11.14-16.85-12.51-10.28-1.37-17.95-2.06-22.49-3.53-6.55-2.12-10.71,5.27-5.36,10,4.1,3.61,12.43,3.85,15.11,4.03,2.65.19,1.85,2.14-1.87,2.88-3.73.75-19.74,5.63-24.08,10.06-2.16,2.19-2.18,6.2.45,7.04,4.93-3.67,14.3-7.83,17.45-8.14,2.02-.19,2.47,1.47,2.47,1.47-7.24,3.19-16.16,6.59-20.49,11.31-4.88,5.32,0,9.69,3.34,9.93.15-7.02,10.77-10.97,20.07-15.02,2.89-1.26,3.61.92,3.61.92-8.25,3.45-18.23,7.79-20.59,12.97-2.36,5.18,3.65,8.92,7.81,6.52.01-5,1.57-6.89,6.71-8.88,5.16-1.99,12.68-4.48,12.68-4.48,1.7-.55,2.68.54,2.55,1.85-2.57.77-15.12,4.46-17.55,7.5-2.57,3.17-.26,8.67,5.19,7.03,3.83-1.15,13.77-5.75,19.49-6.36,5.72-.62,18.79-4.44,21.35-14.26,3.15-12.15-7.34-14.87-8.99-20.33Z"/><path class="cls-13" d="m357.84,607.96c6.21-2.31,9.96-7.67,8.37-11.95-1.59-4.29-7.93-5.9-14.15-3.59-6.22,2.3-9.97,7.66-8.38,11.94,1.6,4.3,7.93,5.89,14.16,3.59Z"/><path class="cls-16" d="m505.34,407.86s16.72,4.54,31.67-.68c16.27-5.7,31.57-22.37,21.12-51.08-2.94-8.1-20.51-36.71-57.97-22.44-15.41,7.03-24.61,20.74-25.47,35.33"/><path class="cls-1" d="m483.85,359.62c2.23-8.34,7.47-14.4,17.28-19.27,31.33-14.35,47.04,11.06,49.5,17.79,6.06,16.71,2.4,28.57-5.27,36.13,0,0-3.84-4.26-7.4-7.92-4.41-4.51-13.85-11.24-13.88-12.88-.05-1.63.6-1.5,2.15-3.74,1.71-2.48,2.28-5.61-.69-7.84-7.85-5.94-11.05,3.86-16.31,1.64-5.38-2.27-11.01-5.27-11.01-5.27-2.16.15-14.43,11.41-14.59,11.03-1.31-3.36-.12-8.38.22-9.67Z"/><path class="cls-16" d="m523.11,390.73s1.96-15.01-8.46-22.83c-10.37-7.8-35.03-27.88-78.59-30.59-30.23-3.09-94.86,11.8-116.2,62.53-1.1,2.62-1.48,7.66-2.34,10.48-6.02.93-12.45,5.69-14.74,13.2-3.92,12.86,2.73,18.71,2.22,20.58-1.61,5.84-1.73,14.32,4.93,23.14,9.76,12.95,33.24,26.31,80.59,30.71,80.1,7.43,110.76-30.2,122.3-37.42,6.76,5.41,62.32,7.57,45.83-49.87-1.08-3.76-12.2-25.1-35.54-19.94Z"/><path class="cls-1" d="m471.51,368.37c15.15,7.26,31.62,18.43,40.73,28.11-6.35,5.08-9.94,13.01-12.04,20.21-22.6-22.9-48.83-38.46-83.27-41.98-29.92-1.64-61.07,10.5-78.65,24.9-5.84,5.51-8.86,9.65-12.08,15.23-1.07-.65-3.14-3.23-3.98-4.13,17.93-36.82,64.09-48.13,73.76-49.75,30.37-6.4,61.42.06,75.53,7.42Z"/><path class="cls-1" d="m380.72,430.93c1.53,3.73,1.5,7.67-.67,8.59-2.17.95-5.19-1.32-6.76-5.03-1.54-3.71-1.03-8.19,1.15-9.11,2.53-1.1,4.74,1.84,6.29,5.55Z"/><path class="cls-17" d="m548.55,406.34c-3.84-6.36-8.91-12.36-20.32-11.58-8.13,1.3-18.82,5.64-23.27,17.39-.72,1.88-1.67,5.07-1.69,7.78-.89,1.12-2.45.84-3.21.25-.46-.36-22.4-23.04-39.87-29.11,7.56,8.78,12.37,19.2,12.68,31.41l-.7,1.02c-.77.05-1.55-.15-2.09-.59.37-13.48-5.35-25.79-15.96-34.38-7.77-4.88-21.43-9.1-33.8-10.6.16.07.33.12.49.16,25.12,9.95,23.79,47.65,23.3,54.47-.46,6.82-4.97,18.77-16.9,13.63-11.96-5.14-9.99-28.84-2.28-33.04,7.71-4.18,11.07-.41,11.07-.41-2.08-29.16-17.8-33.25-20.64-33.18-11.95-.52-22.25,13.03-22.5,32.93-.28,19.9,13.6,34.45,15.13,36.52,1.54,2.09-.06,1.77-.06,1.77,0,0-8.05-5.73-14.35-20.43-1.74-4.08-3.78-16.7-3-22.4,3.05-22.97,15.01-29.13,18.99-30.55-.06,0-.09,0-.13,0-3.37-.52-9.24.12-11.53.54-5.06,2.67-10.65,9.52-9.46,15.79-.68,1.04-2.25,1.54-3.04.45-1.07-6.82,1.96-11.2,5.42-14.55-7.62,1.01-15.2,2.99-21.65,6.35,3.68,1.31,9.35,4.64,8.67,6.4-1.18,2.67-4.84-1.98-9-3.68-2.95-1.76-6.12-.54-9.38,1.62,8.98-1.93,15.86,4.68,21.34,15.31,5.44,10.62,6.84,32.87,6.84,32.87,3.86-1,9.08,6.18,8.86,9.89-.26,4.76-1.03,3-3.24-2.06-2.21-5.04-4.93-5.62-6.98-4.7-2.03.93-2.31,2.45-2.33,4.57.59,6.49,3.64,9.16,4.77,9.87,1.14.72,1.71,1.71.75,2.55-.95.88-1.46.47-1.46.47-6.47-4.95-6.04-9.62-6.04-9.62-6.48,3.32-22.05-7.9-20.01-22.24,2.53-17.74,15.44-14.92,15.44-14.92,0,0-2.4-8.88-6.86-15.09-4.45-6.22-12.25-4.9-15.87-2.36-10.38,7.46-10.69,19.82-10.86,28.4.08,19.25,11.81,32.2,12.54,32.86.76.65,4.64,2.04,2.41,3.54-2.22,1.48-8.39-4.87-12.53-14.79-4.17-9.93-5.87-21.14-3.95-32.66,1.16-7.02,3.96-12.9,8-16.87-3.49,1.92-6.52,4.21-9.79,6.54,0,0-2.12,2.28-3.48,5.18-1.36,2.95-2.43,6.44-2.61,11.35-.1,2.95.6,7.7-.05,7.88-3.08.8-2.37-13.38-.58-17.35-3.13,3.13-7.61,12.3-6.48,23.79.3,2.99-5.29-.36-11.51,5.2-5.55,4.96-6.04,15.28-1.34,23.36,2.98,5.16,8.12,9.29,15.3,13.25,28.85,16.37,62.35,21.67,97.51,17.32,30.73-5.02,59.05-15.51,81.44-37.33.52-.91-1.61-2.69-2.9-4.77-1.44-2.3-2.07-4.87-1.13-5.47,1.07-.66,2.13,1.09,2.13,1.09,4.1,7.56,12.83,11.36,21.8,11,9.45-1.14,19.14-5.46,22.1-14.96,5.7-10.44,4.44-25.29-2.14-35.1Z"/><path class="cls-1" d="m437.35,430.81c-.16,3.73-2.37,6.66-4.94,6.54-2.56-.11-4.52-3.24-4.37-6.96.16-3.74,2.39-6.65,4.94-6.53,2.58.1,4.53,3.22,4.37,6.95Z"/><path class="cls-18" d="m324.33,459.12c6.23-.41,10.94-5.89,10.51-12.24-.43-6.34-5.82-11.12-12.06-10.71-6.23.43-10.94,5.9-10.51,12.25.43,6.34,5.83,11.13,12.06,10.7Z"/><path class="cls-16" d="m536.27,406.92c-.6,1.81-3.28,1.44-5,2.04-1.99.71-3.46,1.96-3.46,1.96.69.29,2.64,1.02,3.73,1.94,5.86,3.93,10.86,12.46,9.11,20.66-.16,1.49-1.3,3.54-3.1,3.66-2.17-1.82.75-3.58.6-6.19.55-6.89-4.95-14.95-9.35-16.73-1.14-.58-3.05-2.06-5.36.36-4.05,4.45-6.03,9.46-4.85,15.51.2,2.9,1.9,5.26,3.6,7.6-.97.82-2.77.45-3.63-.49-3.68-4.92-4.47-12.93-1.26-18.29,5.8-11.42,17.24-12.78,18.14-12.7.93.07.83.66.83.66Z"/><path class="cls-4" d="m503.67,444.07c5.17-.35,9.09-4.69,8.75-9.71-.35-5.01-4.81-8.77-9.98-8.41-5.18.35-9.11,4.69-8.76,9.68.35,5.03,4.81,8.79,9.99,8.43Z"/><path class="cls-1" d="m382.08,449.37s-4.88,8.61-22.69,9.25c0,0,.05-.23-.35-.64-.41-.39-.82-.71-1.2-.91-.37-.22-.98-.55-1.42-.86,0,0-2.13-1.94-3.98-4.76-1.86-2.8-3.99-6.44-5.63-11.22,0,0-2.06-5.56-2.8-11.16-.74-5.61-.05-12.87.16-14.37.21-1.51,1.18-8.99,4.45-13.65,3.3-4.65,7.12-8.12,12.21-8.39,5.07-.26,7.87,2.22,9.04,3.5,1.15,1.26,3.39,5.24,4.55,7.68,1.16,2.44,3.31,9.17,3.31,9.17,0,0-1.53-.6-2.58-.54-1.08.05-3.11-.18-6.2,1.69-3.07,1.86-4.95,5.69-5.53,7.42-.61,1.73-2.02,6.2-1.32,10.76.73,4.54,1.93,6.35,3.97,9.41,2.02,3.04,5.99,6.19,9.86,7.53.85.28,3.96,1.36,6.16.07Z"/><path class="cls-1" d="m434.78,447.22s-5.76,3.6-14.22,3.73c-8.45.14-11.18-.85-12.79-1.86-1.18-1.43-4.32-5.21-5.85-7.63-1.55-2.4-5.29-9.19-6.73-13.68-1.44-4.51-2.29-8.79-2.41-12.12-.12-3.32,0-9.07.97-13.32.94-4.27,2.88-9.23,3.64-10.5.77-1.28,3.47-6.22,6.74-8.48,3.27-2.27,4.92-3.13,7.88-3.75,1.54-.18,5.39-.86,9.95,2.13,4.55,2.98,6.54,6.17,8.51,9.31,1.97,3.11,3.14,7.53,3.7,9.34.55,1.78,2.04,10.29,1.89,12.57,0,0-2-2.29-5.95-1.52-3.94.73-5.08,1.81-5.66,2.16-.54.33-2.14,1.49-3.65,4.89-1.51,3.4-1.63,5.72-1.73,6.25-.07.56-.56,3.44-.09,8.13.48,4.7,3,8.73,3.62,9.5,0,0,1.77,2.53,4.78,3.74,2.99,1.21,4.94,1.37,7.42,1.1Z"/><path class="cls-17" d="m369.11,478.76l-6.1,3.74c14.92,13.85,32.31,16.41,46.49,14.61,30.6-3.88,41.73-15.6,47.03-27.63"/><path class="cls-16" d="m342.11,462.46c23.78,10.74,28.17,34.8,67.95,30.93,28.23-2.75,42.97-19.3,54.23-37.13,6.2-9.85,10.35-19.97,17.81-24.83l-14.57,6.71c-10.97,12.55-76.32,39.08-120.94,23.47l-4.48.85Z"/><path class="cls-16" d="m477.43,425.81c3.99.27,6.89,1.08,10.15,3.89,3.27,2.81,2.89,6.64,1.22,7.77-1.58,1.1-3.28.47-4.66-1.73-1.94-3.12-2.58-5.51-7.84-7.36-2.52-.89-1.66-2.78,1.13-2.58Z"/><path class="cls-5" d="m416.58,476.35c-9.22,1.98-12.57,5.67-14.86,7.83-.82.78-1.43.13-1.09-.32.58-.8,1.39-1.83,2.2-2.58-5.49-1.86-16.31,1.72-19.51,6,7.21,4.19,14.61,4.67,24.42,3.54,15.5-1.77,24.14-5.05,30.72-10.19-4.9-3.12-12.14-6.37-21.88-4.28Z"/><path class="cls-16" d="m340.67,457.9c11.35,5.76,23.95,7.3,35.94,7,38.61-1.01,63.29-10.95,76.44-18.54,13.16-7.6,19.57-12.59,25.4-18.14,1.83-.99.97-.52,3.25-.2,1.79,1.23.95,1.82.4,3.4-4.37,4.03-12.67,9.63-22.84,15.8-25.88,15.69-65.1,23.05-94.05,20.36-8.99-.83-15.59-1.01-24.39-5.78-4.56-2.49-4.17-4.47-3.69-4.95.48-.49.91-.28,3.53,1.05Z"/><path class="cls-16" d="m452.89,475.81c-6.79,10.12-20.85,18.26-44.51,20.96-14.22,1.63-30.97-3.7-41.38-12.01-.84-.67-1.71-1.41-2.63-.8-1.68,1.11-.15,2.75.39,3.16,12.15,9.32,26.25,14.97,46.59,12.51,23.86-2.88,37.95-11.54,44.82-21.82.43-.64,1.88-2.8-.36-4.17-.97-.59-2.51,1.6-2.9,2.16Z"/><path class="cls-5" d="m521.24,376.34c-.12-.12-.25-.24-.37-.35-.35-.52-2.84-4.35.33-5.99,3.97-2.05,2.82-6.74-1.19-6.26-2.34.27-2.5,1.76-4.29,3.14-1.25.97-3.57.78-6.22-.07-3.23-1.03-6.59-2.84-6.85-2.67-.88.58-.51.75,6.06,5.75,5.53,4.2,8.21,7.54,7.26,8.66-.94,1.13-2.63,1.75-5.18.4-2.3-1.68-3.54-3.91-5.38-6.27-5.57-7.15-12.32-12.28-21.89-17.38-16.31-8.7-32.74-13.46-65.14-12.05-18.68.32-76.15,17.36-93.03,53.89.86-2.08,18.41-20.34,37.63-29.62,31.75-15.31,56.24-15.14,88.28-9.92,25.48,5.62,45.25,18.22,64.22,36.51,0,0,2.9-2.25,8.15-3.45,1.79-.41,7.8-1.24,10.5-.38.8.26-7.87-9.2-12.89-13.93Z"/><path class="cls-17" d="m308.04,424.7c2.03-5.16,7.42-10.03,11.59-11.05,1.31-.09,4.19,3.66,5.5,5.29-1.86,3.94-1.92,7.98-1.43,11.87-4.25-.68-11.88,2.73-15.17,8.66-2.39-4.22-1.73-11.85-.5-14.77Z"/><path class="cls-7" d="m381.21,486.18s-8.41-3.56-14.56-8.99c-5.52-4.89-9.66-8.32-15.72-12.32-.58-.38-1.41-.86-1.26-1,.14-.14.49.09,1.74.53,3.06,1.1,9.01,2.58,18.59,2.94,8.69.34,24.5-.21,41.61-3.01,16.52-2.7,29.03-7.65,43.18-15.19,2.19-1.16,6.22-3.83,9.8-6.27,2.07-1.4,3.61-2.79,4.74-3.29.82-.38.99.48.51,1.25-.24.41-1.22,1.94-2.02,3.62-2.26,4.72-10.28,17.45-15.14,23.01-6.43,7.34-12.05,11.04-12.05,11.04,0,0-11.43-9.82-29.25-3.65,0,0-5.46,2.56-6.89,3.8,0,0-13.65-2.87-23.27,7.53Z"/></g></svg>