<?xml version="1.0" encoding="UTF-8"?>
<svg id="_レイヤー_2" data-name="レイヤー 2" xmlns="http://www.w3.org/2000/svg" width="981.15" height="425.22" viewBox="0 0 981.15 425.22">
  <defs>
    <style>
      .cls-1 {
        fill: #fff;
      }

      .cls-2 {
        fill: #ff2121;
      }

      .cls-3 {
        fill: #ff0;
      }

      .cls-4 {
        fill-rule: evenodd;
      }
    </style>
  </defs>
  <g id="_内容" data-name="内容">
    <g>
      <g>
        <path class="cls-4" d="m18.28,332.38h-7.06v-3.89h22.54v3.92c-2.32,1.9-5.04,3.16-7.78,4.34.17.14.73.7.9.87h8.88v3.95c-.84,1.2-2.77,3.98-6.52,7.08l-3.19-3.22c.59-.39,2.55-1.71,4.26-3.86h-5.46v9.83c0,1.65-.81,2.83-3.25,2.83h-5.91l-1.04-4.34h4.65c1.06,0,1.06-.2,1.06-1.01v-7.31h-11.12v-3.95h11.34c-1.99-1.65-3.98-2.83-4.9-3.36l2.6-1.88Zm1.93,0c1.09.67,1.93,1.29,2.83,1.93,2.46-.98,3.16-1.57,3.61-1.93h-6.44Z"/>
        <path class="cls-4" d="m40.87,344.48c-.03.7-.22,5.77-1.04,8.37l-2.83-1.76c.53-1.93.95-4.73.92-6.97l2.94.36Zm-3.56-5.01c.87.03,1.29.03,1.85,0,.87-1.09,1.12-1.43,1.34-1.71-.25-.34-1.54-2.16-3.42-3.67l1.93-3.42c.34.22.45.31.64.48.84-1.46,1.23-2.13,1.99-3.67l3.3,1.09c-.34.78-.76,1.76-2.94,4.9.2.25.42.5.84,1.01,1.37-2.02,1.99-3.25,2.52-4.26l3.53,1.29c-1.65,2.77-3.58,5.35-5.71,7.76.34-.03,2.1-.11,2.49-.14-.36-1.18-.42-1.34-.64-1.85l2.77-.92c.73,1.29,1.76,4.4,2.16,5.94l-3.3,1.06c-.11-.53-.14-.73-.22-1.15-.28.06-.5.08-1.34.2v11.76h-3.56v-11.34c-2.46.25-3.16.28-4.06.34l-.17-3.7Zm11.42,4.37c.59,2.27.87,5.01.95,6.47l-3.39.56c0-.53-.17-4.65-.56-6.52l3-.5Zm7.28-15.93c-.17.84-.34,1.71-.87,3.19h8.09c-.17,11.79-.22,17.47-.84,20.08-.22.98-.98,3-3.22,3h-6.16l-.84-4.2h4.87c.7,0,1.06,0,1.32-1.26.45-2.21.56-9.16.62-13.66h-5.57c-1.23,2.24-2.02,3.08-2.8,3.95l-2.83-3.33c1.79-1.88,3.44-4.73,4.12-8.06l4.12.31Zm-2.13,10.25c1.2,1.6,2.66,4.09,3.47,6.69l-3.7,1.9c-.5-1.48-1.79-4.79-3.36-6.94l3.58-1.65Z"/>
        <path class="cls-4" d="m89.82,330.73c-.64,8.74-3.58,17.39-14.81,22.32l-3-3.75c9.86-3.84,11.84-10.58,12.54-14.2h-17.11v-4.37h22.37Z"/>
        <path class="cls-4" d="m96.48,348.7c3.16-1.85,6.02-4.06,8.82-7.45h-8.15v-3.75h10.02l-.06-4.2h3.84l.03,4.2h5.32v3.75h-5.29l.08,8.12c.03,3.67-1.54,4.03-5.82,3.89l-.9-3.86c.34.03,1.46.11,2.16.11s.73-.11.73-.84l-.03-4.06c-1.79,2.1-4.03,4.4-8.09,7.06l-2.66-2.97Z"/>
        <path class="cls-4" d="m146.6,338.76v4.34h-23.97v-4.34h23.97Z"/>
        <path class="cls-4" d="m167.69,338.09c1.37,1.93,4.54,6.38,7.22,12.82l-4.09,2.18c-.7-1.62-1.01-2.35-1.71-3.86l-18.03,2.52-1.06-4.37,3.89-.48c.87-2.02,3.42-8.15,6.66-18.12l4.56,1.46c-2.86,8.46-5.46,14.56-6.1,16.04l8.04-.98c-1.2-2.16-2.13-3.53-3.22-5.04l3.84-2.18Z"/>
      </g>
      <g>
        <path d="m35.88,390.5c-.49.31-2.14,1.39-2.14,2.34,0,1.66,3.53,1.78,5.44,1.78,3.06,0,5.19-.47,6.01-.65l.14,2.18c-1.98.36-3.98.5-5.98.5-2.2,0-7.72-.11-7.72-3.57,0-.86.31-2.03,2.83-3.82l1.42,1.22Zm6.41-4.72c-.92-.14-2.47-.41-4.86-.41-2.05,0-3.62.18-4.36.27l.09-2.12c.86-.07,2.34-.2,4.16-.2s3.46.13,5.2.4l-.23,2.07Zm1.04-4.5c.83,1.17,1.3,2.25,1.76,3.42l-1.26.7c-.5-1.4-.9-2.23-1.69-3.47l1.19-.65Zm2.63-.7c.81,1.15,1.15,1.93,1.78,3.42l-1.28.7c-.5-1.42-.88-2.2-1.69-3.47l1.19-.65Z"/>
        <path d="m53.85,386.9c.25-.58.32-.77.45-1.15-2.47.4-4.07.52-4.93.59l-.47-1.71c1.46-.07,3.78-.22,6.46-.83-1.46-.4-2.75-.67-4.23-.97l.68-1.57c1.04.22,4.39.9,6.52,1.67,1.73-.65,2.72-1.28,3.31-1.66l1.49,1.19c-.54.36-1.3.83-2.48,1.39,1.39.65,1.94.97,2.45,1.24l-.97,1.48c-.59-.38-1.71-1.08-3.71-1.82-1.03.31-2.3.65-3.49.86l1.24.14c-.09.32-.16.61-.4,1.13h9.24v1.71h-10.14c-.25.4-.58.92-1.3,1.82h3.15v-1.31h1.84v1.31h5.38v5.49c0,.49-.16,1.51-1.57,1.51h-2.36l-.32-1.78h1.89c.34,0,.5-.07.5-.49v-3.06h-3.53v6.05h-1.84v-6.05h-3.28v5.33h-1.84v-4.95c-.88.79-1.67,1.33-2.43,1.82l-1.19-1.64c1.31-.76,3.29-1.96,4.84-4.05h-4.57v-1.71h5.58Z"/>
        <path d="m71.61,381.26v1.13h3.02v1.67h-5.69v2.92c0,.63.18.63.7.63h3.73l-.22,1.71h-4.63c-.43,0-1.31-.14-1.31-1.31v-3.94h-1.06v-1.67h3.66v-1.13h1.8Zm10.57,10.84h-6.7v1.12h5.96v1.48h-5.96v1.22h7.54v1.64h-16.87v-1.64h7.45v-1.22h-5.94v-1.48h5.94v-1.12h-6.66v-1.55h15.23v1.55Zm-2.61-3.69c.63,0,.68-.14.81-1.13h-4.02c-.54,1.62-1.24,2.48-1.64,2.95l-1.4-1.15c.74-.86,2.18-2.68,1.96-7.36h7.04c0,1.87,0,5.71-.36,6.9-.13.43-.41,1.37-2,1.37h-2.39l-.31-1.57h2.3Zm.9-2.29c0-.13.04-.79.04-.94h-3.69c-.02.23-.05.45-.14.94h3.8Zm-3.49-3.01c0,.18-.04.58-.04.9h3.62c0-.27.04-.77.04-.9h-3.62Z"/>
        <path d="m93.3,395.5c3.22-1.01,4.92-3.06,4.92-5.87,0-2.36-1.3-4.72-4.57-5.11-.27,2.05-.79,6.14-2.3,9.33-.88,1.89-1.76,2.41-2.68,2.41-1.8,0-3.69-2.48-3.69-5.83,0-4.54,3.44-7.78,7.99-7.78,4.2,0,7.31,2.75,7.31,7.04,0,5.44-4.7,7.13-5.78,7.51l-1.19-1.69Zm-6.41-5.01c0,2.16.99,3.67,1.69,3.67.54,0,.99-1.15,1.33-2,1.15-2.92,1.57-6.07,1.76-7.56-3.96.85-4.79,4.09-4.79,5.89Z"/>
        <path d="m117.59,382.07v15.59h-13.94v-15.59h13.94Zm-11.96,6.79h9.96v-4.93h-9.96v4.93Zm0,1.84v5.11h9.96v-5.11h-9.96Z"/>
        <path d="m122.82,383.73c-1.24.14-1.73.16-2.34.2l-.38-1.71c2.88-.13,4.54-.52,5.83-.92l.65,1.64c-.45.14-.83.27-2.03.52v2.27h1.85v1.75h-1.85v.56c.97,1.76,1.94,2.58,2.39,2.94l-.99,1.73c-.63-.76-1.03-1.35-1.4-2.27v7.72h-1.73v-7.56c-.85,2.32-1.8,3.51-2.3,4.16l-.79-2.14c1.31-1.49,2.25-3.28,2.97-5.13h-2.59v-1.75h2.72v-2Zm13.81,4.93v1.66h-3.83v2h3.57v1.58h-3.57v1.98h4.3v1.71h-11.29v-1.71h5.15v-1.98h-3.51v-1.58h3.51v-2h-3.89v-1.66h9.56Zm-.13-6.79v5.28h-9.25v-5.28h9.25Zm-7.47,1.58v2.12h5.69v-2.12h-5.69Z"/>
        <path d="m147.14,382.25c-.27.47-.7,1.19-.99,1.64,1.89-.11,3.78-.32,5.65-.7l-.02,1.85c-3.19.45-4.21.52-6.77.67-.36.56-.72,1.13-1.08,1.69.5-.32.94-.59,1.98-.59.68,0,2.21.14,2.86,1.87,1.76-.76,3.15-1.3,4.27-1.71l.72,1.78c-1.64.56-3.08,1.12-4.66,1.76.05,1.21,0,2.99-.02,3.47h-1.91c.07-.92.11-1.6.13-2.68-1.6.76-2.92,1.57-2.92,2.63,0,1.01,1.1,1.4,3.65,1.4,2.16,0,3.91-.29,4.63-.41l-.2,1.96c-1.35.16-2.72.27-4.11.27-1.6,0-5.82,0-5.82-3.15,0-2.29,2.61-3.66,4.61-4.59-.27-.74-.77-1.03-1.53-1.03-2.09,0-3.42,1.75-4.77,3.73l-1.55-1.08c1.84-2.18,3.17-4.41,3.69-5.26-1.17.02-1.69.02-3.08-.02l.04-1.85c.72.04,1.75.07,2.84.07h1.24c.59-1.12.74-1.4,1.13-2.21l1.96.49Z"/>
        <path d="m35.88,417.5c-.49.31-2.14,1.39-2.14,2.34,0,1.66,3.53,1.78,5.44,1.78,3.06,0,5.19-.47,6.01-.65l.14,2.18c-1.98.36-3.98.5-5.98.5-2.2,0-7.72-.11-7.72-3.57,0-.86.31-2.03,2.83-3.82l1.42,1.22Zm6.41-4.72c-.92-.14-2.47-.41-4.86-.41-2.05,0-3.62.18-4.36.27l.09-2.12c.86-.07,2.34-.2,4.16-.2s3.46.13,5.2.4l-.23,2.07Zm1.04-4.5c.83,1.17,1.3,2.25,1.76,3.42l-1.26.7c-.5-1.4-.9-2.23-1.69-3.47l1.19-.65Zm2.63-.7c.81,1.15,1.15,1.93,1.78,3.42l-1.28.7c-.5-1.42-.88-2.2-1.69-3.47l1.19-.65Z"/>
        <path d="m50.77,408.86h6.93c-.16,6.19,1.24,10.82,7.71,14.31l-1.33,1.89c-2.43-1.42-5.89-4.02-7.44-9.36-1.21,3.91-2.72,6.23-7.45,9.36l-1.28-1.78c4.41-2.36,7.71-6.45,7.78-12.48h-4.92v-1.94Z"/>
        <path d="m66.1,423.22c5.49-3.02,5.92-6.61,6.27-9.43h-5.85v-1.89h6.01c.02-.2.09-1.48.09-2.38v-1.3h2.05v1.39c0,1.06-.04,1.73-.09,2.29h8.1c-.05,6.05-.43,9.45-.74,10.7-.16.68-.59,2.52-2.65,2.52h-3.33l-.31-2.03h3.01c1.03,0,1.15-.65,1.39-1.96.27-1.49.49-5.28.47-7.33h-6.12c-.41,3.49-1.21,7.92-7.15,11.25l-1.15-1.82Z"/>
        <path d="m98.13,410.39c-2.47,1.82-5.76,3.8-8.71,5.6-.68.42-.76.45-.76.68,0,.22.07.25.7.58,2.52,1.33,5.8,3.04,9.25,5.76l-1.49,1.67c-3.37-2.81-6.46-4.48-9.06-5.89-.97-.52-1.82-1.06-1.82-2.09,0-1.08.95-1.66,1.66-2.09,2.7-1.64,5.73-3.53,8.71-5.89l1.51,1.66Z"/>
        <path d="m102.99,423.22c1.87-3.75,3.03-7.69,3.53-9.69-1.33.07-2.34.07-3.1.07l-.02-2c.5.02,1.01.04,1.71.04.67,0,1.12-.02,1.87-.05.31-1.35.41-1.89.59-2.9l2.09.22c-.34,1.55-.42,1.82-.59,2.52,1.3-.16,2.16-.29,3.69-.61l.05,1.93c-2.23.41-3.78.58-4.23.61-.99,3.64-2.02,7.4-3.64,10.66l-1.96-.79Zm8.41-3.91c-.36.36-.96.96-.96,1.66,0,1.21,2.58,1.21,3.62,1.21,1.64,0,3.04-.22,3.87-.36v2.04c-.63.07-2.07.23-3.85.23-1.39,0-5.62,0-5.62-2.74,0-1.12.65-1.98,1.35-2.74l1.58.7Zm6.12-3.31c-.85-.09-1.84-.2-3.37-.2-1.78,0-3.13.16-3.69.23l.23-1.85c.68-.09,1.89-.25,3.76-.25,1.44,0,2.43.09,3.24.16l-.18,1.91Zm-2.79-7.13c.32.4,1.04,1.28,2,3.33l-1.33.79c-.61-1.44-1.04-2.23-1.91-3.38l1.24-.74Zm2.57-.97c.81.99,1.33,1.94,2,3.33l-1.31.79c-.59-1.39-1.06-2.21-1.93-3.38l1.24-.74Z"/>
        <path d="m133.77,419.39c-1.51-.7-2.21-.95-3.83-1.24l-.13-1.55c.7.13.97.2,1.75.49-1.01-1.33-1.48-2-2.27-3.22-3.26.52-6.28.49-7.63.45l-.18-1.98c.74.02,1.4.05,2.36.05,1.71,0,2.95-.13,4.38-.29-.52-.88-.77-1.31-1.57-2.81l2-.65c.25.56.83,1.78,1.6,3.12,2.34-.47,3.76-1.01,4.93-1.53l.77,1.86c-1.89.77-3.82,1.24-4.65,1.42,1.06,1.62,2.21,3.21,3.53,4.66l-1.06,1.22Zm.36,4.47c-.97.16-2.72.45-4.92.45s-4.48-.32-5.8-1.64c-.7-.68-1.1-1.58-1.1-2.56,0-1.95,1.4-2.74,1.96-3.06l1.28,1.24c-.61.36-1.24.77-1.24,1.75,0,2.34,3.82,2.36,4.84,2.36,2.25,0,4.11-.38,5-.58l-.04,2.04Z"/>
        <path d="m142.03,410.49c-.18,1.06-.45,2.72-.45,4.84,0,4.03,1.12,6.19,1.98,6.19.96,0,1.82-2.41,2.21-3.76l1.67,1.06c-.41,1.26-.95,2.45-1.51,3.29-.45.7-1.19,1.67-2.41,1.67-1.76,0-3.96-2.41-3.96-8.59,0-1.75.16-3.35.45-5.06l2.02.34Zm10.33,10.57c.05-4.43-1.37-7.15-2.68-8.77l1.64-.99c1.62,1.87,3.15,4.84,3.12,9.2l-2.07.56Z"/>
      </g>
      <g>
        <path class="cls-4" d="m325.27,342.4c-.62.39-2.94,1.88-2.94,3.05s1.4,1.46,2.02,1.6c1.32.28,2.72.48,5.1.48,4.51,0,7.7-.7,9.74-1.18l.31,4.84c-3.14.62-6.3.87-9.46.87-2.97,0-12.35,0-12.35-6.05,0-1.54.59-3.47,4.4-6.13l3.19,2.52Zm10.3-6.38c-1.6-.31-4.4-.84-8.6-.84-3.3,0-5.8.28-7,.42l.2-4.68c1.4-.14,3.72-.34,6.52-.34,4.62,0,7.81.56,9.24.81l-.36,4.62Zm.9-8.32c1.18,1.71,1.9,3.28,2.74,5.35l-2.1,1.15c-.78-2.21-1.37-3.44-2.6-5.43l1.96-1.06Zm3.75-.95c1.18,1.68,1.85,3.14,2.74,5.35l-2.1,1.15c-.78-2.24-1.43-3.61-2.6-5.4l1.96-1.09Z"/>
        <path class="cls-4" d="m349.69,333.92h-5.01v-3.92h10v-2.35h4.17v2.35h10.16v3.92h-5.07l3,.62c-.11.42-.78,2.91-1.76,4.98h4.87v3.98h-8.54c2.83,2.83,5.29,4.42,8.96,5.96l-2.35,4.06c-4.48-2.1-7.31-4.96-9.27-7.39v8.04h-4.17v-7.84c-3.64,4.09-6.55,5.94-9.13,7.2l-2.41-4.14c2.69-1.06,5.85-2.63,8.93-5.88h-8.46v-3.98h4.84c-.48-1.82-.9-3.47-1.62-4.9l2.86-.7Zm-.11,5.6h5.1v-5.6h-3.64c.45.92,1.26,3.05,1.62,4.93l-3.08.67Zm11.45-.87c.67-1.46,1.46-4.12,1.62-4.73h-3.81v5.6h5.71l-3.53-.87Z"/>
        <path class="cls-4" d="m388.64,335.82h9.3v3.89h-9.3v2.3h7.73v11.42h-17.98v-11.42h6.19v-8.43h-6.97v7.98c0,4.2-.87,9.41-3.02,12.63l-3.33-3.22c1.62-2.32,2.16-7.03,2.16-9.55v-11.79h9.72v-2.18h4.37v2.18h10.39v3.95h-9.24v2.24Zm3.56,9.91h-9.69v3.84h9.69v-3.84Z"/>
      </g>
      <g>
        <path d="m309.24,383.67h-4.54v-1.76h14.04v1.84c-1.55,1.24-4.56,2.45-5.11,2.67.22.16.49.38.76.61l-.9.74h6.63v1.8c-1.37,1.84-2.36,2.88-4.32,4.54l-1.42-1.48c1.12-.77,2.5-2.09,3.22-3.06h-4.79v6.93c0,1.57-1.64,1.67-1.91,1.67h-3.4l-.36-1.95h3.15c.43,0,.58-.16.58-.65v-6.01h-7.49v-1.8h8.79c-.59-.47-2.04-1.51-4.25-2.65l1.33-1.44Zm.02,0c.72.38,1.37.7,2.74,1.58,1.24-.41,2.36-.9,3.28-1.58h-6.01Z"/>
        <path d="m321.42,389.08c.54-.02.96-.02,1.48-.04.22-.31.5-.68.99-1.4-.2-.23-1.21-1.44-2.52-2.43l.92-1.39c.16.11.32.25.5.38.83-1.24,1.26-2.14,1.67-3.02l1.6.67c-.56,1.24-1.49,2.79-2.03,3.47.13.13.45.47.83.88,1.13-1.71,1.49-2.43,1.82-3.08l1.6.7c-.34.65-1.03,1.94-3.4,5.11.67-.04,1.35-.09,2-.14-.18-.58-.32-.88-.52-1.31l1.48-.5c.47.83,1.24,2.86,1.42,3.42l-1.67.56c-.07-.29-.11-.4-.22-.74-.4.05-.85.11-1.28.16v7.8h-1.8v-7.62c-.4.04-2.41.2-2.86.23v-1.71Zm2.3,2.81c-.02.63-.16,3.17-.68,5.17l-1.67-.61c.54-1.73.7-3.57.74-4.81l1.62.25Zm4.3-.36c.34,1.17.61,2.29.83,4.14l-1.67.27c-.07-1.19-.4-3.24-.59-4.14l1.44-.27Zm4.99-10.14c-.14.61-.31,1.33-.68,2.38h5.42c-.14,8.46-.2,11.45-.67,13.04-.38,1.28-1.33,1.37-1.57,1.37h-3.94l-.36-1.93h3.26c.7,0,.88-.16,1.01-.85.31-1.69.4-8.16.38-9.87h-4.29c-.81,1.58-1.49,2.3-1.94,2.79l-1.33-1.49c1.19-1.26,2.29-3.26,2.79-5.6l1.93.16Zm-1.3,6.68c.97,1.33,1.71,2.74,2.23,4.3l-1.67.88c-.47-1.3-1.26-3.01-2.18-4.36l1.62-.83Z"/>
        <path d="m341.64,384.86c-.25.59-.43.94-.7,1.42l-1.53-.9c.76-1.22,1.24-2.54,1.4-3.92l1.76.22c-.09.45-.16.83-.36,1.49h1.46v-1.93h1.75v1.93h3.82v1.69h-3.82v1.69h4.12v1.73h-4.12v1.51h3.66v5.78c0,1.01-.34,1.33-1.22,1.33h-1.62l-.32-1.82h1.04c.4,0,.4-.34.4-.5v-3.08h-1.93v6.66h-1.75v-6.66h-1.76v5.49h-1.76v-7.2h3.53v-1.51h-4.21v-1.73h4.21v-1.69h-2.04Zm8.71-2.59h1.82v11.61h-1.82v-11.61Zm3.33-1.03h1.93v15.54c0,1.12-.86,1.39-1.58,1.39h-2.65l-.32-1.95h2.16c.38,0,.47-.13.47-.47v-14.51Z"/>
        <path d="m364.88,382.18c-.13.38-.7,1.98-.81,2.32,1.37-.14,2.02-.25,2.61-.36l-.09,1.98c-.85.13-2.3.29-3.22.34-.61,1.69-1.84,4.95-3.35,8.1l-1.94-.86c.54-1.04,1.82-3.46,3.17-7.11-.81.02-1.8.04-2.61.02l-.07-2.02c1.44.09,2.11.09,3.37.05.49-1.55.61-1.98.86-2.86l2.09.4Zm7.65,13.7c-.88-.61-1.69-1.17-2.7-1.64,0,.83-.05,3.15-3.48,3.15-2.5,0-4.05-1.24-4.05-2.99,0-1.58,1.33-2.99,3.73-2.99.76,0,1.39.13,1.75.2-.07-1.3-.13-2.56-.14-3.91l1.93.04c.02,1.19.04,1.51.2,4.38.59.22,1.78.67,3.75,2l-.97,1.76Zm-6.66-2.72c-1.08,0-1.75.49-1.75,1.21,0,.85.9,1.3,2.02,1.3,1.78,0,1.78-1.01,1.78-1.39,0-.14,0-.25-.04-.83-.61-.18-1.46-.29-2.02-.29Zm2.68-9.24c2.02.79,3.35,1.44,4.88,2.3l-.88,1.78c-1.24-.81-2.9-1.78-4.86-2.43l.86-1.66Z"/>
        <path d="m384.52,395.5c3.22-1.01,4.92-3.06,4.92-5.87,0-2.36-1.3-4.72-4.57-5.11-.27,2.05-.79,6.14-2.3,9.33-.88,1.89-1.76,2.41-2.68,2.41-1.8,0-3.69-2.48-3.69-5.83,0-4.54,3.44-7.78,7.99-7.78,4.2,0,7.31,2.75,7.31,7.04,0,5.44-4.7,7.13-5.78,7.51l-1.19-1.69Zm-6.41-5.01c0,2.16.99,3.67,1.69,3.67.54,0,.99-1.15,1.33-2,1.15-2.92,1.57-6.07,1.76-7.56-3.96.85-4.79,4.09-4.79,5.89Z"/>
        <path d="m409.23,382.88l.18,2.05c-1.13.04-3.08.13-5.2,1.35-1.64.94-3.39,2.5-3.39,4.81,0,3.35,4.03,4.07,5.67,4.23l-.97,2.02c-4.16-.58-6.81-2.72-6.81-6.07,0-2.09,1.1-3.96,2.48-4.97.58-.43,1.17-.76,2.14-1.28l-9.09,1.03-.18-2.14c1.76-.07,2.97-.14,3.04-.16l12.12-.86Zm-3.4,4.56c.85.99,1.39,1.91,2.11,3.31l-1.33.88c-.63-1.39-1.15-2.27-2.04-3.38l1.26-.81Zm2.47-1.39c.86.99,1.4,1.89,2.14,3.29l-1.35.86c-.68-1.44-1.13-2.21-2.05-3.37l1.26-.79Z"/>
        <path d="m290.48,408.86h1.96v2.94c1.39-.14,2.29-.31,3.58-.59l.02,2c-1.66.29-2.11.32-3.6.5v1.85c1.03-.29,2.23-.65,3.71-.65,3.76,0,5.11,2.5,5.11,4.68,0,1.67-.9,4.36-4.55,4.36-.88,0-1.44-.16-1.84-.29l-.02-2.07c.36.16.9.4,1.76.4,2.48,0,2.59-2.03,2.59-2.43,0-1.13-.56-2.81-3.39-2.81-1.44,0-2.57.4-3.38.68v3.51c0,1.13,0,3.35-2.3,3.35-1.57,0-3.92-1.21-3.92-3.22,0-2.59,3.08-4.25,4.27-4.79v-2.43c-.5.04-1.84.11-3.67.07l-.02-2c.63.02,1.1.04,2.03.04,1.03,0,1.4-.02,1.66-.04v-3.06Zm.04,9.43c-.5.29-2.52,1.41-2.52,2.7,0,.81,1.06,1.46,1.82,1.46.7,0,.7-.67.7-1.46v-2.7Zm7.54-8.16c1.58,1.01,2.72,2.02,3.85,3.31l-1.46,1.37c-1.06-1.33-2.09-2.32-3.64-3.31l1.24-1.37Z"/>
        <path d="m302.99,412.2c1.75-1.21,2.67-2.27,3.62-4.11l1.66.67c-.63,1.42-1.71,3.28-4.5,5.13l-.77-1.69Zm5.33.61c-.2.61-.59,1.84-1.49,3.26v9.04h-1.84v-6.81c-.36.36-.61.54-1.06.9l-.74-1.8c1.71-1.57,2.66-2.9,3.53-5.29l1.6.7Zm5.02-4.57h1.84v1.5h4.34v1.75h-4.34v2.12h5.08v1.75h-2.29v1.76h2.14v1.75h-2.14v4.41c0,1.46-.7,1.84-2.18,1.84h-2.52l-.29-1.84h2.29c.58,0,.83,0,.83-.58v-3.84h-7.31v-1.75h7.31v-1.76h-7.6v-1.75h4.84v-2.12h-4v-1.75h4v-1.5Zm-1.64,14.89c-.68-.88-1.69-2.14-2.56-2.83l1.28-1.13c1.26.86,2.25,2.14,2.68,2.74l-1.4,1.22Z"/>
        <path d="m322.27,423.21c1.89-3.78,3.03-7.74,3.47-9.54-.22.02-1.37.07-3.04.05l-.04-1.98c.52.02,1.06.04,1.89.04.97,0,1.37-.02,1.62-.04.11-.47.58-2.57.67-3.01l2.02.27c-.2.92-.23,1.08-.59,2.57,1.4-.16,2-.25,3.62-.61l.07,1.93c-.94.2-2.05.4-4.18.63-.63,2.25-1.96,6.99-3.58,10.46l-1.93-.77Zm8.25-3.67c-.29.29-.97.97-.97,1.55,0,1.13,2.52,1.13,3.62,1.13,1.64,0,3.08-.22,3.98-.34v2c-1.01.11-2.07.22-3.76.22-1.89,0-5.76,0-5.76-2.84,0-.68.23-1.46,1.33-2.61l1.57.9Zm6.21-3.55c-.77-.07-1.85-.18-3.29-.18-1.82,0-2.99.16-3.71.27l.22-1.93c.56-.07,1.89-.25,3.67-.25,1.51,0,2.48.11,3.31.2l-.2,1.89Z"/>
        <path d="m350.61,409.13h2l.05,3.83c1.75-.18,2.14-.22,2.92-.34l.16,2.02c-1.31.02-2.86.14-3.08.16-.07,4.1-.27,5.35-4.52,5.29l-.52-1.89c.25.02.58.05.99.05,2.02,0,2.02-.18,2.09-3.29l-5.65.49v2.9c0,3.21,0,3.91,4.21,3.91,1.69,0,3.67-.18,4.72-.27l-.23,2c-.74.05-2.41.18-4.52.18-4.38,0-6.12-.85-6.14-4.81l-.02-3.75c-.31.02-1.84.16-2.97.34l-.16-2.02c.43-.02,1.22-.02,3.11-.18l-.02-4.21h2.03l-.02,4.05,5.65-.47-.09-4Z"/>
        <path d="m362.93,409.22l-.36,9.15c-.05,1.46-.16,3.94,3.15,3.94s5.02-3.19,5.85-5.73l1.87,1.06c-2.02,5.53-5.04,6.68-7.71,6.68-5.51,0-5.35-4.32-5.29-5.83l.32-9.4,2.16.13Z"/>
        <path d="m383,408.94h2l.02,2.36c2.99-.05,3.31-.07,5.71-.16v1.89c-2.52.09-2.83.09-5.71.14l.02,1.66c2.79-.07,3.1-.07,4.97-.18l.02,1.91c-1.91.07-2.21.09-4.97.14v2.32c1.91.45,3.51,1.22,5.42,2.36l-.99,1.91c-.92-.65-2.29-1.55-4.43-2.3-.02,1.35-.07,3.37-3.76,3.37-2.48,0-3.91-1.24-3.91-2.83s1.31-2.92,4.43-2.92c.58,0,1.01.05,1.26.09l-.02-1.96c-2.72.04-3.03.04-5.49.02v-1.93c2.11.05,2.43.05,5.49.04l-.02-1.67c-2.88.02-3.2.02-6.08-.02v-1.93c2.63.07,2.95.07,6.07.07l-.02-2.38Zm-1.33,11.42c-2.12,0-2.41.79-2.41,1.21,0,.49.5,1.08,1.91,1.08,1.91,0,1.91-.79,1.91-2.16-.27-.05-.74-.13-1.4-.13Z"/>
        <path d="m404.61,409.13h2l.05,3.83c1.75-.18,2.14-.22,2.92-.34l.16,2.02c-1.31.02-2.86.14-3.08.16-.07,4.1-.27,5.35-4.52,5.29l-.52-1.89c.25.02.58.05.99.05,2.02,0,2.02-.18,2.09-3.29l-5.65.49v2.9c0,3.21,0,3.91,4.21,3.91,1.69,0,3.67-.18,4.72-.27l-.23,2c-.74.05-2.41.18-4.52.18-4.38,0-6.12-.85-6.14-4.81l-.02-3.75c-.31.02-1.84.16-2.97.34l-.16-2.02c.43-.02,1.22-.02,3.11-.18l-.02-4.21h2.03l-.02,4.05,5.65-.47-.09-4Z"/>
        <path d="m420.84,409.72c-.72,1.3-1.84,3.33-3.4,6.41.54-.45,1.39-1.17,2.68-1.17s2.52.81,2.52,2.39c0,.59-.43,3.24-.43,3.78,0,.45.13,1.01,1.03,1.01,1.73,0,2.67-2.43,3.08-3.8l1.69,1.12c-.95,2.88-2.65,4.61-4.9,4.61-1.84,0-2.9-.97-2.9-2.79,0-.58.43-3.1.43-3.62,0-.4-.27-.83-.94-.83s-2,.47-2.94,1.48c-.45.5-1.1,1.21-3.13,5.76l-1.75-.99,7.11-14.24,1.84.88Z"/>
      </g>
      <g>
        <path class="cls-4" d="m554.44,347.5c2.32-1.37,6.83-4.2,10.95-9.38h-10.19v-4.34h12.38l-.03-5.15h4.37l.05,5.15h6.55v4.34h-6.52l.11,10.19c.06,4.12-1.32,4.84-6.92,4.65l-1.01-4.45c.95.08,2.1.11,2.52.11.98,0,.98-.08.98-1.18l-.06-5.4c-2.8,3.53-6.3,6.41-10.08,8.88l-3.11-3.42Z"/>
        <path class="cls-4" d="m598.07,353.1h-4.65v-12.71c-3.84,1.93-6.78,2.91-8.62,3.53l-2.27-4.03c6.24-2.02,12.99-4.9,20.3-11.65l3.53,2.97c-1.93,1.79-4.37,3.98-8.29,6.5v15.4Z"/>
        <path class="cls-4" d="m619.82,329.38v6.83c0,5.74-.56,11.68-6.05,17.02l-3.36-3.44c4.12-4.26,4.82-8.34,4.82-13.38v-7.03h4.59Zm6.78-.39v17.28c2.97-1.88,5.07-4.34,6.55-6.55l3.08,3.16c-2.1,2.94-6.47,8.18-14.17,10.05v-23.94h4.54Z"/>
        <path class="cls-4" d="m661.91,342.32c-3.19-1.48-6.75-3.92-8.85-6.3l3.28-1.85h-11.73l3.53,1.76c-3.3,3.86-6.72,5.57-8.48,6.41l-2.27-3.95c3.3-1.2,5.71-3.3,6.55-4.23h-6.33v-4.12h11.09v-2.49h4.34v2.49h11.12v4.12h-6.83c1.32,1.34,3.7,3,7.14,4.12l-2.55,4.03Zm-14.56-2.83c.42.78,1.54,2.77,3.53,4.68,1.06-1.04,2.27-2.27,3.61-4.93l3.81,2.02c-.39.78-1.43,2.91-4,5.43,3.72,2.07,7.34,2.72,10.14,3l-1.88,4.37c-3.13-.56-7.47-1.6-11.76-4.54-1.46,1.01-5.07,3.42-11.54,4.65l-1.79-4.51c1.21-.14,5.85-.7,9.97-2.97-2.27-2.3-3.64-4.73-4.09-5.49l4-1.71Z"/>
        <path class="cls-4" d="m674.62,343.61v-9.3l-.84-1.32v3.11h-1.68v3.72c.45-.14.7-.22,1.76-.59l.06,3.98c-.64.28-1.15.48-1.82.73v7.7c0,.78,0,2.58-2.41,2.58h-3.56l-.5-4.31h2.02c.5,0,.5-.36.5-.76v-3.89c-.64.2-1.18.34-2.38.67l-.39-4.23c.81-.17,1.34-.28,2.77-.67v-4.93h-2.61v-3.89h2.61v-4.51h3.95v4.51h1.48c1.4-.9,3.25-2.1,4.68-4.7l4.42.28c-.2.45-.28.64-.64,1.26h7.25v3.25c-.45.5-.76.9-1.2,1.37h3.08v9.94h.92v3.67h-6.05c2.55,2.52,5.38,3.05,6.52,3.25l-1.76,3.81c-5.21-1.51-7.28-3.92-8.26-5.35-2.46,3.84-6.36,5.07-7.47,5.4l-2.19-3.7c3.78-.92,5.57-2.38,6.41-3.42h-5.71v-3.67h1.04Zm8.57-9.94c.39-.39.48-.5,1.2-1.43h-4.96c-.73.76-1.18,1.12-1.54,1.43h5.29Zm-2.41,9.94c.03-.45.06-.67.06-1.29h3.92c-.08.73-.11.95-.17,1.29h3.05v-1.9h-2.44c-.98,0-1.96-.11-1.96-1.79v-3.42h-.98c-.17,4.06-1.37,5.01-2.44,5.85l-1.62-2.16v3.42h2.58Zm-2.58-7.11v3.47c.64-.56,1.43-1.23,1.54-3.47h-1.54Zm7.76,0v1.65c0,.45.08.56.7.56h.98v-2.21h-1.68Z"/>
      </g>
      <g>
        <path d="m556.56,397.02c-.76-1.01-2.34-3.12-4.99-5.33-.87.99-3.22,3.66-7.49,5.53l-1.19-1.69c4.25-1.89,8.14-4.88,10.28-10.44h-9.06v-1.96h11.94c-.45,1.58-1.3,4.2-3.24,6.97,2.84,2.29,4.81,4.81,5.38,5.55l-1.64,1.39Z"/>
        <path d="m562.95,395.88c4.09-1.28,5.94-3.26,6.82-4.27-1.21-.86-2.72-1.96-5.35-3.33-.63.67-1.04,1.06-1.96,1.84l-1.53-1.39c.77-.61,3.1-2.47,4.82-5.8h9.65c-.72,6.39-3.85,12.15-11.13,14.62l-1.33-1.67Zm4.09-11.02c-.2.32-.54.88-1.37,1.96,1.86.97,3.03,1.58,5.31,3.15.79-1.3,1.49-2.72,1.96-5.11h-5.91Z"/>
        <path d="m581.9,386.1c.99,1.51,1.55,2.61,2.09,3.76l-1.58.83c-.59-1.31-1.13-2.32-2.04-3.71l1.53-.88Zm10.64.05c-.72,5.15-2.88,9.43-8.84,11.43l-1.37-1.46c5.65-1.71,7.72-5.37,8.36-10.32l1.85.34Zm-6.88-.86c.76,1.19,1.35,2.32,1.96,3.85l-1.6.79c-.59-1.46-1.06-2.41-1.93-3.84l1.57-.81Z"/>
        <path d="m611.44,383.37c-.49,6.48-3.46,11.29-9.49,13.86l-1.33-1.67c6.84-2.7,8.08-7.87,8.46-10.21h-11.58v-1.98h13.94Z"/>
        <path d="m619.79,394.98c.32.09.81.25,1.48.25,1.15,0,2.12-.27,2.12-4.7,0-1.84-.14-2.92-2.25-2.92-.09,0-.34,0-.76.04-.86,3.38-2.11,6.73-3.93,9.74l-1.76-1.13c1.93-3.11,2.84-5.6,3.6-8.37-1.6.23-1.96.29-3.57.56l-.23-1.96,4.27-.54c.31-1.39.49-2.27.7-3.98l2.07.32c-.32,1.78-.43,2.32-.7,3.47,3.28-.05,4.46,1.19,4.46,4.61,0,4.99-.96,6.81-3.78,6.81-.61,0-1.13-.05-1.73-.2v-2Zm8.05-2.65c-.43-3.33-1.84-5.69-3.53-7.18l1.42-1.08c2.14,2,3.53,4.66,4.02,7.54l-1.91.72Zm-.7-10.41c1.04,1.04,1.67,1.94,2.36,3.02l-1.12.94c-.76-1.31-1.3-2.03-2.3-3.11l1.06-.85Zm2.04-1.35c.94.9,1.51,1.69,2.38,3.04l-1.12.92c-.79-1.33-1.28-2-2.3-3.11l1.04-.85Z"/>
        <path d="m632.18,388.21h3.69v5.4c.27.54.6,1.19,1.57,1.71.94.5,1.87.61,2.58.61h9.2l-.34,1.78h-8.57c-3.06,0-4.07-1.13-4.86-2.02-.49.61-1.33,1.55-2.56,2.48l-.9-1.84c.36-.22,1.37-.86,2.11-1.69v-4.65h-1.91v-1.8Zm1.55-6.72c1.28,1.26,1.66,1.73,2.72,3.17l-1.53,1.21c-.87-1.42-1.35-2.02-2.52-3.28l1.33-1.1Zm2.86,11.7c2.63-.77,4.27-2.5,4.61-2.88h-3.58v-5.01h4.38v-1.04h-5.11v-1.67h5.11v-1.33h1.67v1.33h5.2v1.67h-5.2v1.04h4.46v5.01h-3.37c1.41,1.62,2.7,2.3,4.41,2.99l-1.04,1.62c-1.49-.77-3.11-1.71-4.46-3.62v4.07h-1.67v-3.83c-1.49,1.82-3.08,2.66-4.38,3.26l-1.03-1.6Zm2.76-6.41v2.04h2.65v-2.04h-2.65Zm4.32,0v2.04h2.81v-2.04h-2.81Z"/>
        <path d="m658.75,381.93c.29.4.79,1.13,1.58,2.47.38-.05.92-.14,1.58-.14,2.18,0,4.3,1.3,4.3,4,0,3.49-3.44,4.23-5.4,4.23-.54,0-.92-.07-1.24-.13l-.47-2.02c.68.16,1.15.25,1.77.25,2,0,3.37-.86,3.37-2.39,0-1.1-.81-2.09-2.32-2.09s-2.92.56-5.78,1.71c.77,2.05,1.84,5.15,3.08,9.36l-2.05.59c-1.35-4.92-2.43-7.94-2.88-9.18-2.34.99-2.38,1.01-2.99,1.26l-.86-1.85c.86-.36,2.27-.92,3.13-1.26-.7-1.8-1.3-3.1-1.6-3.75l1.89-.76c.56,1.24,1.1,2.49,1.58,3.75.78-.29,2.04-.77,2.94-1.06-.45-.76-.83-1.33-1.28-1.98l1.66-1.01Z"/>
        <path d="m676.01,382.36c-.25,1.41-.4,2.05-.69,3.37,4.05-.16,4.84,1.71,4.84,4.75,0,5.98-1.75,6.63-3.94,6.63-.9,0-1.53-.14-1.93-.23l.02-2c.34.09.96.29,1.75.29,1.06,0,2.12-.18,2.12-4.7,0-2.12-.31-2.9-2.39-2.9-.36,0-.7.02-.92.04-1.35,4.93-2.57,7.51-3.91,9.72l-1.69-1.13c.63-1.01,2.34-3.76,3.56-8.35-1.93.27-2.88.43-3.65.58l-.25-1.91,4.38-.56c.31-1.35.47-2.25.7-4l2,.41Zm6.45,9.85c-.16-2.02-.77-4.9-3.06-7.24l1.57-1.13c1.04,1.1,3.08,3.51,3.47,7.72l-1.98.65Z"/>
        <path d="m690.55,382.79c-.67,2.83-1.04,5.4-1.04,8.3s.38,4.65.61,5.67l-1.96.25c-.49-1.93-.61-3.91-.61-5.91,0-4,.63-7.13.92-8.57l2.09.25Zm11.2,13.07c-1.86.27-3.21.31-4.02.31-2.56,0-5.47-.32-5.47-3.06,0-1.22.61-2.12.85-2.49l1.71.34c-.18.25-.72.95-.72,1.78,0,1.08,1.08,1.44,3.44,1.44,2,0,3.42-.27,4.25-.43l-.04,2.11Zm-8.77-11.76c1.06-.11,2.83-.29,5.08-.29,1.53,0,2.43.07,3.01.13l-.04,2c-.43-.04-1.49-.14-3.1-.14-2.34,0-4.1.23-4.99.36l.04-2.05Z"/>
        <path d="m535.19,415.77c-.65.79-1.13,1.24-1.62,1.67l-.83-1.78c2-1.87,3.21-3.93,4-7.42l1.91.32c-.25.86-.67,2.36-1.55,4.14v12.51h-1.91v-9.45Zm7.76-7.33c-.14.59-.3,1.24-.74,2.29h7.76v1.78h-5.98v2.56h5.53v1.78h-5.53v2.58h5.53v1.76h-5.53v4.03h-1.95v-12.71h-.68c-1.21,2.21-2.18,3.26-2.74,3.85l-1.22-1.53c2-1.93,3.13-4.84,3.55-6.61l2,.22Z"/>
        <path d="m566.89,424.86c-1.95-.65-4.21-1.46-6.52-3.56v3.78h-1.82v-3.76c-1.15,1.01-2.7,2.23-6.5,3.53l-.94-1.6c3.73-1.13,5.28-2.21,6.09-2.79h-6.1v-1.49h7.45v-1.08h-6.19v-1.39h6.19v-1.08h-6.57v-1.48h3.66c-.07-.29-.32-1.12-.49-1.41h-4.05v-1.55h2.83c-.12-.27-.7-1.49-1.04-2.23l1.87-.54c.45.86.72,1.58,1.08,2.77h1.1v-2.65h1.76v2.65h1.57v-2.65h1.76v2.65h1.17c.34-.74.79-2,.99-2.77l1.87.54c-.05.16-.45,1.28-.99,2.23h2.77v1.55h-4.09c-.09.23-.43,1.21-.5,1.41h3.87v1.48h-6.75v1.08h6.34v1.39h-6.34v1.08h7.47v1.49h-6.1c2.12,1.58,3.98,2.23,6.19,2.77l-1.04,1.64Zm-5.55-10.93c.13-.29.27-.68.43-1.41h-4.72c.09.2.41,1.19.5,1.41h3.78Z"/>
        <path d="m573.55,409.79c-.67,2.83-1.04,5.4-1.04,8.3s.38,4.65.61,5.67l-1.96.25c-.49-1.93-.61-3.91-.61-5.91,0-4,.63-7.13.92-8.57l2.09.25Zm11.2,13.07c-1.86.27-3.21.31-4.02.31-2.56,0-5.47-.32-5.47-3.06,0-1.22.61-2.12.85-2.49l1.71.34c-.18.25-.72.95-.72,1.78,0,1.08,1.08,1.44,3.44,1.44,2,0,3.42-.27,4.25-.43l-.04,2.11Zm-8.77-11.76c1.06-.11,2.83-.29,5.08-.29,1.53,0,2.43.07,3.01.13l-.04,2c-.43-.04-1.49-.14-3.1-.14-2.34,0-4.1.23-4.99.36l.04-2.05Z"/>
        <path d="m597.85,412.2c.22,3.13,1.19,4.97,1.71,5.96,1.55-2.83,1.96-5.29,2.16-6.72h-5.92v-1.06h-.9v14.73h-1.82v-3.28c-1.75.56-4.55,1.15-5.89,1.31l-.34-1.78c.25,0,.94-.13,1.15-.16v-10.82h-1.04v-1.69h9.15v.92h7.53v1.84c-.79,5.06-2.18,7.4-2.88,8.57,1.29,1.73,2.59,2.63,3.4,3.15l-1.06,1.82c-.7-.5-1.96-1.42-3.47-3.35-1.51,1.89-2.81,2.92-3.51,3.47l-1.19-1.62c.74-.52,2.09-1.51,3.53-3.57-.76-1.33-1.98-3.67-2.34-7.45l1.75-.27Zm-8.07-1.82v2.25h3.29v-2.25h-3.29Zm0,3.87v2.25h3.29v-2.25h-3.29Zm3.29,3.91h-3.29v2.72c1.98-.36,2.45-.49,3.29-.74v-1.98Z"/>
        <path d="m610.34,409.5c-.41,1.94-.67,3.92-.67,5.92,0,.67.04,1.19.05,1.64.56-1.24.72-1.6,1.3-2.81l1.22,1.1c-.52.97-1.6,3.12-2.11,5.04l-1.62.18c-.29-.95-.77-2.68-.77-5.51,0-1.98.21-3.85.61-5.8l1.98.23Zm8.52-.25c.09,1.08.32,3.69.32,5.76,0,4.03-.7,7.24-5.6,9.67l-1.66-1.4c4.57-2.25,5.19-4.57,5.19-8.5,0-1.91-.13-3.46-.32-5.53h2.07Z"/>
        <path d="m631.01,409.36c-.25,1.41-.4,2.05-.69,3.37,4.05-.16,4.84,1.71,4.84,4.75,0,5.98-1.75,6.63-3.94,6.63-.9,0-1.53-.14-1.93-.23l.02-2c.34.09.96.29,1.75.29,1.06,0,2.12-.18,2.12-4.7,0-2.12-.31-2.9-2.39-2.9-.36,0-.7.02-.92.04-1.35,4.93-2.57,7.51-3.91,9.72l-1.69-1.13c.63-1.01,2.34-3.76,3.56-8.35-1.93.27-2.88.43-3.65.58l-.25-1.91,4.38-.56c.31-1.35.47-2.25.7-4l2,.41Zm6.45,9.85c-.16-2.02-.77-4.9-3.06-7.24l1.57-1.13c1.04,1.1,3.08,3.51,3.47,7.72l-1.98.65Z"/>
        <path d="m649.01,409.36c-.25,1.41-.4,2.05-.69,3.37,4.05-.16,4.84,1.71,4.84,4.75,0,5.98-1.75,6.63-3.94,6.63-.9,0-1.53-.14-1.93-.23l.02-2c.34.09.96.29,1.75.29,1.06,0,2.12-.18,2.12-4.7,0-2.12-.31-2.9-2.39-2.9-.36,0-.7.02-.92.04-1.35,4.93-2.57,7.51-3.91,9.72l-1.69-1.13c.63-1.01,2.34-3.76,3.56-8.35-1.93.27-2.88.43-3.65.58l-.25-1.91,4.38-.56c.31-1.35.47-2.25.7-4l2,.41Zm6.45,9.85c-.16-2.02-.77-4.9-3.06-7.24l1.57-1.13c1.04,1.1,3.08,3.51,3.47,7.72l-1.98.65Z"/>
        <path d="m664.34,409.5c-.41,1.94-.67,3.92-.67,5.92,0,.67.04,1.19.05,1.64.56-1.24.72-1.6,1.3-2.81l1.22,1.1c-.52.97-1.6,3.12-2.11,5.04l-1.62.18c-.29-.95-.77-2.68-.77-5.51,0-1.98.21-3.85.61-5.8l1.98.23Zm8.52-.25c.09,1.08.32,3.69.32,5.76,0,4.03-.7,7.24-5.6,9.67l-1.66-1.4c4.57-2.25,5.19-4.57,5.19-8.5,0-1.91-.13-3.46-.32-5.53h2.07Z"/>
        <path d="m684.67,408.94h2l.02,2.36c2.99-.05,3.31-.07,5.71-.16v1.89c-2.52.09-2.83.09-5.71.14l.02,1.66c2.79-.07,3.1-.07,4.97-.18l.02,1.91c-1.91.07-2.21.09-4.97.14v2.32c1.91.45,3.51,1.22,5.42,2.36l-.99,1.91c-.92-.65-2.29-1.55-4.43-2.3-.02,1.35-.07,3.37-3.76,3.37-2.48,0-3.91-1.24-3.91-2.83s1.31-2.92,4.43-2.92c.58,0,1.01.05,1.26.09l-.02-1.96c-2.72.04-3.03.04-5.49.02v-1.93c2.11.05,2.43.05,5.49.04l-.02-1.67c-2.88.02-3.21.02-6.09-.02v-1.93c2.63.07,2.95.07,6.07.07l-.02-2.38Zm-1.33,11.42c-2.12,0-2.41.79-2.41,1.21,0,.49.5,1.08,1.91,1.08,1.91,0,1.91-.79,1.91-2.16-.27-.05-.74-.13-1.4-.13Z"/>
        <path d="m706.43,418.31c.02,1.55-.16,4.9-4.88,6.66l-1.31-1.64c2.86-1.01,3.53-2.27,3.91-3.08-.58.49-1.19.72-1.96.72-1.71,0-3.29-1.35-3.29-3.57s1.71-3.6,3.53-3.6c1.19,0,1.62.34,2.07.7l-.04-1.67-5.28.14c-1.6.04-2.14.05-3.33.14l-.04-1.98c1.33.05,2.52.04,3.31.02l5.28-.11-.05-2.27h1.98l.02,2.23,1.57-.04c.41-.02,2.04-.05,3.26-.16l.04,1.96c-.92-.05-2.3-.07-3.28-.04l-1.57.05.07,5.51Zm-3.85-2.81c-.99,0-1.78.76-1.78,1.89,0,1.21.83,1.89,1.75,1.89,1.08,0,1.82-.85,1.82-1.91,0-1.31-.95-1.87-1.78-1.87Z"/>
      </g>
      <g>
        <path class="cls-4" d="m790.66,340.02h26.46v3.92h-7.9v5.43c0,.56.22.67.67.67h2.58c.36,0,.5-.25.59-.53.14-.48.2-2.8.2-3.42l4,1.12c-.14,4.37-.22,6.66-3.02,6.66h-6.64c-1.06,0-2.6-.17-2.6-2.3v-7.64h-3.19c-.39,5.96-4.03,8.99-9.58,10.42l-1.96-4.14c6.83-1.26,7.39-4.48,7.5-6.27h-7.11v-3.92Zm4.28-2.77h-3.61v-7.7h10.33v-1.93h4.31v1.93h10.42v7.7h-3.61v1.29h-17.84v-1.29Zm17.22-2.49v-1.46h-16.63v1.46h16.63Z"/>
        <path class="cls-4" d="m844.42,328.57v4.2c-2.63,2.8-6.83,4.98-10.33,6.22v12.38c0,2.21-.87,2.83-3.02,2.83h-6.19l-.87-4.26h4.7c.56,0,.92-.11.92-.81v-13.55h2.46c1.99-.62,3.3-1.26,5.32-2.72h-18.59v-4.28h25.59Z"/>
        <path class="cls-4" d="m864.08,340.89c0,2.3-1.85,4.2-4.2,4.2s-4.2-1.88-4.2-4.2,1.93-4.2,4.2-4.2,4.2,1.85,4.2,4.2Z"/>
        <path class="cls-4" d="m882.17,328.46h4.37v4c.59-.06,2.44-.28,4.87-.84l.08,4.37c-2.49.39-2.97.45-4.96.67v1.71c1.65-.45,3.25-.73,4.96-.73,5.91,0,8.2,3.92,8.2,7.67,0,3-1.62,7.17-7.45,7.17-1.23,0-2.02-.2-2.63-.34l-.14-4.56c.5.2,1.23.5,2.41.5,3.14,0,3.3-2.18,3.3-2.94,0-1.46-.81-3.44-4.37-3.44-1.93,0-3.39.5-4.28.78v4.48c0,1.76-.06,2.58-.34,3.39-.81,2.46-3.19,2.6-3.84,2.6-2.58,0-6.58-1.9-6.58-5.57,0-4.17,4.56-6.64,6.38-7.45v-2.88c-2.83.11-3.19.14-5.32.14l-.06-4.42c.92.06,1.6.08,2.8.08.34,0,1.48,0,2.58-.06v-4.34Zm.11,15.9c-.45.28-2.63,1.6-2.63,2.97,0,.78,1.06,1.57,1.96,1.57.67,0,.67-.56.67-1.54v-3Zm12.63-14.25c3.02,1.88,4.98,3.89,6.27,5.35l-3.11,3c-1.62-2.13-3.28-3.72-5.82-5.38l2.66-2.97Z"/>
        <path class="cls-4" d="m920.78,349.15c0,.76.25.78.7.78h2.58c.87,0,1.06-.2,1.01-3.39l4.14,1.09c-.08,3.44-.25,6.19-2.74,6.19h-7.17c-2.21,0-2.69-1.6-2.69-2.32v-5.82h-2.66c-.76,5.85-6.19,7.92-9.86,8.65l-1.76-4.2c3.75-.36,6.8-1.9,7.59-4.45h-5.04v-17.22h22.04v17.22h-6.13v3.47Zm1.9-17.28h-13.66v1.51h13.66v-1.51Zm0,4.51h-13.66v1.51h13.66v-1.51Zm0,4.42h-13.66v1.6h13.66v-1.6Z"/>
        <path class="cls-4" d="m951.05,341.37c2.16,3.08,5.32,4.03,6.36,4.34l-2.38,3.72h2.6l-.81,4.06h-14.45c-2.21,0-4.62-.64-6.33-2.94-1.01,1.2-2.24,2.46-4.09,3.7l-1.65-4.65c.98-.48,1.68-.9,2.88-1.9v-5.8h-2.44v-3.92h6.47v8.15c.2.87.62,2.66,3.67,3.19l-2.58-3.56c1.18-.42,4.4-1.57,6.02-4.4h-6.13v-3.98h7.28v-2.44h-6.52v-3.98h2.49c-.31-.87-.53-1.34-1.26-2.74l4.12-.76c.59,1.26,1.26,3.02,1.46,3.5h3.58c.53-.95,1.06-2.52,1.32-3.5l4.23.64c-.2.5-.39,1.15-1.26,2.86h2.69v3.98h-6.78v2.44h7.56v3.98h-6.05Zm-17.33-13.58c1.48,1.15,2.74,2.3,4.73,4.56l-3.14,3.05c-.56-.76-2.24-2.94-4.4-4.68l2.8-2.94Zm20.78,21.64c-3.19-1.4-5.29-3.47-6.8-6.64-1.26,3.22-4.12,5.54-6.19,6.61.36.03.53.03,1.32.03h11.68Z"/>
        <path class="cls-4" d="m967.99,329.58c-.7,3.25-1.06,6.58-1.09,9.91.25-.48,1.34-2.63,1.57-3.08l2.38,2.21c-1.06,1.9-2.58,4.62-3.42,8.09l-3.64.39c-.34-1.15-1.2-3.89-1.2-8.79,0-.9,0-4.59.9-9.21l4.51.48Zm12.66-.48c.14,1.57.5,5.68.5,9.24,0,7.11-1.71,11.7-8.76,15.2l-3.75-3.16c6.86-3.22,7.87-6.61,7.87-12.46,0-3.33-.28-6.44-.5-8.82h4.65Z"/>
      </g>
      <g>
        <path d="m799.21,394.3c1.78-1.1,4.68-2.94,7.67-6.91h-7.36v-1.95h8.28l-.02-3.47h1.96l.04,3.47h4.41v1.95h-4.39l.07,7.26c.02,2.27-.52,2.75-3.82,2.65l-.56-2c.49.04,1.04.05,1.53.05.83,0,.86-.11.86-.88l-.05-5.19c-2.79,3.6-5.53,5.46-7.24,6.55l-1.39-1.53Z"/>
        <path d="m826.49,397.45h-2.11v-8.88c-2.83,1.51-4.92,2.23-6.1,2.63l-1.04-1.85c7.24-2.32,11.38-6.01,13.02-7.49l1.62,1.35c-1.39,1.26-2.74,2.41-5.38,4.12v10.12Z"/>
        <path d="m840.61,382.47v4.23c0,3.15-.25,7.17-3.91,10.73l-1.55-1.5c3.01-3.02,3.37-5.96,3.37-9.07v-4.39h2.09Zm4.14-.27v12.01c1.19-.67,2.94-1.8,5.06-4.83l1.44,1.44c-2.95,4.16-6.3,5.82-8.57,6.43v-15.05h2.07Z"/>
        <path d="m861.82,381.19v1.98h7.54v1.85h-16.96v-1.85h7.51v-1.98h1.91Zm-9.42,7.44c.9-.4,3.06-1.39,4.54-3.39l1.75.94c-1.69,2.21-3.53,3.37-5.28,4.16l-1.01-1.71Zm5.89-.27c.31.7,1.03,2.36,2.54,3.93,1.69-1.69,2.47-3.44,2.74-4.05l1.67.94c-.38.85-1.19,2.52-2.97,4.38,2.09,1.49,4.57,2.29,7.11,2.63l-.81,1.93c-1.24-.22-4.59-.81-7.69-3.29-3.06,2.45-6.3,3.08-7.47,3.31l-.95-1.91c2.5-.41,4.95-1.22,7-2.72-.4-.41-1.67-1.75-2.9-4.3l1.73-.83Zm6.25-3.15c1.13,1.37,2.92,2.47,4.93,3.17l-1.1,1.84c-1.75-.7-3.96-2.21-5.46-3.96l1.62-1.04Z"/>
        <path d="m870.29,390.68c.61-.14,1.17-.27,2.27-.65v-3.98h-2.14v-1.69h2.14v-3.12h1.84v3.12h1.24v1.69h-1.24v3.35c.27-.09,1.22-.42,1.37-.47l.09,1.75c-.49.22-1.01.43-1.46.61v5.37c0,1.19-.61,1.48-1.44,1.48h-2.23l-.18-1.93h1.67c.32,0,.34-.13.34-.36v-3.89c-.54.18-.97.32-2.05.67l-.22-1.94Zm6,1.03v-6.75h.05l-.79-.7c.77-.5,2.18-1.48,3.08-3.01l2.02.13c-.14.27-.18.36-.52.88h4.84v1.51c-.16.18-.9.97-1.12,1.19h2.72v6.75h.76v1.75h-4.57c.86,1.66,2.67,2.54,4.77,3.01l-.86,1.67c-2.54-.83-4.47-2.16-5.4-4.21-1.44,2.94-4.03,3.85-5.1,4.21l-.99-1.58c.77-.25,3.46-1.17,4.5-3.1h-4.03v-1.75h.65Zm5.26-6.75c.4-.41,1.12-1.24,1.17-1.31h-3.71c-.45.47-.99.97-1.44,1.31h3.98Zm-1.28,6.75c.09-.5.09-.83.09-1.26h1.84c-.07.56-.11.83-.2,1.26h2.86v-1.73h-2.02c-.94,0-1.01-.59-1.01-1.06v-2.52h-1.03c-.11,2.4-.74,3.19-1.76,3.89l-.99-1.13c.74-.54,1.24-1.13,1.31-2.75h-1.39v5.31h2.29Zm3.03-5.31v1.69c0,.27.11.34.47.34h1.1v-2.04h-1.57Z"/>
        <path d="m888.53,389.26h16.82v1.85h-5.19v4.81c0,.34.22.34.49.34h2.32c.41,0,.47-.29.5-.49.07-.45.07-1.89.07-2.45l1.8.59c-.07,3.57-.43,4.09-1.67,4.09h-3.85c-.31,0-1.51,0-1.51-1.31v-5.58h-2.99c-.25,5.44-4.09,6.7-6.09,7.18l-.97-1.89c3.75-.5,5.17-2.67,5.26-5.29h-4.99v-1.85Zm7.45-8.03h1.87v1.49h7.02v4.72h-1.91v-2.92h-12.15v2.92h-1.84v-4.72h7v-1.49Zm-4.38,4.75h10.64v1.76h-10.64v-1.76Z"/>
        <path d="m906.56,381.87h16.17v1.89c-1.78,2.14-4.32,3.73-6.93,4.72v8.07c0,1.51-.74,1.58-1.69,1.58h-3.55l-.4-1.96h3.06c.38,0,.61-.13.61-.59v-9.25h2c.63-.25,2.72-1.1,3.96-2.56h-13.23v-1.89Z"/>
        <path d="m940.28,382.88l.18,2.05c-1.13.04-3.08.13-5.2,1.35-1.64.94-3.39,2.5-3.39,4.81,0,3.35,4.03,4.07,5.67,4.23l-.97,2.02c-4.16-.58-6.81-2.72-6.81-6.07,0-2.09,1.1-3.96,2.48-4.97.58-.43,1.17-.76,2.14-1.28l-9.09,1.03-.18-2.14c1.76-.07,2.97-.14,3.04-.16l12.12-.86Zm-3.4,4.56c.85.99,1.39,1.91,2.11,3.31l-1.33.88c-.63-1.39-1.15-2.27-2.04-3.38l1.26-.81Zm2.47-1.39c.86.99,1.4,1.89,2.14,3.29l-1.35.86c-.68-1.44-1.13-2.21-2.05-3.37l1.26-.79Z"/>
        <path d="m953.82,391.31c.02,1.55-.16,4.9-4.88,6.66l-1.31-1.64c2.86-1.01,3.53-2.27,3.91-3.08-.58.49-1.19.72-1.96.72-1.71,0-3.29-1.35-3.29-3.57s1.71-3.6,3.53-3.6c1.19,0,1.62.34,2.07.7l-.04-1.67-5.28.14c-1.6.04-2.14.05-3.33.14l-.04-1.98c1.33.05,2.52.04,3.31.02l5.28-.11-.05-2.27h1.98l.02,2.23,1.57-.04c.41-.02,2.03-.05,3.26-.16l.04,1.96c-.92-.05-2.3-.07-3.28-.04l-1.57.05.07,5.51Zm-3.85-2.81c-.99,0-1.78.76-1.78,1.89,0,1.21.83,1.89,1.75,1.89,1.08,0,1.82-.85,1.82-1.91,0-1.31-.95-1.87-1.78-1.87Z"/>
        <path d="m970.04,382.27l-.27,10.26h-1.76l-.27-10.26h2.3Zm-2.3,11.97h2.29v2.3h-2.29v-2.3Z"/>
      </g>
      <g>
        <path class="cls-4" d="m329.43,29.79c-.88.56-4.2,2.68-4.2,4.36s2,2.08,2.88,2.28c1.88.4,3.88.68,7.28.68,6.44,0,11-1,13.92-1.68l.44,6.92c-4.48.88-9,1.24-13.52,1.24-4.24,0-17.64,0-17.64-8.64,0-2.2.84-4.96,6.28-8.76l4.56,3.6Zm14.72-9.12c-2.28-.44-6.28-1.2-12.28-1.2-4.72,0-8.28.4-10,.6l.28-6.68c2-.2,5.32-.48,9.32-.48,6.6,0,11.16.8,13.2,1.16l-.52,6.6Zm1.28-11.88c1.68,2.44,2.72,4.68,3.92,7.64l-3,1.64c-1.12-3.16-1.96-4.92-3.72-7.76l2.8-1.52Zm5.36-1.36c1.68,2.4,2.64,4.48,3.92,7.64l-3,1.64c-1.12-3.2-2.04-5.16-3.72-7.72l2.8-1.56Z"/>
        <path class="cls-4" d="m372.31,15.47h-10.08v-5.56h32.19v5.6c-3.32,2.72-7.2,4.52-11.12,6.2.24.2,1.04,1,1.28,1.24h12.68v5.64c-1.2,1.72-3.96,5.68-9.32,10.12l-4.56-4.6c.84-.56,3.64-2.44,6.08-5.52h-7.8v14.04c0,2.36-1.16,4.04-4.64,4.04h-8.44l-1.48-6.2h6.64c1.52,0,1.52-.28,1.52-1.44v-10.44h-15.88v-5.64h16.2c-2.84-2.36-5.68-4.04-7-4.8l3.72-2.68Zm2.76,0c1.56.96,2.76,1.84,4.04,2.76,3.52-1.4,4.52-2.24,5.16-2.76h-9.2Z"/>
        <path class="cls-4" d="m408.59,32.75c-.04,1-.32,8.24-1.48,11.96l-4.04-2.52c.76-2.76,1.36-6.76,1.32-9.96l4.2.52Zm-5.08-7.16c1.24.04,1.84.04,2.64,0,1.24-1.56,1.6-2.04,1.92-2.44-.36-.48-2.2-3.08-4.88-5.24l2.76-4.88c.48.32.64.44.92.68,1.2-2.08,1.76-3.04,2.84-5.24l4.72,1.56c-.48,1.12-1.08,2.52-4.2,7,.28.36.6.72,1.2,1.44,1.96-2.88,2.84-4.64,3.6-6.08l5.04,1.84c-2.36,3.96-5.12,7.64-8.16,11.08.48-.04,3-.16,3.56-.2-.52-1.68-.6-1.92-.92-2.64l3.96-1.32c1.04,1.84,2.52,6.28,3.08,8.48l-4.72,1.52c-.16-.76-.2-1.04-.32-1.64-.4.08-.72.12-1.92.28v16.8h-5.08v-16.2c-3.52.36-4.52.4-5.8.48l-.24-5.28Zm16.32,6.24c.84,3.24,1.24,7.16,1.36,9.24l-4.84.8c0-.76-.24-6.64-.8-9.32l4.28-.72Zm10.4-22.76c-.24,1.2-.48,2.44-1.24,4.56h11.56c-.24,16.84-.32,24.96-1.2,28.67-.32,1.4-1.4,4.28-4.6,4.28h-8.8l-1.2-6h6.96c1,0,1.52,0,1.88-1.8.64-3.16.8-13.08.88-19.52h-7.96c-1.76,3.2-2.88,4.4-4,5.64l-4.04-4.76c2.56-2.68,4.92-6.76,5.88-11.52l5.88.44Zm-3.04,14.64c1.72,2.28,3.8,5.84,4.96,9.56l-5.28,2.72c-.72-2.12-2.56-6.84-4.8-9.92l5.12-2.36Z"/>
        <path class="cls-4" d="m465.63,11.15c-.64,3.56-.88,4.68-1.4,7,7.2.04,10.28,3.04,10.28,11.24,0,13.88-4.32,15.24-9.12,15.24-.52,0-2.44,0-4.88-.56l.04-6.28c1.2.4,2.48.64,3.76.64,2.16,0,2.72-1,3-2.04.64-2.2.8-5.76.8-7.4,0-4.48-1.04-5.12-5.32-4.92-2.8,10.32-5.68,16.44-8.64,21.28l-5.48-3.56c4.56-7.32,6.52-13.48,7.56-16.96-3.24.44-4.32.64-6.84,1.08l-.76-6.12,9.08-1.08c.52-2.36.88-4.08,1.48-8.68l6.44,1.12Zm12.28,22.52c-.2-3.2-.72-10.4-6.4-16.36l4.8-3.28c6.72,6.76,7.52,14.6,7.72,17.68l-6.12,1.96Z"/>
        <path class="cls-4" d="m502.03,17.39c-.84,3.32-1.12,4.6-1.92,8.4,1.32-.68,5.56-2.92,11.08-2.92,7.08,0,11.84,3.76,11.84,9.88,0,5.2-3.32,8.8-7.64,10.32-1.44.48-4.72,1.52-11.12,1.52-3.28,0-5.2-.24-6.68-.44l-1.2-6.48c1.84.32,4.64.8,8.36.8,2.2,0,11.72,0,11.72-5.8,0-3.92-4.52-3.92-5.6-3.92-1.2,0-7.04,0-13.08,5.4l-5.12-1.52c.48-3.28,1.28-8.72,3.12-16.6l6.24,1.36Zm12.76,1.72c-6.88-2.56-11.84-3.32-16.44-3.84l2.08-5.48c3.6.36,9.12,1.04,16.56,3.56l-2.2,5.76Z"/>
        <path class="cls-4" d="m546.23,21.11v-12.52h6.36v12.52h7.84l-4.92-3.08c2.36-2.68,4.6-6.28,5.96-9.24l6.12,2.72c-1.52,2.88-4.4,7.24-6.6,9.6h5.84v24.32h-36.39v-5.88h30.31v-3.6h-28.43v-5.56h28.43v-3.52h-29.83v-5.76h6.76c-2.12-3.88-3.52-6.28-5.92-9l5.44-3.24c2.28,2.56,4.68,6.08,6.24,9.16l-5.2,3.08h8Z"/>
        <path class="cls-4" d="m609.35,10.19v35.15h-32.23V10.19h32.23Zm-25.96,14.4h19.56v-8.44h-19.56v8.44Zm0,5.84v8.96h19.56v-8.96h-19.56Z"/>
        <path class="cls-4" d="m632.03,9.95h6.28l.04,4.44c7.24-.08,7.36-.08,12.32-.32l-.04,5.88c-4.08.08-4.92.12-12.24.2l.04,2.4c4.6-.12,5.72-.16,10.6-.44v5.8c-4.68.2-5.04.2-10.56.32v3.64c5.4,1.4,9.4,3.76,11.68,5.16l-2.96,6.04c-3.8-2.76-6.76-4.04-8.8-4.88-.2,6.4-6.36,6.8-8.88,6.8-6.08,0-9.56-3-9.56-7.08,0-3.28,2.4-7.08,10.44-7.08.84,0,1.4.04,1.8.04l-.04-2.56c-5.24.08-5.84.08-11.68.04l.04-5.84c4.68.16,5.4.16,11.6.12v-2.4c-6.28.04-7.12.04-13,0l.04-5.92c5.68.16,6.76.16,12.92.16l-.04-4.52Zm-2.28,26.24c-2.64,0-4.04.64-4.04,1.8s1.64,1.6,3.2,1.6c3.2,0,3.2-1.28,3.24-3.24-.8-.12-1.56-.16-2.4-.16Z"/>
        <path class="cls-4" d="m692.43,12.03l.52,6.4c-2.88.04-6.84.16-11.08,2.56-2.04,1.12-6.88,4.32-6.88,9.64,0,6.52,8,7.88,11.92,8.16l-3,6.32c-9.84-1.16-15.6-6.36-15.6-13.92s4.84-10.76,7.28-12.44l-16.72,2.16-.48-6.68c1.76-.04,5.36-.08,7.32-.24l26.71-1.96Zm-7.24,10.92c1.64,1.96,2.92,4.12,4.56,7.48l-3.52,2.04c-1.36-3.12-2.44-5.04-4.4-7.6l3.36-1.92Zm5.48-2.92c2.2,2.6,3.68,5.36,4.68,7.36l-3.56,1.96c-1.52-3.24-2.48-4.92-4.52-7.52l3.4-1.8Z"/>
        <path class="cls-4" d="m719.47,39.35c4.4-1.36,10.56-4.16,10.56-11.88,0-1.92-.32-8.36-7.84-9.88-.6,4.2-1.64,11.4-4.56,18.2-1.6,3.68-3.6,6.68-7.12,6.68-4.52,0-9-5.6-9-13.24,0-10.12,7.6-17.64,18.32-17.64,9.88,0,16.8,6.36,16.8,15.96,0,12.6-10.96,16.28-13.32,17.08l-3.84-5.28Zm-11.76-9.92c0,3.64,1.36,6.24,2.56,6.24.96,0,1.96-2.8,2.44-4.16,2.04-5.88,2.8-11.28,3.12-13.56-5.52,1.76-8.12,6.48-8.12,11.48Z"/>
        <path class="cls-4" d="m746.64,19.15c2.4,1.12,4.48,2.4,6.52,4.16l-3.48,4.76c-1.8-1.68-4.84-3.48-6.44-4.32l3.4-4.6Zm7.44,13.68c-1.08,3.24-3.64,9.76-6.28,13.68l-4.52-4.56c2.52-3.4,4.84-8.88,6.04-12.28l4.76,3.16Zm-6.4-23.88c1.56.64,4.12,1.76,6.4,3.8l-3.32,4.96c-2.52-2.24-5.44-3.72-6.4-4.2l3.32-4.56Zm14.36,18.88c-.08,8.64-.96,14.16-6.28,18.92l-4.76-4.16c3.88-2.92,5.56-5.6,5.72-14.76h5.32Zm15.08.44c-.44-.84-.92-1.72-1.76-3.16-5.92.84-18.56,1.36-20.08,1.44l-.76-5.64c.4,0,3.88-.04,4.52-.04,1.04-2.52,1.32-3.4,1.64-4.48h-6.36v-5.24h10.56v-2.56h6.04v2.56h10.88v5.24h-6.28c3.36,3.32,5.8,7.6,6.76,9.32l-5.16,2.56Zm-7.96-.16v17.4h-5.08v-17.4h5.08Zm6.04-11.72h-8.24c-.48,1.2-1.04,2.64-1.88,4.4,1.12-.04,6.08-.28,7.08-.32-.4-.52-.6-.76-1.6-1.96l4.64-2.12Zm1.32,11.32v12.24c0,.32,0,.76.48.76,1,0,1.04,0,1.16-.56.04-.32.12-2.48.12-4.4l4,1.28c-.04,2.92-.48,6.24-.68,7.16-.16.6-.56,2.2-3.12,2.2h-4.6c-1.32,0-2.72-1-2.72-2.68v-16h5.36Z"/>
        <path class="cls-4" d="m789.51,17.07c1.88,0,4.68-.08,6.56-.32l.08-6.52h6.2c-.12,2.52-.2,4.24-.28,9.56,2.36-2.28,5.52-5.12,10.04-5.12,3.92,0,7.92,2.36,7.92,7.36,0,2.08-1.36,11.12-1.36,13,0,.24,0,1.4.92,1.4,1.32,0,3.56-2,4-2.4l1.56,5.96c-2.12,1.76-4.48,3.04-7.24,3.04-3.56,0-5.88-2.12-5.88-6.12,0-1.84.32-4.12.88-8.32.6-4.48.6-4.6.6-5.56,0-2.32-2-2.32-2.2-2.32-2.04,0-4.16,1.32-7.16,4.36-.28.28-1.2,1.2-2.2,2.36-.04,8.2-.04,9.08.08,17.52h-6.2l.08-9.44c-.84,1.24-1.6,2.44-3.28,5.08l-4.68-4.04c.88-1.2,4.32-5.92,8.04-11.04l.04-2.68c-2.68.4-4.84.56-5.88.64l-.64-6.4Z"/>
      </g>
      <g>
        <rect class="cls-2" x="150.14" width="148" height="53.99" rx="10" ry="10"/>
        <g>
          <path class="cls-3" d="m185.86,41.84v-6.28h-13.72v-5.56l13.88-20.32h6.52v19.92h3.84v5.96h-3.84v6.28h-6.68Zm-7.08-12.24h7.08v-10.56l-7.08,10.56Z"/>
          <path class="cls-1" d="m214.03,24.73c-1.57-1.01-3.08-1.51-4.45-1.51-1.82,0-2.91,1.04-2.91,2.35,0,1.48,1.01,1.96,2.86,2.58,3.92,1.29,6.75,2.69,6.75,6.94,0,4-3.16,7.2-8.23,7.2-2.55,0-4.84-.7-7.03-2.07l1.4-4.23c1.88,1.34,3.75,1.96,5.46,1.96,1.93,0,3.64-.87,3.64-2.52,0-1.46-1.06-2.21-3.72-3.14-3.19-1.09-5.85-2.55-5.85-6.47s3.02-6.94,7.5-6.94c2.35,0,4.12.73,5.68,1.6l-1.09,4.26Z"/>
          <path class="cls-1" d="m231.28,41.84h-4.73v-18.17h-6.8v-4.34h18.34v4.34h-6.8v18.17Z"/>
          <path class="cls-1" d="m256.06,28.12v4.23h-9.07v5.15h10.28v4.34h-15.01v-22.51h14.64v4.34h-9.91v4.45h9.07Z"/>
          <path class="cls-1" d="m269.08,19.33c4.54,0,7.5,2.86,7.5,7.22s-3.02,7-7.92,7h-2.07v8.29h-4.73v-22.51h7.22Zm-.95,9.88c1.68,0,3.72,0,3.72-2.72,0-2.41-1.43-2.83-3.72-2.83h-1.54v5.54h1.54Z"/>
        </g>
      </g>
      <g>
        <g>
          <path class="cls-2" d="m207.13,200.32c-1.19,0-2.39-.49-3.24-1.35-.86-.83-1.35-2.02-1.35-3.24s.49-2.39,1.35-3.24c1.07-1.07,2.66-1.53,4.16-1.26.28.06.58.15.86.28s.52.25.8.43c.24.15.46.34.67.55.86.86,1.35,2.05,1.35,3.24s-.49,2.42-1.35,3.24c-.21.21-.43.43-.67.58-.28.15-.52.31-.8.43s-.58.18-.86.24c-.31.06-.61.09-.92.09Z"/>
          <path class="cls-2" d="m220.11,195.73c0-2.54,2.05-4.59,4.59-4.59h0c2.54,0,4.59,2.05,4.59,4.59h0c0,2.54-2.05,4.59-4.59,4.59h0c-2.54,0-4.59-2.05-4.59-4.59Z"/>
          <path class="cls-2" d="m242.24,200.32c-.28,0-.58-.03-.89-.09-.31-.06-.58-.12-.86-.24-.28-.12-.55-.28-.8-.43s-.49-.37-.7-.58c-.86-.86-1.35-2.02-1.35-3.24s.49-2.39,1.35-3.24c.21-.21.46-.4.7-.55.25-.18.52-.3.8-.43.28-.12.55-.22.86-.28,1.5-.28,3.09.18,4.13,1.26.86.86,1.35,2.05,1.35,3.24s-.49,2.42-1.35,3.24c-.83.86-2.02,1.35-3.24,1.35Z"/>
        </g>
        <g>
          <path class="cls-2" d="m471.42,200.32c-1.19,0-2.39-.49-3.24-1.35-.86-.83-1.35-2.02-1.35-3.24s.49-2.39,1.35-3.24c1.07-1.07,2.66-1.53,4.16-1.26.28.06.58.15.86.28s.52.25.8.43c.24.15.46.34.67.55.86.86,1.35,2.05,1.35,3.24s-.49,2.42-1.35,3.24c-.21.21-.43.43-.67.58-.28.15-.52.31-.8.43s-.58.18-.86.24c-.31.06-.61.09-.92.09Z"/>
          <path class="cls-2" d="m484.4,195.73c0-2.54,2.05-4.59,4.59-4.59h0c2.54,0,4.59,2.05,4.59,4.59h0c0,2.54-2.05,4.59-4.59,4.59h0c-2.54,0-4.59-2.05-4.59-4.59Z"/>
          <path class="cls-2" d="m506.53,200.32c-.28,0-.58-.03-.89-.09-.31-.06-.58-.12-.86-.24-.28-.12-.55-.28-.8-.43s-.49-.37-.7-.58c-.86-.86-1.35-2.02-1.35-3.24s.49-2.39,1.35-3.24c.21-.21.46-.4.7-.55.25-.18.52-.3.8-.43.28-.12.55-.22.86-.28,1.5-.28,3.09.18,4.13,1.26.86.86,1.35,2.05,1.35,3.24s-.49,2.42-1.35,3.24c-.83.86-2.02,1.35-3.24,1.35Z"/>
        </g>
        <g>
          <g>
            <path class="cls-2" d="m735.72,200.32c-1.19,0-2.39-.49-3.24-1.35-.86-.83-1.35-2.02-1.35-3.24s.49-2.39,1.35-3.24c1.07-1.07,2.66-1.53,4.16-1.26.28.06.58.15.86.28s.52.25.8.43c.24.15.46.34.67.55.86.86,1.35,2.05,1.35,3.24s-.49,2.42-1.35,3.24c-.21.21-.43.43-.67.58-.28.15-.52.31-.8.43s-.58.18-.86.24c-.31.06-.61.09-.92.09Z"/>
            <path class="cls-2" d="m748.7,195.73c0-2.54,2.05-4.59,4.59-4.59h0c2.54,0,4.59,2.05,4.59,4.59h0c0,2.54-2.05,4.59-4.59,4.59h0c-2.54,0-4.59-2.05-4.59-4.59Z"/>
          </g>
          <path class="cls-2" d="m759.02,214.6c-.9,0-1.79-.34-2.47-1.02-1.37-1.37-1.37-3.58,0-4.95l12.88-12.89-12.88-12.89c-1.37-1.37-1.37-3.58,0-4.95,1.37-1.37,3.58-1.37,4.95,0l15.36,15.36c1.37,1.37,1.37,3.58,0,4.95l-15.36,15.36c-.68.68-1.58,1.03-2.47,1.03Z"/>
        </g>
        <g>
          <g>
            <circle class="cls-1" cx="92.62" cy="193.83" r="90.12" transform="translate(-117.3 239.43) rotate(-76.72)"/>
            <path class="cls-2" d="m92.62,106.21c48.31,0,87.62,39.31,87.62,87.62s-39.31,87.62-87.62,87.62S5,242.14,5,193.83s39.31-87.62,87.62-87.62m0-5C41.47,101.21,0,142.68,0,193.83s41.47,92.62,92.62,92.62,92.62-41.47,92.62-92.62-41.47-92.62-92.62-92.62h0Z"/>
          </g>
          <g>
            <g>
              <rect class="cls-1" x="33.74" y="150.18" width="90.73" height="56.88"/>
              <g>
                <path class="cls-2" d="m128.97,144.59H29.44v67.42h99.53v-67.42Zm-91.9,59.56v-51.7c0-.12.1-.22.22-.22h83.82c.12,0,.22.1.22.22v51.7c0,.12-.1.22-.22.22H37.3c-.12,0-.22-.1-.22-.22Z"/>
                <path class="cls-2" d="m23.33,217.85v4.01c0,4.27,3.47,7.74,7.74,7.74h96.27c4.27,0,7.74-3.47,7.74-7.74v-4.01H23.33Zm46.85,5.6v-1.19h18.05v1.19c0,.7-.57,1.27-1.27,1.27h-15.5c-.7,0-1.28-.57-1.28-1.27Z"/>
              </g>
              <polygon class="cls-2" points="47.06 168.72 43.21 164.78 43.93 164.08 47.14 167.37 52.49 163.09 53.12 163.87 47.06 168.72"/>
              <polygon class="cls-2" points="47.06 182.98 43.21 179.04 43.93 178.34 47.14 181.64 52.49 177.35 53.12 178.13 47.06 182.98"/>
              <rect class="cls-2" x="102.65" y="165.26" width="5.01" height="1"/>
              <rect class="cls-2" x="81.39" y="165.26" width="19.03" height="1"/>
              <rect class="cls-2" x="72.83" y="165.26" width="6.12" height="1"/>
              <rect class="cls-2" x="63.91" y="165.26" width="6.27" height="1"/>
              <rect class="cls-2" x="56.45" y="165.26" width="5.45" height="1"/>
              <rect class="cls-2" x="56.45" y="179.02" width="5.01" height="1"/>
              <rect class="cls-2" x="63.69" y="179.02" width="19.03" height="1"/>
              <rect class="cls-2" x="85.16" y="179.02" width="6.12" height="1"/>
              <rect class="cls-2" x="93.93" y="179.02" width="6.27" height="1"/>
              <rect class="cls-2" x="102.2" y="179.02" width="5.45" height="1"/>
            </g>
            <g>
              <rect class="cls-1" x="112.83" y="198.47" width="38.62" height="51.56" transform="translate(84.67 -31.67) rotate(20)"/>
              <g>
                <path class="cls-2" d="m156.65,197.58l-26.26-9.56c-4.14-1.51-8.72.63-10.23,4.77l-16.39,45.04c-2.41,6.62,1,13.95,7.63,16.36l17.27,6.28c6.62,2.41,13.95-1,16.36-7.63l16.39-45.04c1.51-4.14-.63-8.72-4.77-10.23Zm-35.21,55.87c-1.02-.37-1.55-1.5-1.18-2.52s1.5-1.55,2.52-1.18,1.55,1.5,1.18,2.52-1.5,1.55-2.52,1.18Zm16.29-59.56l9.52,3.46c.54.2.81.79.62,1.32s-.79.81-1.32.62l-9.52-3.46c-.54-.2-.81-.79-.62-1.32s.79-.81,1.32-.62Zm-29.73,45.48l15.85-43.54,32.79,11.94-15.85,43.54c-.18.48-.4.94-.65,1.37l-32.52-11.84c.08-.49.2-.98.38-1.47Z"/>
                <g>
                  <polygon class="cls-2" points="125.6 209.58 123.98 205.99 124.89 205.58 126.14 208.34 130.48 206.87 130.8 207.82 125.6 209.58"/>
                  <polygon class="cls-2" points="122.24 218.82 120.62 215.23 121.53 214.82 122.78 217.58 127.12 216.11 127.44 217.06 122.24 218.82"/>
                  <rect class="cls-2" x="144.56" y="212.16" width="1" height="4.22" transform="translate(-105.9 277.3) rotate(-70)"/>
                  <rect class="cls-2" x="138.83" y="210.02" width="1" height="4.32" transform="translate(-107.71 270.54) rotate(-70)"/>
                  <rect class="cls-2" x="133.73" y="208.45" width="1" height="3.76" transform="translate(-109.33 264.51) rotate(-70)"/>
                  <rect class="cls-2" x="130.35" y="217.46" width="1" height="3.45" transform="translate(-119.88 267.15) rotate(-69.99)"/>
                  <rect class="cls-2" x="138.35" y="216.84" width="1" height="10.52" transform="translate(-117.34 276.61) rotate(-70)"/>
                </g>
              </g>
            </g>
          </g>
        </g>
        <g>
          <g>
            <circle class="cls-1" cx="356.83" cy="193.83" r="90.12" transform="translate(86.21 496.58) rotate(-76.72)"/>
            <path class="cls-2" d="m356.83,106.21c48.31,0,87.62,39.31,87.62,87.62s-39.31,87.62-87.62,87.62-87.62-39.31-87.62-87.62,39.31-87.62,87.62-87.62m0-5c-51.15,0-92.62,41.47-92.62,92.62s41.47,92.62,92.62,92.62,92.62-41.47,92.62-92.62-41.47-92.62-92.62-92.62h0Z"/>
          </g>
          <g>
            <path class="cls-1" d="m309.51,239.42v-87.38h94.65v87.38h-94.65Z"/>
            <path class="cls-2" d="m309.51,239.42v-87.38h94.65v87.38h-94.65Zm61.85-3.26h29.54v-53.93l-1.83,1.14c-1.71,1.07-3.68,1.63-5.68,1.63-3.17,0-6.17-1.39-8.22-3.83l-.91-1.08-.91,1.08c-2.06,2.43-5.05,3.83-8.23,3.83-3.17,0-6.17-1.4-8.22-3.83l-.91-1.08-.91,1.08c-2.05,2.43-5.05,3.83-8.22,3.83-3.17,0-6.17-1.4-8.23-3.83l-.91-1.08-.91,1.08c-2.05,2.43-5.05,3.83-8.22,3.83-3.17,0-6.17-1.4-8.22-3.83l-.91-1.08-.91,1.08c-2.05,2.43-5.05,3.83-8.23,3.83-2,0-3.97-.57-5.68-1.63l-1.83-1.14v53.93h29.54v-18.29h29.05v18.29Zm14.52-80.86v18.94c0,2,.78,3.88,2.2,5.31,1.43,1.42,3.31,2.2,5.31,2.2,2,0,3.89-.78,5.31-2.2,1.42-1.42,2.2-3.31,2.2-5.31v-18.94m-33.3,18.94c0,2,.78,3.89,2.2,5.31,1.42,1.42,3.31,2.2,5.31,2.2,2,0,3.89-.78,5.31-2.2,1.42-1.42,2.2-3.31,2.2-5.31v-18.94h-15.02m-18.28,0v18.94c0,2,.78,3.89,2.2,5.31,1.42,1.42,3.31,2.2,5.31,2.2,2,0,3.89-.78,5.31-2.2,1.42-1.42,2.2-3.31,2.2-5.31v-18.94h-15.02Zm-18.28,0v18.94c0,2,.78,3.89,2.2,5.31,1.42,1.42,3.31,2.2,5.31,2.2,2,0,3.89-.78,5.31-2.2,1.42-1.43,2.2-3.31,2.2-5.31v-18.94m-33.3,0v18.94c0,2,.78,3.89,2.2,5.31,1.42,1.42,3.31,2.2,5.31,2.2,2,0,3.89-.78,5.31-2.2,1.42-1.42,2.2-3.31,2.2-5.31v-18.94"/>
            <rect class="cls-2" x="329.76" y="194.84" width="7.03" height="8.65"/>
            <rect class="cls-2" x="376.87" y="194.84" width="7.03" height="8.65"/>
            <rect class="cls-2" x="353.32" y="194.84" width="7.03" height="8.65"/>
          </g>
        </g>
        <g>
          <g>
            <circle class="cls-1" cx="622.49" cy="193.83" r="90.12"/>
            <path class="cls-2" d="m622.49,106.21c48.31,0,87.62,39.31,87.62,87.62s-39.31,87.62-87.62,87.62-87.62-39.31-87.62-87.62,39.31-87.62,87.62-87.62m0-5c-51.15,0-92.62,41.47-92.62,92.62s41.47,92.62,92.62,92.62,92.62-41.47,92.62-92.62-41.47-92.62-92.62-92.62h0Z"/>
          </g>
          <g>
            <path class="cls-2" d="m593.26,171.06s-11.96-9.57-21.27-8.42c-9.31,1.15-8.98,9.7-6.68,12.38,2.3,2.67,7.19,2.33,12.87-.62,5.67-2.95,10.22-3.7,15.09-3.33Z"/>
            <g>
              <path class="cls-1" d="m641.5,239.55c-2.15,0-4.18-.84-5.7-2.36-.04-.04-.08-.09-.12-.13l-33.57-41.31h-23.51c-.75,0-1.42-.47-1.66-1.18-.24-.71,0-1.49.59-1.95l22.67-17.44,17.76-17.76c1.52-1.52,3.54-2.36,5.7-2.36,1.92,0,3.73.67,5.18,1.89l1.76-1.76c2.11-2.11,4.93-3.28,7.93-3.28s5.81,1.16,7.93,3.28l13.5,13.49c3.95,3.95,4.33,10.13,1.15,14.51l15.7,12.75s.09.08.13.12c1.52,1.52,2.36,3.54,2.36,5.7s-.84,4.18-2.36,5.7l-29.73,29.73c-1.52,1.52-3.54,2.36-5.7,2.36h0Zm11.89-62.62c.11-.46-.02-.96-.37-1.31l-13.5-13.5c-.26-.26-.62-.41-.99-.41s-.73.15-.99.41l-1.06,1.06,16.92,13.74Z"/>
              <path class="cls-2" d="m638.53,153.66c2.42,0,4.84.92,6.69,2.77l13.5,13.5c3.69,3.69,3.69,9.69,0,13.38l-.12.12,17.09,13.89c2.46,2.46,2.46,6.46,0,8.92l-29.73,29.73c-1.23,1.23-2.85,1.85-4.46,1.85s-3.23-.62-4.46-1.85l-34.09-41.96h-24.35s22.76-17.5,22.76-17.5l17.84-17.84c1.23-1.23,2.85-1.85,4.46-1.85,1.61,0,3.23.62,4.46,1.85l.82.67,2.9-2.9c1.84-1.84,4.27-2.77,6.69-2.77m15.15,25.76l.58-.58c1.23-1.23,1.23-3.23,0-4.46l-13.5-13.5c-.61-.61-1.42-.92-2.23-.92-.81,0-1.62.31-2.23.92l-2.43,2.43,19.81,16.1"/>
            </g>
          </g>
        </g>
        <g>
          <g>
            <circle class="cls-1" cx="887.88" cy="193.83" r="90.12"/>
            <path class="cls-2" d="m887.88,106.21c48.31,0,87.62,39.31,87.62,87.62s-39.31,87.62-87.62,87.62-87.62-39.31-87.62-87.62,39.31-87.62,87.62-87.62m0-5c-51.15,0-92.62,41.47-92.62,92.62s41.47,92.62,92.62,92.62,92.62-41.47,92.62-92.62-41.47-92.62-92.62-92.62h0Z"/>
          </g>
          <g>
            <polygon class="cls-1" points="922.8 200.32 856.34 200.32 872 176.87 911.95 176.87 922.8 200.32"/>
            <circle class="cls-1" cx="852.99" cy="219.98" r="7.6"/>
            <circle class="cls-1" cx="918.3" cy="219.98" r="7.6"/>
            <g>
              <path class="cls-2" d="m938.43,197.97h-5.05c-2.42,0-5.34-1.74-6.49-3.86l-8.33-15.34c-1.15-2.12-4.07-3.86-6.49-3.86h-39.07c-2.42,0-5.6,1.56-7.08,3.48l-12.42,16.1c-1.48,1.91-4.66,3.48-7.07,3.48h-6.83c-7.61,0-12.3,3.63-13.4,10.96l-.44,7.71c0,2.41,1.98,4.39,4.39,4.39h10.81c.53,6.17,5.73,11.02,12.03,11.02s11.49-4.86,12.03-11.02h42.57c.53,5.45,5.12,9.71,10.71,9.71s10.18-4.26,10.71-9.71h9.42c2.41,0,4.39-1.98,4.39-4.39v-14.27c0-2.42-1.98-4.39-4.39-4.39Zm-85.43,27.39c-2.97,0-5.38-2.41-5.38-5.38s2.41-5.38,5.38-5.38,5.38,2.41,5.38,5.38-2.41,5.38-5.38,5.38Zm39.32-27.58h-31.77l1.65-2.15,10.15-13.15c.69-.89,2.62-1.84,3.75-1.84h16.22v17.14Zm5.27,0v-17.14h12.31c.92,0,2.42.89,2.86,1.7l7.91,15.44h-23.08Zm20.72,27.58c-2.97,0-5.38-2.41-5.38-5.38s2.41-5.38,5.38-5.38,5.38,2.41,5.38,5.38-2.41,5.38-5.38,5.38Z"/>
              <path class="cls-2" d="m860.54,159.37c-5.35,0-9.05,5.87-9.05,14.38,0-8.51-3.69-14.38-9.05-14.38,5.35,0,9.05-5.87,9.05-14.38,0,8.51,3.69,14.38,9.05,14.38Z"/>
              <path class="cls-2" d="m844.45,170.7c-5.35,0-9.05,5.87-9.05,14.38,0-8.51-3.69-14.38-9.05-14.38,5.35,0,9.05-5.87,9.05-14.38,0,8.51,3.69,14.38,9.05,14.38Z"/>
              <path class="cls-2" d="m950,168.52c-5.35,0-9.05,5.87-9.05,14.38,0-8.51-3.69-14.38-9.05-14.38,5.35,0,9.05-5.87,9.05-14.38,0,8.51,3.69,14.38,9.05,14.38Z"/>
              <path class="cls-2" d="m930.04,159.37c-5.35,0-9.05,5.87-9.05,14.38,0-8.51-3.69-14.38-9.05-14.38,5.35,0,9.05-5.87,9.05-14.38,0,8.51,3.69,14.38,9.05,14.38Z"/>
            </g>
          </g>
        </g>
      </g>
    </g>
  </g>
</svg>