<?xml version="1.0" encoding="UTF-8"?>
<svg id="_レイヤー_2" data-name="レイヤー 2" xmlns="http://www.w3.org/2000/svg" width="615.39" height="1177.09" viewBox="0 0 615.39 1177.09">
  <defs>
    <style>
      .cls-1 {
        fill: #fff;
      }

      .cls-2 {
        fill: #ff2121;
      }

      .cls-3 {
        fill: #ff0;
      }

      .cls-4 {
        fill-rule: evenodd;
      }
    </style>
  </defs>
  <g id="_内容" data-name="内容">
    <g>
      <g>
        <path class="cls-4" d="m235.87,512.73c-.66.42-3.15,2.01-3.15,3.27s1.5,1.56,2.16,1.71c1.41.3,2.91.51,5.46.51,4.83,0,8.25-.75,10.44-1.26l.33,5.19c-3.36.66-6.75.93-10.14.93-3.18,0-13.23,0-13.23-6.48,0-1.65.63-3.72,4.71-6.57l3.42,2.7Zm11.04-6.84c-1.71-.33-4.71-.9-9.21-.9-3.54,0-6.21.3-7.5.45l.21-5.01c1.5-.15,3.99-.36,6.99-.36,4.95,0,8.37.6,9.9.87l-.39,4.95Zm.96-8.91c1.26,1.83,2.04,3.51,2.94,5.73l-2.25,1.23c-.84-2.37-1.47-3.69-2.79-5.82l2.1-1.14Zm4.02-1.02c1.26,1.8,1.98,3.36,2.94,5.73l-2.25,1.23c-.84-2.4-1.53-3.87-2.79-5.79l2.1-1.17Z"/>
        <path class="cls-4" d="m262.03,503.64h-5.37v-4.2h10.71v-2.52h4.47v2.52h10.89v4.2h-5.43l3.21.66c-.12.45-.84,3.12-1.89,5.34h5.22v4.26h-9.15c3.03,3.03,5.67,4.74,9.6,6.39l-2.52,4.35c-4.8-2.25-7.83-5.31-9.93-7.92v8.61h-4.47v-8.4c-3.9,4.38-7.02,6.36-9.78,7.71l-2.58-4.44c2.88-1.14,6.27-2.82,9.57-6.3h-9.06v-4.26h5.19c-.51-1.95-.96-3.72-1.74-5.25l3.06-.75Zm-.12,6h5.46v-6h-3.9c.48.99,1.35,3.27,1.74,5.28l-3.3.72Zm12.27-.93c.72-1.56,1.56-4.41,1.74-5.07h-4.08v6h6.12l-3.78-.93Z"/>
        <path class="cls-4" d="m303.76,505.68h9.96v4.17h-9.96v2.46h8.28v12.24h-19.26v-12.24h6.63v-9.03h-7.47v8.55c0,4.5-.93,10.08-3.24,13.53l-3.57-3.45c1.74-2.49,2.31-7.53,2.31-10.23v-12.63h10.41v-2.34h4.68v2.34h11.13v4.23h-9.9v2.4Zm3.81,10.62h-10.38v4.11h10.38v-4.11Z"/>
      </g>
      <g>
        <path d="m234.64,555.1h-7.06v-2.74h21.84v2.86c-2.41,1.93-7.08,3.81-7.95,4.14.34.25.76.59,1.18.95l-1.4,1.15h10.3v2.8c-2.13,2.86-3.67,4.48-6.72,7.06l-2.21-2.3c1.74-1.2,3.89-3.25,5.01-4.76h-7.45v10.78c0,2.44-2.55,2.6-2.97,2.6h-5.29l-.56-3.02h4.9c.67,0,.9-.25.9-1.01v-9.35h-11.65v-2.8h13.66c-.92-.73-3.16-2.35-6.61-4.12l2.07-2.24Zm.03,0c1.12.59,2.13,1.09,4.26,2.46,1.93-.64,3.67-1.4,5.1-2.46h-9.35Z"/>
        <path d="m253.6,563.5c.84-.03,1.48-.03,2.3-.06.34-.48.78-1.06,1.54-2.18-.31-.36-1.88-2.24-3.92-3.78l1.43-2.16c.25.17.5.39.78.59,1.29-1.93,1.96-3.33,2.6-4.7l2.49,1.04c-.87,1.93-2.32,4.34-3.16,5.4.2.2.7.73,1.29,1.37,1.76-2.66,2.32-3.78,2.83-4.79l2.49,1.09c-.53,1.01-1.6,3.02-5.29,7.95,1.04-.06,2.1-.14,3.11-.22-.28-.9-.5-1.37-.81-2.04l2.3-.78c.73,1.29,1.93,4.45,2.21,5.32l-2.6.87c-.11-.45-.17-.62-.34-1.15-.62.08-1.32.17-1.99.25v12.12h-2.8v-11.84c-.62.06-3.75.31-4.45.36v-2.66Zm3.58,4.37c-.03.98-.25,4.93-1.06,8.04l-2.6-.95c.84-2.69,1.09-5.54,1.15-7.48l2.52.39Zm6.69-.56c.53,1.82.95,3.56,1.29,6.44l-2.6.42c-.11-1.85-.62-5.04-.92-6.44l2.24-.42Zm7.76-15.76c-.22.95-.48,2.07-1.06,3.7h8.43c-.22,13.16-.31,17.81-1.04,20.27-.59,1.99-2.07,2.13-2.44,2.13h-6.13l-.56-3h5.07c1.09,0,1.37-.25,1.57-1.32.48-2.63.62-12.68.59-15.34h-6.66c-1.26,2.46-2.32,3.58-3.02,4.34l-2.07-2.32c1.85-1.96,3.56-5.07,4.34-8.71l3,.25Zm-2.02,10.39c1.51,2.07,2.66,4.26,3.47,6.69l-2.6,1.37c-.73-2.02-1.96-4.68-3.39-6.78l2.52-1.29Z"/>
        <path d="m285.04,556.95c-.39.92-.67,1.46-1.09,2.21l-2.38-1.4c1.18-1.9,1.93-3.95,2.18-6.1l2.74.34c-.14.7-.25,1.29-.56,2.32h2.27v-3h2.72v3h5.94v2.63h-5.94v2.63h6.41v2.69h-6.41v2.35h5.68v8.99c0,1.57-.53,2.07-1.9,2.07h-2.52l-.5-2.83h1.62c.62,0,.62-.53.62-.78v-4.79h-3v10.36h-2.72v-10.36h-2.74v8.54h-2.74v-11.2h5.49v-2.35h-6.55v-2.69h6.55v-2.63h-3.16Zm13.55-4.03h2.83v18.06h-2.83v-18.06Zm5.18-1.6h3v24.16c0,1.74-1.34,2.16-2.46,2.16h-4.12l-.5-3.02h3.36c.59,0,.73-.2.73-.73v-22.57Z"/>
        <path d="m321.19,552.78c-.2.59-1.09,3.08-1.26,3.61,2.13-.22,3.14-.39,4.06-.56l-.14,3.08c-1.32.2-3.58.45-5.01.53-.95,2.63-2.86,7.7-5.21,12.6l-3.02-1.34c.84-1.62,2.83-5.38,4.93-11.06-1.26.03-2.8.06-4.06.03l-.11-3.14c2.24.14,3.28.14,5.24.08.76-2.41.95-3.08,1.34-4.45l3.25.62Zm11.9,21.31c-1.37-.95-2.63-1.82-4.2-2.55,0,1.29-.08,4.9-5.4,4.9-3.89,0-6.3-1.93-6.3-4.65,0-2.46,2.07-4.65,5.8-4.65,1.18,0,2.16.2,2.72.31-.11-2.02-.2-3.98-.22-6.08l3,.06c.03,1.85.06,2.35.31,6.8.92.34,2.77,1.04,5.82,3.11l-1.51,2.74Zm-10.36-4.23c-1.68,0-2.72.76-2.72,1.88,0,1.32,1.4,2.02,3.14,2.02,2.77,0,2.77-1.57,2.77-2.16,0-.22,0-.39-.06-1.29-.95-.28-2.27-.45-3.14-.45Zm4.17-14.36c3.14,1.23,5.21,2.24,7.59,3.58l-1.37,2.77c-1.93-1.26-4.51-2.77-7.56-3.78l1.34-2.58Z"/>
        <path d="m351.74,573.5c5.01-1.57,7.64-4.76,7.64-9.13,0-3.67-2.02-7.34-7.11-7.95-.42,3.19-1.23,9.55-3.58,14.5-1.37,2.94-2.74,3.75-4.17,3.75-2.8,0-5.74-3.86-5.74-9.07,0-7.06,5.35-12.1,12.43-12.1,6.52,0,11.37,4.28,11.37,10.95,0,8.46-7.31,11.09-8.99,11.68l-1.85-2.63Zm-9.97-7.78c0,3.36,1.54,5.71,2.63,5.71.84,0,1.54-1.79,2.07-3.11,1.79-4.54,2.44-9.44,2.74-11.76-6.16,1.32-7.45,6.36-7.45,9.16Z"/>
        <path d="m390.18,553.87l.28,3.19c-1.76.06-4.79.2-8.09,2.1-2.55,1.46-5.26,3.89-5.26,7.48,0,5.21,6.27,6.33,8.82,6.58l-1.51,3.14c-6.47-.9-10.58-4.23-10.58-9.44,0-3.25,1.71-6.16,3.86-7.73.9-.67,1.82-1.18,3.33-1.99l-14.14,1.6-.28-3.33c2.74-.11,4.62-.22,4.73-.25l18.84-1.34Zm-5.29,7.08c1.32,1.54,2.16,2.97,3.28,5.15l-2.07,1.37c-.98-2.16-1.79-3.53-3.16-5.26l1.96-1.26Zm3.84-2.16c1.34,1.54,2.18,2.94,3.33,5.12l-2.1,1.34c-1.06-2.24-1.76-3.44-3.19-5.24l1.96-1.23Z"/>
        <path d="m401.47,552.27h3.05v4.56c2.16-.22,3.56-.48,5.57-.92l.03,3.11c-2.58.45-3.28.5-5.6.78v2.88c1.6-.45,3.47-1.01,5.77-1.01,5.85,0,7.95,3.89,7.95,7.28,0,2.6-1.4,6.78-7.08,6.78-1.37,0-2.24-.25-2.86-.45l-.03-3.22c.56.25,1.4.62,2.74.62,3.86,0,4.03-3.16,4.03-3.78,0-1.76-.87-4.37-5.26-4.37-2.24,0-4,.62-5.26,1.06v5.46c0,1.76,0,5.21-3.58,5.21-2.44,0-6.1-1.88-6.1-5.01,0-4.03,4.79-6.61,6.64-7.45v-3.78c-.78.06-2.86.17-5.71.11l-.03-3.11c.98.03,1.71.06,3.16.06,1.6,0,2.18-.03,2.58-.06v-4.76Zm.06,14.67c-.78.45-3.92,2.18-3.92,4.2,0,1.26,1.65,2.27,2.83,2.27,1.09,0,1.09-1.04,1.09-2.27v-4.2Zm11.73-12.68c2.46,1.57,4.23,3.14,5.99,5.15l-2.27,2.13c-1.65-2.07-3.25-3.61-5.66-5.15l1.93-2.13Z"/>
        <path d="m420.93,557.48c2.72-1.88,4.14-3.53,5.63-6.38l2.58,1.04c-.98,2.21-2.66,5.1-7,7.98l-1.2-2.63Zm8.29.95c-.31.95-.92,2.86-2.32,5.07v14.06h-2.86v-10.58c-.56.56-.95.84-1.65,1.4l-1.15-2.8c2.66-2.44,4.14-4.51,5.49-8.23l2.49,1.09Zm7.81-7.11h2.86v2.32h6.75v2.72h-6.75v3.3h7.9v2.72h-3.56v2.74h3.33v2.72h-3.33v6.86c0,2.27-1.09,2.86-3.39,2.86h-3.92l-.45-2.86h3.56c.9,0,1.29,0,1.29-.9v-5.96h-11.37v-2.72h11.37v-2.74h-11.82v-2.72h7.53v-3.3h-6.22v-2.72h6.22v-2.32Zm-2.55,23.16c-1.06-1.37-2.63-3.33-3.98-4.4l1.99-1.76c1.96,1.34,3.5,3.33,4.17,4.26l-2.18,1.9Z"/>
        <path d="m450.92,574.59c2.94-5.88,4.7-12.04,5.4-14.84-.34.03-2.13.11-4.73.08l-.06-3.08c.81.03,1.65.06,2.94.06,1.51,0,2.13-.03,2.52-.06.17-.73.9-4,1.04-4.68l3.14.42c-.31,1.43-.36,1.68-.92,4,2.18-.25,3.11-.39,5.63-.95l.11,3c-1.46.31-3.19.62-6.5.98-.98,3.5-3.05,10.86-5.57,16.27l-3-1.2Zm12.82-5.71c-.45.45-1.51,1.51-1.51,2.41,0,1.76,3.92,1.76,5.63,1.76,2.55,0,4.79-.34,6.19-.53v3.11c-1.57.17-3.22.34-5.85.34-2.94,0-8.96,0-8.96-4.42,0-1.06.36-2.27,2.07-4.06l2.44,1.4Zm9.66-5.52c-1.2-.11-2.88-.28-5.12-.28-2.83,0-4.65.25-5.77.42l.34-3c.87-.11,2.94-.39,5.71-.39,2.35,0,3.86.17,5.15.31l-.31,2.94Z"/>
        <path d="m494.99,552.69h3.11l.08,5.96c2.72-.28,3.33-.34,4.54-.53l.25,3.14c-2.04.03-4.45.22-4.79.25-.11,6.38-.42,8.32-7.03,8.23l-.81-2.94c.39.03.9.08,1.54.08,3.14,0,3.14-.28,3.25-5.12l-8.79.76v4.51c0,4.98,0,6.08,6.55,6.08,2.63,0,5.71-.28,7.34-.42l-.36,3.11c-1.15.08-3.75.28-7.03.28-6.8,0-9.52-1.32-9.55-7.48l-.03-5.82c-.48.03-2.86.25-4.62.53l-.25-3.14c.67-.03,1.9-.03,4.84-.28l-.03-6.55h3.16l-.03,6.3,8.79-.73-.14-6.22Z"/>
        <path d="m514.17,552.83l-.56,14.22c-.08,2.27-.25,6.13,4.9,6.13s7.81-4.96,9.1-8.9l2.91,1.65c-3.14,8.6-7.84,10.39-11.98,10.39-8.57,0-8.32-6.72-8.23-9.07l.5-14.62,3.36.2Z"/>
        <path d="m545.39,552.41h3.11l.03,3.67c4.65-.08,5.15-.11,8.88-.25v2.94c-3.92.14-4.4.14-8.88.22l.03,2.58c4.34-.11,4.82-.11,7.73-.28l.03,2.97c-2.97.11-3.44.14-7.73.22v3.61c2.97.7,5.46,1.9,8.43,3.67l-1.54,2.97c-1.43-1.01-3.56-2.41-6.89-3.58-.03,2.1-.11,5.24-5.85,5.24-3.86,0-6.08-1.93-6.08-4.4s2.04-4.54,6.89-4.54c.9,0,1.57.08,1.96.14l-.03-3.05c-4.23.06-4.7.06-8.54.03v-3c3.28.08,3.78.08,8.54.06l-.03-2.6c-4.48.03-4.98.03-9.46-.03v-3c4.09.11,4.59.11,9.44.11l-.03-3.7Zm-2.07,17.75c-3.3,0-3.75,1.23-3.75,1.88,0,.76.78,1.68,2.97,1.68,2.97,0,2.97-1.23,2.97-3.36-.42-.08-1.15-.2-2.18-.2Z"/>
        <path d="m578.99,552.69h3.11l.08,5.96c2.72-.28,3.33-.34,4.54-.53l.25,3.14c-2.04.03-4.45.22-4.79.25-.11,6.38-.42,8.32-7.03,8.23l-.81-2.94c.39.03.9.08,1.54.08,3.14,0,3.14-.28,3.25-5.12l-8.79.76v4.51c0,4.98,0,6.08,6.55,6.08,2.63,0,5.71-.28,7.34-.42l-.36,3.11c-1.15.08-3.75.28-7.03.28-6.8,0-9.52-1.32-9.55-7.48l-.03-5.82c-.48.03-2.86.25-4.62.53l-.25-3.14c.67-.03,1.9-.03,4.84-.28l-.03-6.55h3.16l-.03,6.3,8.79-.73-.14-6.22Z"/>
        <path d="m604.25,553.62c-1.12,2.02-2.86,5.18-5.29,9.97.84-.7,2.16-1.82,4.17-1.82s3.92,1.26,3.92,3.72c0,.92-.67,5.04-.67,5.88,0,.7.2,1.57,1.6,1.57,2.69,0,4.14-3.78,4.79-5.91l2.63,1.74c-1.48,4.48-4.12,7.17-7.62,7.17-2.86,0-4.51-1.51-4.51-4.34,0-.9.67-4.82.67-5.63,0-.62-.42-1.29-1.46-1.29s-3.11.73-4.56,2.3c-.7.78-1.71,1.88-4.87,8.96l-2.72-1.54,11.06-22.15,2.86,1.37Z"/>
      </g>
      <g>
        <path class="cls-4" d="m235.03,236.75h-7.56v-4.17h24.15v4.2c-2.49,2.04-5.4,3.39-8.34,4.65.18.15.78.75.96.93h9.51v4.23c-.9,1.29-2.97,4.26-6.99,7.59l-3.42-3.45c.63-.42,2.73-1.83,4.56-4.14h-5.85v10.53c0,1.77-.87,3.03-3.48,3.03h-6.33l-1.11-4.65h4.98c1.14,0,1.14-.21,1.14-1.08v-7.83h-11.91v-4.23h12.15c-2.13-1.77-4.26-3.03-5.25-3.6l2.79-2.01Zm2.07,0c1.17.72,2.07,1.38,3.03,2.07,2.64-1.05,3.39-1.68,3.87-2.07h-6.9Z"/>
        <path class="cls-4" d="m259.24,249.71c-.03.75-.24,6.18-1.11,8.97l-3.03-1.89c.57-2.07,1.02-5.07.99-7.47l3.15.39Zm-3.81-5.37c.93.03,1.38.03,1.98,0,.93-1.17,1.2-1.53,1.44-1.83-.27-.36-1.65-2.31-3.66-3.93l2.07-3.66c.36.24.48.33.69.51.9-1.56,1.32-2.28,2.13-3.93l3.54,1.17c-.36.84-.81,1.89-3.15,5.25.21.27.45.54.9,1.08,1.47-2.16,2.13-3.48,2.7-4.56l3.78,1.38c-1.77,2.97-3.84,5.73-6.12,8.31.36-.03,2.25-.12,2.67-.15-.39-1.26-.45-1.44-.69-1.98l2.97-.99c.78,1.38,1.89,4.71,2.31,6.36l-3.54,1.14c-.12-.57-.15-.78-.24-1.23-.3.06-.54.09-1.44.21v12.6h-3.81v-12.15c-2.64.27-3.39.3-4.35.36l-.18-3.96Zm12.24,4.68c.63,2.43.93,5.37,1.02,6.93l-3.63.6c0-.57-.18-4.98-.6-6.99l3.21-.54Zm7.8-17.07c-.18.9-.36,1.83-.93,3.42h8.67c-.18,12.63-.24,18.72-.9,21.51-.24,1.05-1.05,3.21-3.45,3.21h-6.6l-.9-4.5h5.22c.75,0,1.14,0,1.41-1.35.48-2.37.6-9.81.66-14.64h-5.97c-1.32,2.4-2.16,3.3-3,4.23l-3.03-3.57c1.92-2.01,3.69-5.07,4.41-8.64l4.41.33Zm-2.28,10.98c1.29,1.71,2.85,4.38,3.72,7.17l-3.96,2.04c-.54-1.59-1.92-5.13-3.6-7.44l3.84-1.77Z"/>
        <path class="cls-4" d="m311.68,234.98c-.69,9.36-3.84,18.63-15.87,23.91l-3.21-4.02c10.56-4.11,12.69-11.34,13.44-15.21h-18.33v-4.68h23.97Z"/>
        <path class="cls-4" d="m318.82,254.24c3.39-1.98,6.45-4.35,9.45-7.98h-8.73v-4.02h10.74l-.06-4.5h4.11l.03,4.5h5.7v4.02h-5.67l.09,8.7c.03,3.93-1.65,4.32-6.24,4.17l-.96-4.14c.36.03,1.56.12,2.31.12s.78-.12.78-.9l-.03-4.35c-1.92,2.25-4.32,4.71-8.67,7.56l-2.85-3.18Z"/>
        <path class="cls-4" d="m372.52,243.59v4.65h-25.68v-4.65h25.68Z"/>
        <path class="cls-4" d="m395.11,242.87c1.47,2.07,4.86,6.84,7.74,13.74l-4.38,2.34c-.75-1.74-1.08-2.52-1.83-4.14l-19.32,2.7-1.14-4.68,4.17-.51c.93-2.16,3.66-8.73,7.14-19.41l4.89,1.56c-3.06,9.06-5.85,15.6-6.54,17.19l8.61-1.05c-1.29-2.31-2.28-3.78-3.45-5.4l4.11-2.34Z"/>
      </g>
      <g>
        <path d="m234.42,300.48c-.76.48-3.33,2.16-3.33,3.64,0,2.58,5.49,2.77,8.46,2.77,4.76,0,8.06-.73,9.35-1.01l.22,3.39c-3.08.56-6.19.78-9.3.78-3.42,0-12.01-.17-12.01-5.54,0-1.34.48-3.16,4.4-5.94l2.21,1.9Zm9.97-7.34c-1.43-.22-3.84-.64-7.56-.64-3.19,0-5.63.28-6.78.42l.14-3.3c1.34-.11,3.64-.31,6.47-.31s5.38.2,8.09.62l-.36,3.22Zm1.62-7c1.29,1.82,2.02,3.5,2.74,5.32l-1.96,1.09c-.78-2.18-1.4-3.47-2.63-5.4l1.85-1.01Zm4.09-1.09c1.26,1.79,1.79,3,2.77,5.32l-1.99,1.09c-.78-2.21-1.37-3.42-2.63-5.4l1.85-1.01Z"/>
        <path d="m262.36,294.88c.39-.9.5-1.2.7-1.79-3.84.62-6.33.81-7.67.92l-.73-2.66c2.27-.11,5.88-.34,10.05-1.29-2.27-.62-4.28-1.04-6.58-1.51l1.06-2.44c1.62.34,6.83,1.4,10.14,2.6,2.69-1.01,4.23-1.99,5.15-2.58l2.32,1.85c-.84.56-2.02,1.29-3.86,2.15,2.16,1.01,3.02,1.51,3.81,1.93l-1.51,2.29c-.92-.59-2.66-1.68-5.77-2.83-1.6.48-3.58,1.01-5.43,1.34l1.93.22c-.14.5-.25.95-.62,1.76h14.36v2.66h-15.76c-.39.62-.9,1.43-2.02,2.83h4.9v-2.04h2.86v2.04h8.37v8.54c0,.76-.25,2.35-2.44,2.35h-3.67l-.5-2.77h2.94c.53,0,.78-.11.78-.76v-4.76h-5.49v9.41h-2.86v-9.41h-5.1v8.29h-2.86v-7.7c-1.37,1.23-2.6,2.07-3.78,2.83l-1.85-2.55c2.04-1.18,5.12-3.05,7.53-6.3h-7.11v-2.66h8.68Z"/>
        <path d="m290,286.11v1.76h4.7v2.6h-8.85v4.54c0,.98.28.98,1.09.98h5.8l-.34,2.66h-7.2c-.67,0-2.04-.22-2.04-2.04v-6.13h-1.65v-2.6h5.68v-1.76h2.8Zm16.44,16.86h-10.42v1.74h9.27v2.3h-9.27v1.9h11.73v2.55h-26.24v-2.55h11.59v-1.9h-9.24v-2.3h9.24v-1.74h-10.36v-2.41h23.69v2.41Zm-4.06-5.74c.98,0,1.06-.22,1.26-1.76h-6.24c-.84,2.52-1.93,3.87-2.55,4.59l-2.18-1.79c1.15-1.34,3.39-4.17,3.05-11.45h10.95c0,2.91,0,8.88-.56,10.72-.2.67-.64,2.13-3.11,2.13h-3.72l-.48-2.44h3.58Zm1.4-3.55c0-.2.06-1.23.06-1.46h-5.74c-.03.37-.08.7-.22,1.46h5.91Zm-5.43-4.68c0,.28-.06.89-.06,1.4h5.63c0-.42.06-1.2.06-1.4h-5.63Z"/>
        <path d="m323.74,308.26c5.01-1.57,7.64-4.76,7.64-9.13,0-3.67-2.02-7.34-7.11-7.95-.42,3.19-1.23,9.55-3.58,14.5-1.37,2.94-2.74,3.75-4.17,3.75-2.8,0-5.74-3.86-5.74-9.07,0-7.06,5.35-12.1,12.43-12.1,6.52,0,11.37,4.28,11.37,10.95,0,8.46-7.31,11.09-8.99,11.68l-1.85-2.63Zm-9.97-7.79c0,3.36,1.54,5.71,2.63,5.71.84,0,1.54-1.79,2.07-3.11,1.79-4.54,2.44-9.44,2.74-11.76-6.16,1.31-7.45,6.36-7.45,9.15Z"/>
        <path d="m361.51,287.37v24.25h-21.67v-24.25h21.67Zm-18.59,10.56h15.48v-7.67h-15.48v7.67Zm0,2.86v7.95h15.48v-7.95h-15.48Z"/>
        <path d="m369.66,289.95c-1.93.22-2.69.25-3.64.31l-.59-2.66c4.48-.2,7.06-.81,9.07-1.43l1.01,2.55c-.7.22-1.29.42-3.16.81v3.53h2.88v2.72h-2.88v.87c1.51,2.74,3.02,4,3.72,4.56l-1.54,2.69c-.98-1.18-1.6-2.1-2.18-3.53v12.01h-2.69v-11.76c-1.32,3.61-2.8,5.46-3.58,6.47l-1.23-3.33c2.04-2.32,3.5-5.1,4.62-7.98h-4.03v-2.72h4.23v-3.11Zm21.48,7.67v2.58h-5.96v3.11h5.54v2.46h-5.54v3.08h6.69v2.66h-17.56v-2.66h8.01v-3.08h-5.46v-2.46h5.46v-3.11h-6.05v-2.58h14.87Zm-.2-10.56v8.21h-14.39v-8.21h14.39Zm-11.62,2.46v3.3h8.85v-3.3h-8.85Z"/>
        <path d="m407.49,287.66c-.42.73-1.09,1.85-1.54,2.55,2.94-.17,5.88-.5,8.79-1.09l-.03,2.88c-4.96.7-6.55.81-10.53,1.04-.56.87-1.12,1.76-1.68,2.63.78-.5,1.46-.92,3.08-.92,1.06,0,3.44.22,4.45,2.91,2.74-1.18,4.9-2.02,6.64-2.66l1.12,2.77c-2.55.87-4.79,1.74-7.25,2.74.08,1.88,0,4.65-.03,5.4h-2.97c.11-1.43.17-2.49.2-4.17-2.49,1.18-4.54,2.44-4.54,4.09,0,1.57,1.71,2.18,5.68,2.18,3.36,0,6.08-.45,7.2-.64l-.31,3.05c-2.1.25-4.23.42-6.38.42-2.49,0-9.04,0-9.04-4.9,0-3.56,4.06-5.68,7.17-7.14-.42-1.15-1.2-1.6-2.38-1.6-3.25,0-5.32,2.72-7.42,5.8l-2.41-1.68c2.86-3.39,4.93-6.86,5.74-8.18-1.82.03-2.63.03-4.79-.03l.06-2.88c1.12.06,2.72.11,4.42.11h1.93c.92-1.74,1.15-2.18,1.76-3.45l3.05.76Z"/>
        <path d="m430.42,300.48c-.76.48-3.33,2.16-3.33,3.64,0,2.58,5.49,2.77,8.46,2.77,4.76,0,8.06-.73,9.35-1.01l.22,3.39c-3.08.56-6.19.78-9.3.78-3.42,0-12.01-.17-12.01-5.54,0-1.34.48-3.16,4.4-5.94l2.21,1.9Zm9.97-7.34c-1.43-.22-3.84-.64-7.56-.64-3.19,0-5.63.28-6.78.42l.14-3.3c1.34-.11,3.64-.31,6.47-.31s5.38.2,8.09.62l-.36,3.22Zm1.62-7c1.29,1.82,2.02,3.5,2.74,5.32l-1.96,1.09c-.78-2.18-1.4-3.47-2.63-5.4l1.85-1.01Zm4.09-1.09c1.26,1.79,1.79,3,2.77,5.32l-1.99,1.09c-.78-2.21-1.37-3.42-2.63-5.4l1.85-1.01Z"/>
        <path d="m453.58,287.04h10.78c-.25,9.63,1.93,16.83,11.98,22.26l-2.07,2.94c-3.78-2.21-9.16-6.24-11.56-14.56-1.88,6.08-4.23,9.69-11.59,14.56l-1.99-2.77c6.86-3.67,11.98-10.02,12.1-19.4h-7.64v-3.02Z"/>
        <path d="m477.43,309.38c8.54-4.7,9.21-10.28,9.74-14.67h-9.1v-2.94h9.35c.03-.31.14-2.3.14-3.7v-2.02h3.19v2.16c0,1.65-.06,2.69-.14,3.56h12.6c-.08,9.41-.67,14.7-1.15,16.63-.25,1.06-.92,3.92-4.12,3.92h-5.18l-.48-3.16h4.68c1.6,0,1.79-1.01,2.16-3.05.42-2.32.76-8.21.73-11.4h-9.52c-.64,5.43-1.88,12.32-11.12,17.5l-1.79-2.83Z"/>
        <path d="m527.25,289.42c-3.84,2.83-8.96,5.91-13.55,8.71-1.06.64-1.18.7-1.18,1.06,0,.34.11.39,1.09.9,3.92,2.07,9.02,4.73,14.39,8.96l-2.32,2.6c-5.24-4.37-10.05-6.97-14.08-9.15-1.51-.81-2.83-1.65-2.83-3.25,0-1.68,1.48-2.58,2.58-3.25,4.2-2.55,8.9-5.49,13.55-9.16l2.35,2.58Z"/>
        <path d="m534.8,309.38c2.91-5.82,4.7-11.96,5.49-15.06-2.07.11-3.64.11-4.82.11l-.03-3.11c.78.03,1.57.05,2.66.05s1.74-.03,2.91-.08c.48-2.1.64-2.94.92-4.51l3.25.34c-.53,2.41-.64,2.83-.92,3.92,2.02-.25,3.36-.45,5.74-.95l.08,3c-3.47.64-5.88.89-6.58.95-1.54,5.66-3.14,11.51-5.66,16.58l-3.05-1.23Zm13.08-6.08c-.56.56-1.48,1.48-1.48,2.58,0,1.88,4,1.88,5.63,1.88,2.55,0,4.73-.34,6.02-.56v3.16c-.98.11-3.22.36-5.99.36-2.16,0-8.74,0-8.74-4.26,0-1.74,1.01-3.08,2.1-4.26l2.46,1.09Zm9.52-5.15c-1.32-.14-2.86-.31-5.24-.31-2.77,0-4.87.25-5.74.36l.36-2.88c1.06-.14,2.94-.39,5.85-.39,2.24,0,3.78.14,5.04.25l-.28,2.97Zm-4.34-11.09c.5.62,1.62,1.99,3.11,5.18l-2.07,1.23c-.95-2.24-1.62-3.47-2.97-5.26l1.93-1.15Zm4-1.51c1.26,1.54,2.07,3.03,3.11,5.18l-2.04,1.23c-.92-2.16-1.65-3.44-3-5.26l1.93-1.15Z"/>
        <path d="m582.68,303.42c-2.35-1.09-3.44-1.48-5.96-1.93l-.2-2.41c1.09.2,1.51.31,2.72.76-1.57-2.07-2.3-3.11-3.53-5.01-5.07.81-9.77.76-11.87.7l-.28-3.08c1.15.03,2.18.08,3.67.08,2.66,0,4.59-.2,6.8-.45-.81-1.37-1.2-2.04-2.44-4.37l3.11-1.01c.39.87,1.29,2.77,2.49,4.84,3.64-.73,5.85-1.57,7.67-2.38l1.2,2.88c-2.94,1.21-5.94,1.93-7.22,2.21,1.65,2.52,3.44,4.98,5.49,7.25l-1.65,1.9Zm.56,6.94c-1.51.25-4.23.7-7.64.7s-6.97-.5-9.02-2.55c-1.09-1.06-1.71-2.46-1.71-3.98,0-3.02,2.18-4.26,3.05-4.76l1.99,1.93c-.95.56-1.93,1.21-1.93,2.72,0,3.64,5.94,3.67,7.53,3.67,3.5,0,6.38-.59,7.78-.9l-.06,3.16Z"/>
        <path d="m595.54,289.59c-.28,1.65-.7,4.23-.7,7.53,0,6.27,1.74,9.63,3.08,9.63,1.48,0,2.83-3.75,3.44-5.85l2.6,1.65c-.64,1.96-1.48,3.81-2.35,5.12-.7,1.09-1.85,2.6-3.75,2.6-2.74,0-6.16-3.75-6.16-13.36,0-2.72.25-5.21.7-7.87l3.14.53Zm16.07,16.44c.08-6.89-2.13-11.12-4.17-13.64l2.55-1.54c2.52,2.91,4.9,7.53,4.84,14.31l-3.22.87Z"/>
      </g>
      <g>
        <path class="cls-4" d="m225.52,1027.65h28.35v4.2h-8.46v5.82c0,.6.24.72.72.72h2.76c.39,0,.54-.27.63-.57.15-.51.21-3,.21-3.66l4.29,1.2c-.15,4.68-.24,7.14-3.24,7.14h-7.11c-1.14,0-2.79-.18-2.79-2.46v-8.19h-3.42c-.42,6.39-4.32,9.63-10.26,11.16l-2.1-4.44c7.32-1.35,7.92-4.8,8.04-6.72h-7.62v-4.2Zm4.59-2.97h-3.87v-8.25h11.07v-2.07h4.62v2.07h11.16v8.25h-3.87v1.38h-19.11v-1.38Zm18.45-2.67v-1.56h-17.82v1.56h17.82Z"/>
        <path class="cls-4" d="m283.12,1015.38v4.5c-2.82,3-7.32,5.34-11.07,6.66v13.26c0,2.37-.93,3.03-3.24,3.03h-6.63l-.93-4.56h5.04c.6,0,.99-.12.99-.87v-14.52h2.64c2.13-.66,3.54-1.35,5.7-2.91h-19.92v-4.59h27.42Z"/>
        <path class="cls-4" d="m304.18,1028.58c0,2.46-1.98,4.5-4.5,4.5s-4.5-2.01-4.5-4.5,2.07-4.5,4.5-4.5,4.5,1.98,4.5,4.5Z"/>
        <path class="cls-4" d="m323.56,1015.26h4.68v4.29c.63-.06,2.61-.3,5.22-.9l.09,4.68c-2.67.42-3.18.48-5.31.72v1.83c1.77-.48,3.48-.78,5.31-.78,6.33,0,8.79,4.2,8.79,8.22,0,3.21-1.74,7.68-7.98,7.68-1.32,0-2.16-.21-2.82-.36l-.15-4.89c.54.21,1.32.54,2.58.54,3.36,0,3.54-2.34,3.54-3.15,0-1.56-.87-3.69-4.68-3.69-2.07,0-3.63.54-4.59.84v4.8c0,1.89-.06,2.76-.36,3.63-.87,2.64-3.42,2.79-4.11,2.79-2.76,0-7.05-2.04-7.05-5.97,0-4.47,4.89-7.11,6.84-7.98v-3.09c-3.03.12-3.42.15-5.7.15l-.06-4.74c.99.06,1.71.09,3,.09.36,0,1.59,0,2.76-.06v-4.65Zm.12,17.04c-.48.3-2.82,1.71-2.82,3.18,0,.84,1.14,1.68,2.1,1.68.72,0,.72-.6.72-1.65v-3.21Zm13.53-15.27c3.24,2.01,5.34,4.17,6.72,5.73l-3.33,3.21c-1.74-2.28-3.51-3.99-6.24-5.76l2.85-3.18Z"/>
        <path class="cls-4" d="m364.93,1037.43c0,.81.27.84.75.84h2.76c.93,0,1.14-.21,1.08-3.63l4.44,1.17c-.09,3.69-.27,6.63-2.94,6.63h-7.68c-2.37,0-2.88-1.71-2.88-2.49v-6.24h-2.85c-.81,6.27-6.63,8.49-10.56,9.27l-1.89-4.5c4.02-.39,7.29-2.04,8.13-4.77h-5.4v-18.45h23.61v18.45h-6.57v3.72Zm2.04-18.51h-14.64v1.62h14.64v-1.62Zm0,4.83h-14.64v1.62h14.64v-1.62Zm0,4.74h-14.64v1.71h14.64v-1.71Z"/>
        <path class="cls-4" d="m397.36,1029.09c2.31,3.3,5.7,4.32,6.81,4.65l-2.55,3.99h2.79l-.87,4.35h-15.48c-2.37,0-4.95-.69-6.78-3.15-1.08,1.29-2.4,2.64-4.38,3.96l-1.77-4.98c1.05-.51,1.8-.96,3.09-2.04v-6.21h-2.61v-4.2h6.93v8.73c.21.93.66,2.85,3.93,3.42l-2.76-3.81c1.26-.45,4.71-1.68,6.45-4.71h-6.57v-4.26h7.8v-2.61h-6.99v-4.26h2.67c-.33-.93-.57-1.44-1.35-2.94l4.41-.81c.63,1.35,1.35,3.24,1.56,3.75h3.84c.57-1.02,1.14-2.7,1.41-3.75l4.53.69c-.21.54-.42,1.23-1.35,3.06h2.88v4.26h-7.26v2.61h8.1v4.26h-6.48Zm-18.57-14.55c1.59,1.23,2.94,2.46,5.07,4.89l-3.36,3.27c-.6-.81-2.4-3.15-4.71-5.01l3-3.15Zm22.26,23.19c-3.42-1.5-5.67-3.72-7.29-7.11-1.35,3.45-4.41,5.94-6.63,7.08.39.03.57.03,1.41.03h12.51Z"/>
        <path class="cls-4" d="m415.51,1016.46c-.75,3.48-1.14,7.05-1.17,10.62.27-.51,1.44-2.82,1.68-3.3l2.55,2.37c-1.14,2.04-2.76,4.95-3.66,8.67l-3.9.42c-.36-1.23-1.29-4.17-1.29-9.42,0-.96,0-4.92.96-9.87l4.83.51Zm13.56-.51c.15,1.68.54,6.09.54,9.9,0,7.62-1.83,12.54-9.39,16.29l-4.02-3.39c7.35-3.45,8.43-7.08,8.43-13.35,0-3.57-.3-6.9-.54-9.45h4.98Z"/>
      </g>
      <g>
        <path d="m226.75,1089.09c2.77-1.71,7.28-4.56,11.93-10.75h-11.45v-3.02h12.88l-.03-5.4h3.05l.06,5.4h6.86v3.02h-6.83l.11,11.28c.03,3.53-.81,4.28-5.94,4.12l-.87-3.11c.76.06,1.62.08,2.38.08,1.29,0,1.34-.17,1.34-1.37l-.08-8.06c-4.34,5.6-8.6,8.48-11.26,10.19l-2.16-2.38Z"/>
        <path d="m269.17,1093.99h-3.28v-13.8c-4.4,2.35-7.64,3.47-9.49,4.09l-1.62-2.88c11.26-3.61,17.7-9.35,20.24-11.65l2.52,2.1c-2.16,1.96-4.26,3.75-8.37,6.41v15.74Z"/>
        <path d="m291.15,1070.7v6.58c0,4.9-.39,11.14-6.08,16.69l-2.41-2.32c4.68-4.7,5.24-9.27,5.24-14.11v-6.83h3.25Zm6.44-.42v18.68c1.85-1.04,4.56-2.8,7.87-7.5l2.24,2.24c-4.59,6.47-9.8,9.04-13.33,10v-23.41h3.22Z"/>
        <path d="m324.13,1068.71v3.08h11.73v2.88h-26.38v-2.88h11.68v-3.08h2.97Zm-14.64,11.56c1.4-.62,4.76-2.16,7.06-5.26l2.72,1.46c-2.63,3.44-5.49,5.24-8.2,6.47l-1.57-2.66Zm9.16-.42c.48,1.09,1.6,3.67,3.95,6.1,2.63-2.63,3.84-5.35,4.26-6.3l2.6,1.46c-.59,1.32-1.85,3.92-4.62,6.8,3.25,2.32,7.11,3.56,11.06,4.09l-1.26,3c-1.93-.34-7.14-1.26-11.96-5.12-4.76,3.81-9.8,4.79-11.62,5.15l-1.48-2.97c3.89-.64,7.7-1.9,10.89-4.23-.62-.64-2.6-2.72-4.51-6.69l2.69-1.29Zm9.72-4.9c1.76,2.13,4.54,3.84,7.67,4.93l-1.71,2.86c-2.72-1.09-6.16-3.44-8.48-6.16l2.52-1.62Z"/>
        <path d="m337.32,1083.47c.95-.22,1.82-.42,3.53-1.01v-6.19h-3.33v-2.63h3.33v-4.84h2.86v4.84h1.93v2.63h-1.93v5.21c.42-.14,1.9-.64,2.13-.73l.14,2.72c-.76.34-1.57.67-2.27.95v8.34c0,1.85-.95,2.3-2.24,2.3h-3.47l-.28-3h2.6c.5,0,.53-.2.53-.56v-6.05c-.84.28-1.51.5-3.19,1.04l-.34-3.02Zm9.32,1.6v-10.5h.08l-1.23-1.09c1.2-.78,3.39-2.3,4.79-4.68l3.14.2c-.22.42-.28.56-.81,1.37h7.53v2.35c-.25.28-1.4,1.51-1.74,1.85h4.23v10.5h1.18v2.72h-7.11c1.34,2.58,4.14,3.95,7.42,4.68l-1.34,2.6c-3.95-1.29-6.94-3.36-8.4-6.55-2.24,4.56-6.27,5.99-7.92,6.55l-1.54-2.46c1.2-.39,5.38-1.82,7-4.82h-6.27v-2.72h1.01Zm8.18-10.5c.62-.64,1.74-1.93,1.82-2.04h-5.77c-.7.73-1.54,1.51-2.24,2.04h6.19Zm-1.99,10.5c.14-.78.14-1.29.14-1.96h2.86c-.11.87-.17,1.29-.31,1.96h4.45v-2.69h-3.14c-1.46,0-1.57-.92-1.57-1.65v-3.92h-1.6c-.17,3.72-1.15,4.96-2.74,6.05l-1.54-1.76c1.15-.84,1.93-1.76,2.04-4.28h-2.16v8.26h3.56Zm4.7-8.26v2.63c0,.42.17.53.73.53h1.71v-3.16h-2.44Z"/>
        <path d="m365.68,1081.25h26.15v2.88h-8.06v7.48c0,.53.34.53.76.53h3.61c.64,0,.73-.45.78-.76.11-.7.11-2.94.11-3.81l2.8.92c-.11,5.54-.67,6.36-2.6,6.36h-5.99c-.48,0-2.35,0-2.35-2.04v-8.68h-4.65c-.39,8.46-6.36,10.42-9.46,11.17l-1.51-2.94c5.82-.78,8.04-4.14,8.18-8.23h-7.76v-2.88Zm11.59-12.49h2.91v2.32h10.92v7.34h-2.97v-4.54h-18.9v4.54h-2.86v-7.34h10.89v-2.32Zm-6.8,7.39h16.55v2.74h-16.55v-2.74Z"/>
        <path d="m393.74,1069.77h25.14v2.94c-2.77,3.33-6.72,5.8-10.78,7.34v12.54c0,2.35-1.15,2.46-2.63,2.46h-5.52l-.62-3.05h4.76c.59,0,.95-.2.95-.92v-14.39h3.11c.98-.39,4.23-1.71,6.16-3.98h-20.58v-2.94Z"/>
        <path d="m446.18,1071.34l.28,3.19c-1.76.06-4.79.2-8.09,2.1-2.55,1.46-5.26,3.89-5.26,7.48,0,5.21,6.27,6.33,8.82,6.58l-1.51,3.14c-6.47-.9-10.58-4.23-10.58-9.44,0-3.25,1.71-6.16,3.86-7.73.9-.67,1.82-1.18,3.33-1.99l-14.14,1.6-.28-3.33c2.74-.11,4.62-.22,4.73-.25l18.84-1.34Zm-5.29,7.08c1.32,1.54,2.16,2.97,3.28,5.15l-2.07,1.37c-.98-2.16-1.79-3.53-3.16-5.26l1.96-1.26Zm3.84-2.16c1.34,1.54,2.18,2.94,3.33,5.12l-2.1,1.34c-1.06-2.24-1.76-3.44-3.19-5.24l1.96-1.23Z"/>
        <path d="m467.24,1084.45c.03,2.41-.25,7.62-7.59,10.36l-2.04-2.55c4.45-1.57,5.49-3.53,6.08-4.79-.9.76-1.85,1.12-3.05,1.12-2.66,0-5.12-2.1-5.12-5.54s2.66-5.6,5.49-5.6c1.85,0,2.52.53,3.22,1.09l-.06-2.6-8.2.22c-2.49.06-3.33.08-5.18.22l-.06-3.08c2.07.08,3.92.06,5.15.03l8.2-.17-.08-3.53h3.08l.03,3.47,2.44-.06c.64-.03,3.16-.08,5.07-.25l.06,3.05c-1.43-.08-3.58-.11-5.1-.06l-2.44.08.11,8.57Zm-5.99-4.37c-1.54,0-2.77,1.18-2.77,2.94,0,1.88,1.29,2.94,2.72,2.94,1.68,0,2.83-1.32,2.83-2.97,0-2.04-1.48-2.91-2.77-2.91Z"/>
        <path d="m492.47,1070.39l-.42,15.96h-2.74l-.42-15.96h3.58Zm-3.58,18.62h3.56v3.58h-3.56v-3.58Z"/>
      </g>
      <g>
        <path class="cls-4" d="m226.36,770.43c2.49-1.47,7.32-4.5,11.73-10.05h-10.92v-4.65h13.26l-.03-5.52h4.68l.06,5.52h7.02v4.65h-6.99l.12,10.92c.06,4.41-1.41,5.19-7.41,4.98l-1.08-4.77c1.02.09,2.25.12,2.7.12,1.05,0,1.05-.09,1.05-1.26l-.06-5.79c-3,3.78-6.75,6.87-10.8,9.51l-3.33-3.66Z"/>
        <path class="cls-4" d="m273.1,776.43h-4.98v-13.62c-4.11,2.07-7.26,3.12-9.24,3.78l-2.43-4.32c6.69-2.16,13.92-5.25,21.75-12.48l3.78,3.18c-2.07,1.92-4.68,4.26-8.88,6.96v16.5Z"/>
        <path class="cls-4" d="m296.41,751.02v7.32c0,6.15-.6,12.51-6.48,18.24l-3.6-3.69c4.41-4.56,5.16-8.94,5.16-14.34v-7.53h4.92Zm7.26-.42v18.51c3.18-2.01,5.43-4.65,7.02-7.02l3.3,3.39c-2.25,3.15-6.93,8.76-15.18,10.77v-25.65h4.86Z"/>
        <path class="cls-4" d="m341.5,764.88c-3.42-1.59-7.23-4.2-9.48-6.75l3.51-1.98h-12.57l3.78,1.89c-3.54,4.14-7.2,5.97-9.09,6.87l-2.43-4.23c3.54-1.29,6.12-3.54,7.02-4.53h-6.78v-4.41h11.88v-2.67h4.65v2.67h11.91v4.41h-7.32c1.41,1.44,3.96,3.21,7.65,4.41l-2.73,4.32Zm-15.6-3.03c.45.84,1.65,2.97,3.78,5.01,1.14-1.11,2.43-2.43,3.87-5.28l4.08,2.16c-.42.84-1.53,3.12-4.29,5.82,3.99,2.22,7.86,2.91,10.86,3.21l-2.01,4.68c-3.36-.6-8.01-1.71-12.6-4.86-1.56,1.08-5.43,3.66-12.36,4.98l-1.92-4.83c1.29-.15,6.27-.75,10.68-3.18-2.43-2.46-3.9-5.07-4.38-5.88l4.29-1.83Z"/>
        <path class="cls-4" d="m355.12,766.26v-9.96l-.9-1.41v3.33h-1.8v3.99c.48-.15.75-.24,1.89-.63l.06,4.26c-.69.3-1.23.51-1.95.78v8.25c0,.84,0,2.76-2.58,2.76h-3.81l-.54-4.62h2.16c.54,0,.54-.39.54-.81v-4.17c-.69.21-1.26.36-2.55.72l-.42-4.53c.87-.18,1.44-.3,2.97-.72v-5.28h-2.79v-4.17h2.79v-4.83h4.23v4.83h1.59c1.5-.96,3.48-2.25,5.01-5.04l4.74.3c-.21.48-.3.69-.69,1.35h7.77v3.48c-.48.54-.81.96-1.29,1.47h3.3v10.65h.99v3.93h-6.48c2.73,2.7,5.76,3.27,6.99,3.48l-1.89,4.08c-5.58-1.62-7.8-4.2-8.85-5.73-2.64,4.11-6.81,5.43-8.01,5.79l-2.34-3.96c4.05-.99,5.97-2.55,6.87-3.66h-6.12v-3.93h1.11Zm9.18-10.65c.42-.42.51-.54,1.29-1.53h-5.31c-.78.81-1.26,1.2-1.65,1.53h5.67Zm-2.58,10.65c.03-.48.06-.72.06-1.38h4.2c-.09.78-.12,1.02-.18,1.38h3.27v-2.04h-2.61c-1.05,0-2.1-.12-2.1-1.92v-3.66h-1.05c-.18,4.35-1.47,5.37-2.61,6.27l-1.74-2.31v3.66h2.76Zm-2.76-7.62v3.72c.69-.6,1.53-1.32,1.65-3.72h-1.65Zm8.31,0v1.77c0,.48.09.6.75.6h1.05v-2.37h-1.8Z"/>
      </g>
      <g>
        <path d="m248.11,828.09c-1.18-1.57-3.64-4.84-7.76-8.29-1.34,1.54-5.01,5.68-11.65,8.6l-1.85-2.63c6.61-2.94,12.66-7.59,15.99-16.24h-14.08v-3.05h18.56c-.7,2.46-2.02,6.52-5.04,10.84,4.42,3.56,7.48,7.48,8.37,8.62l-2.55,2.16Z"/>
        <path d="m258.05,826.32c6.36-1.99,9.24-5.07,10.61-6.64-1.88-1.34-4.23-3.05-8.32-5.18-.98,1.04-1.62,1.65-3.05,2.86l-2.38-2.16c1.2-.95,4.82-3.84,7.5-9.02h15.01c-1.12,9.94-5.99,18.9-17.3,22.74l-2.07-2.6Zm6.36-17.14c-.31.5-.84,1.37-2.13,3.05,2.88,1.51,4.7,2.46,8.26,4.9,1.23-2.02,2.32-4.23,3.05-7.95h-9.18Z"/>
        <path d="m287.54,811.12c1.54,2.35,2.41,4.06,3.25,5.85l-2.46,1.29c-.92-2.04-1.76-3.61-3.16-5.77l2.38-1.37Zm16.55.08c-1.12,8.01-4.48,14.67-13.75,17.78l-2.13-2.27c8.79-2.66,12.01-8.34,12.99-16.04l2.88.53Zm-10.7-1.34c1.18,1.85,2.1,3.61,3.05,5.99l-2.49,1.23c-.92-2.27-1.65-3.75-3-5.96l2.44-1.26Z"/>
        <path d="m333.48,806.86c-.76,10.08-5.38,17.56-14.76,21.56l-2.07-2.6c10.64-4.2,12.57-12.24,13.16-15.88h-18v-3.08h21.67Z"/>
        <path d="m346.48,824.92c.5.14,1.26.39,2.3.39,1.79,0,3.3-.42,3.3-7.31,0-2.86-.22-4.54-3.5-4.54-.14,0-.53,0-1.18.06-1.34,5.26-3.28,10.47-6.1,15.15l-2.74-1.76c3-4.84,4.42-8.71,5.6-13.02-2.49.36-3.05.45-5.54.87l-.36-3.05,6.64-.84c.48-2.16.76-3.53,1.09-6.19l3.22.5c-.5,2.77-.67,3.61-1.09,5.4,5.1-.08,6.94,1.85,6.94,7.17,0,7.76-1.48,10.58-5.88,10.58-.95,0-1.76-.08-2.69-.31v-3.11Zm12.52-4.12c-.67-5.18-2.86-8.85-5.49-11.17l2.21-1.68c3.33,3.11,5.49,7.25,6.24,11.73l-2.97,1.12Zm-1.09-16.18c1.62,1.62,2.6,3.02,3.67,4.7l-1.74,1.46c-1.18-2.04-2.02-3.16-3.58-4.84l1.65-1.32Zm3.16-2.1c1.46,1.4,2.35,2.63,3.7,4.73l-1.74,1.43c-1.23-2.07-1.99-3.11-3.58-4.84l1.62-1.32Z"/>
        <path d="m365.74,814.4h5.74v8.4c.42.84.92,1.85,2.44,2.66,1.46.78,2.91.95,4,.95h14.31l-.53,2.77h-13.33c-4.76,0-6.33-1.76-7.56-3.14-.76.95-2.07,2.41-3.98,3.86l-1.4-2.86c.56-.34,2.13-1.34,3.28-2.63v-7.22h-2.97v-2.8Zm2.41-10.44c1.99,1.96,2.58,2.69,4.23,4.93l-2.38,1.88c-1.34-2.21-2.1-3.14-3.92-5.1l2.07-1.71Zm4.45,18.2c4.09-1.2,6.64-3.89,7.17-4.48h-5.57v-7.78h6.8v-1.62h-7.95v-2.6h7.95v-2.07h2.6v2.07h8.09v2.6h-8.09v1.62h6.94v7.78h-5.24c2.18,2.52,4.2,3.58,6.86,4.65l-1.62,2.52c-2.32-1.2-4.84-2.66-6.94-5.63v6.33h-2.6v-5.96c-2.32,2.83-4.79,4.14-6.8,5.07l-1.6-2.49Zm4.28-9.97v3.16h4.12v-3.16h-4.12Zm6.72,0v3.16h4.37v-3.16h-4.37Z"/>
        <path d="m407.07,804.62c.45.62,1.23,1.76,2.46,3.84.59-.08,1.43-.22,2.46-.22,3.39,0,6.69,2.02,6.69,6.22,0,5.43-5.35,6.58-8.4,6.58-.84,0-1.43-.11-1.93-.2l-.73-3.14c1.06.25,1.79.39,2.74.39,3.11,0,5.24-1.34,5.24-3.72,0-1.71-1.26-3.25-3.61-3.25s-4.54.87-8.99,2.66c1.2,3.19,2.86,8.01,4.79,14.56l-3.19.92c-2.1-7.64-3.78-12.35-4.48-14.28-3.64,1.54-3.7,1.57-4.65,1.96l-1.34-2.88c1.34-.56,3.53-1.43,4.87-1.96-1.09-2.8-2.02-4.82-2.49-5.82l2.94-1.18c.87,1.93,1.71,3.86,2.46,5.82,1.2-.45,3.16-1.2,4.56-1.65-.7-1.18-1.29-2.07-1.99-3.08l2.58-1.57Z"/>
        <path d="m433.92,805.3c-.39,2.18-.62,3.19-1.06,5.24,6.3-.25,7.53,2.66,7.53,7.39,0,9.3-2.72,10.3-6.13,10.3-1.4,0-2.38-.22-3-.36l.03-3.11c.53.14,1.48.45,2.72.45,1.65,0,3.3-.28,3.3-7.31,0-3.3-.48-4.51-3.72-4.51-.56,0-1.09.03-1.43.06-2.1,7.67-4,11.68-6.08,15.12l-2.63-1.76c.98-1.57,3.64-5.85,5.54-12.99-3,.42-4.48.67-5.68.9l-.39-2.97,6.8-.87c.48-2.1.73-3.5,1.09-6.22l3.11.64Zm10.02,15.32c-.25-3.14-1.2-7.62-4.76-11.26l2.44-1.76c1.62,1.71,4.79,5.46,5.4,12.01l-3.08,1.01Z"/>
        <path d="m456.54,805.97c-1.04,4.4-1.62,8.4-1.62,12.91s.59,7.22.95,8.82l-3.05.39c-.76-3-.95-6.08-.95-9.18,0-6.22.98-11.09,1.43-13.33l3.25.39Zm17.42,20.33c-2.88.42-4.98.48-6.24.48-3.98,0-8.51-.5-8.51-4.76,0-1.9.95-3.3,1.32-3.86l2.66.53c-.28.39-1.12,1.48-1.12,2.77,0,1.68,1.68,2.24,5.35,2.24,3.11,0,5.32-.42,6.61-.67l-.06,3.28Zm-13.64-18.28c1.65-.17,4.4-.45,7.9-.45,2.38,0,3.78.11,4.68.2l-.06,3.11c-.67-.06-2.32-.22-4.82-.22-3.64,0-6.38.36-7.76.56l.06-3.19Z"/>
        <path d="m228.88,856.39c-1.01,1.23-1.76,1.93-2.52,2.6l-1.29-2.77c3.11-2.91,4.98-6.1,6.22-11.54l2.97.5c-.39,1.34-1.04,3.67-2.41,6.44v19.46h-2.97v-14.7Zm12.07-11.4c-.22.92-.48,1.93-1.15,3.56h12.07v2.77h-9.3v3.98h8.6v2.77h-8.6v4h8.6v2.74h-8.6v6.27h-3.02v-19.77h-1.06c-1.88,3.44-3.39,5.07-4.26,5.99l-1.9-2.38c3.11-3,4.87-7.53,5.52-10.28l3.11.34Z"/>
        <path d="m278.18,870.53c-3.02-1.01-6.55-2.27-10.14-5.54v5.88h-2.83v-5.85c-1.79,1.57-4.2,3.47-10.11,5.49l-1.46-2.49c5.8-1.76,8.2-3.44,9.46-4.34h-9.49v-2.32h11.59v-1.68h-9.63v-2.16h9.63v-1.68h-10.22v-2.3h5.68c-.11-.45-.5-1.74-.76-2.18h-6.3v-2.41h4.4c-.2-.42-1.09-2.32-1.62-3.47l2.91-.84c.7,1.34,1.12,2.46,1.68,4.31h1.71v-4.12h2.74v4.12h2.44v-4.12h2.74v4.12h1.82c.53-1.15,1.23-3.11,1.54-4.31l2.91.84c-.08.25-.7,1.99-1.54,3.47h4.31v2.41h-6.36c-.14.36-.67,1.88-.78,2.18h6.02v2.3h-10.5v1.68h9.86v2.16h-9.86v1.68h11.62v2.32h-9.49c3.3,2.46,6.19,3.47,9.63,4.31l-1.62,2.55Zm-8.62-17c.2-.45.42-1.06.67-2.18h-7.34c.14.31.64,1.85.78,2.18h5.88Z"/>
        <path d="m288.54,847.09c-1.04,4.4-1.62,8.4-1.62,12.91s.59,7.22.95,8.82l-3.05.39c-.76-3-.95-6.08-.95-9.18,0-6.22.98-11.09,1.43-13.33l3.25.39Zm17.42,20.33c-2.88.42-4.98.48-6.24.48-3.98,0-8.51-.5-8.51-4.76,0-1.9.95-3.3,1.32-3.86l2.66.53c-.28.39-1.12,1.48-1.12,2.77,0,1.68,1.68,2.24,5.35,2.24,3.11,0,5.32-.42,6.61-.67l-.06,3.28Zm-13.64-18.28c1.65-.17,4.4-.45,7.9-.45,2.38,0,3.78.11,4.68.2l-.06,3.11c-.67-.06-2.32-.22-4.82-.22-3.64,0-6.38.36-7.76.56l.06-3.19Z"/>
        <path d="m326.34,850.84c.34,4.87,1.85,7.73,2.66,9.27,2.41-4.4,3.05-8.23,3.36-10.44h-9.21v-1.65h-1.4v22.9h-2.83v-5.1c-2.72.87-7.08,1.79-9.16,2.04l-.53-2.77c.39,0,1.46-.2,1.79-.25v-16.83h-1.62v-2.63h14.22v1.43h11.7v2.86c-1.23,7.87-3.39,11.51-4.48,13.33,2.02,2.69,4.03,4.09,5.29,4.9l-1.65,2.83c-1.09-.78-3.05-2.21-5.4-5.21-2.35,2.94-4.37,4.54-5.46,5.4l-1.85-2.52c1.15-.81,3.25-2.35,5.49-5.54-1.18-2.07-3.08-5.71-3.64-11.59l2.72-.42Zm-12.54-2.83v3.5h5.12v-3.5h-5.12Zm0,6.02v3.5h5.12v-3.5h-5.12Zm5.12,6.08h-5.12v4.23c3.08-.56,3.81-.76,5.12-1.15v-3.08Z"/>
        <path d="m345.78,846.64c-.64,3.02-1.04,6.1-1.04,9.21,0,1.04.06,1.85.08,2.55.87-1.93,1.12-2.49,2.02-4.37l1.9,1.71c-.81,1.51-2.49,4.84-3.28,7.84l-2.52.28c-.45-1.48-1.2-4.17-1.2-8.57,0-3.08.34-5.99.95-9.02l3.08.36Zm13.24-.39c.14,1.68.5,5.74.5,8.96,0,6.27-1.09,11.26-8.71,15.04l-2.58-2.18c7.11-3.5,8.06-7.11,8.06-13.22,0-2.97-.2-5.38-.5-8.6h3.22Z"/>
        <path d="m377.92,846.42c-.39,2.18-.62,3.19-1.06,5.24,6.3-.25,7.53,2.66,7.53,7.39,0,9.3-2.72,10.3-6.13,10.3-1.4,0-2.38-.22-3-.36l.03-3.11c.53.14,1.48.45,2.72.45,1.65,0,3.3-.28,3.3-7.31,0-3.3-.48-4.51-3.72-4.51-.56,0-1.09.03-1.43.06-2.1,7.67-4,11.68-6.08,15.12l-2.63-1.76c.98-1.57,3.64-5.85,5.54-12.99-3,.42-4.48.67-5.68.9l-.39-2.97,6.8-.87c.48-2.1.73-3.5,1.09-6.22l3.11.64Zm10.02,15.32c-.25-3.14-1.2-7.62-4.76-11.26l2.44-1.76c1.62,1.71,4.79,5.46,5.4,12.01l-3.08,1.01Z"/>
        <path d="m405.92,846.42c-.39,2.18-.62,3.19-1.06,5.24,6.3-.25,7.53,2.66,7.53,7.39,0,9.3-2.72,10.3-6.13,10.3-1.4,0-2.38-.22-3-.36l.03-3.11c.53.14,1.48.45,2.72.45,1.65,0,3.3-.28,3.3-7.31,0-3.3-.48-4.51-3.72-4.51-.56,0-1.09.03-1.43.06-2.1,7.67-4,11.68-6.08,15.12l-2.63-1.76c.98-1.57,3.64-5.85,5.54-12.99-3,.42-4.48.67-5.68.9l-.39-2.97,6.8-.87c.48-2.1.73-3.5,1.09-6.22l3.11.64Zm10.02,15.32c-.25-3.14-1.2-7.62-4.76-11.26l2.44-1.76c1.62,1.71,4.79,5.46,5.4,12.01l-3.08,1.01Z"/>
        <path d="m429.78,846.64c-.64,3.02-1.04,6.1-1.04,9.21,0,1.04.06,1.85.08,2.55.87-1.93,1.12-2.49,2.02-4.37l1.9,1.71c-.81,1.51-2.49,4.84-3.28,7.84l-2.52.28c-.45-1.48-1.2-4.17-1.2-8.57,0-3.08.34-5.99.95-9.02l3.08.36Zm13.24-.39c.14,1.68.5,5.74.5,8.96,0,6.27-1.09,11.26-8.71,15.04l-2.58-2.18c7.11-3.5,8.06-7.11,8.06-13.22,0-2.97-.2-5.38-.5-8.6h3.22Z"/>
        <path d="m461.39,845.77h3.11l.03,3.67c4.65-.08,5.15-.11,8.88-.25v2.94c-3.92.14-4.4.14-8.88.22l.03,2.58c4.34-.11,4.82-.11,7.73-.28l.03,2.97c-2.97.11-3.44.14-7.73.22v3.61c2.97.7,5.46,1.9,8.43,3.67l-1.54,2.97c-1.43-1.01-3.56-2.41-6.89-3.58-.03,2.1-.11,5.24-5.85,5.24-3.86,0-6.08-1.93-6.08-4.4s2.04-4.54,6.89-4.54c.9,0,1.57.08,1.96.14l-.03-3.05c-4.23.06-4.7.06-8.54.03v-3c3.28.08,3.78.08,8.54.06l-.03-2.6c-4.48.03-4.98.03-9.46-.03v-3c4.09.11,4.59.11,9.44.11l-.03-3.7Zm-2.07,17.75c-3.3,0-3.75,1.23-3.75,1.88,0,.76.78,1.68,2.97,1.68,2.97,0,2.97-1.23,2.97-3.36-.42-.08-1.15-.2-2.18-.2Z"/>
        <path d="m495.24,860.33c.03,2.41-.25,7.62-7.59,10.36l-2.04-2.55c4.45-1.57,5.49-3.53,6.08-4.79-.9.76-1.85,1.12-3.05,1.12-2.66,0-5.12-2.1-5.12-5.54s2.66-5.6,5.49-5.6c1.85,0,2.52.53,3.22,1.09l-.06-2.6-8.2.22c-2.49.06-3.33.08-5.18.22l-.06-3.08c2.07.08,3.92.06,5.15.03l8.2-.17-.08-3.53h3.08l.03,3.47,2.44-.06c.64-.03,3.16-.08,5.07-.25l.06,3.05c-1.43-.08-3.58-.11-5.1-.06l-2.44.08.11,8.57Zm-5.99-4.37c-1.54,0-2.77,1.18-2.77,2.94,0,1.88,1.29,2.94,2.72,2.94,1.68,0,2.83-1.32,2.83-2.97,0-2.04-1.48-2.91-2.77-2.91Z"/>
      </g>
      <g>
        <g>
          <circle class="cls-1" cx="95" cy="286.39" r="92.5"/>
          <path class="cls-2" d="m95,196.39c49.63,0,90,40.37,90,90s-40.37,90-90,90S5,336.01,5,286.39s40.37-90,90-90m0-5C42.53,191.39,0,233.92,0,286.39s42.53,95,95,95,95-42.53,95-95-42.53-95-95-95h0Z"/>
        </g>
        <g>
          <g>
            <rect class="cls-1" x="34.6" y="241.62" width="93.06" height="58.34"/>
            <g>
              <path class="cls-2" d="m132.29,235.88H30.2v69.15h102.09v-69.15Zm-94.26,61.09v-53.03c0-.13.1-.23.23-.23h85.97c.13,0,.23.1.23.23v53.03c0,.13-.1.23-.23.23H38.26c-.13,0-.23-.1-.23-.23Z"/>
              <path class="cls-2" d="m23.93,311.03v4.12c0,4.38,3.56,7.94,7.94,7.94h98.74c4.38,0,7.94-3.56,7.94-7.94v-4.12H23.93Zm48.06,5.74v-1.22h18.51v1.22c0,.72-.59,1.31-1.31,1.31h-15.9c-.72,0-1.31-.59-1.31-1.31Z"/>
            </g>
            <polygon class="cls-2" points="48.27 260.63 44.33 256.59 45.06 255.87 48.36 259.25 53.84 254.86 54.49 255.66 48.27 260.63"/>
            <polygon class="cls-2" points="48.27 275.27 44.33 271.22 45.06 270.51 48.36 273.89 53.84 269.49 54.49 270.29 48.27 275.27"/>
            <rect class="cls-2" x="105.29" y="257.09" width="5.14" height="1.03"/>
            <rect class="cls-2" x="83.48" y="257.09" width="19.52" height="1.03"/>
            <rect class="cls-2" x="74.7" y="257.09" width="6.28" height="1.03"/>
            <rect class="cls-2" x="65.56" y="257.09" width="6.43" height="1.03"/>
            <rect class="cls-2" x="57.91" y="257.09" width="5.59" height="1.03"/>
            <rect class="cls-2" x="57.91" y="271.2" width="5.14" height="1.03"/>
            <rect class="cls-2" x="65.33" y="271.2" width="19.52" height="1.03"/>
            <rect class="cls-2" x="87.35" y="271.2" width="6.28" height="1.03"/>
            <rect class="cls-2" x="96.34" y="271.2" width="6.43" height="1.03"/>
            <rect class="cls-2" x="104.83" y="271.2" width="5.59" height="1.03"/>
          </g>
          <g>
            <rect class="cls-1" x="115.73" y="291.15" width="39.62" height="52.88" transform="translate(116.8 -27.21) rotate(20)"/>
            <g>
              <path class="cls-2" d="m160.68,290.24l-26.94-9.8c-4.25-1.55-8.94.64-10.49,4.89l-16.81,46.19c-2.47,6.8,1.03,14.31,7.83,16.78l17.71,6.45c6.8,2.47,14.31-1.03,16.78-7.83l16.81-46.19c1.55-4.25-.64-8.94-4.89-10.49Zm-36.11,57.31c-1.05-.38-1.59-1.54-1.21-2.59.38-1.05,1.54-1.59,2.59-1.21,1.05.38,1.59,1.54,1.21,2.59s-1.54,1.59-2.59,1.21Zm16.71-61.09l9.76,3.55c.55.2.83.81.63,1.36s-.81.83-1.36.63l-9.76-3.55c-.55-.2-.83-.81-.63-1.36.2-.55.81-.83,1.36-.63Zm-30.49,46.65l16.26-44.66,33.64,12.24-16.26,44.66c-.18.5-.41.96-.67,1.4l-33.36-12.14c.08-.5.21-1.01.39-1.5Z"/>
              <g>
                <polygon class="cls-2" points="128.84 302.55 127.17 298.87 128.11 298.44 129.39 301.28 133.84 299.77 134.17 300.74 128.84 302.55"/>
                <polygon class="cls-2" points="125.39 312.02 123.72 308.34 124.66 307.92 125.94 310.75 130.39 309.25 130.72 310.22 125.39 312.02"/>
                <rect class="cls-2" x="148.27" y="305.19" width="1.03" height="4.33" transform="translate(-190.92 342.06) rotate(-70)"/>
                <rect class="cls-2" x="142.4" y="303" width="1.03" height="4.43" transform="translate(-192.78 335.12) rotate(-70)"/>
                <rect class="cls-2" x="137.17" y="301.39" width="1.03" height="3.86" transform="translate(-194.43 328.93) rotate(-70)"/>
                <rect class="cls-2" x="133.7" y="310.63" width="1.03" height="3.54" transform="translate(-205.25 331.64) rotate(-69.99)"/>
                <rect class="cls-2" x="141.91" y="309.99" width="1.03" height="10.79" transform="translate(-202.66 341.35) rotate(-70)"/>
              </g>
            </g>
          </g>
        </g>
      </g>
      <g>
        <g>
          <circle class="cls-1" cx="95.31" cy="551.62" r="92.5"/>
          <path class="cls-2" d="m95.31,461.62c49.63,0,90,40.37,90,90s-40.37,90-90,90S5.31,601.25,5.31,551.62s40.37-90,90-90m0-5C42.84,456.62.31,499.16.31,551.62s42.53,95,95,95,95-42.53,95-95-42.53-95-95-95h0Z"/>
        </g>
        <g>
          <path class="cls-1" d="m46.77,598.39v-89.63h97.08v89.63H46.77Z"/>
          <path class="cls-2" d="m46.77,598.39v-89.63h97.08v89.63H46.77Zm63.44-3.34h30.3v-55.31l-1.88,1.17c-1.76,1.09-3.77,1.67-5.82,1.68-3.25,0-6.33-1.43-8.44-3.92l-.94-1.11-.94,1.11c-2.11,2.49-5.18,3.92-8.44,3.93-3.25,0-6.33-1.43-8.44-3.93l-.94-1.11-.94,1.11c-2.11,2.49-5.18,3.92-8.44,3.93-3.25,0-6.33-1.43-8.44-3.93l-.94-1.11-.94,1.11c-2.11,2.49-5.18,3.92-8.44,3.92-3.25,0-6.33-1.43-8.43-3.93l-.94-1.11-.94,1.11c-2.11,2.49-5.18,3.92-8.44,3.93-2.05,0-4.07-.58-5.82-1.68l-1.88-1.17v55.31h30.3v-18.76h29.8v18.76Zm14.89-82.94v19.43c0,2.05.8,3.98,2.25,5.44,1.46,1.46,3.4,2.26,5.45,2.26,2.05,0,3.99-.8,5.44-2.25,1.46-1.46,2.26-3.39,2.26-5.45v-19.43m-34.15,19.43c0,2.05.8,3.99,2.25,5.44,1.46,1.46,3.39,2.26,5.45,2.26,2.05,0,3.99-.8,5.45-2.25,1.46-1.46,2.26-3.39,2.26-5.45v-19.43h-15.41m-18.75,0v19.43c0,2.05.8,3.99,2.25,5.44,1.46,1.46,3.39,2.26,5.45,2.26,2.05,0,3.99-.8,5.44-2.26,1.46-1.46,2.26-3.39,2.26-5.45v-19.43h-15.41Zm-18.75,0v19.43c0,2.05.8,3.99,2.25,5.44,1.46,1.46,3.39,2.26,5.45,2.26,2.05,0,3.99-.8,5.45-2.25,1.46-1.46,2.26-3.4,2.26-5.45v-19.43m-34.15,0v19.43c0,2.05.8,3.99,2.25,5.44,1.46,1.46,3.39,2.26,5.45,2.26,2.06,0,3.99-.8,5.45-2.25,1.46-1.46,2.26-3.39,2.26-5.45v-19.43"/>
          <rect class="cls-2" x="67.55" y="552.66" width="7.21" height="8.87"/>
          <rect class="cls-2" x="115.87" y="552.66" width="7.21" height="8.87"/>
          <rect class="cls-2" x="91.71" y="552.66" width="7.21" height="8.87"/>
        </g>
      </g>
      <g>
        <g>
          <circle class="cls-1" cx="95.31" cy="816.86" r="92.5"/>
          <path class="cls-2" d="m95.31,726.86c49.63,0,90,40.37,90,90s-40.37,90-90,90S5.31,866.48,5.31,816.86s40.37-90,90-90m0-5c-52.47,0-95,42.53-95,95s42.53,95,95,95,95-42.53,95-95-42.53-95-95-95h0Z"/>
        </g>
        <g>
          <path class="cls-2" d="m65.33,793.51s-12.27-9.82-21.82-8.64c-9.55,1.18-9.21,9.95-6.85,12.69,2.36,2.74,7.38,2.39,13.2-.64,5.82-3.03,10.48-3.79,15.48-3.42Z"/>
          <g>
            <path class="cls-1" d="m114.81,863.76c-2.21,0-4.28-.86-5.84-2.42-.04-.04-.09-.09-.12-.14l-34.43-42.37h-24.12c-.77,0-1.45-.49-1.7-1.21-.25-.73,0-1.53.61-2l23.25-17.89,18.22-18.22c1.56-1.56,3.64-2.42,5.84-2.42,1.97,0,3.83.68,5.32,1.94l1.8-1.8c2.17-2.17,5.06-3.36,8.13-3.36s5.96,1.19,8.13,3.36l13.85,13.84c4.05,4.05,4.44,10.39,1.18,14.88l16.1,13.08s.09.08.14.12c1.56,1.56,2.42,3.64,2.42,5.84s-.86,4.28-2.42,5.84l-30.5,30.5c-1.56,1.56-3.64,2.42-5.84,2.42h0Zm12.2-64.24c.11-.47-.02-.98-.38-1.35l-13.84-13.84c-.27-.27-.63-.42-1.02-.42s-.75.15-1.02.42l-1.09,1.09,17.35,14.1Z"/>
            <path class="cls-2" d="m111.76,775.65c2.48,0,4.97.95,6.86,2.84l13.84,13.84c3.78,3.78,3.78,9.94,0,13.72l-.12.12,17.53,14.24c2.53,2.53,2.53,6.62,0,9.15l-30.5,30.5c-1.26,1.26-2.92,1.9-4.57,1.9s-3.31-.63-4.57-1.89l-34.97-43.04h-24.97s23.35-17.95,23.35-17.95l18.3-18.3c1.26-1.26,2.92-1.9,4.58-1.9,1.66,0,3.31.63,4.57,1.89l.84.68,2.97-2.97c1.89-1.89,4.38-2.84,6.86-2.84m15.54,26.42l.59-.59c1.26-1.26,1.26-3.31,0-4.57l-13.84-13.84c-.63-.63-1.46-.95-2.29-.95-.83,0-1.66.32-2.29.95l-2.5,2.5,20.32,16.51"/>
          </g>
        </g>
      </g>
      <g>
        <g>
          <circle class="cls-1" cx="95.31" cy="1082.09" r="92.5"/>
          <path class="cls-2" d="m95.31,992.09c49.63,0,90,40.37,90,90s-40.37,90-90,90-90-40.37-90-90,40.37-90,90-90m0-5c-52.47,0-95,42.53-95,95s42.53,95,95,95,95-42.53,95-95-42.53-95-95-95h0Z"/>
        </g>
        <g>
          <polygon class="cls-1" points="131.13 1088.75 62.96 1088.75 79.02 1064.7 120 1064.7 131.13 1088.75"/>
          <circle class="cls-1" cx="59.53" cy="1108.91" r="7.79"/>
          <circle class="cls-1" cx="126.51" cy="1108.91" r="7.79"/>
          <g>
            <path class="cls-2" d="m147.16,1086.34h-5.18c-2.48,0-5.47-1.78-6.66-3.96l-8.54-15.73c-1.18-2.18-4.18-3.96-6.65-3.96h-40.08c-2.48,0-5.74,1.6-7.26,3.57l-12.74,16.52c-1.51,1.96-4.78,3.57-7.25,3.57h-7.01c-7.81,0-12.62,3.73-13.74,11.24l-.45,7.91c0,2.48,2.03,4.51,4.51,4.51h11.09c.55,6.33,5.87,11.31,12.34,11.31s11.79-4.98,12.34-11.31h43.66c.54,5.59,5.25,9.96,10.98,9.96s10.44-4.37,10.98-9.96h9.66c2.48,0,4.5-2.03,4.5-4.51v-14.64c0-2.48-2.03-4.51-4.5-4.51Zm-87.63,28.09c-3.05,0-5.52-2.47-5.52-5.52s2.47-5.52,5.52-5.52,5.52,2.47,5.52,5.52-2.47,5.52-5.52,5.52Zm40.33-28.29h-32.59l1.69-2.2,10.41-13.49c.71-.92,2.68-1.89,3.85-1.89h16.64v17.58Zm5.4,0v-17.58h12.63c.95,0,2.48.91,2.94,1.75l8.11,15.83h-23.68Zm21.25,28.29c-3.05,0-5.52-2.47-5.52-5.52s2.47-5.52,5.52-5.52,5.52,2.47,5.52,5.52-2.47,5.52-5.52,5.52Z"/>
            <path class="cls-2" d="m67.27,1046.75c-5.49,0-9.28,6.02-9.28,14.75,0-8.73-3.79-14.75-9.28-14.75,5.49,0,9.28-6.02,9.28-14.75,0,8.73,3.79,14.75,9.28,14.75Z"/>
            <path class="cls-2" d="m50.76,1058.37c-5.49,0-9.28,6.02-9.28,14.75,0-8.73-3.79-14.75-9.28-14.75,5.49,0,9.28-6.02,9.28-14.75,0,8.73,3.79,14.75,9.28,14.75Z"/>
            <path class="cls-2" d="m159.03,1056.14c-5.49,0-9.28,6.02-9.28,14.75,0-8.73-3.79-14.75-9.28-14.75,5.49,0,9.28-6.02,9.28-14.75,0,8.73,3.79,14.75,9.28,14.75Z"/>
            <path class="cls-2" d="m138.56,1046.75c-5.49,0-9.28,6.02-9.28,14.75,0-8.73-3.79-14.75-9.28-14.75,5.49,0,9.28-6.02,9.28-14.75,0,8.73,3.79,14.75,9.28,14.75Z"/>
          </g>
        </g>
      </g>
      <g>
        <path class="cls-2" d="m90.41,401.45c0-1.19.49-2.39,1.35-3.24.83-.86,2.02-1.35,3.24-1.35s2.39.49,3.24,1.35c1.07,1.07,1.53,2.66,1.26,4.16-.06.28-.15.58-.28.86s-.25.52-.43.8c-.15.24-.34.46-.55.67-.86.86-2.05,1.35-3.24,1.35s-2.42-.49-3.24-1.35c-.21-.21-.43-.43-.58-.67-.15-.28-.31-.52-.43-.8s-.18-.58-.24-.86c-.06-.31-.09-.61-.09-.92Z"/>
        <path class="cls-2" d="m95,414.43c2.54,0,4.59,2.05,4.59,4.59h0c0,2.54-2.05,4.59-4.59,4.59h0c-2.54,0-4.59-2.05-4.59-4.59h0c0-2.54,2.05-4.59,4.59-4.59Z"/>
        <path class="cls-2" d="m90.41,436.56c0-.28.03-.58.09-.89.06-.31.12-.58.24-.86.12-.28.28-.55.43-.8s.37-.49.58-.7c.86-.86,2.02-1.35,3.24-1.35s2.39.49,3.24,1.35c.21.21.4.46.55.7.18.25.3.52.43.8.12.28.22.55.28.86.28,1.5-.18,3.09-1.26,4.13-.86.86-2.05,1.35-3.24,1.35s-2.42-.49-3.24-1.35c-.86-.83-1.35-2.02-1.35-3.24Z"/>
      </g>
      <g>
        <path class="cls-2" d="m90.41,666.68c0-1.19.49-2.39,1.35-3.24.83-.86,2.02-1.35,3.24-1.35s2.39.49,3.24,1.35c1.07,1.07,1.53,2.66,1.26,4.16-.06.28-.15.58-.28.86s-.25.52-.43.8c-.15.24-.34.46-.55.67-.86.86-2.05,1.35-3.24,1.35-1.22,0-2.42-.49-3.24-1.35-.21-.21-.43-.43-.58-.67-.15-.28-.31-.52-.43-.8s-.18-.58-.24-.86c-.06-.31-.09-.61-.09-.92Z"/>
        <path class="cls-2" d="m95,679.66c2.54,0,4.59,2.05,4.59,4.59h0c0,2.54-2.05,4.59-4.59,4.59h0c-2.54,0-4.59-2.05-4.59-4.59h0c0-2.54,2.05-4.59,4.59-4.59Z"/>
        <path class="cls-2" d="m90.41,701.79c0-.28.03-.58.09-.89.06-.31.12-.58.24-.86.12-.28.28-.55.43-.8s.37-.49.58-.7c.86-.86,2.02-1.35,3.24-1.35s2.39.49,3.24,1.35c.21.21.4.46.55.7.18.25.3.52.43.8.12.28.22.55.28.86.28,1.5-.18,3.09-1.26,4.13-.86.86-2.05,1.35-3.24,1.35s-2.42-.49-3.24-1.35c-.86-.83-1.35-2.02-1.35-3.24Z"/>
      </g>
      <g>
        <g>
          <path class="cls-2" d="m90.41,930.68c0-1.19.49-2.39,1.35-3.24.83-.86,2.02-1.35,3.24-1.35,1.19,0,2.39.49,3.24,1.35,1.07,1.07,1.53,2.66,1.26,4.16-.06.28-.15.58-.28.86s-.25.52-.43.8c-.15.24-.34.46-.55.67-.86.86-2.05,1.35-3.24,1.35s-2.42-.49-3.24-1.35c-.21-.21-.43-.43-.58-.67-.15-.28-.31-.52-.43-.8s-.18-.58-.24-.86c-.06-.31-.09-.61-.09-.92Z"/>
          <path class="cls-2" d="m95,943.66c2.54,0,4.59,2.05,4.59,4.59h0c0,2.54-2.05,4.59-4.59,4.59h0c-2.54,0-4.59-2.05-4.59-4.59h0c0-2.54,2.05-4.59,4.59-4.59Z"/>
        </g>
        <path class="cls-2" d="m76.14,953.99c0-.9.34-1.79,1.02-2.47,1.37-1.37,3.58-1.37,4.95,0l12.89,12.88,12.89-12.88c1.37-1.37,3.58-1.37,4.95,0,1.37,1.37,1.37,3.58,0,4.95l-15.36,15.36c-1.37,1.37-3.58,1.37-4.95,0l-15.36-15.36c-.68-.68-1.03-1.58-1.03-2.47Z"/>
      </g>
      <g>
        <path class="cls-4" d="m39.87,122.43c-1.01.64-4.83,3.08-4.83,5.01s2.3,2.39,3.31,2.62c2.16.46,4.46.78,8.37.78,7.41,0,12.65-1.15,16.01-1.93l.51,7.96c-5.15,1.01-10.35,1.43-15.55,1.43-4.88,0-20.29,0-20.29-9.94,0-2.53.97-5.7,7.22-10.08l5.24,4.14Zm16.93-10.49c-2.62-.51-7.22-1.38-14.12-1.38-5.43,0-9.52.46-11.5.69l.32-7.68c2.3-.23,6.12-.55,10.72-.55,7.59,0,12.84.92,15.18,1.33l-.6,7.59Zm1.47-13.66c1.93,2.81,3.13,5.38,4.51,8.79l-3.45,1.89c-1.29-3.63-2.25-5.66-4.28-8.92l3.22-1.75Zm6.16-1.56c1.93,2.76,3.04,5.15,4.51,8.79l-3.45,1.89c-1.29-3.68-2.35-5.94-4.28-8.88l3.22-1.79Z"/>
        <path class="cls-4" d="m89.18,105.96h-11.59v-6.39h37.03v6.44c-3.82,3.13-8.28,5.2-12.79,7.13.28.23,1.2,1.15,1.47,1.43h14.58v6.49c-1.38,1.98-4.55,6.53-10.72,11.64l-5.24-5.29c.97-.64,4.19-2.81,6.99-6.35h-8.97v16.15c0,2.71-1.33,4.65-5.34,4.65h-9.71l-1.7-7.13h7.64c1.75,0,1.75-.32,1.75-1.66v-12.01h-18.26v-6.49h18.63c-3.27-2.71-6.53-4.65-8.05-5.52l4.28-3.08Zm3.17,0c1.79,1.1,3.17,2.12,4.65,3.17,4.05-1.61,5.2-2.58,5.93-3.17h-10.58Z"/>
        <path class="cls-4" d="m130.9,125.83c-.05,1.15-.37,9.48-1.7,13.76l-4.65-2.9c.87-3.17,1.56-7.77,1.52-11.46l4.83.6Zm-5.84-8.23c1.43.05,2.12.05,3.04,0,1.43-1.79,1.84-2.35,2.21-2.81-.41-.55-2.53-3.54-5.61-6.03l3.17-5.61c.55.37.74.51,1.06.78,1.38-2.39,2.02-3.5,3.27-6.03l5.43,1.79c-.55,1.29-1.24,2.9-4.83,8.05.32.41.69.83,1.38,1.66,2.25-3.31,3.27-5.34,4.14-6.99l5.8,2.12c-2.71,4.55-5.89,8.79-9.39,12.74.55-.05,3.45-.18,4.09-.23-.6-1.93-.69-2.21-1.06-3.04l4.55-1.52c1.2,2.12,2.9,7.22,3.54,9.75l-5.43,1.75c-.18-.87-.23-1.2-.37-1.89-.46.09-.83.14-2.21.32v19.32h-5.84v-18.63c-4.05.41-5.2.46-6.67.55l-.28-6.07Zm18.77,7.18c.97,3.73,1.43,8.24,1.56,10.63l-5.57.92c0-.87-.28-7.64-.92-10.72l4.92-.83Zm11.96-26.18c-.28,1.38-.55,2.81-1.43,5.24h13.3c-.28,19.37-.37,28.71-1.38,32.99-.37,1.61-1.61,4.92-5.29,4.92h-10.12l-1.38-6.9h8c1.15,0,1.75,0,2.16-2.07.74-3.63.92-15.04,1.01-22.45h-9.16c-2.02,3.68-3.31,5.06-4.6,6.49l-4.65-5.47c2.94-3.08,5.66-7.77,6.76-13.25l6.76.51Zm-3.5,16.84c1.98,2.62,4.37,6.72,5.7,11l-6.07,3.13c-.83-2.44-2.94-7.87-5.52-11.41l5.89-2.71Z"/>
        <path class="cls-4" d="m196.5,100.99c-.74,4.09-1.01,5.38-1.61,8.05,8.28.05,11.82,3.5,11.82,12.93,0,15.96-4.97,17.53-10.49,17.53-.6,0-2.81,0-5.61-.64l.05-7.22c1.38.46,2.85.74,4.32.74,2.48,0,3.13-1.15,3.45-2.35.74-2.53.92-6.62.92-8.51,0-5.15-1.2-5.89-6.12-5.66-3.22,11.87-6.53,18.91-9.94,24.47l-6.3-4.09c5.24-8.42,7.5-15.5,8.69-19.51-3.73.51-4.97.74-7.87,1.24l-.87-7.04,10.44-1.24c.6-2.71,1.01-4.69,1.7-9.98l7.41,1.29Zm14.12,25.9c-.23-3.68-.83-11.96-7.36-18.82l5.52-3.77c7.73,7.78,8.65,16.79,8.88,20.33l-7.04,2.25Z"/>
        <path class="cls-4" d="m238.36,108.16c-.97,3.82-1.29,5.29-2.21,9.66,1.52-.78,6.39-3.36,12.74-3.36,8.14,0,13.62,4.33,13.62,11.36,0,5.98-3.82,10.12-8.79,11.87-1.66.55-5.43,1.75-12.79,1.75-3.77,0-5.98-.28-7.68-.51l-1.38-7.45c2.12.37,5.34.92,9.62.92,2.53,0,13.48,0,13.48-6.67,0-4.51-5.2-4.51-6.44-4.51-1.38,0-8.1,0-15.04,6.21l-5.89-1.75c.55-3.77,1.47-10.03,3.59-19.09l7.18,1.56Zm14.68,1.98c-7.91-2.94-13.62-3.82-18.91-4.42l2.39-6.3c4.14.41,10.49,1.2,19.05,4.09l-2.53,6.62Z"/>
        <path class="cls-4" d="m289.19,112.44v-14.4h7.31v14.4h9.02l-5.66-3.54c2.71-3.08,5.29-7.22,6.85-10.63l7.04,3.13c-1.75,3.31-5.06,8.33-7.59,11.04h6.72v27.97h-41.86v-6.76h34.87v-4.14h-32.71v-6.39h32.71v-4.05h-34.32v-6.62h7.77c-2.44-4.46-4.05-7.22-6.81-10.35l6.26-3.73c2.62,2.94,5.38,6.99,7.18,10.54l-5.98,3.54h9.2Z"/>
        <path class="cls-4" d="m361.78,99.88v40.44h-37.08v-40.44h37.08Zm-29.86,16.56h22.5v-9.71h-22.5v9.71Zm0,6.72v10.31h22.5v-10.31h-22.5Z"/>
        <path class="cls-4" d="m387.85,99.61h7.22l.05,5.11c8.33-.09,8.46-.09,14.17-.37l-.05,6.76c-4.69.09-5.66.14-14.08.23l.05,2.76c5.29-.14,6.58-.18,12.19-.51v6.67c-5.38.23-5.8.23-12.15.37v4.19c6.21,1.61,10.81,4.32,13.43,5.93l-3.4,6.95c-4.37-3.17-7.77-4.65-10.12-5.61-.23,7.36-7.31,7.82-10.21,7.82-6.99,0-11-3.45-11-8.14,0-3.77,2.76-8.14,12.01-8.14.97,0,1.61.05,2.07.05l-.05-2.94c-6.03.09-6.72.09-13.43.05l.05-6.72c5.38.18,6.21.18,13.34.14v-2.76c-7.22.05-8.19.05-14.95,0l.05-6.81c6.53.18,7.77.18,14.86.18l-.05-5.2Zm-2.62,30.18c-3.04,0-4.65.74-4.65,2.07s1.89,1.84,3.68,1.84c3.68,0,3.68-1.47,3.73-3.73-.92-.14-1.79-.18-2.76-.18Z"/>
        <path class="cls-4" d="m457.32,102l.6,7.36c-3.31.05-7.87.18-12.74,2.94-2.35,1.29-7.91,4.97-7.91,11.09,0,7.5,9.2,9.06,13.71,9.38l-3.45,7.27c-11.32-1.33-17.94-7.31-17.94-16.01s5.57-12.38,8.37-14.31l-19.23,2.48-.55-7.68c2.02-.05,6.16-.09,8.42-.28l30.73-2.25Zm-8.33,12.56c1.89,2.25,3.36,4.74,5.24,8.6l-4.05,2.35c-1.56-3.59-2.81-5.8-5.06-8.74l3.86-2.21Zm6.3-3.36c2.53,2.99,4.23,6.16,5.38,8.46l-4.09,2.25c-1.75-3.73-2.85-5.66-5.2-8.65l3.91-2.07Z"/>
        <path class="cls-4" d="m488.41,133.42c5.06-1.56,12.15-4.78,12.15-13.66,0-2.21-.37-9.62-9.02-11.36-.69,4.83-1.89,13.11-5.24,20.93-1.84,4.23-4.14,7.68-8.19,7.68-5.2,0-10.35-6.44-10.35-15.23,0-11.64,8.74-20.29,21.07-20.29,11.36,0,19.32,7.31,19.32,18.36,0,14.49-12.61,18.72-15.32,19.64l-4.42-6.07Zm-13.53-11.41c0,4.19,1.56,7.18,2.94,7.18,1.1,0,2.25-3.22,2.81-4.78,2.35-6.76,3.22-12.97,3.59-15.6-6.35,2.02-9.34,7.45-9.34,13.2Z"/>
        <path class="cls-4" d="m519.64,110.19c2.76,1.29,5.15,2.76,7.5,4.79l-4,5.47c-2.07-1.93-5.57-4-7.41-4.97l3.91-5.29Zm8.56,15.73c-1.24,3.73-4.19,11.22-7.22,15.73l-5.2-5.24c2.9-3.91,5.57-10.21,6.95-14.12l5.47,3.63Zm-7.36-27.47c1.79.74,4.74,2.02,7.36,4.37l-3.82,5.7c-2.9-2.58-6.26-4.28-7.36-4.83l3.82-5.25Zm16.52,21.71c-.09,9.94-1.1,16.29-7.22,21.76l-5.47-4.79c4.46-3.36,6.39-6.44,6.58-16.98h6.12Zm17.34.51c-.51-.97-1.06-1.98-2.02-3.63-6.81.97-21.35,1.56-23.09,1.66l-.87-6.49c.46,0,4.46-.05,5.2-.05,1.2-2.9,1.52-3.91,1.89-5.15h-7.31v-6.03h12.15v-2.94h6.95v2.94h12.51v6.03h-7.22c3.86,3.82,6.67,8.74,7.77,10.72l-5.94,2.94Zm-9.15-.18v20.01h-5.84v-20.01h5.84Zm6.95-13.48h-9.48c-.55,1.38-1.2,3.04-2.16,5.06,1.29-.05,6.99-.32,8.14-.37-.46-.6-.69-.87-1.84-2.25l5.34-2.44Zm1.52,13.02v14.08c0,.37,0,.87.55.87,1.15,0,1.2,0,1.33-.64.05-.37.14-2.85.14-5.06l4.6,1.47c-.05,3.36-.55,7.18-.78,8.24-.18.69-.64,2.53-3.59,2.53h-5.29c-1.52,0-3.13-1.15-3.13-3.08v-18.4h6.16Z"/>
        <path class="cls-4" d="m568.95,107.8c2.16,0,5.38-.09,7.54-.37l.09-7.5h7.13c-.14,2.9-.23,4.88-.32,11,2.71-2.62,6.35-5.89,11.55-5.89,4.51,0,9.11,2.71,9.11,8.46,0,2.39-1.56,12.79-1.56,14.95,0,.28,0,1.61,1.06,1.61,1.52,0,4.09-2.3,4.6-2.76l1.79,6.85c-2.44,2.02-5.15,3.5-8.33,3.5-4.09,0-6.76-2.44-6.76-7.04,0-2.12.37-4.74,1.01-9.57.69-5.15.69-5.29.69-6.39,0-2.67-2.3-2.67-2.53-2.67-2.35,0-4.78,1.52-8.24,5.01-.32.32-1.38,1.38-2.53,2.71-.05,9.43-.05,10.44.09,20.15h-7.13l.09-10.86c-.97,1.43-1.84,2.81-3.77,5.84l-5.38-4.65c1.01-1.38,4.97-6.81,9.25-12.7l.05-3.08c-3.08.46-5.57.64-6.76.74l-.74-7.36Z"/>
      </g>
      <g>
        <rect class="cls-2" x="231.28" width="172" height="62" rx="9.99" ry="9.99"/>
        <g>
          <path class="cls-3" d="m276.27,48.17v-7.22h-15.78v-6.39l15.96-23.37h7.5v22.91h4.42v6.85h-4.42v7.22h-7.68Zm-8.14-14.08h8.14v-12.15l-8.14,12.15Z"/>
          <path class="cls-1" d="m307.62,29.84c-1.68-1.08-3.3-1.62-4.77-1.62-1.95,0-3.12,1.11-3.12,2.52,0,1.59,1.08,2.1,3.06,2.76,4.2,1.38,7.23,2.88,7.23,7.44,0,4.29-3.39,7.71-8.82,7.71-2.73,0-5.19-.75-7.53-2.22l1.5-4.53c2.01,1.44,4.02,2.1,5.85,2.1,2.07,0,3.9-.93,3.9-2.7,0-1.56-1.14-2.37-3.99-3.36-3.42-1.17-6.27-2.73-6.27-6.93s3.24-7.44,8.04-7.44c2.52,0,4.41.78,6.09,1.71l-1.17,4.56Z"/>
          <path class="cls-1" d="m326.1,48.17h-5.07v-19.47h-7.29v-4.65h19.65v4.65h-7.29v19.47Z"/>
          <path class="cls-1" d="m352.64,33.47v4.53h-9.72v5.52h11.01v4.65h-16.08v-24.12h15.69v4.65h-10.62v4.77h9.72Z"/>
          <path class="cls-1" d="m366.59,24.05c4.86,0,8.04,3.06,8.04,7.74s-3.24,7.5-8.49,7.5h-2.22v8.88h-5.07v-24.12h7.74Zm-1.02,10.59c1.8,0,3.99,0,3.99-2.91,0-2.58-1.53-3.03-3.99-3.03h-1.65v5.94h1.65Z"/>
        </g>
      </g>
    </g>
  </g>
</svg>